<svg width="47" height="44" viewBox="0 0 47 44" fill="none" xmlns="http://www.w3.org/2000/svg">
<path d="M10.2812 20.625H39.6562C40.0458 20.625 40.4194 20.7699 40.6948 21.0277C40.9703 21.2856 41.125 21.6353 41.125 22C41.125 22.3647 40.9703 22.7144 40.6948 22.9723C40.4194 23.2301 40.0458 23.375 39.6562 23.375H10.2812C9.89171 23.375 9.51813 23.2301 9.24269 22.9723C8.96724 22.7144 8.8125 22.3647 8.8125 22C8.8125 21.6353 8.96724 21.2856 9.24269 21.0277C9.51813 20.7699 9.89171 20.625 10.2812 20.625Z" fill="black"/>
<path d="M10.889 21.9998L23.0708 33.4013C23.3466 33.6595 23.5015 34.0096 23.5015 34.3748C23.5015 34.7399 23.3466 35.0901 23.0708 35.3483C22.795 35.6065 22.421 35.7515 22.0309 35.7515C21.6409 35.7515 21.2669 35.6065 20.9911 35.3483L7.77232 22.9733C7.63554 22.8456 7.52702 22.6938 7.45298 22.5268C7.37893 22.3597 7.34082 22.1806 7.34082 21.9998C7.34082 21.8189 7.37893 21.6398 7.45298 21.4728C7.52702 21.3057 7.63554 21.154 7.77232 21.0263L20.9911 8.65128C21.2669 8.3931 21.6409 8.24805 22.0309 8.24805C22.421 8.24805 22.795 8.3931 23.0708 8.65128C23.3466 8.90947 23.5015 9.25965 23.5015 9.62478C23.5015 9.98992 23.3466 10.3401 23.0708 10.5983L10.889 21.9998Z" fill="black"/>
</svg>
