<svg width="32" height="31" viewBox="0 0 32 31" fill="none" xmlns="http://www.w3.org/2000/svg">
<path d="M0 25.9936C0 28.5929 2.08 30.5807 4.8 30.5807H27.2C29.92 30.5807 32 28.5929 32 25.9936V13.7613H0V25.9936ZM27.2 3.05807H24V1.52903C24 0.611614 23.36 0 22.4 0C21.44 0 20.8 0.611614 20.8 1.52903V3.05807H11.2V1.52903C11.2 0.611614 10.56 0 9.6 0C8.64 0 8 0.611614 8 1.52903V3.05807H4.8C2.08 3.05807 0 5.04581 0 7.64517V10.7032H32V7.64517C32 5.04581 29.92 3.05807 27.2 3.05807Z" fill="#0954B0"/>
</svg>
