<svg width="32" height="32" viewBox="0 0 32 32" fill="none" xmlns="http://www.w3.org/2000/svg">
<path d="M21.744 16.6393V23.1514C21.744 23.7275 21.68 24.2715 21.536 24.7675C20.944 27.1195 18.992 28.5915 16.304 28.5915H11.952L7.12 31.8076C6.4 32.3036 5.44 31.7756 5.44 30.9116V28.5915C3.808 28.5915 2.448 28.0475 1.504 27.1035C0.544 26.1435 0 24.7835 0 23.1514V16.6393C0 13.5993 1.888 11.5032 4.8 11.2312C5.008 11.2152 5.216 11.1992 5.44 11.1992H16.304C19.568 11.1992 21.744 13.3753 21.744 16.6393Z" fill="black"/>
<path d="M25.1998 21.7604C27.2318 21.7604 28.9438 21.0884 30.1278 19.8884C31.3278 18.7044 31.9998 16.9923 31.9998 14.9603V6.80013C31.9998 3.04006 28.9598 0 25.1998 0H11.5998C7.8398 0 4.7998 3.04006 4.7998 6.80013V8.00015C4.7998 8.44816 5.1518 8.80017 5.5998 8.80017H16.3038C20.6398 8.80017 24.1438 12.3042 24.1438 16.6403V20.9604C24.1438 21.4084 24.4958 21.7604 24.9438 21.7604H25.1998Z" fill="black"/>
</svg>
