<svg width="208" height="251" viewBox="0 0 208 251" fill="none" xmlns="http://www.w3.org/2000/svg">
<path d="M180.462 248.517C171.92 250.015 163.377 250.08 154.834 248.647V248.712C151.204 249.168 147.573 248.256 144.085 247.214C142.234 246.628 140.241 245.911 139.102 244.413C137.892 242.784 138.034 240.57 138.675 238.681L138.817 238.485C137.678 235.619 137.108 232.688 137.037 229.627C136.966 226.565 137.393 223.634 138.39 220.703L138.176 220.638C137.892 220.507 137.678 220.377 137.464 220.182C137.251 219.986 137.037 219.791 136.895 219.53C136.753 219.27 136.61 219.074 136.539 218.814C136.468 218.553 136.468 218.293 136.468 218.032C136.539 217.511 136.681 216.99 136.966 216.469C137.251 215.948 137.607 215.557 138.105 215.231C139.031 214.515 140.027 213.994 141.166 213.603C144.726 212.3 148.427 211.323 152.272 210.802C153.909 210.541 155.546 210.346 157.112 210.737C158.679 211.193 160.102 212.43 160.102 213.928C160.102 215.036 159.319 216.078 158.394 216.794L158.536 217.055L160.174 222.592C160.245 222.852 160.316 223.048 160.458 223.243C160.814 223.634 161.384 223.699 161.953 223.764C164.018 224.025 165.869 224.806 167.435 226.044L167.791 226.174C168.36 225.393 169.072 224.611 169.784 223.894C170.496 223.178 171.279 222.527 172.133 221.875C172.987 221.289 173.842 220.703 174.767 220.247C175.693 219.791 176.689 219.335 177.686 219.009C178.682 218.683 179.679 218.358 180.747 218.162C181.815 217.967 182.811 217.837 183.879 217.772C184.947 217.706 186.015 217.706 187.083 217.837C188.151 217.902 189.218 218.097 190.215 218.358C191.283 218.618 192.279 218.944 193.276 219.27C194.273 219.661 195.198 220.116 196.124 220.638C197.049 221.159 197.903 221.745 198.686 222.396C199.469 223.048 200.253 223.699 200.964 224.481C201.676 225.197 202.317 225.979 202.815 226.826C203.385 227.672 203.883 228.519 204.31 229.431C204.737 230.343 205.093 231.255 205.307 232.232C205.592 233.209 205.734 234.121 205.876 235.098L206.09 235.228C206.232 235.684 206.375 236.14 206.446 236.596C206.517 237.052 206.446 237.508 206.375 237.964C206.304 238.42 206.09 238.876 205.876 239.267C205.663 239.658 205.378 240.049 205.022 240.44C204.097 241.351 202.744 241.873 201.463 242.394C194.842 244.999 188.008 247.018 180.96 248.517H180.462Z" fill="#0954B0"/>
<path d="M157.33 218.358C159.821 217.251 162.242 214.84 160.818 212.17C159.252 209.304 155.336 209.369 152.418 209.76C149.001 210.151 145.655 210.997 142.523 212.17C139.746 213.212 136.116 214.58 135.76 217.772C135.404 220.963 139.034 222.201 141.882 222.462C142.95 222.592 142.95 221.029 141.882 220.963C140.173 220.833 137.468 220.247 137.397 218.293C137.255 215.752 140.672 214.58 142.736 213.733C145.37 212.691 148.146 211.974 150.923 211.518C152.347 211.258 153.699 211.128 155.194 211.062C156.475 211.062 157.828 211.258 158.753 212.04C158.967 212.17 159.181 212.365 159.323 212.626C159.465 212.821 159.608 213.082 159.679 213.342C159.75 213.603 159.75 213.863 159.75 214.124C159.75 214.384 159.679 214.645 159.537 214.84C158.967 215.948 157.828 216.664 156.689 217.12C155.621 217.511 156.404 218.814 157.33 218.358Z" fill="black"/>
<path d="M152.699 219.27L149.211 220.507C149.069 220.507 148.997 220.573 148.926 220.638C148.855 220.703 148.784 220.768 148.713 220.833C148.642 220.898 148.642 221.028 148.57 221.094C148.57 221.224 148.57 221.289 148.57 221.419C148.57 221.55 148.642 221.615 148.713 221.68C148.784 221.745 148.855 221.81 148.997 221.875C149.069 221.94 149.211 221.94 149.282 221.94C149.425 221.94 149.496 221.94 149.638 221.875L153.126 220.638C153.34 220.573 153.482 220.442 153.625 220.312C153.696 220.117 153.767 219.921 153.696 219.726C153.625 219.53 153.482 219.4 153.34 219.27C153.126 219.27 152.913 219.27 152.699 219.27Z" fill="black"/>
<path d="M157.897 217.315L159.819 223.178C160.104 224.09 161.67 223.699 161.385 222.787L159.463 216.925C159.178 216.013 157.612 216.403 157.897 217.315Z" fill="black"/>
<path d="M137.322 221.354C136.468 224.155 136.112 227.086 136.325 230.017C136.468 232.949 137.037 235.815 138.105 238.616C138.461 239.528 140.027 239.137 139.671 238.225C137.678 233.079 137.179 227.086 138.888 221.81C139.173 220.833 137.607 220.442 137.322 221.354Z" fill="black"/>
<path d="M159.603 224.285C160.315 224.155 160.956 224.155 161.667 224.22C162.379 224.285 163.02 224.416 163.732 224.676C164.373 224.872 165.013 225.197 165.583 225.588C166.152 225.979 166.651 226.435 167.078 226.891C167.22 227.021 167.434 227.086 167.647 227.086C167.861 227.086 168.074 227.021 168.217 226.891C168.359 226.761 168.43 226.565 168.43 226.37C168.43 226.174 168.359 225.979 168.217 225.849C167.647 225.263 167.078 224.741 166.366 224.285C165.654 223.829 164.942 223.504 164.159 223.243C163.376 222.983 162.522 222.852 161.667 222.787C160.813 222.722 159.959 222.787 159.176 222.918C159.033 222.918 158.962 222.983 158.891 223.048C158.82 223.113 158.749 223.178 158.678 223.243C158.606 223.308 158.606 223.439 158.535 223.504C158.535 223.634 158.535 223.699 158.535 223.829C158.535 223.96 158.606 224.025 158.678 224.09C158.749 224.155 158.82 224.22 158.962 224.285C159.033 224.351 159.176 224.351 159.247 224.351C159.389 224.351 159.532 224.351 159.603 224.285Z" fill="black"/>
<path d="M205.735 230.278C205.094 228.78 204.311 227.412 203.386 226.109C202.46 224.806 201.321 223.569 200.04 222.527C198.758 221.419 197.406 220.507 195.911 219.726C194.416 218.944 192.85 218.293 191.212 217.837C184.449 216.013 177.259 217.511 171.778 221.484C170.212 222.592 168.859 223.894 167.72 225.328C166.581 226.761 165.585 228.324 164.944 230.017C164.588 230.929 166.154 231.32 166.51 230.408C168.788 224.937 174.127 220.768 180.249 219.205C186.443 217.641 193.134 219.139 198.046 222.852C200.894 224.937 202.958 227.542 204.24 230.669C204.525 231.581 206.091 231.19 205.735 230.278Z" fill="black"/>
<path d="M204.169 230.669C204.739 232.167 205.237 233.991 204.24 235.424C203.244 236.857 201.25 237.638 199.613 238.29C194.416 240.309 189.148 242.003 183.809 243.501C173.914 246.106 163.449 247.149 153.483 244.608C148.286 243.305 143.588 241.091 139.53 237.834C138.747 237.182 137.608 238.29 138.391 238.876C146.008 244.999 156.331 247.67 166.297 247.539C177.901 247.409 189.148 243.827 199.755 239.853C201.962 239.006 204.312 238.094 205.664 236.271C207.017 234.512 206.518 232.167 205.806 230.278C205.451 229.366 203.813 229.757 204.169 230.669Z" fill="black"/>
<path d="M154.266 246.562C154.622 247.148 154.052 247.735 153.483 247.93C152.629 248.256 151.49 248.06 150.564 247.995C148.429 247.8 146.364 247.344 144.371 246.758C142.591 246.171 140.883 245.325 139.815 243.892C139.53 243.566 139.316 243.175 139.174 242.719C139.032 242.328 138.889 241.872 138.889 241.481C138.818 241.025 138.889 240.635 138.96 240.179C139.032 239.723 139.174 239.332 139.388 238.941C139.886 238.094 138.462 237.313 137.964 238.159C137.537 238.941 137.252 239.853 137.252 240.765C137.181 241.677 137.394 242.524 137.75 243.37C138.462 244.934 139.672 246.171 141.238 247.018C143.018 247.93 144.94 248.581 146.934 248.907C148.001 249.103 149.069 249.298 150.208 249.428C151.205 249.559 152.13 249.624 153.127 249.559C153.625 249.493 154.124 249.363 154.551 249.168C154.978 248.907 155.334 248.647 155.619 248.256C155.903 247.865 156.046 247.474 156.046 247.018C156.046 246.562 155.974 246.171 155.69 245.781C155.191 244.999 153.768 245.715 154.266 246.562Z" fill="black"/>
<path d="M146.761 215.938C150.89 201.021 143.984 183.304 130.601 173.924C127.967 172.1 125.404 176.204 127.967 177.963C133.448 181.741 137.435 187.798 139.927 193.531C142.917 200.37 143.771 207.535 141.778 214.635C140.994 217.632 145.906 218.869 146.761 215.938Z" fill="black"/>
<mask id="mask0_2803_23169" style="mask-type:luminance" maskUnits="userSpaceOnUse" x="153" y="233" width="55" height="18">
<path d="M207.656 233.795H153.197V250.731H207.656V233.795Z" fill="white"/>
</mask>
<g mask="url(#mask0_2803_23169)">
<path d="M204.878 235.359C205.945 236.141 205.874 237.639 205.233 238.681C204.379 239.984 202.671 240.7 201.176 241.352C197.687 242.85 194.128 244.218 190.426 245.26C183.094 247.54 175.548 248.712 167.86 248.843C163.517 248.908 159.246 248.517 154.974 247.735C153.978 247.54 153.48 248.973 154.547 249.168C162.663 250.666 170.849 250.731 178.965 249.364C187.152 248.061 194.911 245.716 202.386 242.394C204.166 241.612 206.088 240.57 206.942 238.746C207.654 237.248 207.511 235.294 206.017 234.186C205.233 233.731 204.023 234.773 204.878 235.359Z" fill="black"/>
</g>
<path d="M150.421 229.692C152.272 227.933 154.407 226.565 156.757 225.458C156.899 225.393 157.041 225.263 157.113 225.067C157.184 224.872 157.113 224.741 157.041 224.546C156.97 224.416 156.828 224.285 156.614 224.22C156.401 224.155 156.258 224.22 156.045 224.285C153.553 225.393 151.346 226.891 149.424 228.715C148.784 229.366 149.78 230.278 150.421 229.692Z" fill="black"/>
<path d="M165.084 233.535C165.298 233.535 165.44 233.47 165.582 233.34C165.725 233.209 165.796 233.079 165.796 232.884C165.796 232.688 165.725 232.558 165.582 232.428C165.44 232.297 165.298 232.232 165.084 232.232C164.87 232.232 164.728 232.297 164.586 232.428C164.443 232.558 164.372 232.688 164.372 232.884C164.372 233.079 164.443 233.209 164.586 233.34C164.728 233.47 164.87 233.535 165.084 233.535Z" fill="black"/>
<path d="M58.9776 214.685C54.8487 199.769 61.7539 182.051 75.1373 172.671C77.7713 170.847 80.3341 174.951 77.7713 176.71C72.2898 180.488 68.3032 186.546 65.8116 192.278C62.8217 199.117 61.9675 206.282 63.9608 213.382C64.7438 216.379 59.8318 217.616 58.9776 214.685Z" fill="black"/>
<path d="M27.5378 246.211C36.0804 247.709 44.623 247.774 53.1656 246.341V246.406C56.7962 246.862 60.4268 245.95 63.9151 244.908C65.766 244.322 67.7592 243.605 68.8982 242.107C70.1085 240.479 69.9661 238.264 69.3254 236.375L69.183 236.18C70.322 233.314 70.8915 230.382 70.9627 227.321C71.0339 224.259 70.6068 221.328 69.6101 218.397L69.8237 218.332C70.1085 218.202 70.322 218.071 70.5356 217.876C70.7492 217.681 70.9627 217.485 71.1051 217.225C71.2475 216.964 71.3898 216.769 71.461 216.508C71.5322 216.248 71.5322 215.987 71.5322 215.726C71.461 215.205 71.3187 214.684 71.0339 214.163C70.7491 213.642 70.3932 213.251 69.8949 212.925C68.9694 212.209 67.9728 211.688 66.8338 211.297C63.2744 209.994 59.5726 209.017 55.7284 208.496C54.0911 208.236 52.4537 208.04 50.8876 208.431C49.3215 208.887 47.8977 210.125 47.8977 211.623C47.8977 212.73 48.6807 213.772 49.6062 214.489L49.4638 214.749L47.8265 220.286C47.7553 220.547 47.6841 220.742 47.5417 220.937C47.1858 221.328 46.6163 221.393 46.0468 221.459C43.9823 221.719 42.1314 222.501 40.5653 223.738L40.2093 223.869C39.6398 223.087 38.9279 222.305 38.2161 221.589C37.5042 220.872 36.7211 220.221 35.8669 219.57C35.0126 218.983 34.1583 218.397 33.2329 217.941C32.3074 217.485 31.3108 217.029 30.3142 216.703C29.3175 216.378 28.3209 216.052 27.2531 215.857C26.1852 215.661 25.1886 215.531 24.1208 215.466C23.0529 215.401 21.9851 215.401 20.9173 215.531C19.8495 215.596 18.7817 215.792 17.785 216.052C16.7172 216.313 15.7205 216.638 14.7239 216.964C13.7273 217.355 12.8018 217.811 11.8764 218.332C10.9509 218.853 10.0967 219.439 9.3136 220.091C8.53053 220.742 7.74745 221.393 7.03557 222.175C6.32368 222.892 5.68298 223.673 5.18467 224.52C4.61516 225.367 4.11684 226.214 3.6897 227.126C3.26257 228.037 2.90664 228.949 2.69308 229.926C2.40832 230.904 2.26595 231.815 2.12357 232.793L1.91 232.923C1.76762 233.379 1.62524 233.835 1.55405 234.291C1.48286 234.747 1.55406 235.203 1.62524 235.659C1.69643 236.115 1.91001 236.571 2.12357 236.961C2.33714 237.352 2.62188 237.743 2.97782 238.134C3.90327 239.046 5.25585 239.567 6.53724 240.088C13.1578 242.694 19.9919 244.713 27.0395 246.211H27.5378Z" fill="#0954B0"/>
<path d="M50.6761 216.052C48.1846 214.945 45.7642 212.535 47.1879 209.864C48.7541 206.998 52.6694 207.063 55.5882 207.454C59.0052 207.845 62.351 208.691 65.4833 209.864C68.2597 210.906 71.8903 212.274 72.2462 215.466C72.6022 218.657 68.9716 219.895 66.124 220.156C65.0562 220.286 65.0562 218.723 66.124 218.658C67.8325 218.527 70.5377 217.941 70.6089 215.987C70.7513 213.446 67.3342 212.274 65.2698 211.427C62.6358 210.385 59.8594 209.668 57.0831 209.213C55.6593 208.952 54.3067 208.822 52.8118 208.757C51.5304 208.757 50.1778 208.952 49.2524 209.734C49.0388 209.864 48.8253 210.059 48.6829 210.32C48.5405 210.515 48.3981 210.776 48.3269 211.036C48.2557 211.297 48.2557 211.557 48.2557 211.818C48.2557 212.079 48.3269 212.339 48.4693 212.535C49.0388 213.642 50.1778 214.358 51.3169 214.814C52.3847 215.205 51.6016 216.508 50.6761 216.052Z" fill="black"/>
<path d="M55.3027 216.964L58.7909 218.202C58.9333 218.202 59.0045 218.267 59.0757 218.332C59.1469 218.397 59.2181 218.462 59.2893 218.527C59.3604 218.593 59.3605 218.723 59.4316 218.788C59.4316 218.918 59.4316 218.983 59.4316 219.114C59.4316 219.244 59.3604 219.309 59.2893 219.374C59.2181 219.439 59.1469 219.504 59.0045 219.57C58.9333 219.635 58.7909 219.635 58.7198 219.635C58.5774 219.635 58.5062 219.635 58.3638 219.57L54.8756 218.332C54.662 218.267 54.5196 218.137 54.3773 218.006C54.3061 217.811 54.2349 217.615 54.3061 217.42C54.3773 217.225 54.5196 217.094 54.662 216.964C54.8756 216.964 55.0891 216.964 55.3027 216.964Z" fill="black"/>
<path d="M50.1091 215.01L48.187 220.872C47.9023 221.784 46.3361 221.393 46.6209 220.482L48.543 214.619C48.8277 213.707 50.3939 214.098 50.1091 215.01Z" fill="black"/>
<path d="M70.6782 219.048C71.5324 221.849 71.8884 224.781 71.6748 227.712C71.5324 230.643 70.9629 233.509 69.8951 236.31C69.5392 237.222 67.973 236.831 68.329 235.919C70.3222 230.773 70.8206 224.781 69.112 219.504C68.8273 218.527 70.3934 218.137 70.6782 219.048Z" fill="black"/>
<path d="M48.399 221.98C47.6871 221.849 47.0464 221.849 46.3345 221.914C45.6226 221.98 44.9819 222.11 44.27 222.37C43.6293 222.566 42.9887 222.891 42.4192 223.282C41.8496 223.673 41.3513 224.129 40.9242 224.585C40.7818 224.715 40.5682 224.78 40.3547 224.78C40.1411 224.78 39.9276 224.715 39.7852 224.585C39.6428 224.455 39.5716 224.259 39.5716 224.064C39.5716 223.869 39.6428 223.673 39.7852 223.543C40.3547 222.957 40.9242 222.435 41.6361 221.98C42.348 221.524 43.0598 221.198 43.8429 220.937C44.626 220.677 45.4803 220.547 46.3345 220.481C47.1888 220.416 48.043 220.481 48.8261 220.612C48.9685 220.612 49.0397 220.677 49.1109 220.742C49.182 220.807 49.2532 220.872 49.3244 220.937C49.3956 221.002 49.3956 221.133 49.4668 221.198C49.4668 221.328 49.4668 221.393 49.4668 221.524C49.4668 221.654 49.3956 221.719 49.3244 221.784C49.2532 221.849 49.182 221.914 49.0397 221.98C48.9685 222.045 48.8261 222.045 48.7549 222.045C48.6125 222.045 48.4702 222.045 48.399 221.98Z" fill="black"/>
<path d="M2.2691 227.972C2.9098 226.474 3.69288 225.106 4.61833 223.804C5.54378 222.501 6.68278 221.263 7.96417 220.221C9.24556 219.114 10.5982 218.202 12.0931 217.42C13.5881 216.638 15.1542 215.987 16.7915 215.531C23.5544 213.707 30.7445 215.205 36.226 219.179C37.7921 220.286 39.1447 221.589 40.2837 223.022C41.4227 224.455 42.4194 226.018 43.06 227.712C43.416 228.624 41.8498 229.015 41.4939 228.103C39.2159 222.631 33.8767 218.462 27.7546 216.899C21.5612 215.336 14.8695 216.834 9.95746 220.547C7.10992 222.631 5.04545 225.237 3.76406 228.363C3.47931 229.275 1.91316 228.884 2.2691 227.972Z" fill="black"/>
<path d="M3.83669 228.363C3.26718 229.861 2.76886 231.685 3.7655 233.118C4.76214 234.551 6.75541 235.333 8.39274 235.984C13.5895 238.003 18.8574 239.697 24.1966 241.195C34.0917 243.801 44.5564 244.843 54.5228 242.303C59.7196 241 64.418 238.785 68.4757 235.528C69.2588 234.877 70.3978 235.984 69.6147 236.57C61.9976 242.693 51.6753 245.364 41.7089 245.234C30.1052 245.103 18.8574 241.521 8.25038 237.547C6.04354 236.701 3.69431 235.789 2.34173 233.965C0.989151 232.206 1.48749 229.861 2.19937 227.972C2.55531 227.06 4.19263 227.451 3.83669 228.363Z" fill="black"/>
<path d="M53.7399 244.257C53.384 244.843 53.9535 245.429 54.523 245.625C55.3773 245.95 56.5163 245.755 57.4417 245.69C59.5774 245.494 61.6418 245.038 63.6351 244.452C65.4148 243.866 67.1233 243.019 68.1912 241.586C68.4759 241.26 68.6895 240.87 68.8318 240.414C68.9742 240.023 69.1166 239.567 69.1166 239.176C69.1878 238.72 69.1166 238.329 69.0454 237.873C68.9742 237.417 68.8319 237.026 68.6183 236.636C68.12 235.789 69.5437 235.007 70.0421 235.854C70.4692 236.636 70.7539 237.548 70.7539 238.459C70.8251 239.371 70.6116 240.218 70.2556 241.065C69.5437 242.628 68.3335 243.866 66.7674 244.713C64.9877 245.625 63.0656 246.276 61.0723 246.602C60.0045 246.797 58.9367 246.993 57.7976 247.123C56.801 247.253 55.8756 247.318 54.8789 247.253C54.3806 247.188 53.8823 247.058 53.4552 246.862C53.028 246.602 52.6721 246.341 52.3873 245.95C52.1026 245.56 51.9602 245.169 51.9602 244.713C51.9602 244.257 52.0314 243.866 52.3162 243.475C52.8145 242.693 54.2382 243.41 53.7399 244.257Z" fill="black"/>
<mask id="mask1_2803_23169" style="mask-type:luminance" maskUnits="userSpaceOnUse" x="0" y="231" width="55" height="18">
<path d="M0.343643 231.49H54.8027V248.426H0.343643V231.49Z" fill="white"/>
</mask>
<g mask="url(#mask1_2803_23169)">
<path d="M3.12249 233.053C2.05466 233.835 2.12585 235.333 2.76654 236.375C3.6208 237.678 5.32933 238.394 6.82429 239.046C10.3125 240.544 13.8719 241.912 17.5737 242.954C24.9061 245.234 32.4521 246.406 40.1404 246.537C44.4829 246.602 48.7542 246.211 53.0255 245.429C54.0222 245.234 54.5205 246.667 53.4527 246.862C45.3372 248.36 37.1505 248.426 29.035 247.058C20.8484 245.755 13.0889 243.41 5.61408 240.088C3.83437 239.306 1.91229 238.264 1.05803 236.44C0.346146 234.942 0.488514 232.988 1.98347 231.881C2.76654 231.425 3.97675 232.467 3.12249 233.053Z" fill="black"/>
</g>
<path d="M57.5849 227.386C55.734 225.628 53.5984 224.26 51.2492 223.152C51.1068 223.087 50.9644 222.957 50.8932 222.761C50.822 222.566 50.8932 222.436 50.9644 222.24C51.0356 222.11 51.178 221.98 51.3915 221.915C51.6051 221.85 51.7475 221.915 51.9611 221.98C54.4527 223.087 56.6595 224.585 58.5816 226.409C59.2223 227.061 58.2256 227.973 57.5849 227.386Z" fill="black"/>
<path d="M42.918 231.229C42.7044 231.229 42.5621 231.164 42.4197 231.034C42.2773 230.904 42.2061 230.773 42.2061 230.578C42.2061 230.382 42.2773 230.252 42.4197 230.122C42.5621 229.992 42.7044 229.927 42.918 229.927C43.1316 229.927 43.2739 229.992 43.4163 230.122C43.5587 230.252 43.6299 230.382 43.6299 230.578C43.6299 230.773 43.5587 230.904 43.4163 231.034C43.2739 231.164 43.1316 231.229 42.918 231.229Z" fill="black"/>
<path d="M177.759 139.004C177.616 144.411 172.775 148.449 166.938 148.644C160.816 148.84 155.975 145.192 153.412 140.307C151.988 137.636 147.717 139.981 149.07 142.652C152.558 149.361 160.104 153.986 168.362 153.139C176.264 152.292 182.528 146.43 182.671 139.069C182.813 136.008 177.83 136.008 177.759 139.004Z" fill="black"/>
<path d="M173.273 113.209C174.057 111.776 173.843 109.757 174.697 107.477C175.267 106.044 177.758 100.573 179.609 98.9442C180.25 98.4231 180.962 98.0323 181.745 97.7717C182.528 97.5112 183.382 97.3809 184.236 97.446C185.233 97.446 186.942 99.5304 187.369 100.573C187.725 101.419 183.952 110.213 184.094 111.125C185.233 111.125 186.23 111.386 187.226 111.842C188.223 112.363 188.935 113.079 189.362 114.056C189.647 114.903 189.86 115.815 189.86 116.727H190.074C190.786 116.987 191.427 117.313 191.996 117.769C192.566 118.16 193.135 118.681 193.562 119.202C193.989 119.723 194.416 120.375 194.701 120.961C194.986 121.612 195.199 122.264 195.271 122.98C195.484 125.195 194.63 127.409 193.349 129.233C191.996 131.057 190.288 132.686 188.437 134.054V134.119C188.508 134.575 188.508 135.031 188.365 135.487C188.223 135.943 187.938 136.333 187.582 136.659C186.87 137.376 185.945 137.832 184.948 138.027C183.952 138.222 182.955 138.288 181.887 138.222C180.321 138.222 178.755 138.027 177.26 137.571C176.548 137.31 175.836 136.985 175.267 136.529C174.697 136.073 174.199 135.487 173.772 134.9C173.558 134.575 173.487 134.249 173.345 133.923C173.273 133.598 173.273 133.207 173.273 132.881C173.273 132.49 173.416 132.165 173.487 131.839C173.558 131.513 173.772 131.187 174.057 130.862L173.914 130.732C172.277 128.973 170.853 127.019 169.643 124.999C168.504 122.915 167.792 120.635 168.006 118.355C168.077 117.248 168.504 116.206 169.145 115.229C169.501 114.773 169.928 114.382 170.426 114.056C170.924 113.731 171.494 113.535 172.134 113.47L173.273 113.209Z" fill="#0954B0"/>
<path d="M172.421 119.528C173.418 120.7 174.628 121.873 176.408 122.068C176.764 122.133 177.12 122.068 177.475 122.003C177.831 121.938 178.187 121.808 178.472 121.612C178.757 121.417 179.042 121.221 179.255 120.896C179.469 120.635 179.611 120.309 179.754 119.984C180.75 117.118 177.547 114.252 174.913 113.34C174.201 113.079 173.418 112.949 172.563 113.014C171.78 113.079 170.997 113.209 170.285 113.6C169.645 113.991 169.075 114.447 168.577 115.033C168.15 115.619 167.794 116.271 167.651 116.987C166.726 119.984 167.651 123.306 169.146 125.976C170.641 128.712 173.631 132.881 177.547 131.643C178.33 131.383 177.974 130.275 177.191 130.536C174.343 131.383 172.208 128.452 170.926 126.628C169.502 124.478 168.435 121.938 168.506 119.332C168.577 117.052 169.502 114.382 172.35 114.186C173.702 114.121 174.913 114.447 175.981 115.229C177.12 115.945 177.903 116.857 178.401 118.03C178.757 119.137 178.401 120.635 176.906 120.83C175.269 121.026 174.058 119.658 173.204 118.616C172.777 118.16 171.923 119.007 172.421 119.528Z" fill="black"/>
<path d="M177.83 115.489C179.468 113.665 181.674 111.972 184.38 111.906C185.02 111.841 185.661 111.972 186.23 112.167C186.8 112.362 187.369 112.688 187.868 113.079C188.295 113.47 188.651 113.926 188.864 114.447C189.078 114.968 189.149 115.489 189.078 116.075C188.936 116.792 190.146 117.117 190.288 116.401C190.858 113.535 188.295 111.125 185.234 110.864C181.888 110.604 179.04 112.558 177.047 114.772C176.478 115.228 177.332 116.01 177.83 115.489Z" fill="black"/>
<path d="M179.113 122.198L178.899 122.329C178.828 122.329 178.97 122.329 178.899 122.329L178.828 122.394L178.615 122.459C178.472 122.459 178.543 122.459 178.615 122.459H178.472C178.401 122.459 178.33 122.459 178.259 122.459H178.116C178.045 122.459 178.045 122.459 178.116 122.459L177.831 122.394H177.76H177.689H177.618L177.475 122.329C177.404 122.264 177.333 122.264 177.262 122.198H177.191L177.12 122.133L176.977 122.003L176.906 121.938C176.835 121.873 176.835 121.873 176.906 121.938L176.764 121.742L176.621 121.547C176.621 121.482 176.621 121.482 176.621 121.547C176.621 121.482 176.621 121.482 176.55 121.417C176.479 121.287 176.408 121.156 176.265 121.026C176.123 120.961 175.981 120.896 175.767 120.961C175.625 121.026 175.482 121.091 175.411 121.221C175.34 121.352 175.34 121.547 175.34 121.677C175.411 121.873 175.482 122.068 175.625 122.264C175.767 122.459 175.838 122.589 176.052 122.785C176.194 122.915 176.408 123.045 176.55 123.176C176.764 123.306 176.906 123.371 177.12 123.436C177.333 123.501 177.547 123.566 177.76 123.566C177.974 123.566 178.187 123.631 178.401 123.566C178.615 123.501 178.828 123.501 179.042 123.436C179.255 123.371 179.469 123.306 179.682 123.176C179.825 123.11 179.896 122.98 179.967 122.85C180.038 122.72 179.967 122.524 179.896 122.394C179.825 122.264 179.682 122.133 179.54 122.133C179.469 122.068 179.326 122.133 179.113 122.198Z" fill="black"/>
<path d="M184.381 134.965C188.296 135.291 191.571 132.881 193.493 130.015C194.632 128.452 195.344 126.823 195.771 124.999C195.913 124.152 195.842 123.241 195.628 122.394C195.415 121.547 195.059 120.7 194.489 119.984C193.564 118.616 192.354 117.118 190.716 116.401C189.862 116.075 188.937 115.88 188.011 115.945C187.086 116.01 186.232 116.271 185.377 116.727C183.74 117.574 182.601 119.072 181.676 120.505C180.75 122.003 180.181 123.631 180.892 125.26C181.604 126.888 183.455 127.735 185.306 126.953C187.299 126.107 188.011 124.087 188.438 122.263C188.652 121.547 187.442 121.221 187.228 121.938C186.872 123.241 186.516 124.869 185.235 125.651C183.954 126.432 182.601 125.976 182.032 124.674C181.462 123.306 182.245 121.873 182.957 120.7C183.669 119.463 184.665 118.485 185.947 117.704C187.299 116.922 189.008 116.727 190.361 117.443C191.642 118.16 192.71 119.397 193.422 120.57C193.849 121.221 194.134 121.873 194.347 122.654C194.489 123.371 194.489 124.152 194.418 124.869C194.062 126.302 193.493 127.605 192.639 128.842C190.93 131.578 187.94 133.988 184.238 133.663C183.526 133.793 183.526 134.9 184.381 134.965Z" fill="black"/>
<path d="M187.725 134.314C188.01 135.942 186.23 136.985 184.735 137.31C182.955 137.701 181.176 137.766 179.325 137.506C178.471 137.441 177.759 137.245 176.976 136.919C176.264 136.594 175.552 136.138 174.982 135.617C174.698 135.356 174.484 135.03 174.342 134.705C174.199 134.379 174.057 134.053 173.986 133.663C173.914 133.272 173.986 132.946 174.057 132.555C174.128 132.164 174.27 131.839 174.484 131.513C174.911 130.862 173.843 130.34 173.416 130.927C171.565 133.532 173.63 136.659 176.406 137.831C178.043 138.483 179.823 138.743 181.603 138.613C183.311 138.548 185.162 138.483 186.728 137.766C187.084 137.571 187.44 137.375 187.796 137.115C188.081 136.854 188.366 136.529 188.579 136.203C188.793 135.877 188.935 135.486 189.006 135.096C189.078 134.705 189.078 134.314 189.006 133.923C188.793 133.272 187.583 133.532 187.725 134.314Z" fill="black"/>
<path d="M184.736 110.929C184.309 108.259 186.729 105.979 187.655 103.634C188.509 101.419 187.94 98.7487 185.661 97.4459C184.594 96.8597 183.383 96.6642 182.173 96.8597C180.963 97.1202 179.895 97.7716 179.112 98.6835C177.332 100.638 175.98 102.787 174.983 105.132C173.773 107.803 173.061 110.604 172.848 113.47C172.776 114.186 174.058 114.186 174.129 113.47C174.343 111.125 174.841 108.91 175.695 106.695C176.549 104.481 177.688 102.462 179.112 100.507C179.753 99.5303 180.536 98.7487 181.604 98.1624C182.102 97.9019 182.672 97.8367 183.17 97.8367C183.739 97.8367 184.238 97.967 184.736 98.1624C185.234 98.423 185.733 98.7487 186.089 99.2046C186.445 99.6606 186.658 100.117 186.801 100.638C187.014 101.81 186.801 102.917 186.231 103.96C185.092 106.305 183.17 108.454 183.597 111.19C183.668 111.972 184.878 111.646 184.736 110.929Z" fill="black"/>
<path d="M36.3292 139.607C36.4716 145.013 41.3124 149.052 47.1498 149.247C53.272 149.443 58.1128 145.795 60.6756 140.91C62.0994 138.239 66.3707 140.584 65.0181 143.255C61.5299 149.964 53.9839 154.589 45.7261 153.742C37.8242 152.895 31.5596 147.033 31.4172 139.672C31.2748 136.611 36.258 136.611 36.3292 139.607Z" fill="black"/>
<path d="M40.8164 113.812C40.0333 112.379 40.2469 110.36 39.3926 108.08C38.8231 106.647 36.3315 101.176 34.4806 99.5472C33.8399 99.0261 33.128 98.6353 32.345 98.3748C31.5619 98.1142 30.7076 97.9839 29.8534 98.0491C28.8567 98.0491 27.1482 100.133 26.7211 101.176C26.3651 102.022 30.1381 110.816 29.9957 111.728C28.8567 111.728 27.8601 111.989 26.8634 112.445C25.8668 112.966 25.1549 113.682 24.7278 114.659C24.443 115.506 24.2295 116.418 24.2295 117.33H24.0159C23.304 117.59 22.6633 117.916 22.0938 118.372C21.5243 118.763 20.9548 119.284 20.5277 119.805C20.1006 120.326 19.6734 120.978 19.3887 121.564C19.1039 122.215 18.8904 122.867 18.8192 123.583C18.6056 125.798 19.4599 128.012 20.7412 129.836C22.0938 131.66 23.8023 133.289 25.6532 134.657V134.722C25.582 135.178 25.5821 135.634 25.7244 136.09C25.8668 136.546 26.1516 136.936 26.5075 137.262C27.2194 137.979 28.1448 138.435 29.1415 138.63C30.1381 138.825 31.1347 138.891 32.2026 138.825C33.7687 138.825 35.3349 138.63 36.8298 138.174C37.5417 137.913 38.2536 137.588 38.8231 137.132C39.3926 136.676 39.8909 136.09 40.318 135.503C40.5316 135.178 40.6028 134.852 40.7452 134.526C40.8164 134.201 40.8164 133.81 40.8164 133.484C40.8164 133.093 40.674 132.768 40.6028 132.442C40.5316 132.116 40.318 131.79 40.0333 131.465L40.1757 131.335C41.813 129.576 43.2368 127.622 44.447 125.602C45.586 123.518 46.2979 121.238 46.0843 118.958C46.0131 117.851 45.586 116.809 44.9453 115.832C44.5893 115.376 44.1622 114.985 43.6639 114.659C43.1656 114.334 42.5961 114.138 41.9554 114.073L40.8164 113.812Z" fill="#0954B0"/>
<path d="M41.6707 120.131C40.6741 121.303 39.4639 122.476 37.6842 122.671C37.3282 122.736 36.9723 122.671 36.6163 122.606C36.2604 122.541 35.9044 122.411 35.6197 122.215C35.3349 122.02 35.0502 121.824 34.8366 121.499C34.6231 121.238 34.4807 120.912 34.3383 120.587C33.3417 117.721 36.5451 114.855 39.1791 113.943C39.891 113.682 40.6741 113.552 41.5283 113.617C42.3114 113.682 43.0945 113.812 43.8063 114.203C44.447 114.594 45.0166 115.05 45.5149 115.636C45.942 116.222 46.2979 116.874 46.4403 117.59C47.3658 120.587 46.4403 123.909 44.9454 126.579C43.4504 129.315 40.4605 133.484 36.5451 132.246C35.7621 131.986 36.118 130.878 36.9011 131.139C39.7486 131.986 41.8843 129.055 43.1656 127.231C44.5894 125.081 45.6572 122.541 45.586 119.935C45.5149 117.655 44.5894 114.985 41.7419 114.789C40.3893 114.724 39.1791 115.05 38.1113 115.832C36.9723 116.548 36.1892 117.46 35.6909 118.633C35.3349 119.74 35.6909 121.238 37.1858 121.433C38.8232 121.629 40.0334 120.261 40.8876 119.219C41.3148 118.763 42.169 119.61 41.6707 120.131Z" fill="black"/>
<path d="M36.2616 116.092C34.6243 114.268 32.4174 112.575 29.7123 112.509C29.0716 112.444 28.4309 112.575 27.8614 112.77C27.2919 112.965 26.7224 113.291 26.2241 113.682C25.7969 114.073 25.441 114.529 25.2274 115.05C25.0139 115.571 24.9427 116.092 25.0138 116.678C25.1562 117.395 23.946 117.72 23.8037 117.004C23.2342 114.138 25.7969 111.728 28.858 111.467C32.2039 111.207 35.0514 113.161 37.0447 115.376C37.6142 115.831 36.7599 116.613 36.2616 116.092Z" fill="black"/>
<path d="M34.9799 122.801L35.1935 122.932C35.2647 122.932 35.1223 122.932 35.1935 122.932L35.2647 122.997L35.4783 123.062C35.6206 123.062 35.5494 123.062 35.4783 123.062H35.6206C35.6918 123.062 35.763 123.062 35.8342 123.062H35.9766C36.0478 123.062 36.0478 123.062 35.9766 123.062L36.2613 122.997H36.3325H36.4037H36.4749L36.6173 122.932C36.6885 122.867 36.7596 122.867 36.8308 122.801H36.902L36.9732 122.736L37.1156 122.606L37.1868 122.541C37.258 122.476 37.258 122.476 37.1868 122.541L37.3292 122.345L37.4715 122.15C37.4715 122.085 37.4715 122.085 37.4715 122.15C37.4715 122.085 37.4715 122.085 37.5427 122.02C37.6139 121.89 37.6851 121.759 37.8275 121.629C37.9698 121.564 38.1122 121.499 38.3258 121.564C38.4682 121.629 38.6105 121.694 38.6817 121.824C38.7529 121.955 38.7529 122.15 38.7529 122.28C38.6817 122.476 38.6105 122.671 38.4682 122.867C38.3258 123.062 38.2546 123.192 38.041 123.388C37.8987 123.518 37.6851 123.648 37.5427 123.779C37.3292 123.909 37.1868 123.974 36.9732 124.039C36.7597 124.104 36.5461 124.169 36.3325 124.169C36.1189 124.169 35.9054 124.234 35.6918 124.169C35.4783 124.104 35.2647 124.104 35.0511 124.039C34.8376 123.974 34.624 123.909 34.4104 123.779C34.2681 123.713 34.1969 123.583 34.1257 123.453C34.0545 123.323 34.1257 123.127 34.1969 122.997C34.268 122.867 34.4104 122.736 34.5528 122.736C34.624 122.671 34.7664 122.736 34.9799 122.801Z" fill="black"/>
<path d="M29.7111 135.569C25.7957 135.894 22.5211 133.484 20.599 130.618C19.46 129.055 18.7481 127.426 18.3209 125.603C18.1786 124.756 18.2498 123.844 18.4633 122.997C18.6769 122.15 19.0328 121.303 19.6023 120.587C20.5278 119.219 21.738 117.721 23.3753 117.004C24.2296 116.679 25.155 116.483 26.0805 116.548C27.0059 116.614 27.8602 116.874 28.7144 117.33C30.3518 118.177 31.4908 119.675 32.4162 121.108C33.3417 122.606 33.9112 124.235 33.1993 125.863C32.4874 127.492 30.6365 128.338 28.7856 127.557C26.7924 126.71 26.0805 124.691 25.6533 122.867C25.4398 122.15 26.65 121.825 26.8635 122.541C27.2195 123.844 27.5754 125.472 28.8568 126.254C30.1382 127.036 31.4908 126.58 32.0603 125.277C32.6298 123.909 31.8467 122.476 31.1348 121.303C30.423 120.066 29.4263 119.089 28.1449 118.307C26.7923 117.525 25.0838 117.33 23.7313 118.047C22.4499 118.763 21.382 120.001 20.6701 121.173C20.243 121.825 19.9583 122.476 19.7447 123.258C19.6023 123.974 19.6023 124.756 19.6735 125.472C20.0295 126.905 20.599 128.208 21.4532 129.446C23.1617 132.181 26.1517 134.592 29.8535 134.266C30.5653 134.396 30.5653 135.504 29.7111 135.569Z" fill="black"/>
<path d="M26.3648 134.917C26.08 136.545 27.8598 137.588 29.3547 137.913C31.1344 138.304 32.9141 138.369 34.765 138.109C35.6193 138.044 36.3312 137.848 37.1143 137.522C37.8261 137.197 38.538 136.741 39.1075 136.22C39.3923 135.959 39.6059 135.633 39.7482 135.308C39.8906 134.982 40.033 134.656 40.1042 134.266C40.1754 133.875 40.1042 133.549 40.033 133.158C39.9618 132.767 39.8194 132.442 39.6058 132.116C39.1787 131.465 40.2465 130.944 40.6737 131.53C42.5246 134.135 40.4601 137.262 37.6838 138.434C36.0464 139.086 34.2667 139.346 32.487 139.216C30.7785 139.151 28.9276 139.086 27.3615 138.369C27.0055 138.174 26.6496 137.978 26.2936 137.718C26.0089 137.457 25.7241 137.132 25.5106 136.806C25.297 136.48 25.1546 136.089 25.0834 135.699C25.0122 135.308 25.0122 134.917 25.0834 134.526C25.297 133.875 26.5072 134.135 26.3648 134.917Z" fill="black"/>
<path d="M29.3567 111.532C29.7839 108.862 27.3634 106.582 26.438 104.237C25.5837 102.022 26.1533 99.3517 28.4313 98.0489C29.4991 97.4627 30.7093 97.2673 31.9195 97.4627C33.1297 97.7232 34.1975 98.3746 34.9806 99.2865C36.7603 101.241 38.1129 103.39 39.1095 105.735C40.3197 108.406 41.0316 111.207 41.2452 114.073C41.3164 114.789 40.035 114.789 39.9638 114.073C39.7502 111.728 39.2519 109.513 38.3977 107.299C37.5434 105.084 36.4044 103.065 34.9806 101.11C34.3399 100.133 33.5568 99.3517 32.489 98.7654C31.9907 98.5049 31.4212 98.4398 30.9229 98.4398C30.3534 98.4398 29.855 98.57 29.3567 98.7654C28.8584 99.026 28.3601 99.3517 28.0041 99.8077C27.6482 100.264 27.4346 100.72 27.2923 101.241C27.0787 102.413 27.2923 103.521 27.8618 104.563C29.0008 106.908 30.9229 109.057 30.4957 111.793C30.4246 112.575 29.2143 112.249 29.3567 111.532Z" fill="black"/>
<path d="M78.2719 85.7031C78.03 84.2053 77.6253 82.8111 77.0102 81.3798C76.4653 79.9609 75.7575 78.6455 74.9095 77.3054C74.0502 76.0294 73.1094 74.8053 72.0059 73.6847C70.9023 72.5641 69.7173 71.4953 68.4283 70.6066C65.7914 68.7526 62.5734 67.3253 59.3529 67.5512C56.3428 67.8142 53.7374 69.4713 51.7291 71.4322C49.1983 73.8962 47.1718 76.7799 45.6836 79.8908C44.184 83.0658 43.3154 86.352 43.0664 89.8137C42.6727 94.5066 43.6178 98.5756 45.5104 103.01C47.0481 106.588 48.2601 110.374 50.7408 113.523C54.1623 117.897 56.8623 122.672 58.9336 127.733C59.4311 129.012 60.0461 130.443 61.3103 131.063C63.4293 132.164 65.9645 130.494 67.1565 128.654C67.8621 127.522 68.3801 126.224 68.6063 124.941C68.8438 123.594 68.8597 122.274 68.5952 120.905C67.8989 117.475 65.5244 114.542 63.5231 111.544C60.3685 106.887 57.8313 102.008 55.8528 96.8306C54.3242 92.7909 53.2841 88.4405 54.639 84.4463C55.5347 81.8262 58.0542 79.4263 61.0326 79.7531C62.5863 79.9609 63.9454 80.862 65.049 81.9826C66.1638 83.039 67.1046 84.2632 67.8825 85.5909C68.6604 86.9186 69.2053 88.3376 69.4585 89.7712C69.8655 91.5627 70.0056 93.6378 71.5298 94.8326C73.3706 96.2816 76.331 95.4807 77.8509 93.8306C79.3006 92.1681 79.7078 89.8587 80.0223 87.6653L78.2719 85.7031Z" fill="#F2F2F2"/>
<path d="M79.1472 85.6589C78.8465 84.0846 78.3942 82.5497 77.7905 81.0543C77.1867 79.5588 76.4315 78.1028 75.5133 76.7503C74.5952 75.3979 73.5957 74.0972 72.3632 72.8877C71.2009 71.6906 69.8757 70.5971 68.5278 69.6319C65.3641 67.4866 61.5625 66.0887 57.7156 66.9978C54.3233 67.7887 51.5822 70.2156 49.4132 72.6773C47.0475 75.435 45.2087 78.4841 43.9783 81.7727C42.7365 85.1254 42.137 88.5253 42.1572 92.1006C42.2701 95.5599 42.9778 98.9257 44.2802 102.198C45.5714 105.534 46.8512 108.935 48.7598 112.049C49.7141 113.607 50.9126 115.008 52.0071 116.59C53.0428 118.096 54.0672 119.666 54.9288 121.339C55.8016 122.948 56.6632 124.621 57.3845 126.269C58.0697 127.713 58.488 129.44 59.5689 130.689C59.8041 130.995 60.1207 131.25 60.5074 131.516C60.8353 131.706 61.2334 131.909 61.6427 132.047C62.052 132.185 62.484 132.196 62.9159 132.206C63.3479 132.216 63.721 132.149 64.1055 132.018C65.7723 131.585 67.0727 130.359 67.8937 128.982C68.3913 128.21 68.7487 127.413 69.0359 126.604C69.3232 125.795 69.4815 124.897 69.5698 123.987C69.658 123.076 69.5948 122.205 69.4614 121.322C69.328 120.438 69.1132 119.607 68.7582 118.75C67.5258 115.491 65.1287 112.687 63.2563 109.777C61.1374 106.625 59.4143 103.279 57.9242 99.8414C56.434 96.4038 55.0366 92.8502 54.8287 89.1096C54.7067 86.1117 55.4804 82.5441 58.5064 80.9611C61.7654 79.2869 64.8657 82.6116 66.4781 84.9463C67.3962 86.2987 68.07 87.8066 68.511 89.4056C68.8343 90.8516 68.9247 92.3888 69.6211 93.7683C69.9287 94.484 70.4103 95.0319 71.0549 95.4763C71.6994 95.9206 72.4479 96.1849 73.2191 96.3209C74.0016 96.3927 74.8067 96.3363 75.5756 96.075C76.3333 95.8779 77.0434 95.5401 77.6359 95.0493C79.054 93.9765 79.7687 92.3828 80.2731 90.752C80.5016 89.8663 80.6486 89.0324 80.807 88.1343C80.9676 87.6335 80.8251 87.2115 80.4497 86.8807L78.9572 85.0963C78.2404 84.2423 76.8449 85.1868 77.5731 85.9766L79.3121 88.003L79.1335 87.3762C78.7285 90.0828 78.1539 93.7516 74.7616 94.5425C74.4585 94.6213 74.1668 94.636 73.875 94.6507C73.5833 94.6654 73.2328 94.6036 72.9637 94.49C72.6945 94.3764 72.4254 94.2628 72.1676 94.0851C71.9098 93.9073 71.7334 93.6778 71.557 93.4483C70.7452 92.313 70.7023 90.9164 70.4265 89.6111C70.1145 88.1009 69.5808 86.6178 68.8142 85.2259C68.0477 83.834 67.1182 82.5457 65.9445 81.4128C64.7121 80.2033 63.3055 79.1616 61.5641 78.7884C60.863 78.6648 60.1393 78.6695 59.4043 78.7383C58.658 78.8713 58.0406 79.0931 57.4006 79.4432C54.6776 80.9474 53.4223 83.9671 53.205 86.839C52.886 90.2883 53.8628 93.7677 55.0951 97.0276C56.3388 100.223 57.734 103.38 59.4436 106.393C61.0943 109.33 63.1296 112.136 65.0133 114.981C66.8495 117.686 68.2673 120.714 67.842 123.946C67.6293 125.562 67.0887 126.988 66.1275 128.34C65.3744 129.332 64.0151 130.481 62.5904 130.362C61.0254 130.219 60.4216 128.723 59.9015 127.573C59.239 126.001 58.5651 124.493 57.8212 122.973C56.2631 119.92 54.4609 117.023 52.4256 114.217C51.356 112.904 50.3791 111.475 49.5537 110.007C48.7283 108.538 48.1359 106.979 47.462 105.471C46.1844 102.467 44.8367 99.4519 44.2466 96.2391C42.985 89.8654 44.4531 83.1793 47.7485 77.609C49.3204 74.8436 51.4079 72.4337 53.9296 70.4311C55.1034 69.5136 56.5237 68.8381 58.0502 68.3797C59.717 67.946 61.3634 68.0379 63.0821 68.5394C66.3093 69.5053 69.1112 71.6529 71.307 73.9582C73.4441 76.187 75.0338 78.65 76.135 81.4238C76.6913 82.7786 77.0259 84.1604 77.2904 85.5299C77.6477 86.7835 79.328 86.6829 79.1472 85.6589Z" fill="black"/>
<path d="M81.9457 68.5583C87.627 61.7552 95.5288 61.6272 101.284 61.7822C106.608 61.9272 111.762 63.0344 117.201 64.9856C129.845 69.5301 141.842 75.2833 153.204 82.1812C157.584 84.8056 161.989 87.699 164.977 91.6651C168.045 95.5795 170.433 100.895 167.4 105.387C164.39 109.751 161.719 114.241 159.364 118.985C157.021 123.664 155.076 128.547 153.47 133.555C151.864 138.563 150.679 143.646 149.914 148.802C149.079 153.946 148.735 159.177 148.683 164.393C148.705 168.366 148.823 172.62 146.448 175.839C143.761 179.598 138.684 181.745 133.987 182.968C127.564 184.547 121.044 185.448 114.404 185.798C107.764 186.149 101.097 185.833 94.4616 184.928C80.9106 183.067 63.2823 176.453 54.1032 167.427L53.8229 165.327C53.3778 156.782 53.6565 148.233 54.6475 139.743C55.6385 131.253 57.3305 122.887 59.7124 114.708C62.0942 106.529 65.1658 98.5386 68.9158 90.7997C72.5958 83.0484 76.9315 75.6774 81.9457 68.5583Z" fill="#F2F2F2"/>
<path d="M82.5722 69.1309C83.7551 67.7521 85.1256 66.5386 86.6726 65.5546C88.2195 64.5707 90.0129 63.8286 91.8312 63.3555C94.8617 62.567 98.0482 62.5336 101.142 62.6161C106.384 62.8129 111.491 63.7795 116.38 65.5676C121.281 67.2916 126.136 69.2721 130.887 71.4328C135.639 73.5934 140.356 75.9465 144.97 78.4797C149.325 80.8351 153.658 83.3189 157.643 86.138C161.44 88.7918 164.762 92.0894 166.652 96.1268C167.55 98.0048 168.063 100.013 167.701 102.066C167.317 104.247 165.774 106.026 164.582 107.866C162.013 111.778 159.772 115.881 157.741 120.02C155.768 124.236 154.006 128.49 152.642 132.945C151.22 137.324 150.136 141.829 149.333 146.384C148.53 150.939 148.007 155.542 147.847 160.144C147.731 162.439 147.767 164.694 147.733 166.937C147.699 169.18 147.572 171.538 146.627 173.621C145.025 177.373 140.918 179.757 136.981 181.18C132.589 182.72 127.819 183.533 123.154 184.165C118.196 184.813 113.156 185.114 108.101 185.083C98.9961 185.065 90.1174 183.764 81.3948 181.168C73.3732 178.695 65.3812 175.235 58.6647 170.281C57.188 169.227 55.804 168.057 54.5127 166.771L54.8542 167.294C54.5377 164.989 54.3727 162.645 54.4181 160.338C54.3165 156.815 54.4252 153.328 54.5453 149.778C55.0931 139.291 56.6926 128.991 59.3549 118.811C62.0173 108.632 65.6973 98.8299 70.395 89.4061C74.0093 82.437 78.033 75.6062 82.5722 69.1309C83.1512 68.307 81.826 67.2135 81.2357 68.1015C73.616 78.9282 67.4708 90.4118 62.7888 102.616C58.1068 114.821 55.0847 127.45 53.5937 140.416C52.8945 146.841 52.5572 153.263 52.6518 159.696C52.6427 162.208 52.785 164.68 53.0676 167.177C53.0811 167.51 53.1648 167.856 53.4113 168.098C53.9043 168.582 54.3972 169.065 54.9716 169.497C55.9689 170.401 57.059 171.188 58.149 171.976C62.9772 175.34 68.1989 178.113 73.8142 180.294C79.4181 182.539 85.1352 184.142 91.083 185.257C97.8833 186.456 104.738 186.937 111.577 186.688C118.615 186.54 125.555 185.713 132.41 184.144C138.286 182.799 144.833 180.514 147.78 175.279C149.363 172.45 149.508 169.168 149.479 166.054C149.472 162.812 149.536 159.582 149.821 156.325C150.321 149.799 151.534 143.333 153.296 137.029C155.058 130.725 157.44 124.597 160.43 118.709C161.895 115.726 163.56 112.845 165.283 110.04C166.174 108.676 167.066 107.312 168.038 105.896C168.907 104.66 169.447 103.234 169.567 101.734C169.796 98.7976 168.706 95.9597 167.139 93.3684C165.384 90.6117 163.199 88.2422 160.596 86.1958C157.912 84.2012 155.135 82.3225 152.173 80.6757C149.034 78.7994 145.883 76.9872 142.64 75.291C136.096 71.822 129.332 68.7773 122.441 66.041C119.001 64.6408 115.457 63.4206 111.868 62.4571C108.338 61.57 104.822 61.0161 101.144 60.963C96.463 60.8651 91.7138 61.1521 87.4642 63.1147C85.0081 64.3351 82.9161 65.9506 81.1769 68.025C80.5979 68.8489 81.9231 69.9425 82.5722 69.1309Z" fill="black"/>
<path d="M91.3754 65.5245C88.7384 65.721 87.3995 68.3952 88.0303 70.5568C88.781 73.2688 91.5694 75.0833 93.8195 76.6706C99.152 80.455 104.867 83.7115 110.894 86.4278C116.979 89.2206 123.284 91.589 129.601 93.8933C136.267 96.2594 143.016 98.5738 149.694 100.876C153.238 102.096 157.145 103.711 160.981 102.866C164.059 102.218 166.8 99.7912 166.538 96.7685C166.427 95.7569 164.747 95.8574 164.776 96.9209C164.953 99.2008 162.616 100.972 160.377 101.371C157.241 101.942 153.989 100.707 151.064 99.6623C144.796 97.4986 138.527 95.335 132.328 93.1837C120.69 89.0812 109.039 84.6457 98.7066 78.0615C97.2774 77.148 95.8594 76.1704 94.5116 75.2052C93.2113 74.3806 92.0851 73.3883 91.0403 72.3443C90.1945 71.4014 89.593 70.3032 89.8079 69.0844C89.9663 68.1863 90.6267 67.3106 91.7236 67.2395C92.6214 67.0671 92.5423 65.4657 91.3754 65.5245Z" fill="black"/>
<path d="M79.0202 83.5197C72.2189 98.7238 65.8745 114.207 62.0901 130.34C60.3121 137.964 58.8168 146.034 58.943 153.927C58.9902 160.219 61.3622 166.855 67.7192 170.158C69.3113 170.968 70.4422 168.654 68.8501 167.844C61.8847 164.301 61.3379 156.334 61.8041 150C62.4151 142.435 63.6571 134.982 65.6001 127.652C69.3686 112.839 75.2652 98.6657 81.4897 84.6827C82.2044 83.089 79.6535 81.9778 79.0202 83.5197Z" fill="#F2F2F2"/>
<path d="M123.261 83.1182C123.412 83.0788 123.634 83.0517 123.785 83.0123L123.564 83.0393C123.937 82.9729 124.31 82.9064 124.731 82.9805L124.45 82.9311C124.812 82.9288 125.092 82.9782 125.432 83.1042C125.572 83.1289 125.642 83.1412 125.793 83.1018C125.945 83.0624 126.026 83.0106 126.108 82.9588C126.189 82.907 126.282 82.7911 126.363 82.7393C126.456 82.6234 126.467 82.5592 126.49 82.4309C126.535 82.1743 126.499 81.9695 126.311 81.8042C126.124 81.6388 125.936 81.4734 125.726 81.4363C124.685 81.1867 123.6 81.1937 122.598 81.5462C122.446 81.5857 122.365 81.6374 122.284 81.6892C122.202 81.741 122.109 81.8569 122.017 81.9729C121.924 82.0888 121.901 82.2171 121.89 82.2813C121.867 82.4096 121.915 82.5502 121.974 82.6267C122.021 82.7674 122.08 82.8439 122.209 82.9328C122.268 83.0093 122.397 83.0982 122.537 83.1229C122.677 83.1476 122.817 83.1723 122.887 83.1847C122.957 83.197 123.109 83.1576 123.261 83.1182Z" fill="#F2F2F2"/>
<path d="M128.615 85.1215C130.279 86.341 132.093 87.1238 134.126 87.4823C136.1 87.7642 138.013 87.5725 139.795 86.8946C141.566 86.2808 143.22 85.514 144.766 84.5301C146.162 83.5856 147.37 82.4757 148.471 81.1486C149.561 79.8857 150.615 78.4179 152.304 77.856C153.458 77.4641 152.725 75.8797 151.653 76.2198C148.578 77.2649 147.275 80.1439 145.045 82.1319C143.767 83.2294 142.324 84.0333 140.693 84.6718C139.133 85.3226 137.373 85.8722 135.634 85.8963C133.545 85.8585 131.532 84.9745 129.856 83.8191C128.825 83.1082 127.653 84.4229 128.615 85.1215Z" fill="#F2F2F2"/>
<path d="M155.023 77.2102L155.7 77.0649C155.84 77.0896 155.921 77.0378 156.003 76.986C156.084 76.9342 156.236 76.8948 156.258 76.7665C156.34 76.7147 156.362 76.5864 156.455 76.4705C156.478 76.3422 156.489 76.278 156.512 76.1497L156.475 75.9449C156.428 75.8043 156.31 75.6513 156.181 75.5624L155.982 75.4612C155.854 75.3723 155.643 75.3352 155.492 75.3746L154.816 75.52C154.675 75.4952 154.594 75.547 154.512 75.5988C154.431 75.6506 154.28 75.69 154.257 75.8183C154.175 75.8701 154.083 75.986 154.06 76.1143C154.038 76.2426 154.015 76.3709 154.004 76.4351L154.04 76.6399C154.087 76.7805 154.205 76.9336 154.334 77.0224L154.533 77.1237C154.662 77.2125 154.872 77.2496 155.023 77.2102Z" fill="#F2F2F2"/>
<path fill-rule="evenodd" clip-rule="evenodd" d="M88.7677 130.931C97.8654 134.242 104.196 127.466 107.805 117.55C111.414 107.634 111.322 98.5195 101.823 95.0621C92.3238 91.6047 86.395 98.5275 82.7859 108.443C79.1768 118.359 79.6699 127.62 88.7677 130.931Z" stroke="black" stroke-width="0.607405" stroke-miterlimit="1.7576"/>
<path d="M86.8551 100.774C94.1141 105.785 101.77 108.44 109.696 109.087" stroke="black" stroke-width="0.607405" stroke-miterlimit="1.7576"/>
<path fill-rule="evenodd" clip-rule="evenodd" d="M98.2991 123.563C101.733 124.327 103.099 124.15 104.838 122.287C106.242 120.719 107.25 118.849 108.351 115.825C108.864 113.883 109.44 111.77 109.503 109.47C106.336 108.803 102.616 108.512 99.606 107.417C97.7999 106.759 96.1026 106.087 94.5416 105.38C93.4941 106.593 92.8766 107.656 92.4088 109.149L100.66 113.539L91.5627 113.139C91.0736 118.021 92.7025 122.288 98.2991 123.563Z" fill="#0954B0"/>
<path fill-rule="evenodd" clip-rule="evenodd" d="M123.811 142.542C132.908 145.853 139.239 139.077 142.848 129.161C146.457 119.245 146.365 110.131 136.866 106.673C127.367 103.216 121.438 110.139 117.829 120.055C114.22 129.97 114.713 139.231 123.811 142.542Z" stroke="black" stroke-width="0.607405" stroke-miterlimit="1.7576"/>
<path d="M121.9 112.385C129.159 117.397 136.815 120.052 144.741 120.699" stroke="black" stroke-width="0.607405" stroke-miterlimit="1.7576"/>
<path fill-rule="evenodd" clip-rule="evenodd" d="M133.346 135.174C136.78 135.938 138.146 135.761 139.885 133.898C141.289 132.33 142.297 130.46 143.398 127.436C143.911 125.494 144.487 123.381 144.549 121.082C141.383 120.414 137.663 120.123 134.653 119.028C132.847 118.37 131.149 117.698 129.589 116.991C128.541 118.204 127.924 119.267 127.456 120.761L135.707 125.15L126.61 124.75C126.121 129.633 127.749 133.899 133.346 135.174Z" fill="#0954B0"/>
<path d="M100.141 140.037C102.277 139.32 104.84 140.362 104.911 142.577C104.982 143.033 104.84 143.489 104.555 143.945C104.27 144.401 103.914 144.726 103.487 144.922C103.06 145.182 102.562 145.248 101.992 145.248C101.494 145.248 100.995 145.052 100.568 144.792C99.6428 144.14 98.5038 145.443 99.4292 146.094C100.141 146.55 100.853 146.811 101.707 146.876C102.562 146.941 103.345 146.811 104.128 146.485C104.911 146.16 105.48 145.638 105.979 144.987C106.477 144.336 106.69 143.619 106.69 142.837C106.833 139.255 102.846 137.301 99.4292 138.408C98.3614 138.864 99.0021 140.427 100.141 140.037Z" fill="black"/>
<path d="M76.9966 146.312C77.4237 146.963 77.8509 147.615 78.278 148.266C78.7763 148.918 79.2746 149.504 79.7729 150.09C80.2712 150.676 80.8408 151.262 81.4815 151.784C82.051 152.305 82.6917 152.826 83.3323 153.347C83.973 153.803 84.6137 154.324 85.3256 154.715C86.0375 155.171 86.6782 155.562 87.4613 155.887C88.1732 156.278 88.9562 156.604 89.6681 156.929C90.4512 157.255 91.1631 157.516 91.9461 157.776C92.7292 158.037 93.5123 158.232 94.2954 158.428C95.0784 158.623 95.9327 158.753 96.7158 158.884C97.4988 159.014 98.3531 159.079 99.2074 159.144C100.062 159.209 100.845 159.209 101.699 159.144C102.553 159.144 103.336 159.079 104.191 158.949C105.045 158.884 105.828 158.753 106.611 158.558C107.394 158.362 108.248 158.167 109.031 157.972C109.814 157.711 110.597 157.451 111.381 157.19C112.52 156.734 112.021 155.106 110.882 155.496C98.7802 160.121 85.1833 155.952 78.6339 145.53C77.9932 144.423 76.3559 145.335 76.9966 146.312Z" fill="black"/>
<path d="M76.9008 146.033C77.0793 146.791 76.7227 145.275 76.9013 146.033C77.1468 146.816 77.5426 147.858 77.8104 148.579C78.0782 149.301 78.6596 150.962 79.0834 151.671C78.6596 150.962 79.4403 152.355 79.0834 151.671C79.5295 152.318 80.7296 154.697 81.2649 155.308C81.7779 155.98 82.8227 157.644 83.4472 158.218C82.8896 157.668 83.9825 158.828 83.4472 158.218C84.0716 158.791 85.3464 160.251 85.9932 160.764C86.6399 161.276 88.4157 162.494 89.0848 162.946C89.7538 163.397 91.1213 164.011 91.8126 164.401C91.0322 164.047 92.5039 164.791 91.8126 164.401C92.5931 164.754 94.4429 165.261 95.2679 165.492C96.0707 165.784 98.0872 165.856 99.0869 165.856C100.087 165.856 102.179 165.156 103.088 164.765C104.17 164.299 105.816 163.128 106.179 162.764C106.179 162.764 111.453 157.854 111.999 156.581C111.999 154.29 110.908 156.035 110.908 156.035C98.7236 174.039 81.378 158.532 78.7882 146.498C78.5649 145.238 76.6329 144.896 76.9008 146.033Z" fill="black"/>
<mask id="mask2_2803_23169" style="mask-type:luminance" maskUnits="userSpaceOnUse" x="143" y="16" width="12" height="11">
<path d="M154.021 21.3334L146.123 16.634L143.303 21.3728L151.201 26.0721L154.021 21.3334Z" fill="white"/>
</mask>
<g mask="url(#mask2_2803_23169)">
<mask id="mask3_2803_23169" style="mask-type:luminance" maskUnits="userSpaceOnUse" x="73" y="4" width="120" height="125">
<path d="M192.639 31.9197L103.039 4.61377L73.528 101.449L163.128 128.755L192.639 31.9197Z" fill="white"/>
</mask>
<g mask="url(#mask3_2803_23169)">
<mask id="mask4_2803_23169" style="mask-type:luminance" maskUnits="userSpaceOnUse" x="73" y="4" width="120" height="125">
<path d="M192.639 31.92L103.039 4.61401L73.528 101.45L163.128 128.755L192.639 31.92Z" fill="white"/>
</mask>
<g mask="url(#mask4_2803_23169)">
<path d="M144.246 20.0477C144.246 20.0477 144.699 17.7667 148.218 18.6267C151.737 19.4867 153.795 22.1101 152.491 23.4728C151.247 24.8716 144.705 22.8709 144.246 20.0477Z" fill="#F8D648"/>
</g>
</g>
</g>
<mask id="mask5_2803_23169" style="mask-type:luminance" maskUnits="userSpaceOnUse" x="63" y="1" width="142" height="143">
<path d="M204.036 52.1616L118.07 1.01123L63.6304 92.5057L149.596 143.656L204.036 52.1616Z" fill="white"/>
</mask>
<g mask="url(#mask5_2803_23169)">
<mask id="mask6_2803_23169" style="mask-type:luminance" maskUnits="userSpaceOnUse" x="73" y="4" width="120" height="125">
<path d="M192.639 31.9185L103.039 4.61255L73.528 101.448L163.128 128.754L192.639 31.9185Z" fill="white"/>
</mask>
<g mask="url(#mask6_2803_23169)">
<mask id="mask7_2803_23169" style="mask-type:luminance" maskUnits="userSpaceOnUse" x="73" y="4" width="120" height="125">
<path d="M192.635 31.9187L103.035 4.61279L73.5241 101.448L163.124 128.754L192.635 31.9187Z" fill="white"/>
</mask>
<g mask="url(#mask7_2803_23169)">
<mask id="mask8_2803_23169" style="mask-type:luminance" maskUnits="userSpaceOnUse" x="73" y="7" width="120" height="122">
<path d="M192.019 34.3847L102.289 7.02954L73.5321 101.358L163.262 128.713L192.019 34.3847Z" fill="white"/>
</mask>
<g mask="url(#mask8_2803_23169)">
<mask id="mask9_2803_23169" style="mask-type:luminance" maskUnits="userSpaceOnUse" x="73" y="7" width="119" height="122">
<path d="M191.867 34.397L102.271 7.08301L73.5145 101.411L163.11 128.725L191.867 34.397Z" fill="white"/>
</mask>
<g mask="url(#mask9_2803_23169)">
<path d="M87.6752 66.34C87.6752 66.34 83.9708 64.5471 86.2581 60.1498C88.4848 55.7163 89.4171 52.0757 90.8354 48.7242C92.3144 45.4089 94.0526 43.3172 95.7185 41.347C97.4451 39.4129 98.1304 37.8464 99.4056 35.1501C100.681 32.4539 108.083 11.0277 142.182 19.3891C146.044 21.1935 150.427 22.8141 150.427 22.8141C150.427 22.8141 155.961 24.2972 159.665 26.09C163.37 27.8829 170.747 32.766 172.51 34.2265C174.31 35.6263 181.25 40.414 181.197 52.3928C181.084 64.3354 178.052 70.6753 178.663 75.3166C179.274 79.9578 175.89 82.88 175.89 82.88C175.89 82.88 173.769 89.7622 171.721 90.0243C170.945 99.7628 162.862 120.537 162.862 120.537C162.862 120.537 161.149 126.181 156.882 126.439C152.615 126.697 146.885 121.396 145.585 120.54C144.285 119.684 116.437 103.443 92.9204 104.669C69.4043 105.895 80.8528 83.751 82.1019 80.5456C83.1572 77.3895 87.6752 66.34 87.6752 66.34Z" fill="#0954B0"/>
</g>
</g>
</g>
</g>
</g>
<mask id="mask10_2803_23169" style="mask-type:luminance" maskUnits="userSpaceOnUse" x="70" y="2" width="130" height="131">
<path d="M199.369 49.3785L120.45 2.42139L70.7096 86.0179L149.628 132.975L199.369 49.3785Z" fill="white"/>
</mask>
<g mask="url(#mask10_2803_23169)">
<mask id="mask11_2803_23169" style="mask-type:luminance" maskUnits="userSpaceOnUse" x="73" y="4" width="120" height="125">
<path d="M192.649 31.9195L103.049 4.61353L73.5378 101.449L163.138 128.755L192.649 31.9195Z" fill="white"/>
</mask>
<g mask="url(#mask11_2803_23169)">
<mask id="mask12_2803_23169" style="mask-type:luminance" maskUnits="userSpaceOnUse" x="73" y="4" width="120" height="125">
<path d="M192.649 31.92L103.049 4.61401L73.5378 101.45L163.138 128.755L192.649 31.92Z" fill="white"/>
</mask>
<g mask="url(#mask12_2803_23169)">
<path d="M94.5047 70.0729C94.7216 69.7084 94.927 69.5015 94.927 69.5015C94.9993 69.38 95.0108 69.2224 94.8285 69.1139C94.707 69.0416 94.5494 69.0301 94.4409 69.2123C94.4409 69.2123 94.3325 69.3946 94.0187 69.7837C93.9464 69.9052 93.9956 70.099 94.1171 70.1713L94.1779 70.2075C94.3355 70.219 94.4324 70.1944 94.5047 70.0729ZM164.608 93.6873C164.766 93.6988 164.899 93.6135 164.91 93.4558C164.981 92.9221 164.98 92.5099 165.075 92.0731C165.086 91.9154 165.001 91.7824 164.843 91.7708C164.686 91.7593 164.553 91.8446 164.541 92.0023C164.543 92.4145 164.447 92.8513 164.377 93.385C164.304 93.5065 164.39 93.6396 164.608 93.6873C164.547 93.6511 164.547 93.6511 164.608 93.6873ZM93.0342 72.4061C93.2872 71.9808 93.5403 71.5556 93.721 71.2518C93.7933 71.1303 93.7441 70.9365 93.6226 70.8642C93.5011 70.7919 93.3073 70.8411 93.235 70.9626C93.0181 71.3271 92.8012 71.6917 92.512 72.1777C92.4397 72.2992 92.4889 72.493 92.6104 72.5653L92.6712 72.6014C92.8288 72.613 92.9619 72.5276 93.0342 72.4061ZM164.279 96.4528C164.436 96.4643 164.569 96.379 164.581 96.2213C164.616 95.7483 164.711 95.3115 164.746 94.8386C164.757 94.6809 164.672 94.5478 164.514 94.5363C164.356 94.5248 164.223 94.6101 164.212 94.7678C164.177 95.2407 164.082 95.6776 164.047 96.1505C163.975 96.272 164.096 96.3443 164.279 96.4528C164.218 96.4166 164.218 96.4166 164.279 96.4528ZM91.7459 74.8478C91.9989 74.4225 92.1551 74.0219 92.372 73.6573C92.4443 73.5358 92.395 73.342 92.2735 73.2697C92.152 73.1974 91.9582 73.2466 91.8859 73.3681C91.669 73.7327 91.416 74.1579 91.2237 74.6194C91.1514 74.7409 91.2006 74.9347 91.3221 75.007L91.3829 75.0431C91.4798 75.0185 91.6736 74.9693 91.7459 74.8478ZM163.889 99.1821C164.046 99.1937 164.179 99.1083 164.191 98.9506C164.226 98.4777 164.321 98.0409 164.356 97.5679C164.367 97.4102 164.282 97.2772 164.124 97.2656C163.966 97.2541 163.833 97.3395 163.822 97.4971C163.787 97.9701 163.692 98.4069 163.657 98.8799C163.646 99.0375 163.767 99.1098 163.889 99.1821ZM90.4576 77.2895C90.6499 76.8281 90.8668 76.4635 91.0837 76.099C91.156 75.9775 91.1068 75.7837 90.9852 75.7114C90.8637 75.6391 90.6699 75.6883 90.5976 75.8098C90.3807 76.1743 90.1885 76.6358 89.9354 77.061C89.8631 77.1825 89.9123 77.3763 90.0338 77.4486C90.0338 77.4486 90.0338 77.4486 90.0946 77.4848C90.2522 77.4963 90.3853 77.411 90.4576 77.2895ZM163.499 101.911C163.656 101.923 163.789 101.838 163.801 101.68C163.896 101.243 163.931 100.77 164.026 100.333C164.038 100.176 163.952 100.043 163.795 100.031C163.637 100.02 163.504 100.105 163.493 100.263C163.397 100.699 163.363 101.172 163.267 101.609C163.195 101.731 163.28 101.864 163.499 101.911ZM89.2908 79.8034C89.4831 79.342 89.7 78.9775 89.8561 78.5768C89.9284 78.4553 89.8792 78.2615 89.7577 78.1892C89.6362 78.1169 89.4424 78.1661 89.3701 78.2876C89.214 78.6883 88.9609 79.1136 88.7686 79.575C88.6963 79.6965 88.7455 79.8903 88.9032 79.9019C88.9032 79.9019 88.9032 79.9019 88.9639 79.938C89.0855 80.0103 89.2185 79.9249 89.2908 79.8034ZM162.951 104.629C163.109 104.641 163.242 104.555 163.253 104.398C163.349 103.961 163.444 103.524 163.479 103.051C163.49 102.894 163.405 102.761 163.247 102.749C163.089 102.737 162.956 102.823 162.945 102.98C162.849 103.417 162.754 103.854 162.719 104.327C162.744 104.424 162.829 104.557 162.951 104.629ZM88.124 82.3174C88.3163 81.856 88.4724 81.4553 88.6893 81.0908C88.7616 80.9693 88.7124 80.7755 88.5548 80.764C88.4333 80.6917 88.2395 80.7409 88.2279 80.8985C88.0718 81.2992 87.8795 81.7606 87.7233 82.1613C87.6511 82.2828 87.7003 82.4766 87.8579 82.4881C87.9187 82.5243 88.1125 82.4751 88.124 82.3174ZM162.342 107.311C162.5 107.322 162.633 107.237 162.705 107.116C162.801 106.679 162.896 106.242 163.028 105.744C163.039 105.587 162.954 105.454 162.796 105.442C162.639 105.431 162.506 105.516 162.494 105.674C162.399 106.11 162.303 106.547 162.172 107.045C162.099 107.166 162.185 107.299 162.342 107.311ZM87.1149 84.8429C87.3072 84.3815 87.4633 83.9808 87.6195 83.5802C87.6917 83.4587 87.6425 83.2649 87.4849 83.2533C87.3634 83.181 87.1696 83.2302 87.158 83.3879C87.0019 83.7886 86.8096 84.25 86.6535 84.6506C86.5812 84.7721 86.6304 84.966 86.8488 85.0136C86.9095 85.0498 87.0426 84.9644 87.1149 84.8429ZM161.939 109.786C161.987 109.567 162.095 109.385 162.143 109.167C162.191 108.948 162.275 108.669 162.359 108.39C162.37 108.232 162.285 108.099 162.163 108.027C162.006 108.015 161.873 108.101 161.8 108.222C161.716 108.501 161.669 108.72 161.621 108.938C161.573 109.157 161.465 109.339 161.453 109.497C161.381 109.618 161.527 109.787 161.649 109.86C161.734 109.993 161.867 109.907 161.939 109.786ZM85.8643 87.6361C86.0219 87.6476 86.155 87.5623 86.2273 87.4407C86.2388 87.2831 86.3473 87.1008 86.3588 86.9432C86.4426 86.664 86.5265 86.3848 86.6103 86.1057C86.6826 85.9842 86.6334 85.7904 86.415 85.7427C86.2935 85.6704 86.0997 85.7196 86.052 85.938C85.9682 86.2172 85.8843 86.4963 85.8005 86.7755C85.7889 86.9331 85.6805 87.1154 85.6689 87.2731C85.6574 87.4307 85.7427 87.5638 85.8643 87.6361ZM160.894 112.372C161.05 111.971 161.303 111.546 161.496 111.085C161.568 110.963 161.519 110.769 161.3 110.722C161.179 110.649 160.985 110.699 160.937 110.917C160.745 111.378 160.589 111.779 160.372 112.144C160.3 112.265 160.349 112.459 160.47 112.531C160.47 112.531 160.47 112.531 160.531 112.567C160.689 112.579 160.822 112.493 160.894 112.372ZM85.4742 90.3654C85.6319 90.377 85.7649 90.2916 85.7765 90.1339C85.7749 89.7217 85.8096 89.2488 85.905 88.812C85.9165 88.6543 85.8311 88.5212 85.6735 88.5097C85.5158 88.4982 85.3828 88.5835 85.3712 88.7412C85.2758 89.178 85.2051 89.7117 85.2066 90.1239C85.2312 90.2208 85.3165 90.3539 85.4742 90.3654ZM130.797 104.335C130.808 104.178 130.723 104.045 130.601 103.972C130.201 103.816 129.703 103.685 129.303 103.529C129.145 103.517 129.012 103.602 128.94 103.724C128.928 103.881 129.013 104.015 129.135 104.087C129.572 104.182 130.033 104.375 130.434 104.531C130.591 104.542 130.725 104.457 130.797 104.335ZM126.465 103.321C126.902 103.416 127.399 103.548 127.8 103.704C127.958 103.715 128.091 103.63 128.163 103.508C128.174 103.351 128.089 103.218 127.968 103.145C127.531 103.05 127.069 102.858 126.632 102.762C126.475 102.751 126.342 102.836 126.269 102.958C126.197 103.079 126.343 103.248 126.465 103.321ZM133.395 105.223C133.467 105.101 133.418 104.908 133.199 104.86C132.799 104.704 132.337 104.512 131.9 104.416C131.779 104.344 131.585 104.393 131.537 104.611C131.465 104.733 131.55 104.866 131.733 104.974C132.133 105.131 132.631 105.262 133.032 105.418C133.189 105.43 133.322 105.344 133.395 105.223ZM123.759 102.615C124.195 102.711 124.632 102.806 125.13 102.938C125.287 102.949 125.42 102.864 125.493 102.742C125.504 102.585 125.419 102.452 125.297 102.379C124.861 102.284 124.424 102.189 123.926 102.057C123.769 102.045 123.636 102.131 123.563 102.252C123.552 102.41 123.601 102.604 123.759 102.615ZM135.981 106.268C136.053 106.147 136.004 105.953 135.846 105.941C135.446 105.785 134.984 105.593 134.584 105.437C134.462 105.365 134.268 105.414 134.257 105.571C134.184 105.693 134.234 105.887 134.452 105.934C134.913 106.127 135.314 106.283 135.715 106.439C135.776 106.475 135.909 106.39 135.981 106.268ZM121.041 102.068L121.259 102.115C121.635 102.175 122.072 102.27 122.448 102.329C122.606 102.341 122.739 102.255 122.75 102.098C122.762 101.94 122.677 101.807 122.519 101.795C122.143 101.736 121.706 101.641 121.33 101.582L121.112 101.534C120.954 101.522 120.821 101.608 120.809 101.765C120.834 101.862 120.919 101.995 121.041 102.068ZM138.495 107.435C138.567 107.314 138.518 107.12 138.396 107.047C137.996 106.891 137.571 106.638 137.109 106.446C136.988 106.374 136.794 106.423 136.782 106.581C136.71 106.702 136.759 106.896 136.917 106.907C137.378 107.1 137.779 107.256 138.143 107.473C138.143 107.473 138.143 107.473 138.204 107.509C138.326 107.581 138.423 107.557 138.495 107.435ZM118.384 101.556C118.821 101.651 119.257 101.747 119.73 101.781C119.888 101.793 120.021 101.708 120.033 101.55C120.044 101.392 119.959 101.259 119.801 101.248C119.364 101.152 118.891 101.118 118.454 101.022C118.297 101.011 118.164 101.096 118.152 101.254C118.08 101.375 118.165 101.508 118.384 101.556C118.323 101.52 118.323 101.52 118.384 101.556ZM115.63 101.069C116.067 101.165 116.54 101.199 116.976 101.295C117.134 101.306 117.267 101.221 117.279 101.063C117.29 100.905 117.205 100.772 117.047 100.761C116.61 100.665 116.137 100.631 115.701 100.535C115.543 100.524 115.41 100.609 115.398 100.767C115.362 100.828 115.447 100.961 115.63 101.069ZM140.973 108.663C141.045 108.541 140.996 108.347 140.874 108.275C140.51 108.058 140.048 107.866 139.623 107.613C139.502 107.54 139.308 107.59 139.235 107.711C139.163 107.833 139.212 108.026 139.334 108.099C139.795 108.291 140.16 108.508 140.585 108.761C140.585 108.761 140.585 108.761 140.646 108.797C140.804 108.809 140.937 108.723 140.973 108.663ZM112.876 100.582C113.313 100.678 113.786 100.712 114.222 100.808C114.38 100.819 114.513 100.734 114.525 100.576C114.536 100.418 114.451 100.285 114.293 100.274C113.856 100.178 113.383 100.144 112.947 100.048C112.789 100.037 112.656 100.122 112.644 100.28C112.669 100.377 112.754 100.51 112.876 100.582ZM159.327 114.73C159.604 114.401 159.918 114.012 160.171 113.587C160.243 113.466 160.194 113.272 160.073 113.199C159.951 113.127 159.757 113.176 159.685 113.298C159.432 113.723 159.154 114.051 158.877 114.38C158.804 114.501 158.793 114.659 158.878 114.792C158.939 114.828 158.939 114.828 159 114.864C159.157 114.876 159.254 114.851 159.327 114.73ZM143.414 109.951C143.487 109.829 143.437 109.636 143.316 109.563C142.951 109.346 142.526 109.093 142.065 108.901C141.943 108.829 141.749 108.878 141.677 108.999C141.605 109.121 141.654 109.315 141.776 109.387C142.201 109.64 142.601 109.796 143.027 110.049L143.088 110.085C143.245 110.097 143.342 110.072 143.414 109.951ZM110.122 100.095C110.559 100.191 111.032 100.225 111.468 100.321C111.626 100.332 111.759 100.247 111.771 100.089C111.782 99.9315 111.697 99.7985 111.539 99.7869C111.102 99.6915 110.629 99.6569 110.193 99.5615C110.035 99.55 109.902 99.6353 109.89 99.793C109.915 99.8899 110 100.023 110.122 100.095ZM107.429 99.6444C107.865 99.7398 108.338 99.7744 108.775 99.8698C108.933 99.8814 109.066 99.796 109.077 99.6383C109.089 99.4807 109.004 99.3477 108.846 99.3361C108.409 99.2407 107.936 99.2061 107.499 99.1107C107.342 99.0992 107.209 99.1845 107.197 99.3422C107.186 99.4998 107.271 99.6329 107.429 99.6444ZM85.9086 93.0917C86.0416 93.0064 86.1139 92.8849 86.1255 92.7272C85.9663 92.3035 85.8679 91.9158 85.8418 91.4067C85.8533 91.2491 85.671 91.1406 85.5741 91.1652C85.4165 91.1537 85.308 91.336 85.3326 91.4329C85.3588 91.942 85.4818 92.4265 85.641 92.8502C85.6656 92.9471 85.7263 92.9833 85.8478 93.0556C85.8117 93.1163 85.9086 93.0917 85.9086 93.0917ZM145.784 111.361C145.856 111.239 145.807 111.045 145.685 110.973C145.321 110.756 144.896 110.503 144.47 110.25C144.349 110.178 144.155 110.227 144.083 110.348C144.01 110.47 144.06 110.664 144.181 110.736C144.606 110.989 144.971 111.206 145.396 111.459L145.457 111.495C145.615 111.507 145.748 111.421 145.784 111.361ZM104.675 99.1575C105.111 99.2529 105.584 99.2875 106.021 99.3829C106.179 99.3944 106.312 99.3091 106.324 99.1514C106.335 98.9937 106.25 98.8607 106.092 98.8491C105.655 98.7538 105.182 98.7191 104.745 98.6237C104.588 98.6122 104.455 98.6976 104.443 98.8552C104.432 99.0129 104.517 99.1459 104.675 99.1575C104.639 99.2182 104.639 99.2182 104.675 99.1575ZM101.945 98.7674C102.382 98.8628 102.855 98.8974 103.292 98.9928C103.45 99.0044 103.583 98.919 103.594 98.7614C103.606 98.6037 103.52 98.4706 103.363 98.4591C102.89 98.4245 102.453 98.3291 102.016 98.2337C101.858 98.2221 101.725 98.3075 101.714 98.4652C101.702 98.6228 101.788 98.7559 101.945 98.7674ZM148.214 112.807C148.286 112.685 148.237 112.491 148.115 112.419C147.751 112.202 147.326 111.949 146.937 111.635C146.815 111.563 146.621 111.612 146.549 111.734C146.477 111.855 146.526 112.049 146.647 112.121C147.073 112.374 147.498 112.627 147.826 112.905L147.887 112.941C147.948 112.977 148.142 112.928 148.214 112.807ZM99.216 98.3774C99.6528 98.4727 100.126 98.5074 100.599 98.542C100.756 98.5536 100.889 98.4682 100.901 98.3105C100.913 98.1529 100.827 98.0198 100.67 98.0083C100.197 97.9737 99.7597 97.8783 99.2868 97.8436C99.1291 97.8321 98.9961 97.9175 98.9845 98.0751C98.973 98.2328 99.0583 98.3658 99.216 98.3774ZM156.896 116.327C157.38 116.204 157.84 115.984 158.239 115.728C158.372 115.643 158.384 115.485 158.298 115.352C158.213 115.219 158.055 115.207 157.922 115.293C157.523 115.549 157.16 115.744 156.712 115.806C156.518 115.856 156.446 115.977 156.495 116.171C156.519 116.268 156.58 116.304 156.702 116.376C156.799 116.352 156.835 116.291 156.896 116.327ZM150.547 114.277C150.619 114.156 150.57 113.962 150.449 113.89C150.145 113.709 149.659 113.42 149.294 113.203C149.173 113.13 148.979 113.18 148.907 113.301C148.834 113.423 148.884 113.616 149.005 113.689C149.613 114.05 149.916 114.231 150.22 114.412L150.281 114.448C150.378 114.423 150.475 114.399 150.547 114.277ZM96.4505 98.0481C96.8266 98.1073 97.2995 98.1419 97.8332 98.2127C97.9909 98.2243 98.1239 98.1389 98.1355 97.9812C98.147 97.8236 98.0617 97.6905 97.904 97.679C97.3703 97.6082 96.9335 97.5128 96.5213 97.5143C96.3636 97.5028 96.2306 97.5882 96.219 97.7458C96.2436 97.8427 96.2682 97.9396 96.4505 98.0481ZM87.5535 95.3044C87.6865 95.219 87.6373 95.0252 87.5519 94.8922C87.2236 94.6145 86.9675 94.2154 86.6753 93.877C86.5899 93.7439 86.4323 93.7324 86.2992 93.8177C86.1662 93.9031 86.1546 94.0607 86.24 94.1938C86.4961 94.5929 86.849 94.9675 87.1413 95.3059C87.202 95.342 87.202 95.342 87.2628 95.3782C87.3235 95.4143 87.4812 95.4259 87.5535 95.3044ZM153.061 115.444C153.133 115.322 153.084 115.129 152.963 115.056C152.72 114.912 152.44 114.828 152.197 114.683C152.015 114.575 151.894 114.503 151.772 114.43C151.651 114.358 151.457 114.407 151.385 114.529C151.312 114.65 151.362 114.844 151.483 114.916C151.605 114.989 151.787 115.097 151.908 115.169C152.151 115.314 152.43 115.398 152.734 115.579C152.734 115.579 152.734 115.578 152.795 115.615C152.856 115.651 152.989 115.565 153.061 115.444ZM93.7211 97.658C93.8788 97.6696 94.2549 97.7288 95.1039 97.8227C95.2615 97.8342 95.3946 97.7488 95.4061 97.5912C95.4177 97.4335 95.3323 97.3005 95.1747 97.2889C94.4225 97.1705 94.0103 97.172 93.8527 97.1604L93.7919 97.1243C93.6343 97.1127 93.5012 97.1981 93.5504 97.3919C93.442 97.5742 93.5635 97.6465 93.7211 97.658C93.685 97.7188 93.685 97.7188 93.7211 97.658ZM155.429 116.442C155.587 116.453 155.72 116.368 155.731 116.21C155.743 116.052 155.657 115.919 155.5 115.908C155.087 115.909 154.651 115.814 154.189 115.622C154.032 115.61 153.899 115.695 153.826 115.817C153.754 115.938 153.9 116.108 154.022 116.18C154.082 116.216 154.143 116.252 154.179 116.192C154.616 116.287 155.053 116.382 155.429 116.442ZM89.9228 96.7142C89.9951 96.5927 89.9459 96.3989 89.7883 96.3873C89.3876 96.2312 88.9623 95.9781 88.5978 95.7612C88.4763 95.689 88.2825 95.7382 88.2102 95.8597C88.1379 95.9812 88.1871 96.175 88.3086 96.2473C88.6731 96.4642 89.0984 96.7172 89.5598 96.9095C89.7175 96.921 89.8505 96.8357 89.9228 96.7142ZM90.8949 97.2926C91.3317 97.3879 91.8293 97.5195 92.3022 97.5541C92.4599 97.5657 92.5929 97.4803 92.6045 97.3226C92.616 97.165 92.5307 97.0319 92.373 97.0204C91.9362 96.925 91.4633 96.8904 91.0626 96.7342C90.9049 96.7227 90.7719 96.808 90.6996 96.9295C90.688 97.0872 90.7734 97.2203 90.8949 97.2926ZM164.84 90.9464C164.998 90.9579 165.131 90.8726 165.143 90.7149C165.177 90.2419 165.225 90.0235 165.225 90.0235C165.237 89.8659 165.151 89.7328 164.994 89.7213C164.836 89.7097 164.703 89.7951 164.691 89.9528C164.691 89.9528 164.704 90.2073 164.609 90.6441C164.537 90.7656 164.658 90.8379 164.84 90.9464ZM150.429 22.8137C161.871 25.4268 167.445 31.1288 174.833 38.8974C182.221 46.666 177.388 61.1478 174.838 66.5403C172.287 71.9327 171.696 82.6041 171.696 82.6041C171.696 82.6041 171.699 89.927 168.646 90.4959C154.266 90.3306 99.5904 71.6182 94.9385 69.3439C90.2866 67.0695 91.2235 64.6655 91.2235 64.6655C91.2235 64.6655 91.9273 61.547 94.54 56.6029C97.1528 51.6588 100.247 39.2688 101.067 38.0291C101.923 36.7287 104.086 21.4808 120.007 18.7792C136.013 16.2106 150.429 22.8137 150.429 22.8137Z" fill="#F0F0EF"/>
</g>
</g>
</g>
<path d="M158.788 63.652L158.532 63.2528C158.02 62.4545 156.988 62.2522 156.251 62.8005L151.256 66.0802C150.457 66.5924 150.255 67.6237 150.803 68.3612L151.059 68.7604C151.571 69.5587 152.603 69.761 153.34 69.2127L158.335 65.933C159.098 65.4816 159.3 64.4503 158.788 63.652Z" fill="url(#paint0_linear_2803_23169)"/>
<path d="M121.242 66.0706L120.487 68.5831L120.086 68.4269L120.841 65.9145C121.056 65.1377 120.776 64.6417 120.157 64.4379C119.538 64.234 118.884 64.5032 118.524 65.5229L117.853 67.7562L117.452 67.6001L118.207 65.0876C118.422 64.3109 118.142 63.8148 117.523 63.611C116.904 63.4072 116.153 63.7009 115.89 64.696L115.219 66.9293L114.818 66.7732L116.028 62.8042L116.429 62.9603L116.189 63.6401C116.636 63.1657 117.181 63.0788 117.703 63.3072C118.262 63.4749 118.675 63.8856 118.665 64.4555C119.112 63.981 119.658 63.8941 120.216 64.0618C121.078 64.4102 121.505 65.0755 121.242 66.0706Z" fill="#4D5050"/>
<path d="M126.623 66.1475L125.413 70.1165L125.013 69.9604L125.3 69.0621C124.756 69.5612 124.078 69.7334 123.301 69.5181C122.185 69.1827 121.574 67.9968 121.849 66.844C122.22 65.6666 123.406 65.056 124.523 65.3914C125.3 65.6068 125.763 66.2113 125.935 66.8896L126.222 65.9913L126.623 66.1475ZM125.599 68.0062C125.887 67.108 125.423 66.0913 124.427 65.8282C123.529 65.5405 122.537 66.1019 122.249 67.0001C121.962 67.8984 122.426 68.9151 123.421 69.1781C124.38 69.502 125.372 68.9406 125.599 68.0062Z" fill="#4D5050"/>
<path d="M129.108 71.2426L127.583 68.69L126.996 70.6441L126.595 70.488L128.297 65.0017L128.698 65.1578L127.691 68.5078L130.221 67.2982L130.779 67.4659L128.056 68.7246L129.63 71.471L129.108 71.2426Z" fill="#4D5050"/>
<path d="M134.378 70.6776C134.341 70.7384 134.305 70.7991 134.33 70.896L130.762 69.8422C130.571 70.7159 131.083 71.5142 131.981 71.8018C132.6 72.0057 133.182 71.858 133.556 71.5051L133.848 71.8435C133.341 72.2818 132.663 72.454 131.825 72.2025C130.648 71.831 130.001 70.7058 130.372 69.5284C130.744 68.351 131.833 67.7651 133.046 68.0758C134.26 68.3866 134.677 69.6217 134.378 70.6776ZM130.857 69.4054L133.988 70.3638C134.155 69.3933 133.703 68.6311 132.927 68.4158C132.028 68.1281 131.205 68.5433 130.857 69.4054Z" fill="#4D5050"/>
<path d="M136.153 67.7011C136.164 67.5434 136.394 67.4335 136.552 67.445C136.71 67.4566 136.82 67.6865 136.808 67.8442C136.797 68.0018 136.567 68.1118 136.409 68.1002C136.191 68.0526 136.141 67.8587 136.153 67.7011ZM135.867 69.0115L136.267 69.1677L135.058 73.1367L134.657 72.9806L135.867 69.0115Z" fill="#4D5050"/>
<path d="M138.256 70.1054L137.465 72.6786C137.225 73.3585 137.625 73.5146 138.438 73.6692L138.318 74.0091C137.251 73.8676 136.776 73.4207 137.064 72.5225L137.855 69.9493L137.017 69.6978L137.174 69.2971L138.011 69.5486L138.335 68.5896L138.747 68.5881L138.412 69.7048L139.589 70.0763L139.433 70.4769L138.256 70.1054Z" fill="#4D5050"/>
<path d="M144.642 75.9624L143.404 75.5548L144.398 72.3625L142.26 74.2981L142.138 74.2258L141.425 71.4156L140.43 74.6079L139.192 74.2003L140.893 68.7139L142.131 69.1216L142.87 72.0286L145.105 70.0684L146.343 70.4761L144.642 75.9624Z" fill="#4D5050"/>
<path d="M146.78 70.5713L148.176 70.9905L148.168 75.428L150.627 71.7089L152.023 72.1281L148.586 77.0753L146.972 76.6084L146.78 70.5713Z" fill="#4D5050"/>
<path d="M155.903 75.424C155.604 76.4799 154.515 77.0658 153.398 76.7304L152.561 76.4789L152.022 78.2146L150.784 77.807L152.485 72.3207L154.561 72.9798C155.617 73.2791 156.203 74.3681 155.903 75.424ZM154.629 75.0771C154.785 74.6764 154.529 74.2772 154.189 74.1572L153.352 73.9057L152.932 75.3015L153.77 75.553C154.11 75.673 154.509 75.417 154.629 75.0771Z" fill="#4D5050"/>
<path d="M149.833 49.2701C150.495 48.0189 150.95 46.5624 151.066 44.9858C151.613 38.8127 147.106 33.2522 140.884 32.5112C136.954 32.065 133.287 33.6667 130.932 36.379C131.298 37.0081 132.43 38.0103 135.141 36.9091C138.931 35.3797 145.151 35.7084 147.421 39.7737C151.193 46.707 143.526 51.8515 149.738 56.6177L150.927 56.8315L149.679 53.5384C149.043 52.2556 149.159 50.679 149.833 49.2701Z" fill="#F8D648"/>
<path d="M158.272 57.7502L158.015 57.351C157.589 56.6858 156.69 56.3981 156.001 56.728C155.858 54.3401 154.166 52.3458 154.923 50.6578C157.099 45.6183 156.75 39.5697 153.434 34.6353C148.265 26.8706 137.794 24.8359 130.066 29.9443C122.301 35.1135 120.266 45.5841 125.375 53.3125C128.715 58.3438 134.229 60.9666 139.818 60.8369C141.309 60.8193 142.491 62.4275 144.156 63.5004L152.083 59.5794L144.923 64.2856C144.694 64.8078 144.745 65.4138 145.026 65.9099L145.282 66.309C145.794 67.1073 146.825 67.3097 147.563 66.7614L157.758 59.995C158.581 59.5798 158.784 58.5485 158.272 57.7502ZM153.682 39.4718C154.639 42.4266 154.505 45.5551 153.436 48.4567C153.527 46.7832 153.933 45.1329 153.745 43.3756C153.378 39.2911 151.315 35.4311 148.044 32.9092C145.613 31.0511 142.554 29.9712 139.486 29.8733C137.146 29.7971 135.221 30.5437 133.028 31.0489C140.893 26.6795 151.008 30.9706 153.682 39.4718ZM149.66 56.7392L143.447 55.4284C142.792 55.2853 142.125 55.2999 141.483 55.4114C140.647 55.572 139.787 55.6358 138.938 55.542C132.595 55.1409 127.762 49.715 128.199 43.3119C128.359 40.6925 129.418 38.3608 131.011 36.5121C133.402 33.739 137.033 32.198 140.963 32.6443C147.125 33.3491 151.667 38.8488 151.145 45.1189C150.968 46.6593 150.61 48.0912 149.912 49.4032C149.177 50.7759 149.159 52.3279 149.685 53.7929L150.934 57.0861L149.66 56.7392Z" fill="url(#paint1_linear_2803_23169)"/>
<defs>
<linearGradient id="paint0_linear_2803_23169" x1="100.221" y1="65.0435" x2="168.493" y2="66.2951" gradientUnits="userSpaceOnUse">
<stop stop-color="#58C5D0"/>
<stop offset="0.3896" stop-color="#499CC0"/>
<stop offset="1" stop-color="#2F54A4"/>
</linearGradient>
<linearGradient id="paint1_linear_2803_23169" x1="100.566" y1="46.3832" x2="168.837" y2="47.6348" gradientUnits="userSpaceOnUse">
<stop stop-color="#58C5D0"/>
<stop offset="0.3896" stop-color="#499CC0"/>
<stop offset="1" stop-color="#2F54A4"/>
</linearGradient>
</defs>
</svg>
