<svg width="209" height="251" viewBox="0 0 209 251" fill="none" xmlns="http://www.w3.org/2000/svg">
<path d="M180.961 248.45C172.419 249.948 163.876 250.013 155.333 248.58V248.645C151.703 249.101 148.072 248.189 144.584 247.147C142.733 246.561 140.74 245.844 139.601 244.346C138.391 242.718 138.533 240.503 139.174 238.614L139.316 238.418C138.177 235.552 137.608 232.621 137.536 229.56C137.465 226.498 137.892 223.567 138.889 220.636L138.675 220.571C138.391 220.44 138.177 220.31 137.963 220.115C137.75 219.919 137.536 219.724 137.394 219.463C137.252 219.203 137.109 219.007 137.038 218.747C136.967 218.486 136.967 218.226 136.967 217.965C137.038 217.444 137.18 216.923 137.465 216.402C137.75 215.881 138.106 215.49 138.604 215.164C139.53 214.448 140.526 213.927 141.665 213.536C145.225 212.233 148.926 211.256 152.771 210.735C154.408 210.474 156.045 210.279 157.611 210.67C159.178 211.126 160.601 212.363 160.601 213.861C160.601 214.969 159.818 216.011 158.893 216.728L159.035 216.988L160.673 222.525C160.744 222.785 160.815 222.981 160.957 223.176C161.313 223.567 161.883 223.632 162.452 223.697C164.517 223.958 166.368 224.74 167.934 225.977L168.29 226.107C168.859 225.326 169.571 224.544 170.283 223.828C170.995 223.111 171.778 222.46 172.632 221.808C173.486 221.222 174.341 220.636 175.266 220.18C176.192 219.724 177.188 219.268 178.185 218.942C179.181 218.617 180.178 218.291 181.246 218.095C182.314 217.9 183.31 217.77 184.378 217.705C185.446 217.639 186.514 217.639 187.582 217.77C188.65 217.835 189.717 218.03 190.714 218.291C191.782 218.551 192.778 218.877 193.775 219.203C194.772 219.594 195.697 220.05 196.623 220.571C197.548 221.092 198.402 221.678 199.185 222.329C199.968 222.981 200.752 223.632 201.463 224.414C202.175 225.13 202.816 225.912 203.314 226.759C203.884 227.606 204.382 228.452 204.809 229.364C205.236 230.276 205.592 231.188 205.806 232.165C206.091 233.142 206.233 234.054 206.375 235.031L206.589 235.162C206.731 235.618 206.874 236.074 206.945 236.529C207.016 236.985 206.945 237.441 206.874 237.897C206.803 238.353 206.589 238.809 206.375 239.2C206.162 239.591 205.877 239.982 205.521 240.373C204.596 241.285 203.243 241.806 201.962 242.327C195.341 244.932 188.507 246.952 181.46 248.45H180.961Z" fill="#0954B0"/>
<path d="M157.829 218.291C160.32 217.184 162.741 214.774 161.317 212.103C159.751 209.237 155.835 209.302 152.917 209.693C149.5 210.084 146.154 210.93 143.022 212.103C140.245 213.145 136.615 214.513 136.259 217.705C135.903 220.897 139.533 222.134 142.381 222.395C143.449 222.525 143.449 220.962 142.381 220.897C140.672 220.766 137.967 220.18 137.896 218.226C137.754 215.685 141.171 214.513 143.235 213.666C145.869 212.624 148.645 211.907 151.422 211.452C152.846 211.191 154.198 211.061 155.693 210.996C156.974 210.996 158.327 211.191 159.253 211.973C159.466 212.103 159.68 212.298 159.822 212.559C159.964 212.754 160.107 213.015 160.178 213.275C160.249 213.536 160.249 213.796 160.249 214.057C160.249 214.318 160.178 214.578 160.036 214.774C159.466 215.881 158.327 216.597 157.188 217.053C156.12 217.444 156.903 218.747 157.829 218.291Z" fill="black"/>
<path d="M153.199 219.203L149.711 220.44C149.569 220.44 149.497 220.506 149.426 220.571C149.355 220.636 149.284 220.701 149.213 220.766C149.142 220.831 149.142 220.962 149.07 221.027C149.07 221.157 149.07 221.222 149.07 221.352C149.07 221.483 149.142 221.548 149.213 221.613C149.284 221.678 149.355 221.743 149.497 221.808C149.569 221.874 149.711 221.874 149.782 221.874C149.925 221.874 149.996 221.874 150.138 221.808L153.626 220.571C153.84 220.506 153.982 220.375 154.125 220.245C154.196 220.05 154.267 219.854 154.196 219.659C154.125 219.463 153.982 219.333 153.84 219.203C153.626 219.203 153.413 219.203 153.199 219.203Z" fill="black"/>
<path d="M158.396 217.248L160.318 223.111C160.603 224.023 162.169 223.632 161.884 222.72L159.962 216.858C159.677 215.946 158.111 216.337 158.396 217.248Z" fill="black"/>
<path d="M137.821 221.287C136.967 224.088 136.611 227.019 136.824 229.951C136.967 232.882 137.536 235.748 138.604 238.549C138.96 239.461 140.526 239.07 140.17 238.158C138.177 233.012 137.678 227.019 139.387 221.743C139.672 220.766 138.106 220.375 137.821 221.287Z" fill="black"/>
<path d="M160.101 224.219C160.813 224.088 161.454 224.088 162.165 224.153C162.877 224.219 163.518 224.349 164.23 224.609C164.871 224.805 165.511 225.13 166.081 225.521C166.65 225.912 167.149 226.368 167.576 226.824C167.718 226.954 167.932 227.019 168.145 227.019C168.359 227.019 168.572 226.954 168.715 226.824C168.857 226.694 168.928 226.498 168.928 226.303C168.928 226.108 168.857 225.912 168.715 225.782C168.145 225.196 167.576 224.675 166.864 224.219C166.152 223.763 165.44 223.437 164.657 223.176C163.874 222.916 163.02 222.786 162.165 222.72C161.311 222.655 160.457 222.72 159.674 222.851C159.532 222.851 159.46 222.916 159.389 222.981C159.318 223.046 159.247 223.111 159.176 223.176C159.104 223.241 159.104 223.372 159.033 223.437C159.033 223.567 159.033 223.632 159.033 223.763C159.033 223.893 159.104 223.958 159.176 224.023C159.247 224.088 159.318 224.153 159.46 224.219C159.532 224.284 159.674 224.284 159.745 224.284C159.887 224.284 160.03 224.284 160.101 224.219Z" fill="black"/>
<path d="M206.234 230.211C205.593 228.713 204.81 227.345 203.885 226.042C202.959 224.74 201.82 223.502 200.539 222.46C199.257 221.352 197.905 220.44 196.41 219.659C194.915 218.877 193.349 218.226 191.711 217.77C184.948 215.946 177.758 217.444 172.277 221.417C170.711 222.525 169.358 223.828 168.219 225.261C167.08 226.694 166.084 228.257 165.443 229.951C165.087 230.862 166.653 231.253 167.009 230.341C169.287 224.87 174.626 220.701 180.748 219.138C186.942 217.574 193.633 219.073 198.545 222.785C201.393 224.87 203.457 227.475 204.739 230.602C205.024 231.514 206.59 231.123 206.234 230.211Z" fill="black"/>
<path d="M204.668 230.602C205.238 232.1 205.736 233.924 204.739 235.357C203.743 236.79 201.749 237.572 200.112 238.223C194.915 240.242 189.647 241.936 184.308 243.434C174.413 246.039 163.948 247.082 153.982 244.541C148.785 243.239 144.087 241.024 140.029 237.767C139.246 237.116 138.107 238.223 138.89 238.809C146.507 244.932 156.83 247.603 166.796 247.472C178.4 247.342 189.647 243.76 200.255 239.786C202.461 238.939 204.811 238.027 206.163 236.204C207.516 234.445 207.017 232.1 206.306 230.211C205.95 229.299 204.312 229.69 204.668 230.602Z" fill="black"/>
<path d="M154.764 246.495C155.12 247.082 154.55 247.668 153.981 247.863C153.127 248.189 151.988 247.993 151.062 247.928C148.927 247.733 146.862 247.277 144.869 246.691C143.089 246.104 141.381 245.258 140.313 243.825C140.028 243.499 139.814 243.108 139.672 242.652C139.53 242.261 139.387 241.805 139.387 241.415C139.316 240.959 139.387 240.568 139.458 240.112C139.53 239.656 139.672 239.265 139.886 238.874C140.384 238.027 138.96 237.246 138.462 238.092C138.035 238.874 137.75 239.786 137.75 240.698C137.679 241.61 137.892 242.457 138.248 243.304C138.96 244.867 140.17 246.104 141.737 246.951C143.516 247.863 145.438 248.515 147.432 248.84C148.499 249.036 149.567 249.231 150.706 249.361C151.703 249.492 152.628 249.557 153.625 249.492C154.123 249.426 154.622 249.296 155.049 249.101C155.476 248.84 155.832 248.58 156.117 248.189C156.401 247.798 156.544 247.407 156.544 246.951C156.544 246.495 156.473 246.104 156.188 245.714C155.689 244.932 154.266 245.648 154.764 246.495Z" fill="black"/>
<path d="M147.26 215.871C151.389 200.955 144.483 183.237 131.1 173.857C128.466 172.033 125.903 176.137 128.466 177.896C133.948 181.674 137.934 187.732 140.426 193.464C143.416 200.303 144.27 207.468 142.277 214.568C141.493 217.565 146.405 218.802 147.26 215.871Z" fill="black"/>
<mask id="mask0_3066_5540" style="mask-type:luminance" maskUnits="userSpaceOnUse" x="153" y="233" width="56" height="18">
<path d="M208.154 233.729H153.695V250.664H208.154V233.729Z" fill="white"/>
</mask>
<g mask="url(#mask0_3066_5540)">
<path d="M205.376 235.292C206.443 236.074 206.372 237.572 205.732 238.614C204.877 239.917 203.169 240.633 201.674 241.285C198.186 242.783 194.626 244.151 190.924 245.193C183.592 247.473 176.046 248.645 168.358 248.776C164.015 248.841 159.744 248.45 155.473 247.668C154.476 247.473 153.978 248.906 155.045 249.101C163.161 250.599 171.348 250.665 179.463 249.297C187.65 247.994 195.409 245.649 202.884 242.327C204.664 241.545 206.586 240.503 207.44 238.679C208.152 237.181 208.01 235.227 206.515 234.12C205.732 233.664 204.521 234.706 205.376 235.292Z" fill="black"/>
</g>
<path d="M150.92 229.625C152.771 227.866 154.906 226.498 157.256 225.391C157.398 225.326 157.54 225.196 157.612 225C157.683 224.805 157.612 224.675 157.54 224.479C157.469 224.349 157.327 224.219 157.113 224.153C156.9 224.088 156.757 224.153 156.544 224.219C154.052 225.326 151.845 226.824 149.923 228.648C149.283 229.299 150.279 230.211 150.92 229.625Z" fill="black"/>
<path d="M165.583 233.468C165.797 233.468 165.939 233.403 166.081 233.273C166.224 233.142 166.295 233.012 166.295 232.817C166.295 232.621 166.224 232.491 166.081 232.361C165.939 232.23 165.797 232.165 165.583 232.165C165.369 232.165 165.227 232.23 165.085 232.361C164.942 232.491 164.871 232.621 164.871 232.817C164.871 233.012 164.942 233.142 165.085 233.273C165.227 233.403 165.369 233.468 165.583 233.468Z" fill="black"/>
<path d="M59.4786 214.618C55.3496 199.702 62.2549 181.984 75.6383 172.604C78.2723 170.78 80.8351 174.884 78.2723 176.643C72.7908 180.421 68.8042 186.479 66.3126 192.211C63.3227 199.05 62.4685 206.215 64.4617 213.315C65.2448 216.312 60.3328 217.549 59.4786 214.618Z" fill="black"/>
<path d="M28.0388 246.144C36.5814 247.642 45.124 247.707 53.6666 246.274V246.339C57.2972 246.795 60.9278 245.883 64.416 244.841C66.2669 244.255 68.2602 243.539 69.3992 242.04C70.6094 240.412 70.4671 238.197 69.8264 236.308L69.684 236.113C70.823 233.247 71.3925 230.316 71.4637 227.254C71.5349 224.193 71.1077 221.261 70.1111 218.33L70.3247 218.265C70.6094 218.135 70.823 218.004 71.0366 217.809C71.2501 217.614 71.4637 217.418 71.6061 217.158C71.7484 216.897 71.8908 216.702 71.962 216.441C72.0332 216.181 72.0332 215.92 72.0332 215.66C71.962 215.138 71.8196 214.617 71.5349 214.096C71.2501 213.575 70.8942 213.184 70.3959 212.859C69.4704 212.142 68.4738 211.621 67.3348 211.23C63.7753 209.927 60.0736 208.95 56.2294 208.429C54.592 208.169 52.9547 207.973 51.3886 208.364C49.8224 208.82 48.3987 210.058 48.3987 211.556C48.3987 212.663 49.1817 213.705 50.1072 214.422L49.9648 214.682L48.3275 220.219C48.2563 220.48 48.1851 220.675 48.0427 220.871C47.6868 221.261 47.1173 221.327 46.5478 221.392C44.4833 221.652 42.6324 222.434 41.0663 223.671L40.7103 223.802C40.1408 223.02 39.4289 222.238 38.717 221.522C38.0052 220.805 37.2221 220.154 36.3678 219.503C35.5136 218.916 34.6593 218.33 33.7339 217.874C32.8084 217.418 31.8118 216.962 30.8151 216.637C29.8185 216.311 28.8219 215.985 27.754 215.79C26.6862 215.594 25.6896 215.464 24.6217 215.399C23.5539 215.334 22.4861 215.334 21.4183 215.464C20.3504 215.529 19.2826 215.725 18.286 215.985C17.2182 216.246 16.2215 216.571 15.2249 216.897C14.2282 217.288 13.3028 217.744 12.3773 218.265C11.4519 218.786 10.5977 219.372 9.81458 220.024C9.03151 220.675 8.24843 221.327 7.53654 222.108C6.82466 222.825 6.18396 223.606 5.68565 224.453C5.11613 225.3 4.61781 226.147 4.19068 227.059C3.76355 227.971 3.40762 228.883 3.19405 229.86C2.90929 230.837 2.76693 231.749 2.62455 232.726L2.41097 232.856C2.2686 233.312 2.12622 233.768 2.05503 234.224C1.98384 234.68 2.05504 235.136 2.12622 235.592C2.19741 236.048 2.41099 236.504 2.62455 236.894C2.83812 237.285 3.12286 237.676 3.4788 238.067C4.40425 238.979 5.75683 239.5 7.03822 240.021C13.6587 242.627 20.4928 244.646 27.5405 246.144H28.0388Z" fill="#0954B0"/>
<path d="M51.1752 215.985C48.6836 214.878 46.2632 212.468 47.6869 209.797C49.2531 206.931 53.1685 206.996 56.0872 207.387C59.5042 207.778 62.8501 208.625 65.9824 209.797C68.7587 210.839 72.3893 212.207 72.7453 215.399C73.1012 218.591 69.4706 219.828 66.6231 220.089C65.5552 220.219 65.5552 218.656 66.6231 218.591C68.3316 218.46 71.0367 217.874 71.1079 215.92C71.2503 213.38 67.8332 212.207 65.7688 211.36C63.1348 210.318 60.3585 209.602 57.5821 209.146C56.1584 208.885 54.8058 208.755 53.3108 208.69C52.0294 208.69 50.6768 208.885 49.7514 209.667C49.5378 209.797 49.3243 209.992 49.1819 210.253C49.0395 210.448 48.8971 210.709 48.826 210.969C48.7548 211.23 48.7548 211.491 48.7548 211.751C48.7548 212.012 48.826 212.272 48.9683 212.468C49.5379 213.575 50.6769 214.292 51.8159 214.747C52.8837 215.138 52.1006 216.441 51.1752 215.985Z" fill="black"/>
<path d="M55.8027 216.897L59.2909 218.135C59.4333 218.135 59.5045 218.2 59.5757 218.265C59.6469 218.33 59.7181 218.395 59.7893 218.461C59.8604 218.526 59.8605 218.656 59.9316 218.721C59.9316 218.851 59.9316 218.916 59.9316 219.047C59.9316 219.177 59.8604 219.242 59.7893 219.307C59.7181 219.372 59.6469 219.438 59.5045 219.503C59.4333 219.568 59.2909 219.568 59.2198 219.568C59.0774 219.568 59.0062 219.568 58.8638 219.503L55.3756 218.265C55.162 218.2 55.0196 218.07 54.8773 217.939C54.8061 217.744 54.7349 217.549 54.8061 217.353C54.8773 217.158 55.0196 217.027 55.162 216.897C55.3756 216.897 55.5891 216.897 55.8027 216.897Z" fill="black"/>
<path d="M50.6081 214.943L48.686 220.805C48.4013 221.717 46.8352 221.327 47.1199 220.415L49.042 214.552C49.3267 213.64 50.8929 214.031 50.6081 214.943Z" fill="black"/>
<path d="M71.1792 218.982C72.0334 221.783 72.3893 224.714 72.1758 227.645C72.0334 230.576 71.4639 233.442 70.3961 236.243C70.0401 237.155 68.474 236.764 68.8299 235.852C70.8232 230.706 71.3215 224.714 69.613 219.438C69.3283 218.46 70.8944 218.07 71.1792 218.982Z" fill="black"/>
<path d="M48.899 221.913C48.1871 221.782 47.5464 221.782 46.8345 221.848C46.1226 221.913 45.4819 222.043 44.77 222.303C44.1293 222.499 43.4887 222.825 42.9192 223.215C42.3496 223.606 41.8513 224.062 41.4242 224.518C41.2818 224.648 41.0682 224.714 40.8547 224.714C40.6411 224.714 40.4276 224.648 40.2852 224.518C40.1428 224.388 40.0716 224.192 40.0716 223.997C40.0716 223.802 40.1428 223.606 40.2852 223.476C40.8547 222.89 41.4242 222.369 42.1361 221.913C42.848 221.457 43.5598 221.131 44.3429 220.87C45.126 220.61 45.9803 220.48 46.8345 220.414C47.6888 220.349 48.543 220.414 49.3261 220.545C49.4685 220.545 49.5397 220.61 49.6109 220.675C49.682 220.74 49.7532 220.805 49.8244 220.87C49.8956 220.936 49.8956 221.066 49.9668 221.131C49.9668 221.261 49.9668 221.326 49.9668 221.457C49.9668 221.587 49.8956 221.652 49.8244 221.717C49.7532 221.782 49.682 221.847 49.5397 221.913C49.4685 221.978 49.3261 221.978 49.2549 221.978C49.1125 221.978 48.9702 221.978 48.899 221.913Z" fill="black"/>
<path d="M2.77008 227.905C3.41077 226.407 4.19386 225.039 5.11931 223.737C6.04475 222.434 7.18376 221.196 8.46515 220.154C9.74654 219.047 11.0991 218.135 12.5941 217.353C14.089 216.571 15.6552 215.92 17.2925 215.464C24.0554 213.64 31.2454 215.138 36.7269 219.112C38.2931 220.219 39.6457 221.522 40.7847 222.955C41.9237 224.388 42.9203 225.951 43.561 227.645C43.917 228.557 42.3508 228.948 41.9949 228.036C39.7168 222.564 34.3777 218.395 28.2555 216.832C22.0621 215.269 15.3704 216.767 10.4584 220.48C7.6109 222.564 5.54643 225.17 4.26504 228.296C3.98029 229.208 2.41413 228.817 2.77008 227.905Z" fill="black"/>
<path d="M4.33572 228.296C3.7662 229.794 3.26788 231.618 4.26452 233.051C5.26116 234.484 7.25443 235.266 8.89177 235.917C14.0885 237.936 19.3565 239.63 24.6956 241.128C34.5908 243.734 45.0555 244.776 55.0218 242.236C60.2186 240.933 64.917 238.718 68.9747 235.461C69.7578 234.81 70.8968 235.917 70.1137 236.503C62.4966 242.626 52.1743 245.297 42.2079 245.167C30.6042 245.037 19.3565 241.454 8.7494 237.481C6.54256 236.634 4.19334 235.722 2.84075 233.898C1.48817 232.139 1.98651 229.794 2.69839 227.905C3.05434 226.993 4.69166 227.384 4.33572 228.296Z" fill="black"/>
<path d="M54.2399 244.19C53.884 244.776 54.4535 245.362 55.023 245.558C55.8773 245.883 57.0163 245.688 57.9417 245.623C60.0774 245.427 62.1418 244.972 64.1351 244.385C65.9148 243.799 67.6233 242.952 68.6912 241.519C68.9759 241.194 69.1895 240.803 69.3318 240.347C69.4742 239.956 69.6166 239.5 69.6166 239.109C69.6878 238.653 69.6166 238.262 69.5454 237.806C69.4742 237.35 69.3319 236.96 69.1183 236.569C68.62 235.722 70.0437 234.94 70.5421 235.787C70.9692 236.569 71.2539 237.481 71.2539 238.393C71.3251 239.305 71.1116 240.151 70.7556 240.998C70.0437 242.561 68.8335 243.799 67.2674 244.646C65.4877 245.558 63.5656 246.209 61.5723 246.535C60.5045 246.73 59.4367 246.926 58.2976 247.056C57.301 247.186 56.3756 247.251 55.3789 247.186C54.8806 247.121 54.3823 246.991 53.9552 246.795C53.528 246.535 53.1721 246.274 52.8873 245.883C52.6026 245.493 52.4602 245.102 52.4602 244.646C52.4602 244.19 52.5314 243.799 52.8162 243.408C53.3145 242.627 54.7382 243.343 54.2399 244.19Z" fill="black"/>
<mask id="mask1_3066_5540" style="mask-type:luminance" maskUnits="userSpaceOnUse" x="0" y="231" width="56" height="18">
<path d="M0.843643 231.423H55.3027V248.359H0.843643V231.423Z" fill="white"/>
</mask>
<g mask="url(#mask1_3066_5540)">
<path d="M3.62249 232.986C2.55466 233.768 2.62585 235.266 3.26654 236.308C4.1208 237.611 5.82933 238.327 7.32429 238.979C10.8125 240.477 14.3719 241.845 18.0737 242.887C25.4061 245.167 32.9521 246.339 40.6404 246.47C44.9829 246.535 49.2542 246.144 53.5255 245.362C54.5222 245.167 55.0205 246.6 53.9527 246.795C45.8372 248.294 37.6505 248.359 29.535 246.991C21.3484 245.688 13.5889 243.343 6.11408 240.021C4.33437 239.239 2.41229 238.197 1.55803 236.373C0.846146 234.875 0.988514 232.921 2.48347 231.814C3.26654 231.358 4.47675 232.4 3.62249 232.986Z" fill="black"/>
</g>
<path d="M58.084 227.319C56.2331 225.561 54.0974 224.193 51.7482 223.085C51.6058 223.02 51.4634 222.89 51.3923 222.695C51.3211 222.499 51.3923 222.369 51.4634 222.173C51.5346 222.043 51.677 221.913 51.8906 221.848C52.1041 221.783 52.2465 221.848 52.4601 221.913C54.9517 223.02 57.1585 224.518 59.0806 226.342C59.7213 226.994 58.7247 227.906 58.084 227.319Z" fill="black"/>
<path d="M43.419 231.162C43.2054 231.162 43.063 231.097 42.9207 230.967C42.7783 230.837 42.7071 230.706 42.7071 230.511C42.7071 230.316 42.7783 230.185 42.9207 230.055C43.063 229.925 43.2054 229.86 43.419 229.86C43.6325 229.86 43.7749 229.925 43.9173 230.055C44.0597 230.185 44.1309 230.316 44.1309 230.511C44.1309 230.706 44.0597 230.837 43.9173 230.967C43.7749 231.097 43.6325 231.162 43.419 231.162Z" fill="black"/>
<path d="M176.065 158.252C175.922 153.658 171.062 150.226 165.202 150.06C159.055 149.894 154.195 152.994 151.622 157.145C150.193 159.415 145.904 157.422 147.262 155.152C150.764 149.451 158.34 145.521 166.631 146.24C174.565 146.96 180.854 151.942 180.997 158.197C181.14 160.799 176.137 160.799 176.065 158.252Z" fill="black"/>
<path d="M171.464 184.185C172.247 185.618 172.033 187.637 172.888 189.917C173.457 191.35 175.949 196.822 177.8 198.45C178.44 198.971 179.152 199.362 179.935 199.623C180.718 199.883 181.573 200.014 182.427 199.948C183.424 199.948 185.132 197.864 185.559 196.822C185.915 195.975 182.142 187.181 182.285 186.27C183.424 186.27 184.42 186.009 185.417 185.553C186.413 185.032 187.125 184.315 187.552 183.338C187.837 182.492 188.051 181.58 188.051 180.668H188.264C188.976 180.407 189.617 180.081 190.186 179.625C190.756 179.235 191.325 178.714 191.753 178.192C192.18 177.671 192.607 177.02 192.892 176.434C193.176 175.782 193.39 175.131 193.461 174.414C193.675 172.2 192.82 169.985 191.539 168.161C190.186 166.337 188.478 164.709 186.627 163.341V163.276C186.698 162.82 186.698 162.364 186.556 161.908C186.413 161.452 186.129 161.061 185.773 160.735C185.061 160.019 184.135 159.563 183.139 159.368C182.142 159.172 181.146 159.107 180.078 159.172C178.512 159.172 176.945 159.368 175.45 159.824C174.739 160.084 174.027 160.41 173.457 160.866C172.888 161.322 172.389 161.908 171.962 162.494C171.749 162.82 171.677 163.146 171.535 163.471C171.464 163.797 171.464 164.188 171.464 164.513C171.464 164.904 171.606 165.23 171.677 165.556C171.749 165.881 171.962 166.207 172.247 166.533L172.105 166.663C170.467 168.422 169.043 170.376 167.833 172.395C166.694 174.48 165.982 176.759 166.196 179.039C166.267 180.147 166.694 181.189 167.335 182.166C167.691 182.622 168.118 183.013 168.616 183.338C169.115 183.664 169.684 183.859 170.325 183.925L171.464 184.185Z" fill="#0954B0"/>
<path d="M170.613 177.867C171.609 176.694 172.819 175.522 174.599 175.326C174.955 175.261 175.311 175.326 175.667 175.392C176.023 175.457 176.379 175.587 176.664 175.782C176.948 175.978 177.233 176.173 177.447 176.499C177.66 176.759 177.803 177.085 177.945 177.411C178.942 180.277 175.738 183.143 173.104 184.055C172.392 184.315 171.609 184.446 170.755 184.381C169.972 184.315 169.189 184.185 168.477 183.794C167.836 183.404 167.267 182.948 166.768 182.361C166.341 181.775 165.985 181.124 165.843 180.407C164.917 177.411 165.843 174.089 167.338 171.418C168.833 168.682 171.823 164.514 175.738 165.751C176.521 166.012 176.165 167.119 175.382 166.859C172.535 166.012 170.399 168.943 169.118 170.767C167.694 172.916 166.626 175.457 166.697 178.062C166.768 180.342 167.694 183.013 170.541 183.208C171.894 183.273 173.104 182.948 174.172 182.166C175.311 181.449 176.094 180.537 176.592 179.365C176.948 178.258 176.592 176.759 175.097 176.564C173.46 176.369 172.25 177.737 171.396 178.779C170.968 179.235 170.114 178.388 170.613 177.867Z" fill="black"/>
<path d="M176.021 181.906C177.658 183.729 179.865 185.423 182.57 185.488C183.211 185.553 183.851 185.423 184.421 185.228C184.99 185.032 185.56 184.706 186.058 184.316C186.485 183.925 186.841 183.469 187.055 182.948C187.268 182.427 187.34 181.906 187.268 181.319C187.126 180.603 188.336 180.277 188.479 180.994C189.048 183.86 186.485 186.27 183.424 186.53C180.078 186.791 177.231 184.837 175.238 182.622C174.668 182.166 175.522 181.384 176.021 181.906Z" fill="black"/>
<path d="M177.304 175.196L177.091 175.066C177.019 175.066 177.162 175.066 177.091 175.066L177.019 175.001L176.806 174.936C176.664 174.936 176.735 174.936 176.806 174.936H176.664C176.592 174.936 176.521 174.936 176.45 174.936H176.308C176.236 174.936 176.236 174.936 176.308 174.936L176.023 175.001H175.952H175.88H175.809L175.667 175.066C175.596 175.131 175.525 175.131 175.453 175.196H175.382L175.311 175.261L175.169 175.392L175.097 175.457C175.026 175.522 175.026 175.522 175.097 175.457L174.955 175.652L174.813 175.847C174.813 175.913 174.813 175.913 174.813 175.847C174.813 175.913 174.813 175.913 174.741 175.978C174.67 176.108 174.599 176.238 174.457 176.369C174.314 176.434 174.172 176.499 173.958 176.434C173.816 176.369 173.674 176.303 173.602 176.173C173.531 176.043 173.531 175.847 173.531 175.717C173.602 175.522 173.674 175.326 173.816 175.131C173.958 174.936 174.03 174.805 174.243 174.61C174.386 174.48 174.599 174.349 174.741 174.219C174.955 174.089 175.097 174.024 175.311 173.958C175.525 173.893 175.738 173.828 175.952 173.828C176.165 173.828 176.379 173.763 176.592 173.828C176.806 173.893 177.019 173.893 177.233 173.958C177.447 174.024 177.66 174.089 177.874 174.219C178.016 174.284 178.087 174.414 178.158 174.545C178.23 174.675 178.159 174.87 178.087 175.001C178.016 175.131 177.874 175.261 177.731 175.261C177.66 175.326 177.518 175.261 177.304 175.196Z" fill="black"/>
<path d="M182.572 162.429C186.487 162.103 189.762 164.513 191.684 167.379C192.823 168.943 193.535 170.571 193.962 172.395C194.105 173.242 194.033 174.154 193.82 175.001C193.606 175.847 193.25 176.694 192.681 177.411C191.755 178.779 190.545 180.277 188.908 180.993C188.054 181.319 187.128 181.514 186.203 181.449C185.277 181.384 184.423 181.124 183.569 180.668C181.931 179.821 180.792 178.323 179.867 176.89C178.942 175.391 178.372 173.763 179.084 172.134C179.796 170.506 181.647 169.659 183.498 170.441C185.491 171.288 186.203 173.307 186.63 175.131C186.843 175.847 185.633 176.173 185.42 175.457C185.064 174.154 184.708 172.525 183.426 171.744C182.145 170.962 180.792 171.418 180.223 172.721C179.653 174.089 180.436 175.522 181.148 176.694C181.86 177.932 182.857 178.909 184.138 179.69C185.491 180.472 187.199 180.668 188.552 179.951C189.833 179.234 190.901 177.997 191.613 176.824C192.04 176.173 192.325 175.522 192.538 174.74C192.681 174.023 192.681 173.242 192.61 172.525C192.254 171.092 191.684 169.789 190.83 168.552C189.121 165.816 186.132 163.406 182.43 163.732C181.718 163.601 181.718 162.494 182.572 162.429Z" fill="black"/>
<path d="M185.915 163.081C186.2 161.452 184.421 160.41 182.926 160.084C181.146 159.693 179.366 159.628 177.515 159.889C176.661 159.954 175.949 160.149 175.166 160.475C174.454 160.801 173.742 161.257 173.173 161.778C172.888 162.038 172.674 162.364 172.532 162.69C172.39 163.015 172.247 163.341 172.176 163.732C172.105 164.123 172.176 164.449 172.247 164.839C172.318 165.23 172.461 165.556 172.674 165.882C173.102 166.533 172.034 167.054 171.607 166.468C169.756 163.862 171.82 160.736 174.597 159.563C176.234 158.912 178.014 158.651 179.793 158.782C181.502 158.847 183.353 158.912 184.919 159.628C185.275 159.824 185.631 160.019 185.987 160.28C186.271 160.54 186.556 160.866 186.77 161.192C186.983 161.517 187.126 161.908 187.197 162.299C187.268 162.69 187.268 163.081 187.197 163.471C186.983 164.123 185.773 163.862 185.915 163.081Z" fill="black"/>
<path d="M182.926 186.465C182.499 189.136 184.92 191.416 185.845 193.761C186.699 195.975 186.13 198.646 183.852 199.949C182.784 200.535 181.574 200.73 180.364 200.535C179.153 200.274 178.086 199.623 177.303 198.711C175.523 196.757 174.17 194.607 173.174 192.262C171.963 189.592 171.252 186.791 171.038 183.925C170.967 183.208 172.248 183.208 172.319 183.925C172.533 186.27 173.031 188.484 173.886 190.699C174.74 192.914 175.879 194.933 177.303 196.887C177.943 197.864 178.726 198.646 179.794 199.232C180.293 199.493 180.862 199.558 181.36 199.558C181.93 199.558 182.428 199.428 182.926 199.232C183.425 198.972 183.923 198.646 184.279 198.19C184.635 197.734 184.849 197.278 184.991 196.757C185.205 195.584 184.991 194.477 184.421 193.435C183.282 191.09 181.36 188.94 181.787 186.205C181.859 185.423 183.069 185.749 182.926 186.465Z" fill="black"/>
<path d="M28.0831 140.39C28.2255 134.984 33.0663 130.945 38.9037 130.75C45.0259 130.554 49.8668 134.202 52.4295 139.087C53.8533 141.758 58.1246 139.413 56.772 136.742C53.2838 130.033 45.7378 125.408 37.48 126.255C29.5781 127.102 23.3135 132.964 23.1711 140.325C23.0287 143.387 28.0119 143.387 28.0831 140.39Z" fill="black"/>
<path d="M32.5693 166.185C31.7862 167.618 31.9998 169.637 31.1455 171.917C30.576 173.35 28.0844 178.821 26.2335 180.45C25.5928 180.971 24.881 181.362 24.0979 181.622C23.3148 181.883 22.4606 182.013 21.6063 181.948C20.6097 181.948 18.9011 179.864 18.474 178.821C18.118 177.975 21.891 169.181 21.7487 168.269C20.6096 168.269 19.613 168.008 18.6164 167.553C17.6197 167.031 16.9079 166.315 16.4807 165.338C16.196 164.491 15.9824 163.579 15.9824 162.667H15.7688C15.057 162.407 14.4163 162.081 13.8467 161.625C13.2772 161.234 12.7077 160.713 12.2806 160.192C11.8535 159.671 11.4264 159.019 11.1416 158.433C10.8568 157.782 10.6433 157.13 10.5721 156.414C10.3585 154.199 11.2128 151.985 12.4942 150.161C13.8468 148.337 15.5553 146.708 17.4062 145.341V145.275C17.335 144.819 17.335 144.363 17.4774 143.907C17.6197 143.452 17.9045 143.061 18.2604 142.735C18.9723 142.018 19.8978 141.563 20.8944 141.367C21.891 141.172 22.8877 141.107 23.9555 141.172C25.5216 141.172 27.0878 141.367 28.5827 141.823C29.2946 142.084 30.0065 142.409 30.576 142.865C31.1455 143.321 31.6438 143.907 32.071 144.494C32.2845 144.819 32.3557 145.145 32.4981 145.471C32.5693 145.796 32.5693 146.187 32.5693 146.513C32.5693 146.904 32.4269 147.23 32.3557 147.555C32.2845 147.881 32.071 148.207 31.7862 148.532L31.9286 148.663C33.5659 150.421 34.9897 152.375 36.1999 154.395C37.3389 156.479 38.0508 158.759 37.8372 161.039C37.766 162.146 37.3389 163.188 36.6982 164.165C36.3423 164.621 35.9152 165.012 35.4168 165.338C34.9185 165.664 34.349 165.859 33.7083 165.924L32.5693 166.185Z" fill="#0954B0"/>
<path d="M33.4246 159.866C32.428 158.694 31.2178 157.521 29.4381 157.326C29.0821 157.261 28.7262 157.326 28.3702 157.391C28.0143 157.456 27.6583 157.587 27.3736 157.782C27.0888 157.977 26.8041 158.173 26.5905 158.498C26.377 158.759 26.2346 159.085 26.0922 159.41C25.0956 162.276 28.299 165.143 30.933 166.054C31.6449 166.315 32.428 166.445 33.2822 166.38C34.0653 166.315 34.8484 166.185 35.5602 165.794C36.2009 165.403 36.7705 164.947 37.2688 164.361C37.6959 163.775 38.0518 163.123 38.1942 162.407C39.1197 159.41 38.1942 156.088 36.6993 153.418C35.2043 150.682 32.2144 146.513 28.299 147.751C27.516 148.011 27.8719 149.119 28.655 148.858C31.5025 148.011 33.6382 150.942 34.9196 152.766C36.3433 154.916 37.4111 157.456 37.34 160.062C37.2688 162.342 36.3433 165.012 33.4958 165.208C32.1432 165.273 30.933 164.947 29.8652 164.165C28.7262 163.449 27.9431 162.537 27.4448 161.365C27.0888 160.257 27.4448 158.759 28.9397 158.564C30.5771 158.368 31.7873 159.736 32.6415 160.778C33.0687 161.234 33.9229 160.387 33.4246 159.866Z" fill="black"/>
<path d="M28.0146 163.905C26.3772 165.729 24.1704 167.422 21.4652 167.488C20.8245 167.553 20.1838 167.422 19.6143 167.227C19.0448 167.032 18.4753 166.706 17.977 166.315C17.5499 165.924 17.1939 165.468 16.9804 164.947C16.7668 164.426 16.6956 163.905 16.7668 163.319C16.9092 162.602 15.699 162.277 15.5566 162.993C14.9871 165.859 17.5498 168.269 20.6109 168.53C23.9568 168.79 26.8043 166.836 28.7976 164.622C29.3671 164.166 28.5129 163.384 28.0146 163.905Z" fill="black"/>
<path d="M26.7329 157.195L26.9464 157.065C27.0176 157.065 26.8753 157.065 26.9464 157.065L27.0176 157L27.2312 156.935C27.3736 156.935 27.3024 156.935 27.2312 156.935H27.3736C27.4447 156.935 27.5159 156.935 27.5871 156.935H27.7295C27.8007 156.935 27.8007 156.935 27.7295 156.935L28.0143 157H28.0854H28.1566H28.2278L28.3702 157.065C28.4414 157.13 28.5126 157.13 28.5838 157.195H28.655L28.7262 157.26L28.8685 157.391L28.9397 157.456C29.0109 157.521 29.0109 157.521 28.9397 157.456L29.0821 157.651L29.2245 157.847C29.2245 157.912 29.2245 157.912 29.2245 157.847C29.2245 157.912 29.2245 157.912 29.2956 157.977C29.3668 158.107 29.438 158.238 29.5804 158.368C29.7228 158.433 29.8652 158.498 30.0787 158.433C30.2211 158.368 30.3635 158.303 30.4347 158.172C30.5059 158.042 30.5059 157.847 30.5059 157.716C30.4347 157.521 30.3635 157.326 30.2211 157.13C30.0787 156.935 30.0075 156.805 29.794 156.609C29.6516 156.479 29.438 156.349 29.2956 156.218C29.0821 156.088 28.9397 156.023 28.7262 155.958C28.5126 155.893 28.299 155.827 28.0854 155.827C27.8719 155.827 27.6583 155.762 27.4447 155.827C27.2312 155.893 27.0176 155.893 26.8041 155.958C26.5905 156.023 26.3769 156.088 26.1634 156.218C26.021 156.283 25.9498 156.414 25.8786 156.544C25.8074 156.674 25.8786 156.87 25.9498 157C26.021 157.13 26.1634 157.26 26.3057 157.26C26.3769 157.326 26.5193 157.26 26.7329 157.195Z" fill="black"/>
<path d="M21.465 144.428C17.5496 144.103 14.275 146.513 12.3529 149.379C11.2139 150.942 10.502 152.571 10.0748 154.395C9.93247 155.241 10.0037 156.153 10.2172 157C10.4308 157.847 10.7867 158.694 11.3562 159.41C12.2817 160.778 13.4919 162.276 15.1292 162.993C15.9835 163.318 16.9089 163.514 17.8344 163.449C18.7598 163.384 19.6141 163.123 20.4684 162.667C22.1057 161.82 23.2447 160.322 24.1701 158.889C25.0956 157.391 25.6651 155.762 24.9532 154.134C24.2413 152.506 22.3904 151.659 20.5395 152.44C18.5463 153.287 17.8344 155.306 17.4072 157.13C17.1937 157.847 18.4039 158.173 18.6175 157.456C18.9734 156.153 19.3293 154.525 20.6107 153.743C21.8921 152.961 23.2447 153.417 23.8142 154.72C24.3837 156.088 23.6006 157.521 22.8888 158.694C22.1769 159.931 21.1802 160.908 19.8988 161.69C18.5463 162.472 16.8377 162.667 15.4852 161.951C14.2038 161.234 13.1359 159.996 12.4241 158.824C11.9969 158.173 11.7122 157.521 11.4986 156.739C11.3562 156.023 11.3562 155.241 11.4274 154.525C11.7834 153.092 12.3529 151.789 13.2071 150.551C14.9157 147.816 17.9056 145.405 21.6074 145.731C22.3193 145.601 22.3192 144.494 21.465 144.428Z" fill="black"/>
<path d="M17.3345 145.487C17.0498 143.858 18.8295 142.816 20.3244 142.491C22.1042 142.1 23.8839 142.035 25.7348 142.295C26.589 142.36 27.3009 142.556 28.084 142.881C28.7959 143.207 29.5078 143.663 30.0773 144.184C30.362 144.445 30.5756 144.77 30.718 145.096C30.8603 145.422 31.0027 145.747 31.0739 146.138C31.1451 146.529 31.0739 146.855 31.0027 147.246C30.9315 147.636 30.7891 147.962 30.5756 148.288C30.1484 148.939 31.2163 149.46 31.6434 148.874C33.4943 146.269 31.4298 143.142 28.6535 141.969C27.0162 141.318 25.2364 141.058 23.4567 141.188C21.7482 141.253 19.8973 141.318 18.3312 142.035C17.9752 142.23 17.6193 142.425 17.2634 142.686C16.9786 142.946 16.6938 143.272 16.4803 143.598C16.2667 143.924 16.1243 144.314 16.0531 144.705C15.982 145.096 15.982 145.487 16.0531 145.878C16.2667 146.529 17.4769 146.269 17.3345 145.487Z" fill="black"/>
<path d="M21.1106 168.465C21.5378 171.135 19.1174 173.415 18.1919 175.76C17.3376 177.975 17.9072 180.645 20.1852 181.948C21.253 182.534 22.4632 182.73 23.6734 182.534C24.8836 182.274 25.9514 181.622 26.7345 180.711C28.5142 178.756 29.8668 176.607 30.8634 174.262C32.0736 171.591 32.7855 168.79 32.9991 165.924C33.0703 165.208 31.7889 165.208 31.7177 165.924C31.5041 168.269 31.0058 170.484 30.1516 172.699C29.2973 174.913 28.1583 176.933 26.7345 178.887C26.0938 179.864 25.3107 180.645 24.2429 181.232C23.7446 181.492 23.1751 181.557 22.6768 181.557C22.1073 181.557 21.6089 181.427 21.1106 181.232C20.6123 180.971 20.114 180.645 19.7581 180.189C19.4021 179.733 19.1885 179.277 19.0462 178.756C18.8326 177.584 19.0462 176.477 19.6157 175.434C20.7547 173.089 22.6768 170.94 22.2496 168.204C22.1785 167.422 20.9683 167.748 21.1106 168.465Z" fill="black"/>
<path d="M78.7729 85.6362C78.531 84.1384 78.1263 82.7442 77.5112 81.3129C76.9663 79.894 76.2585 78.5786 75.4105 77.2385C74.5511 75.9625 73.6104 74.7384 72.5068 73.6178C71.4033 72.4972 70.2183 71.4284 68.9293 70.5397C66.2924 68.6858 63.0743 67.2585 59.8539 67.4843C56.8438 67.7473 54.2384 69.4044 52.2301 71.3653C49.6993 73.8293 47.6728 76.713 46.1845 79.8239C44.685 82.9989 43.8164 86.2851 43.5674 89.7468C43.1737 94.4397 44.1188 98.5087 46.0114 102.943C47.5491 106.522 48.7611 110.307 51.2418 113.456C54.6633 117.83 57.3633 122.605 59.4346 127.666C59.932 128.945 60.5471 130.376 61.8113 130.996C63.9303 132.097 66.4655 130.427 67.6574 128.587C68.3631 127.455 68.8811 126.157 69.1073 124.874C69.3448 123.527 69.3607 122.207 69.0962 120.838C68.3998 117.408 66.0254 114.476 64.0241 111.477C60.8695 106.82 58.3323 101.941 56.3537 96.7637C54.8252 92.724 53.7851 88.3736 55.14 84.3794C56.0357 81.7593 58.5551 79.3594 61.5336 79.6862C63.0872 79.894 64.4464 80.7951 65.5499 81.9157C66.6648 82.9721 67.6055 84.1963 68.3834 85.524C69.1613 86.8517 69.7063 88.2707 69.9595 89.7043C70.3665 91.4958 70.5066 93.5709 72.0308 94.7657C73.8716 96.2147 76.832 95.4138 78.3518 93.7637C79.8016 92.1012 80.2088 89.7918 80.5232 87.5984L78.7729 85.6362Z" fill="#F2F2F2"/>
<path d="M79.6472 85.592C79.3465 84.0177 78.8942 82.4828 78.2905 80.9874C77.6867 79.4919 76.9315 78.0359 76.0133 76.6834C75.0952 75.331 74.0957 74.0303 72.8632 72.8208C71.7009 71.6237 70.3757 70.5302 69.0278 69.565C65.8641 67.4197 62.0625 66.0218 58.2156 66.9309C54.8233 67.7218 52.0822 70.1487 49.9132 72.6104C47.5475 75.3681 45.7087 78.4172 44.4783 81.7058C43.2365 85.0585 42.637 88.4584 42.6572 92.0337C42.7701 95.493 43.4778 98.8588 44.7802 102.131C46.0714 105.467 47.3512 108.868 49.2598 111.982C50.2141 113.54 51.4126 114.942 52.5071 116.524C53.5428 118.029 54.5672 119.599 55.4288 121.272C56.3016 122.881 57.1632 124.554 57.8845 126.203C58.5697 127.646 58.988 129.374 60.0689 130.622C60.3041 130.929 60.6207 131.183 61.0074 131.449C61.3353 131.639 61.7334 131.842 62.1427 131.98C62.552 132.119 62.984 132.129 63.4159 132.139C63.8479 132.149 64.221 132.082 64.6055 131.952C66.2723 131.518 67.5727 130.292 68.3937 128.916C68.8913 128.143 69.2487 127.347 69.5359 126.537C69.8232 125.728 69.9815 124.83 70.0698 123.92C70.158 123.009 70.0948 122.138 69.9614 121.255C69.828 120.371 69.6132 119.54 69.2582 118.684C68.0258 115.424 65.6287 112.62 63.7563 109.71C61.6374 106.559 59.9143 103.212 58.4242 99.7745C56.934 96.3369 55.5366 92.7834 55.3287 89.0427C55.2067 86.0448 55.9804 82.4772 59.0064 80.8942C62.2654 79.22 65.3657 82.5447 66.9781 84.8794C67.8962 86.2318 68.57 87.7397 69.011 89.3387C69.3343 90.7847 69.4247 92.3219 70.1211 93.7014C70.4287 94.4171 70.9103 94.965 71.5549 95.4094C72.1994 95.8537 72.9479 96.118 73.7191 96.254C74.5016 96.3258 75.3067 96.2694 76.0756 96.0081C76.8333 95.811 77.5434 95.4732 78.1359 94.9824C79.554 93.9096 80.2687 92.3159 80.7731 90.6851C81.0016 89.7994 81.1486 88.9655 81.307 88.0674C81.4676 87.5666 81.3251 87.1446 80.9497 86.8138L79.4572 85.0294C78.7404 84.1754 77.3449 85.1199 78.0731 85.9097L79.8121 87.9361L79.6335 87.3093C79.2285 90.0159 78.6539 93.6847 75.2616 94.4756C74.9585 94.5544 74.6668 94.5691 74.375 94.5838C74.0833 94.5985 73.7328 94.5367 73.4637 94.4231C73.1945 94.3095 72.9254 94.1959 72.6676 94.0182C72.4098 93.8404 72.2334 93.6109 72.057 93.3814C71.2452 92.2461 71.2023 90.8495 70.9265 89.5442C70.6145 88.034 70.0808 86.5509 69.3142 85.159C68.5477 83.7672 67.6182 82.4788 66.4445 81.3459C65.2121 80.1364 63.8055 79.0947 62.0641 78.7215C61.363 78.5979 60.6393 78.6026 59.9043 78.6714C59.158 78.8044 58.5406 79.0262 57.9006 79.3764C55.1776 80.8805 53.9223 83.9002 53.705 86.7721C53.386 90.2214 54.3628 93.7008 55.5951 96.9607C56.8388 100.156 58.234 103.313 59.9436 106.326C61.5943 109.263 63.6296 112.069 65.5133 114.914C67.3495 117.619 68.7673 120.647 68.342 123.88C68.1293 125.496 67.5887 126.922 66.6275 128.273C65.8744 129.265 64.5151 130.414 63.0904 130.295C61.5254 130.152 60.9216 128.656 60.4015 127.506C59.739 125.934 59.0651 124.426 58.3212 122.906C56.7631 119.854 54.9609 116.956 52.9256 114.15C51.856 112.837 50.8791 111.408 50.0537 109.94C49.2283 108.471 48.6359 106.912 47.962 105.404C46.6844 102.401 45.3367 99.385 44.7466 96.1722C43.485 89.7985 44.9531 83.1124 48.2485 77.5421C49.8204 74.7767 51.9079 72.3668 54.4296 70.3642C55.6034 69.4467 57.0237 68.7712 58.5502 68.3128C60.217 67.8791 61.8634 67.971 63.5821 68.4725C66.8093 69.4384 69.6112 71.586 71.807 73.8913C73.9441 76.1201 75.5338 78.5831 76.635 81.3569C77.1913 82.7117 77.5259 84.0935 77.7904 85.463C78.1477 86.7166 79.828 86.616 79.6472 85.592Z" fill="black"/>
<path d="M82.4447 68.4914C88.126 61.6883 96.0278 61.5603 101.783 61.7153C107.107 61.8603 112.261 62.9675 117.7 64.9187C130.344 69.4632 142.341 75.2164 153.703 82.1143C158.083 84.7387 162.488 87.6321 165.476 91.5982C168.544 95.5126 170.932 100.828 167.899 105.32C164.889 109.684 162.218 114.174 159.863 118.918C157.52 123.598 155.575 128.48 153.969 133.488C152.363 138.496 151.178 143.579 150.413 148.735C149.578 153.88 149.234 159.11 149.182 164.326C149.204 168.299 149.322 172.553 146.947 175.772C144.26 179.531 139.183 181.679 134.486 182.901C128.063 184.48 121.543 185.381 114.903 185.731C108.263 186.082 101.596 185.766 94.9606 184.861C81.4096 183 63.7813 176.386 54.6023 167.36L54.3219 165.26C53.8769 156.715 54.1555 148.166 55.1465 139.676C56.1375 131.186 57.8296 122.82 60.2114 114.641C62.5932 106.463 65.6648 98.4717 69.4148 90.7328C73.0948 82.9815 77.4305 75.6105 82.4447 68.4914Z" fill="#F2F2F2"/>
<path d="M83.0712 69.064C84.2541 67.6852 85.6246 66.4717 87.1716 65.4877C88.7185 64.5038 90.512 63.7617 92.3303 63.2886C95.3608 62.5001 98.5473 62.4667 101.641 62.5492C106.883 62.746 111.99 63.7126 116.879 65.5007C121.78 67.2247 126.635 69.2052 131.386 71.3659C136.138 73.5265 140.855 75.8796 145.469 78.4128C149.824 80.7682 154.157 83.252 158.142 86.0711C161.939 88.7249 165.261 92.0225 167.151 96.0599C168.049 97.9379 168.562 99.9465 168.2 101.999C167.816 104.18 166.273 105.959 165.081 107.799C162.512 111.711 160.271 115.814 158.24 119.953C156.267 124.17 154.505 128.423 153.141 132.878C151.719 137.257 150.635 141.763 149.832 146.317C149.029 150.872 148.506 155.476 148.346 160.077C148.23 162.372 148.266 164.627 148.232 166.87C148.198 169.113 148.071 171.472 147.126 173.554C145.524 177.306 141.417 179.691 137.48 181.113C133.088 182.653 128.318 183.466 123.653 184.098C118.696 184.746 113.655 185.047 108.6 185.016C99.4951 184.998 90.6164 183.697 81.8938 181.101C73.8723 178.628 65.8802 175.168 59.1637 170.214C57.687 169.16 56.303 167.99 55.0117 166.704L55.3532 167.227C55.0367 164.922 54.8717 162.578 54.9171 160.271C54.8155 156.748 54.9242 153.261 55.0443 149.711C55.5921 139.225 57.1916 128.924 59.854 118.744C62.5163 108.565 66.1964 98.763 70.8941 89.3392C74.5084 82.3701 78.532 75.5393 83.0712 69.064C83.6502 68.2401 82.325 67.1466 81.7347 68.0346C74.1151 78.8613 67.9699 90.3449 63.2878 102.549C58.6058 114.754 55.5837 127.384 54.0927 140.349C53.3935 146.774 53.0562 153.197 53.1509 159.629C53.1417 162.141 53.284 164.613 53.5666 167.11C53.5801 167.444 53.6638 167.789 53.9103 168.031C54.4033 168.515 54.8963 168.998 55.4707 169.43C56.468 170.334 57.558 171.121 58.648 171.909C63.4762 175.274 68.6979 178.046 74.3132 180.227C79.9171 182.472 85.6342 184.075 91.582 185.19C98.3823 186.389 105.237 186.87 112.076 186.621C119.114 186.473 126.055 185.646 132.909 184.077C138.785 182.732 145.332 180.447 148.279 175.212C149.862 172.383 150.007 169.101 149.978 165.987C149.971 162.745 150.035 159.515 150.32 156.258C150.82 149.732 152.033 143.266 153.795 136.962C155.557 130.659 157.939 124.53 160.929 118.642C162.394 115.659 164.059 112.778 165.782 109.973C166.673 108.609 167.565 107.245 168.537 105.829C169.406 104.593 169.946 103.167 170.066 101.667C170.295 98.7307 169.205 95.8928 167.638 93.3015C165.883 90.5448 163.698 88.1753 161.095 86.1289C158.411 84.1343 155.634 82.2557 152.672 80.6089C149.533 78.7325 146.382 76.9203 143.139 75.2241C136.595 71.7551 129.831 68.7104 122.94 65.9741C119.5 64.5739 115.956 63.3537 112.367 62.3902C108.837 61.5031 105.321 60.9492 101.643 60.8961C96.962 60.7982 92.2128 61.0852 87.9633 63.0478C85.5072 64.2683 83.4152 65.8837 81.6759 67.9581C81.0969 68.782 82.4221 69.8756 83.0712 69.064Z" fill="black"/>
<path d="M91.8754 65.4576C89.2384 65.6541 87.8995 68.3283 88.5303 70.4899C89.281 73.2019 92.0694 75.0164 94.3195 76.6037C99.652 80.3881 105.367 83.6446 111.394 86.3609C117.479 89.1537 123.784 91.5221 130.101 93.8264C136.767 96.1925 143.516 98.5069 150.194 100.809C153.738 102.029 157.645 103.644 161.481 102.799C164.559 102.151 167.3 99.7243 167.038 96.7016C166.927 95.69 165.247 95.7905 165.276 96.854C165.453 99.1339 163.116 100.905 160.877 101.304C157.741 101.875 154.489 100.64 151.564 99.5954C145.296 97.4317 139.027 95.2681 132.828 93.1168C121.19 89.0143 109.539 84.5788 99.2066 77.9946C97.7774 77.0811 96.3594 76.1035 95.0116 75.1383C93.7113 74.3138 92.5851 73.3215 91.5403 72.2774C90.6945 71.3345 90.093 70.2363 90.3079 69.0175C90.4663 68.1194 91.1267 67.2437 92.2236 67.1726C93.1214 67.0002 93.0423 65.3988 91.8754 65.4576Z" fill="black"/>
<path d="M79.5202 83.4528C72.7189 98.6569 66.3745 114.14 62.5901 130.273C60.8121 137.897 59.3168 145.967 59.443 153.86C59.4902 160.152 61.8622 166.788 68.2192 170.091C69.8113 170.901 70.9422 168.587 69.3501 167.777C62.3847 164.234 61.8379 156.267 62.3041 149.933C62.9151 142.368 64.1571 134.915 66.1001 127.585C69.8686 112.772 75.7652 98.5988 81.9897 84.6158C82.7044 83.0221 80.1535 81.9109 79.5202 83.4528Z" fill="#F2F2F2"/>
<path d="M123.761 83.0513C123.912 83.0119 124.134 82.9848 124.285 82.9454L124.064 82.9724C124.437 82.906 124.81 82.8395 125.231 82.9136L124.95 82.8642C125.312 82.8619 125.592 82.9113 125.932 83.0373C126.072 83.062 126.142 83.0743 126.293 83.0349C126.445 82.9955 126.526 82.9437 126.608 82.8919C126.689 82.8401 126.782 82.7242 126.863 82.6724C126.956 82.5565 126.967 82.4923 126.99 82.364C127.035 82.1074 126.999 81.9026 126.811 81.7373C126.624 81.5719 126.436 81.4065 126.226 81.3694C125.185 81.1198 124.1 81.1268 123.098 81.4793C122.946 81.5188 122.865 81.5705 122.784 81.6223C122.702 81.6741 122.609 81.7901 122.517 81.906C122.424 82.0219 122.401 82.1502 122.39 82.2144C122.367 82.3427 122.415 82.4833 122.474 82.5598C122.521 82.7005 122.58 82.777 122.709 82.8659C122.768 82.9424 122.897 83.0313 123.037 83.056C123.177 83.0807 123.317 83.1054 123.387 83.1178C123.457 83.1302 123.609 83.0907 123.761 83.0513Z" fill="#F2F2F2"/>
<path d="M129.115 85.0546C130.779 86.2741 132.593 87.0569 134.626 87.4154C136.6 87.6974 138.513 87.5056 140.295 86.8277C142.066 86.2139 143.72 85.4471 145.266 84.4632C146.662 83.5187 147.87 82.4088 148.971 81.0817C150.061 79.8188 151.115 78.351 152.804 77.7891C153.958 77.3972 153.225 75.8128 152.153 76.153C149.078 77.198 147.775 80.077 145.545 82.065C144.267 83.1625 142.824 83.9664 141.193 84.6049C139.633 85.2557 137.873 85.8053 136.134 85.8294C134.045 85.7916 132.032 84.9076 130.356 83.7522C129.325 83.0413 128.153 84.356 129.115 85.0546Z" fill="#F2F2F2"/>
<path d="M155.523 77.1433L156.2 76.998C156.34 77.0227 156.421 76.9709 156.503 76.9191C156.584 76.8673 156.736 76.8279 156.758 76.6996C156.84 76.6478 156.862 76.5195 156.955 76.4036C156.978 76.2753 156.989 76.2111 157.012 76.0829L156.975 75.878C156.928 75.7374 156.81 75.5844 156.681 75.4955L156.482 75.3943C156.354 75.3054 156.143 75.2683 155.992 75.3077L155.316 75.4531C155.175 75.4283 155.094 75.4801 155.012 75.5319C154.931 75.5837 154.78 75.6231 154.757 75.7514C154.675 75.8032 154.583 75.9191 154.56 76.0474C154.538 76.1757 154.515 76.304 154.504 76.3682L154.54 76.573C154.587 76.7136 154.705 76.8667 154.834 76.9555L155.033 77.0568C155.162 77.1456 155.372 77.1827 155.523 77.1433Z" fill="#F2F2F2"/>
<path fill-rule="evenodd" clip-rule="evenodd" d="M89.2667 130.864C98.3645 134.175 104.695 127.399 108.304 117.483C111.913 107.567 111.821 98.4526 102.322 94.9952C92.8228 91.5378 86.894 98.4606 83.2849 108.377C79.6758 118.293 80.169 127.553 89.2667 130.864Z" stroke="black" stroke-width="0.607405" stroke-miterlimit="1.7576"/>
<path d="M87.3541 100.707C94.6131 105.718 102.269 108.373 110.195 109.02" stroke="black" stroke-width="0.607405" stroke-miterlimit="1.7576"/>
<path fill-rule="evenodd" clip-rule="evenodd" d="M98.7991 123.496C102.233 124.26 103.599 124.083 105.338 122.22C106.742 120.652 107.75 118.782 108.851 115.758C109.364 113.816 109.94 111.703 110.003 109.404C106.836 108.736 103.116 108.445 100.106 107.35C98.2999 106.692 96.6026 106.02 95.0416 105.313C93.9941 106.526 93.3766 107.589 92.9088 109.083L101.16 113.472L92.0627 113.072C91.5736 117.955 93.2025 122.221 98.7991 123.496Z" fill="#0954B0"/>
<path fill-rule="evenodd" clip-rule="evenodd" d="M124.312 142.475C133.409 145.786 139.74 139.01 143.349 129.094C146.958 119.178 146.866 110.064 137.367 106.606C127.868 103.149 121.939 110.072 118.33 119.988C114.721 129.904 115.214 139.164 124.312 142.475Z" stroke="black" stroke-width="0.607405" stroke-miterlimit="1.7576"/>
<path d="M122.401 112.318C129.66 117.33 137.316 119.985 145.242 120.632" stroke="black" stroke-width="0.607405" stroke-miterlimit="1.7576"/>
<path fill-rule="evenodd" clip-rule="evenodd" d="M133.846 135.107C137.28 135.871 138.646 135.694 140.385 133.831C141.789 132.263 142.797 130.393 143.898 127.369C144.411 125.427 144.987 123.314 145.049 121.015C141.883 120.347 138.163 120.056 135.153 118.961C133.347 118.303 131.649 117.631 130.089 116.924C129.041 118.137 128.424 119.2 127.956 120.694L136.207 125.083L127.11 124.683C126.621 129.566 128.249 133.832 133.846 135.107Z" fill="#0954B0"/>
<path d="M100.64 139.97C102.776 139.253 105.339 140.295 105.41 142.51C105.481 142.966 105.339 143.422 105.054 143.878C104.769 144.334 104.413 144.66 103.986 144.855C103.559 145.116 103.061 145.181 102.491 145.181C101.993 145.181 101.494 144.985 101.067 144.725C100.142 144.073 99.0028 145.376 99.9283 146.027C100.64 146.483 101.352 146.744 102.206 146.809C103.061 146.874 103.844 146.744 104.627 146.418C105.41 146.093 105.979 145.572 106.478 144.92C106.976 144.269 107.189 143.552 107.189 142.771C107.332 139.188 103.345 137.234 99.9283 138.341C98.8604 138.797 99.5011 140.36 100.64 139.97Z" fill="black"/>
<path d="M88.6966 161.861C89.0682 161.519 88.3253 162.203 88.6969 161.861C89.1133 161.53 89.7047 161.115 90.1108 160.826C90.5168 160.536 91.4332 159.857 91.9184 159.63C91.4332 159.857 92.3589 159.393 91.9184 159.63C92.3933 159.445 93.9025 158.606 94.4118 158.473C94.9315 158.299 96.0973 157.787 96.641 157.706C96.142 157.798 97.1504 157.573 96.641 157.706C97.1848 157.625 98.3996 157.306 98.9331 157.266C99.4665 157.227 100.862 157.219 101.385 157.22C101.909 157.221 102.865 157.39 103.378 157.432C102.831 157.338 103.891 157.474 103.378 157.432C103.925 157.526 105.102 157.928 105.629 158.104C106.166 158.239 107.273 158.934 107.81 159.298C108.346 159.662 109.214 160.798 109.559 161.339C109.97 161.982 110.427 163.209 110.49 163.537C110.49 163.537 111.533 168.089 111.363 168.971C110.529 170.2 110.579 168.867 110.579 168.867C110.592 154.776 95.6452 156.785 89.8782 162.298C89.3001 162.893 88.1391 162.373 88.6966 161.861Z" fill="black"/>
<mask id="mask2_3066_5540" style="mask-type:luminance" maskUnits="userSpaceOnUse" x="143" y="16" width="12" height="11">
<path d="M154.521 21.2665L146.623 16.5671L143.803 21.3059L151.701 26.0052L154.521 21.2665Z" fill="white"/>
</mask>
<g mask="url(#mask2_3066_5540)">
<mask id="mask3_3066_5540" style="mask-type:luminance" maskUnits="userSpaceOnUse" x="74" y="4" width="120" height="125">
<path d="M193.139 31.8528L103.539 4.54688L74.028 101.382L163.628 128.688L193.139 31.8528Z" fill="white"/>
</mask>
<g mask="url(#mask3_3066_5540)">
<mask id="mask4_3066_5540" style="mask-type:luminance" maskUnits="userSpaceOnUse" x="74" y="4" width="120" height="125">
<path d="M193.139 31.8531L103.539 4.54712L74.028 101.383L163.628 128.689L193.139 31.8531Z" fill="white"/>
</mask>
<g mask="url(#mask4_3066_5540)">
<path d="M144.745 19.9808C144.745 19.9808 145.198 17.6998 148.717 18.5598C152.236 19.4198 154.294 22.0432 152.99 23.4059C151.746 24.8047 145.204 22.804 144.745 19.9808Z" fill="#F8D648"/>
</g>
</g>
</g>
<mask id="mask5_3066_5540" style="mask-type:luminance" maskUnits="userSpaceOnUse" x="64" y="0" width="141" height="144">
<path d="M204.538 52.0947L118.572 0.944336L64.1323 92.4388L150.098 143.589L204.538 52.0947Z" fill="white"/>
</mask>
<g mask="url(#mask5_3066_5540)">
<mask id="mask6_3066_5540" style="mask-type:luminance" maskUnits="userSpaceOnUse" x="74" y="4" width="120" height="125">
<path d="M193.141 31.8516L103.541 4.54565L74.03 101.381L163.63 128.687L193.141 31.8516Z" fill="white"/>
</mask>
<g mask="url(#mask6_3066_5540)">
<mask id="mask7_3066_5540" style="mask-type:luminance" maskUnits="userSpaceOnUse" x="74" y="4" width="120" height="125">
<path d="M193.137 31.8518L103.537 4.5459L74.0261 101.381L163.626 128.687L193.137 31.8518Z" fill="white"/>
</mask>
<g mask="url(#mask7_3066_5540)">
<mask id="mask8_3066_5540" style="mask-type:luminance" maskUnits="userSpaceOnUse" x="74" y="6" width="119" height="123">
<path d="M192.519 34.3179L102.789 6.96265L74.0321 101.291L163.762 128.646L192.519 34.3179Z" fill="white"/>
</mask>
<g mask="url(#mask8_3066_5540)">
<mask id="mask9_3066_5540" style="mask-type:luminance" maskUnits="userSpaceOnUse" x="74" y="7" width="119" height="122">
<path d="M192.367 34.3301L102.771 7.01611L74.0145 101.345L163.61 128.659L192.367 34.3301Z" fill="white"/>
</mask>
<g mask="url(#mask9_3066_5540)">
<path d="M88.1752 66.2731C88.1752 66.2731 84.4708 64.4802 86.7581 60.0829C88.9848 55.6494 89.9171 52.0088 91.3354 48.6573C92.8144 45.342 94.5526 43.2503 96.2185 41.2801C97.9451 39.346 98.6304 37.7795 99.9056 35.0832C101.181 32.387 108.583 10.9608 142.682 19.3222C146.544 21.1266 150.927 22.7473 150.927 22.7473C150.927 22.7473 156.461 24.2303 160.165 26.0231C163.87 27.816 171.247 32.6991 173.01 34.1596C174.81 35.5594 181.75 40.3471 181.697 52.3259C181.584 64.2685 178.552 70.6084 179.163 75.2497C179.774 79.8909 176.39 82.8132 176.39 82.8132C176.39 82.8132 174.269 89.6953 172.221 89.9574C171.445 99.6959 163.362 120.47 163.362 120.47C163.362 120.47 161.649 126.114 157.382 126.372C153.115 126.63 147.385 121.329 146.085 120.473C144.785 119.617 116.937 103.376 93.4204 104.602C69.9043 105.828 81.3528 83.6841 82.6019 80.4787C83.6572 77.3226 88.1752 66.2731 88.1752 66.2731Z" fill="#0954B0"/>
</g>
</g>
</g>
</g>
</g>
<mask id="mask10_3066_5540" style="mask-type:luminance" maskUnits="userSpaceOnUse" x="71" y="2" width="129" height="131">
<path d="M199.87 49.3116L120.951 2.35449L71.2106 85.951L150.129 132.908L199.87 49.3116Z" fill="white"/>
</mask>
<g mask="url(#mask10_3066_5540)">
<mask id="mask11_3066_5540" style="mask-type:luminance" maskUnits="userSpaceOnUse" x="74" y="4" width="120" height="125">
<path d="M193.151 31.8526L103.551 4.54663L74.0398 101.382L163.64 128.688L193.151 31.8526Z" fill="white"/>
</mask>
<g mask="url(#mask11_3066_5540)">
<mask id="mask12_3066_5540" style="mask-type:luminance" maskUnits="userSpaceOnUse" x="74" y="4" width="120" height="125">
<path d="M193.151 31.8531L103.551 4.54712L74.0398 101.383L163.64 128.689L193.151 31.8531Z" fill="white"/>
</mask>
<g mask="url(#mask12_3066_5540)">
<path d="M95.0067 70.006C95.2236 69.6415 95.4289 69.4346 95.4289 69.4346C95.5012 69.3131 95.5128 69.1555 95.3305 69.047C95.209 68.9747 95.0513 68.9632 94.9429 69.1454C94.9429 69.1454 94.8344 69.3277 94.5206 69.7168C94.4484 69.8383 94.4976 70.0321 94.6191 70.1044L94.6798 70.1406C94.8375 70.1521 94.9344 70.1275 95.0067 70.006ZM165.11 93.6204C165.268 93.6319 165.401 93.5466 165.412 93.3889C165.483 92.8552 165.481 92.443 165.577 92.0062C165.588 91.8485 165.503 91.7155 165.345 91.7039C165.188 91.6924 165.055 91.7777 165.043 91.9354C165.045 92.3476 164.949 92.7844 164.878 93.3181C164.806 93.4396 164.892 93.5727 165.11 93.6204C165.049 93.5842 165.049 93.5842 165.11 93.6204ZM93.5361 72.3392C93.7892 71.914 94.0422 71.4887 94.2229 71.1849C94.2952 71.0634 94.246 70.8696 94.1245 70.7973C94.003 70.725 93.8092 70.7742 93.7369 70.8957C93.52 71.2602 93.3031 71.6248 93.014 72.1108C92.9417 72.2323 92.9909 72.4261 93.1124 72.4984L93.1731 72.5345C93.3308 72.5461 93.4638 72.4607 93.5361 72.3392ZM164.781 96.3859C164.938 96.3974 165.071 96.3121 165.083 96.1544C165.118 95.6814 165.213 95.2446 165.248 94.7717C165.259 94.614 165.174 94.481 165.016 94.4694C164.858 94.4579 164.725 94.5432 164.714 94.7009C164.679 95.1739 164.584 95.6107 164.549 96.0836C164.477 96.2051 164.598 96.2774 164.781 96.3859C164.72 96.3497 164.72 96.3497 164.781 96.3859ZM92.2478 74.7809C92.5009 74.3556 92.657 73.955 92.8739 73.5904C92.9462 73.4689 92.897 73.2751 92.7755 73.2028C92.654 73.1305 92.4602 73.1797 92.3879 73.3012C92.171 73.6658 91.9179 74.091 91.7257 74.5525C91.6534 74.674 91.7026 74.8678 91.8241 74.9401L91.8848 74.9762C91.9817 74.9516 92.1755 74.9024 92.2478 74.7809ZM164.391 99.1152C164.548 99.1268 164.681 99.0414 164.693 98.8838C164.727 98.4108 164.823 97.974 164.858 97.501C164.869 97.3433 164.784 97.2103 164.626 97.1988C164.468 97.1872 164.335 97.2726 164.324 97.4302C164.289 97.9032 164.194 98.34 164.159 98.813C164.148 98.9706 164.269 99.0429 164.391 99.1152ZM90.9595 77.2226C91.1518 76.7612 91.3687 76.3966 91.5856 76.0321C91.6579 75.9106 91.6087 75.7168 91.4872 75.6445C91.3657 75.5722 91.1719 75.6214 91.0996 75.7429C90.8827 76.1074 90.6904 76.5689 90.4374 76.9941C90.3651 77.1157 90.4143 77.3094 90.5358 77.3817C90.5358 77.3817 90.5358 77.3817 90.5965 77.4179C90.7542 77.4294 90.8872 77.3441 90.9595 77.2226ZM164.001 101.845C164.158 101.856 164.291 101.771 164.303 101.613C164.398 101.176 164.433 100.703 164.528 100.267C164.54 100.109 164.454 99.9758 164.297 99.9643C164.139 99.9527 164.006 100.038 163.995 100.196C163.899 100.633 163.864 101.106 163.769 101.542C163.697 101.664 163.782 101.797 164.001 101.845ZM89.7928 79.7365C89.985 79.2751 90.2019 78.9106 90.3581 78.5099C90.4304 78.3884 90.3812 78.1946 90.2597 78.1223C90.1382 78.05 89.9443 78.0992 89.872 78.2207C89.7159 78.6214 89.4629 79.0467 89.2706 79.5081C89.1983 79.6296 89.2475 79.8234 89.4052 79.835C89.4052 79.835 89.4051 79.835 89.4659 79.8711C89.5874 79.9434 89.7205 79.8581 89.7928 79.7365ZM163.453 104.562C163.611 104.574 163.744 104.489 163.755 104.331C163.85 103.894 163.946 103.457 163.981 102.984C163.992 102.827 163.907 102.694 163.749 102.682C163.591 102.671 163.458 102.756 163.447 102.914C163.351 103.35 163.256 103.787 163.221 104.26C163.246 104.357 163.331 104.49 163.453 104.562ZM88.626 82.2505C88.8183 81.7891 88.9744 81.3884 89.1913 81.0239C89.2636 80.9024 89.2144 80.7086 89.0567 80.6971C88.9352 80.6248 88.7414 80.674 88.7299 80.8316C88.5737 81.2323 88.3814 81.6937 88.2253 82.0944C88.153 82.2159 88.2022 82.4097 88.3599 82.4212C88.4206 82.4574 88.6144 82.4082 88.626 82.2505ZM162.844 107.244C163.002 107.256 163.135 107.17 163.207 107.049C163.303 106.612 163.398 106.175 163.53 105.678C163.541 105.52 163.456 105.387 163.298 105.375C163.141 105.364 163.008 105.449 162.996 105.607C162.901 106.044 162.805 106.48 162.674 106.978C162.601 107.099 162.687 107.232 162.844 107.244ZM87.6168 84.776C87.8091 84.3146 87.9653 83.9139 88.1214 83.5133C88.1937 83.3918 88.1445 83.198 87.9868 83.1864C87.8653 83.1141 87.6715 83.1633 87.66 83.321C87.5038 83.7217 87.3116 84.1831 87.1554 84.5837C87.0831 84.7053 87.1323 84.8991 87.3507 84.9467C87.4115 84.9829 87.5445 84.8975 87.6168 84.776ZM162.441 109.719C162.489 109.5 162.597 109.318 162.645 109.1C162.693 108.881 162.777 108.602 162.86 108.323C162.872 108.165 162.787 108.032 162.665 107.96C162.508 107.948 162.374 108.034 162.302 108.155C162.218 108.434 162.171 108.653 162.123 108.871C162.075 109.09 161.967 109.272 161.955 109.43C161.883 109.551 162.029 109.72 162.151 109.793C162.236 109.926 162.369 109.84 162.441 109.719ZM86.3662 87.5692C86.5239 87.5807 86.6569 87.4954 86.7292 87.3738C86.7408 87.2162 86.8492 87.0339 86.8608 86.8763C86.9446 86.5971 87.0284 86.318 87.1123 86.0388C87.1846 85.9173 87.1354 85.7235 86.917 85.6758C86.7955 85.6035 86.6016 85.6527 86.554 85.8711C86.4701 86.1503 86.3863 86.4294 86.3024 86.7086C86.2909 86.8663 86.1824 87.0485 86.1709 87.2062C86.1593 87.3638 86.2447 87.4969 86.3662 87.5692ZM161.396 112.305C161.552 111.904 161.805 111.479 161.997 111.018C162.07 110.896 162.021 110.702 161.802 110.655C161.681 110.582 161.487 110.632 161.439 110.85C161.247 111.311 161.091 111.712 160.874 112.077C160.802 112.198 160.851 112.392 160.972 112.464C160.972 112.464 160.972 112.464 161.033 112.5C161.191 112.512 161.324 112.427 161.396 112.305ZM85.9762 90.2985C86.1338 90.3101 86.2669 90.2247 86.2784 90.067C86.2769 89.6548 86.3115 89.1819 86.4069 88.7451C86.4185 88.5874 86.3331 88.4544 86.1754 88.4428C86.0178 88.4313 85.8847 88.5166 85.8732 88.6743C85.7778 89.1111 85.707 89.6448 85.7085 90.057C85.7331 90.1539 85.8185 90.287 85.9762 90.2985ZM131.299 104.268C131.31 104.111 131.225 103.978 131.103 103.905C130.703 103.749 130.205 103.618 129.805 103.462C129.647 103.45 129.514 103.535 129.442 103.657C129.43 103.815 129.515 103.948 129.637 104.02C130.074 104.115 130.535 104.308 130.936 104.464C131.093 104.475 131.226 104.39 131.299 104.268ZM126.967 103.254C127.404 103.349 127.901 103.481 128.302 103.637C128.459 103.648 128.593 103.563 128.665 103.442C128.676 103.284 128.591 103.151 128.469 103.079C128.033 102.983 127.571 102.791 127.134 102.696C126.977 102.684 126.844 102.769 126.771 102.891C126.699 103.012 126.845 103.182 126.967 103.254ZM133.897 105.156C133.969 105.035 133.92 104.841 133.701 104.793C133.301 104.637 132.839 104.445 132.402 104.349C132.281 104.277 132.087 104.326 132.039 104.545C131.967 104.666 132.052 104.799 132.235 104.908C132.635 105.064 133.133 105.195 133.534 105.351C133.691 105.363 133.824 105.278 133.897 105.156ZM124.261 102.548C124.697 102.644 125.134 102.739 125.632 102.871C125.789 102.882 125.922 102.797 125.995 102.675C126.006 102.518 125.921 102.385 125.799 102.312C125.363 102.217 124.926 102.122 124.428 101.99C124.271 101.979 124.137 102.064 124.065 102.185C124.054 102.343 124.103 102.537 124.261 102.548ZM136.483 106.201C136.555 106.08 136.506 105.886 136.348 105.874C135.948 105.718 135.486 105.526 135.086 105.37C134.964 105.298 134.77 105.347 134.759 105.504C134.686 105.626 134.736 105.82 134.954 105.867C135.415 106.06 135.816 106.216 136.217 106.372C136.278 106.408 136.411 106.323 136.483 106.201ZM121.543 102.001L121.761 102.048C122.137 102.108 122.574 102.203 122.95 102.262C123.108 102.274 123.241 102.188 123.252 102.031C123.264 101.873 123.178 101.74 123.021 101.729C122.645 101.669 122.208 101.574 121.832 101.515L121.613 101.467C121.456 101.455 121.323 101.541 121.311 101.699C121.336 101.795 121.421 101.928 121.543 102.001ZM138.997 107.368C139.069 107.247 139.02 107.053 138.898 106.981C138.498 106.824 138.072 106.571 137.611 106.379C137.49 106.307 137.296 106.356 137.284 106.514C137.212 106.635 137.261 106.829 137.419 106.84C137.88 107.033 138.281 107.189 138.645 107.406C138.645 107.406 138.645 107.406 138.706 107.442C138.828 107.514 138.925 107.49 138.997 107.368ZM118.886 101.489C119.322 101.585 119.759 101.68 120.232 101.715C120.39 101.726 120.523 101.641 120.534 101.483C120.546 101.325 120.461 101.192 120.303 101.181C119.866 101.086 119.393 101.051 118.956 100.955C118.799 100.944 118.666 101.029 118.654 101.187C118.582 101.308 118.667 101.442 118.886 101.489C118.825 101.453 118.825 101.453 118.886 101.489ZM116.132 101.002C116.569 101.098 117.041 101.132 117.478 101.228C117.636 101.239 117.769 101.154 117.781 100.996C117.792 100.839 117.707 100.705 117.549 100.694C117.112 100.599 116.639 100.564 116.202 100.469C116.045 100.457 115.912 100.542 115.9 100.7C115.864 100.761 115.949 100.894 116.132 101.002ZM141.475 108.596C141.547 108.474 141.498 108.28 141.376 108.208C141.012 107.991 140.55 107.799 140.125 107.546C140.004 107.474 139.81 107.523 139.737 107.644C139.665 107.766 139.714 107.96 139.836 108.032C140.297 108.224 140.662 108.441 141.087 108.694C141.087 108.694 141.087 108.694 141.148 108.73C141.305 108.742 141.439 108.656 141.475 108.596ZM113.378 100.515C113.815 100.611 114.288 100.645 114.724 100.741C114.882 100.752 115.015 100.667 115.027 100.509C115.038 100.352 114.953 100.219 114.795 100.207C114.358 100.112 113.885 100.077 113.449 99.9816C113.291 99.97 113.158 100.055 113.146 100.213C113.171 100.31 113.256 100.443 113.378 100.515ZM159.829 114.663C160.106 114.335 160.42 113.945 160.673 113.52C160.745 113.399 160.696 113.205 160.575 113.133C160.453 113.06 160.259 113.109 160.187 113.231C159.934 113.656 159.656 113.985 159.379 114.313C159.306 114.434 159.295 114.592 159.38 114.725C159.441 114.761 159.441 114.761 159.502 114.797C159.659 114.809 159.756 114.784 159.829 114.663ZM143.916 109.884C143.989 109.762 143.939 109.569 143.818 109.496C143.453 109.279 143.028 109.026 142.567 108.834C142.445 108.762 142.251 108.811 142.179 108.933C142.107 109.054 142.156 109.248 142.277 109.32C142.703 109.573 143.103 109.729 143.529 109.982L143.589 110.019C143.747 110.03 143.844 110.005 143.916 109.884ZM110.624 100.028C111.061 100.124 111.534 100.158 111.97 100.254C112.128 100.265 112.261 100.18 112.273 100.022C112.284 99.8646 112.199 99.7316 112.041 99.72C111.604 99.6246 111.131 99.59 110.695 99.4946C110.537 99.4831 110.404 99.5684 110.392 99.7261C110.417 99.823 110.502 99.956 110.624 100.028ZM107.931 99.5775C108.367 99.6729 108.84 99.7075 109.277 99.8029C109.435 99.8145 109.568 99.7291 109.579 99.5715C109.591 99.4138 109.506 99.2808 109.348 99.2692C108.911 99.1738 108.438 99.1392 108.001 99.0438C107.844 99.0323 107.711 99.1176 107.699 99.2753C107.688 99.4329 107.773 99.566 107.931 99.5775ZM86.4105 93.0248C86.5436 92.9395 86.6159 92.818 86.6274 92.6603C86.4682 92.2366 86.3698 91.8489 86.3437 91.3398C86.3553 91.1822 86.173 91.0737 86.0761 91.0983C85.9184 91.0868 85.81 91.2691 85.8346 91.366C85.8607 91.8751 85.9837 92.3596 86.1429 92.7833C86.1675 92.8802 86.2283 92.9164 86.3498 92.9887C86.3136 93.0494 86.4105 93.0248 86.4105 93.0248ZM146.286 111.294C146.358 111.172 146.309 110.978 146.187 110.906C145.823 110.689 145.397 110.436 144.972 110.183C144.851 110.111 144.657 110.16 144.585 110.282C144.512 110.403 144.562 110.597 144.683 110.669C145.108 110.922 145.473 111.139 145.898 111.392L145.959 111.428C146.116 111.44 146.25 111.355 146.286 111.294ZM105.177 99.0906C105.613 99.186 106.086 99.2206 106.523 99.316C106.681 99.3275 106.814 99.2422 106.825 99.0845C106.837 98.9268 106.752 98.7938 106.594 98.7823C106.157 98.6869 105.684 98.6522 105.247 98.5569C105.09 98.5453 104.957 98.6307 104.945 98.7883C104.934 98.946 105.019 99.079 105.177 99.0906C105.14 99.1513 105.14 99.1513 105.177 99.0906ZM102.447 98.7005C102.884 98.7959 103.357 98.8305 103.794 98.9259C103.952 98.9375 104.085 98.8521 104.096 98.6945C104.108 98.5368 104.022 98.4038 103.865 98.3922C103.392 98.3576 102.955 98.2622 102.518 98.1668C102.36 98.1553 102.227 98.2406 102.216 98.3983C102.204 98.5559 102.29 98.689 102.447 98.7005ZM148.716 112.74C148.788 112.618 148.739 112.424 148.617 112.352C148.253 112.135 147.828 111.882 147.438 111.568C147.317 111.496 147.123 111.545 147.051 111.667C146.979 111.788 147.028 111.982 147.149 112.054C147.575 112.307 148 112.56 148.328 112.838L148.389 112.874C148.45 112.91 148.644 112.861 148.716 112.74ZM99.7179 98.3105C100.155 98.4059 100.628 98.4405 101.101 98.4751C101.258 98.4867 101.391 98.4013 101.403 98.2436C101.414 98.086 101.329 97.9529 101.171 97.9414C100.698 97.9068 100.262 97.8114 99.7887 97.7767C99.6311 97.7652 99.498 97.8506 99.4865 98.0082C99.4749 98.1659 99.5603 98.2989 99.7179 98.3105ZM157.397 116.26C157.882 116.137 158.342 115.917 158.741 115.661C158.874 115.576 158.886 115.418 158.8 115.285C158.715 115.152 158.557 115.14 158.424 115.226C158.025 115.482 157.662 115.677 157.214 115.739C157.02 115.789 156.948 115.91 156.997 116.104C157.021 116.201 157.082 116.237 157.204 116.309C157.301 116.285 157.337 116.224 157.397 116.26ZM151.049 114.21C151.121 114.089 151.072 113.895 150.951 113.823C150.647 113.642 150.161 113.353 149.796 113.136C149.675 113.064 149.481 113.113 149.409 113.234C149.336 113.356 149.386 113.55 149.507 113.622C150.115 113.983 150.418 114.164 150.722 114.345L150.783 114.381C150.88 114.356 150.977 114.332 151.049 114.21ZM96.9524 97.9812C97.3285 98.0404 97.8015 98.075 98.3352 98.1458C98.4928 98.1574 98.6259 98.072 98.6374 97.9144C98.649 97.7567 98.5636 97.6236 98.406 97.6121C97.8723 97.5413 97.4354 97.4459 97.0232 97.4474C96.8656 97.4359 96.7325 97.5213 96.721 97.6789C96.7456 97.7758 96.7702 97.8727 96.9524 97.9812ZM88.0554 95.2375C88.1885 95.1521 88.1393 94.9583 88.0539 94.8253C87.7255 94.5476 87.4695 94.1485 87.1772 93.8101C87.0919 93.677 86.9342 93.6655 86.8012 93.7508C86.6681 93.8362 86.6566 93.9939 86.7419 94.1269C86.998 94.5261 87.351 94.9006 87.6432 95.239C87.704 95.2752 87.704 95.2751 87.7647 95.3113C87.8255 95.3474 87.9831 95.359 88.0554 95.2375ZM153.563 115.377C153.635 115.256 153.586 115.062 153.465 114.989C153.222 114.845 152.942 114.761 152.699 114.616C152.517 114.508 152.396 114.436 152.274 114.363C152.153 114.291 151.959 114.34 151.887 114.462C151.814 114.583 151.863 114.777 151.985 114.849C152.106 114.922 152.289 115.03 152.41 115.102C152.653 115.247 152.932 115.331 153.236 115.512C153.236 115.512 153.236 115.512 153.297 115.548C153.358 115.584 153.491 115.499 153.563 115.377ZM94.2231 97.5911C94.3807 97.6027 94.7568 97.6619 95.6058 97.7558C95.7635 97.7673 95.8966 97.6819 95.9081 97.5243C95.9196 97.3666 95.8343 97.2336 95.6766 97.222C94.9245 97.1036 94.5123 97.1051 94.3546 97.0935L94.2939 97.0574C94.1362 97.0458 94.0032 97.1312 94.0524 97.325C93.9439 97.5073 94.0654 97.5796 94.2231 97.5911C94.1869 97.6519 94.1869 97.6519 94.2231 97.5911ZM155.931 116.375C156.089 116.386 156.222 116.301 156.233 116.143C156.245 115.985 156.159 115.852 156.002 115.841C155.589 115.842 155.153 115.747 154.691 115.555C154.534 115.543 154.401 115.629 154.328 115.75C154.256 115.872 154.402 116.041 154.524 116.113C154.584 116.149 154.645 116.185 154.681 116.125C155.118 116.22 155.555 116.315 155.931 116.375ZM90.4248 96.6473C90.4971 96.5258 90.4479 96.332 90.2902 96.3204C89.8896 96.1643 89.4643 95.9112 89.0998 95.6944C88.9783 95.6221 88.7845 95.6713 88.7122 95.7928C88.6399 95.9143 88.6891 96.1081 88.8106 96.1804C89.1751 96.3973 89.6004 96.6503 90.0618 96.8426C90.2194 96.8541 90.3525 96.7688 90.4248 96.6473ZM91.3968 97.2257C91.8337 97.321 92.3312 97.4526 92.8042 97.4872C92.9619 97.4988 93.0949 97.4134 93.1064 97.2557C93.118 97.0981 93.0326 96.965 92.875 96.9535C92.4382 96.8581 91.9652 96.8235 91.5645 96.6673C91.4069 96.6558 91.2738 96.7411 91.2015 96.8627C91.19 97.0203 91.2753 97.1534 91.3968 97.2257ZM165.342 90.8795C165.5 90.891 165.633 90.8057 165.645 90.648C165.679 90.1751 165.727 89.9566 165.727 89.9566C165.738 89.799 165.653 89.6659 165.495 89.6544C165.338 89.6428 165.205 89.7282 165.193 89.8859C165.193 89.8859 165.206 90.1404 165.111 90.5772C165.039 90.6988 165.16 90.771 165.342 90.8795ZM150.931 22.7468C162.373 25.3599 167.947 31.062 175.335 38.8305C182.723 46.5991 177.89 61.0809 175.34 66.4734C172.789 71.8658 172.198 82.5372 172.198 82.5372C172.198 82.5372 172.201 89.8601 169.148 90.429C154.768 90.2637 100.092 71.5513 95.4405 69.277C90.7886 67.0026 91.7254 64.5986 91.7254 64.5986C91.7254 64.5986 92.4293 61.4802 95.042 56.536C97.6547 51.5919 100.749 39.2019 101.569 37.9622C102.425 36.6618 104.588 21.4139 120.509 18.7123C136.515 16.1437 150.931 22.7468 150.931 22.7468Z" fill="#F0F0EF"/>
</g>
</g>
</g>
<path d="M159.288 63.5851L159.032 63.1859C158.52 62.3876 157.488 62.1853 156.751 62.7336L151.756 66.0133C150.957 66.5255 150.755 67.5568 151.303 68.2943L151.559 68.6935C152.071 69.4918 153.103 69.6941 153.84 69.1458L158.835 65.8661C159.598 65.4147 159.8 64.3834 159.288 63.5851Z" fill="url(#paint0_linear_3066_5540)"/>
<path d="M121.742 66.0037L120.987 68.5162L120.586 68.36L121.341 65.8476C121.556 65.0709 121.276 64.5748 120.657 64.371C120.038 64.1671 119.384 64.4363 119.024 65.456L118.353 67.6893L117.952 67.5332L118.707 65.0207C118.922 64.244 118.642 63.7479 118.023 63.5441C117.404 63.3403 116.653 63.634 116.39 64.6291L115.719 66.8624L115.318 66.7063L116.528 62.7373L116.929 62.8934L116.689 63.5733C117.136 63.0988 117.681 63.0119 118.203 63.2403C118.762 63.408 119.175 63.8187 119.165 64.3886C119.612 63.9141 120.158 63.8272 120.716 63.9949C121.578 64.3433 122.005 65.0086 121.742 66.0037Z" fill="#4D5050"/>
<path d="M127.123 66.0806L125.913 70.0496L125.513 69.8935L125.8 68.9952C125.256 69.4943 124.578 69.6665 123.801 69.4512C122.685 69.1158 122.074 67.9299 122.349 66.7771C122.72 65.5997 123.906 64.9891 125.023 65.3245C125.8 65.5399 126.263 66.1444 126.435 66.8227L126.722 65.9244L127.123 66.0806ZM126.099 67.9393C126.387 67.0411 125.923 66.0244 124.927 65.7613C124.029 65.4736 123.037 66.035 122.749 66.9332C122.462 67.8315 122.926 68.8482 123.921 69.1112C124.88 69.4351 125.872 68.8737 126.099 67.9393Z" fill="#4D5050"/>
<path d="M129.609 71.1757L128.084 68.6231L127.497 70.5772L127.096 70.4211L128.798 64.9348L129.199 65.0909L128.192 68.4409L130.722 67.2313L131.28 67.399L128.557 68.6578L130.131 71.4041L129.609 71.1757Z" fill="#4D5050"/>
<path d="M134.877 70.6107C134.84 70.6715 134.804 70.7322 134.829 70.8291L131.261 69.7753C131.07 70.649 131.582 71.4473 132.48 71.7349C133.099 71.9388 133.681 71.7912 134.055 71.4382L134.347 71.7766C133.84 72.2149 133.162 72.3871 132.324 72.1356C131.147 71.7641 130.5 70.6389 130.871 69.4615C131.243 68.2841 132.332 67.6982 133.546 68.0089C134.759 68.3197 135.176 69.5548 134.877 70.6107ZM131.356 69.3385L134.487 70.2969C134.654 69.3264 134.202 68.5642 133.426 68.3489C132.527 68.0612 131.704 68.4764 131.356 69.3385Z" fill="#4D5050"/>
<path d="M136.653 67.6342C136.664 67.4765 136.894 67.3666 137.052 67.3781C137.21 67.3897 137.32 67.6196 137.308 67.7773C137.297 67.9349 137.067 68.0449 136.909 68.0333C136.691 67.9857 136.641 67.7918 136.653 67.6342ZM136.367 68.9446L136.767 69.1008L135.558 73.0698L135.157 72.9137L136.367 68.9446Z" fill="#4D5050"/>
<path d="M138.756 70.0385L137.965 72.6117C137.725 73.2916 138.125 73.4477 138.938 73.6023L138.818 73.9423C137.751 73.8007 137.276 73.3538 137.564 72.4556L138.355 69.8824L137.517 69.6309L137.674 69.2302L138.511 69.4817L138.835 68.5227L139.247 68.5212L138.912 69.6379L140.089 70.0094L139.933 70.41L138.756 70.0385Z" fill="#4D5050"/>
<path d="M145.143 75.8955L143.905 75.4879L144.899 72.2956L142.761 74.2312L142.639 74.1589L141.926 71.3487L140.931 74.541L139.693 74.1334L141.394 68.647L142.632 69.0547L143.371 71.9617L145.606 70.0015L146.844 70.4092L145.143 75.8955Z" fill="#4D5050"/>
<path d="M147.28 70.5044L148.676 70.9236L148.668 75.3611L151.127 71.642L152.523 72.0612L149.086 77.0084L147.472 76.5415L147.28 70.5044Z" fill="#4D5050"/>
<path d="M156.402 75.3571C156.103 76.413 155.014 76.9989 153.897 76.6635L153.06 76.412L152.521 78.1477L151.283 77.7401L152.984 72.2538L155.06 72.9129C156.116 73.2122 156.702 74.3012 156.402 75.3571ZM155.128 75.0102C155.284 74.6095 155.028 74.2103 154.688 74.0903L153.851 73.8388L153.432 75.2346L154.269 75.4862C154.609 75.6061 155.008 75.3501 155.128 75.0102Z" fill="#4D5050"/>
<path d="M150.333 49.2032C150.995 47.952 151.45 46.4955 151.566 44.9189C152.113 38.7458 147.606 33.1853 141.384 32.4443C137.454 31.9981 133.787 33.5998 131.432 36.3122C131.798 36.9413 132.93 37.9434 135.641 36.8423C139.431 35.3128 145.651 35.6415 147.921 39.7069C151.693 46.6401 144.026 51.7846 150.238 56.5508L151.427 56.7646L150.179 53.4715C149.543 52.1887 149.659 50.6121 150.333 49.2032Z" fill="#F8D648"/>
<path d="M158.772 57.6833L158.515 57.2841C158.089 56.6189 157.19 56.3312 156.501 56.6611C156.358 54.2732 154.666 52.2789 155.423 50.5909C157.599 45.5514 157.25 39.5028 153.934 34.5684C148.765 26.8037 138.294 24.769 130.566 29.8774C122.801 35.0466 120.766 45.5172 125.875 53.2456C129.215 58.277 134.729 60.8997 140.318 60.77C141.809 60.7524 142.991 62.3606 144.656 63.4335L152.583 59.5125L145.423 64.2187C145.194 64.7409 145.245 65.3469 145.526 65.843L145.782 66.2421C146.294 67.0404 147.325 67.2428 148.063 66.6945L158.258 59.9281C159.081 59.5129 159.284 58.4816 158.772 57.6833ZM154.182 39.405C155.139 42.3597 155.005 45.4882 153.936 48.3898C154.027 46.7163 154.433 45.066 154.245 43.3087C153.878 39.2242 151.815 35.3642 148.544 32.8423C146.113 30.9842 143.054 29.9043 139.986 29.8064C137.646 29.7302 135.721 30.4768 133.528 30.982C141.393 26.6126 151.508 30.9037 154.182 39.405ZM150.16 56.6723L143.947 55.3615C143.292 55.2184 142.625 55.233 141.983 55.3445C141.147 55.5051 140.287 55.5689 139.438 55.4751C133.095 55.0741 128.262 49.6481 128.699 43.245C128.859 40.6256 129.918 38.2939 131.511 36.4452C133.902 33.6721 137.533 32.1311 141.463 32.5774C147.625 33.2822 152.167 38.7819 151.645 45.052C151.468 46.5924 151.11 48.0243 150.412 49.3363C149.677 50.709 149.659 52.261 150.185 53.726L151.434 57.0192L150.16 56.6723Z" fill="url(#paint1_linear_3066_5540)"/>
<defs>
<linearGradient id="paint0_linear_3066_5540" x1="100.721" y1="64.9766" x2="168.993" y2="66.2282" gradientUnits="userSpaceOnUse">
<stop stop-color="#58C5D0"/>
<stop offset="0.3896" stop-color="#499CC0"/>
<stop offset="1" stop-color="#2F54A4"/>
</linearGradient>
<linearGradient id="paint1_linear_3066_5540" x1="101.066" y1="46.3163" x2="169.337" y2="47.5679" gradientUnits="userSpaceOnUse">
<stop stop-color="#58C5D0"/>
<stop offset="0.3896" stop-color="#499CC0"/>
<stop offset="1" stop-color="#2F54A4"/>
</linearGradient>
</defs>
</svg>
