<svg width="32" height="32" viewBox="0 0 32 32" fill="none" xmlns="http://www.w3.org/2000/svg">
<path d="M23.1776 29.6813C23.0411 29.3682 15.6261 24.957 15.6176 24.9511C14.5717 24.1821 14.4443 23.4338 15.288 23.0039C16.0117 22.6365 16.6341 21.4519 17.1035 20.1842C17.1893 20.2221 17.2789 20.2301 17.3707 20.2039C19.3403 19.6279 19.3755 15.653 18.0581 16.3549C19.2896 5.61085 4.4144 5.60552 5.64587 16.3554C4.32693 15.6519 4.3632 19.6279 6.33227 20.2039C6.42347 20.2301 6.51414 20.2221 6.6 20.1847C7.0688 21.4519 7.69013 22.6365 8.41387 23.0039C9.26454 23.437 9.09654 24.1485 8.06347 24.9677C7.71894 25.2413 2.9184 27.9175 1.5632 28.8231C1.56053 28.8237 1.55573 28.8269 1.55573 28.8269H1.55733C0.997867 29.2018 0.6 29.5133 0.525867 29.6818C0.139733 30.5719 0 32.0013 0 32.0013H23.7035C23.7035 32.0013 23.5648 30.5719 23.1776 29.6813Z" fill="#0954B0"/>
<path d="M17.3575 9.52906C18.3255 10.6149 19.3911 12.4848 19.3138 15.4112C19.6892 15.6923 20.0028 16.1733 20.1095 16.9189C20.3058 18.296 19.7452 20.552 17.9548 21.2544C17.47 22.3984 16.9404 23.2059 16.3522 23.7024H32.0007C32.0007 23.7024 31.861 22.2731 31.4748 21.3824C31.3383 21.0699 23.9234 16.6587 23.9154 16.6523C22.8684 15.8837 22.7415 15.1355 23.5852 14.7056C24.309 14.3376 24.9308 13.1536 25.4007 11.8859C25.486 11.9232 25.5767 11.9317 25.6679 11.9045C27.637 11.3296 27.6727 7.35466 26.3554 8.05652C27.5612 -2.46081 13.3426 -2.68108 13.8956 7.39732C15.2311 7.77066 16.438 8.49866 17.3575 9.52906Z" fill="#0954B0"/>
</svg>
