<svg width="185" height="199" viewBox="0 0 185 199" fill="none" xmlns="http://www.w3.org/2000/svg">
<path d="M63.062 111.637L58.7987 114.364L54.1003 112.346L55.1227 117.344L51.7848 121.17L56.8128 121.576L59.3837 126.187L61.3781 121.433L66.3174 120.398L62.5359 117.021L63.062 111.637Z" fill="#73CC33"/>
<path d="M162 42.872L155.467 41.6806L152.636 35.5373L149.762 41.5229L143.036 42.2034L147.756 47.0992L146.155 53.5531L152.227 50.6885L157.988 54.0246L157.026 47.3555L162 42.872Z" fill="#3DA329"/>
<path d="M72.8639 6.43098L76.9516 11.005L75.4977 16.7085L80.8327 14.2646L86.0128 17.3153L85.2421 11.4148L89.7627 7.27887L84.098 6.1294L81.6826 0.73143L78.6676 5.97271L72.8639 6.43098Z" fill="#3DA329"/>
<path d="M132.887 119.772L132.293 121.003L131.087 121.423L132.002 122.129L131.814 123.56L132.917 122.834L134.133 123.435L133.718 122.214L134.716 121.183L133.302 120.993L132.887 119.772Z" fill="#73CC33"/>
<path d="M74.6218 53.4108L75.2833 55.7761L73.7487 57.4488L76.24 57.4843L77.3974 59.4433L78.0818 57.2212L80.4195 56.5518L78.5184 55.2021L78.7542 52.9323L76.818 54.1033L74.6218 53.4108Z" fill="#3DA329"/>
<path d="M120.772 135.763L116.262 139.544L110.673 138.064L112.646 143.671L109.397 148.633L115.374 148.188L119.111 152.751L120.573 147.096L126.114 145.099L121.211 141.812L120.772 135.763Z" fill="#3DA329"/>
<path d="M75.9262 172.896L75.5947 169.939L77.894 167.773L74.9616 167.088L74.0269 164.341L72.5386 166.908L69.6162 167.243L71.352 169.369L70.6747 172.336L73.2855 171.085L75.9262 172.896Z" fill="#FFEA00"/>
<path d="M32.3235 82.124L31.1089 85.6966L27.617 86.7267L30.5266 88.9351L30.5879 92.4851L33.4196 90.1753L36.9504 91.4043L35.6133 87.8768L37.8015 85.2555L34.2874 84.9948L32.3235 82.124Z" fill="#FFEA00"/>
<path d="M176.418 29.4232L172.016 33.5763L166.079 32.3008L168.538 37.9799L165.429 43.486L171.327 42.412L175.658 47.2618L176.61 41.1709L182.223 38.6827L177.089 35.62L176.418 29.4232Z" fill="#3DA329"/>
<path d="M29.196 50.6736L33.5812 47.3971L38.5569 49.1271L36.5488 43.9589L39.77 39.5327L34.2869 39.7786L31.3162 35.5174L29.874 40.7276L24.6723 42.313L29.2206 45.3016L29.196 50.6736Z" fill="#26D9CA"/>
<path d="M14.9653 54.0624L15.964 48.6401L20.7136 46.1539L15.8168 44.0778L15.1892 38.6179L11.3449 42.5813L6.30006 41.5148L8.75721 46.3205L6.33571 51.0134L11.3623 50.1166L14.9653 54.0624Z" fill="#FFEA00"/>
<path d="M134.72 59.5854L132.516 61.4192L129.634 60.8274L130.604 63.3844L129.145 65.9069L131.995 65.7777L133.808 68.0075L134.684 65.2224L137.211 64.2408L134.848 62.4695L134.72 59.5854Z" fill="#73CC33"/>
<path d="M64.4987 143.686L60.2267 144.923L56.9666 142.154L56.5935 146.48L52.8347 148.942L57.1767 150.482L58.1439 154.998L60.9427 151.248L65.2183 151.625L62.7853 147.822L64.4987 143.686Z" fill="#3DA329"/>
<path d="M129.725 168.74L127.526 167.694L127.285 165.424L125.625 167.304L123.404 166.902L124.612 168.883L123.578 171.107L125.832 170.541L127.37 172.21L127.767 169.963L129.725 168.74Z" fill="#1A9FFF"/>
<path d="M100.244 50.3455L97.1945 49.5785L96.0676 46.8297L94.6258 49.709L91.7429 49.8956L93.7569 52.1583L92.9434 54.9255L95.6601 53.7853L98.1916 55.3002L98.0072 52.3833L100.244 50.3455Z" fill="#FFEA00"/>
<path d="M111.679 122.137L109.772 118.509L111.502 114.994L107.586 115.808L104.883 112.609L104.281 116.81L100.696 118.739L104.17 120.489L104.975 124.451L107.526 121.527L111.679 122.137Z" fill="#1A9FFF"/>
<path d="M20.2898 124.736L15.6568 120.665L16.8059 114.54L11.2267 117.483L5.74841 114.781L6.89868 120.837L2.60459 125.353L8.72515 125.798L11.6338 131.443L14.3046 125.9L20.2898 124.736Z" fill="#1A9FFF"/>
<path d="M135.739 46.2965L137.254 41.3226L142.04 39.8822L138.029 36.8724L137.973 31.6182L133.852 34.8162L128.992 32.9657L130.73 37.8644L127.755 41.9223L132.634 41.8094L135.739 46.2965Z" fill="#679BE4"/>
<path d="M77.2079 81.4617L77.6443 82.675L76.8541 83.3095L77.9717 83.5849L78.5988 84.3844L78.871 83.2537L79.8794 83.2258L78.9525 82.5367L79.2248 81.406L78.4345 82.0405L77.2079 81.4617Z" fill="#26D9CA"/>
<path d="M81.6702 153.982L86.3625 155.13L88.1165 159.861L90.8042 155.603L95.6298 155.467L92.5067 151.565L93.6414 146.817L89.2503 148.946L85.042 146.227L85.4936 151.143L81.6702 153.982Z" fill="#73CC33"/>
<path d="M64.6119 98.9713L60.7562 99.4184L58.1678 96.1399L57.2951 100.087L53.3965 101.554L56.9478 103.545L57.1709 107.846L60.3232 104.917L64.0052 106.199L62.5555 102.254L64.6119 98.9713Z" fill="#3DA329"/>
<path d="M70.9432 42.386L70.5013 38.4848L73.7415 35.8658L69.8407 34.9828L68.391 31.0382L66.4225 34.6314L62.1722 34.8572L64.9794 37.7364L63.8 41.7721L67.3919 40.3942L70.9432 42.386Z" fill="#1A9FFF"/>
<path d="M38.3664 68.7797L37.2232 65.3614L38.961 62.5415L35.5522 62.9771L33.4476 60.467L32.5771 63.5385L29.6324 64.8211L32.4193 66.5794L32.5709 70.1849L35.3307 67.899L38.3664 68.7797Z" fill="#26D9CA"/>
<path d="M167.946 102.896L171.912 101.629L175.334 104.533L175.429 100.401L179.073 98.0166L175.32 96.5159L174.272 92.2555L171.606 95.4699L167.278 95.1658L169.634 98.852L167.946 102.896Z" fill="#1A9FFF"/>
<path d="M70.5385 116.614L73.5019 122.079L70.3389 127.4L76.3866 126.635L80.6196 131.072L81.6618 124.794L87.3472 122.458L81.8838 119.505L81.1283 113.386L76.7434 117.669L70.5385 116.614Z" fill="#73CC33"/>
<path d="M28.5112 175.713L28.2836 174.403L29.611 173.451L28.056 173.092L27.6987 171.486L26.9222 172.896L25.2056 172.963L26.3074 173.88L25.9522 175.453L27.1179 174.928L28.5112 175.713Z" fill="#73CC33"/>
<path d="M152.557 19.9078L155.009 14.0536L161.371 12.9728L156.509 8.53906L157.355 2.0676L151.988 5.39065L146.196 2.58749L147.584 9.01952L143.196 13.6166L149.268 14.155L152.557 19.9078Z" fill="#1A9FFF"/>
<path d="M62.5212 164.047L57.0092 164.868L52.8842 160.625L51.8354 166.236L46.8982 168.596L51.8688 171.163L52.5783 177.184L56.5012 173.182L62.0468 174.243L59.714 169.247L62.5212 164.047Z" fill="#679BE4"/>
<path d="M90.5031 175.636L97.578 175.981L101.312 182.131L103.934 175.419L110.842 173.835L105.312 169.141L105.944 161.632L99.8941 165.732L93.2323 162.758L95.143 170.041L90.5031 175.636Z" fill="#26D9CA"/>
<path d="M120.927 38.3909L118.424 38.9876L116.683 37.099L116.371 39.6002L114.07 40.8891L116.292 41.8812L116.882 44.4141L118.749 42.6531L121.221 42.9688L119.947 40.64L120.927 38.3909Z" fill="#1A9FFF"/>
<path d="M164.082 70.3777L166.965 76.082L164.28 81.9466L170.327 80.5892L174.99 85.2808L175.902 78.6907L181.539 75.7735L175.743 73.0559L174.521 66.6382L170.18 71.478L164.082 70.3777Z" fill="#FFEA00"/>
<path d="M33.0026 101.417L32.7823 104.605L30.4061 106.267L33.2842 107.157L34.2048 110.197L35.9531 107.803L38.8941 107.783L37.2513 105.379L38.1309 102.466L35.3362 103.641L33.0026 101.417Z" fill="#26D9CA"/>
<path d="M167.867 113.407L167.197 114.907L165.571 114.858L166.599 116.092L166.312 117.35L167.771 116.697L168.871 117.616L168.536 116.213L169.756 115.173L168.512 114.882L167.867 113.407Z" fill="#679BE4"/>
<path d="M166.02 88.0479L160.11 85.1271L159.186 78.6586L154.56 83.6034L147.941 82.5099L151.314 88.1852L148.428 94.1642L154.887 92.9135L159.396 97.843L160.165 91.0786L166.02 88.0479Z" fill="#679BE4"/>
<path d="M7.48564 82.0874L11.4658 88.8375L8.21582 95.7693L15.7775 94.1835L21.1931 99.2028L21.9123 91.8076L28.5836 87.7804L21.5275 84.7392L20.2046 77.2957L15.0389 83.0225L7.48564 82.0874Z" fill="#FFEA00"/>
<path d="M153.798 127.386L151.127 127.933L149.064 125.811L148.624 128.754L146.291 129.848L148.996 131.183L149.266 134.057L151.194 131.696L153.831 132.312L152.581 129.678L153.798 127.386Z" fill="#73CC33"/>
<path d="M41.859 198.65L43.5374 193.838L48.3441 192.631L44.2477 189.653L44.6501 184.818L40.4535 187.649L36.0215 185.634L37.5328 190.503L34.2763 194.32L39.3797 194.41L41.859 198.65Z" fill="#26D9CA"/>
<path d="M89.4473 74.9596L91.9682 77.3217L91.6041 80.9835L94.6034 79.3825L97.7652 80.9562L97.0071 77.5501L99.7538 74.8138L96.1348 74.4454L94.6668 71.1093L93.1114 74.3083L89.4473 74.9596Z" fill="#679BE4"/>
<path d="M129.614 90.4902L128.586 86.5255L131.269 83.2374L126.979 83.0368L124.725 79.4483L123.323 83.3458L119.24 84.463L122.654 87.0996L122.215 91.3517L125.762 89.0716L129.614 90.4902Z" fill="#3DA329"/>
<path d="M38.7725 132.689L34.774 134.923L30.6086 133.027L31.6441 137.676L28.242 141.096L32.9517 141.658L35.1595 145.704L37.2744 141.278L41.6286 140.442L38.217 137.455L38.7725 132.689Z" fill="#679BE4"/>
<path d="M113.353 20.4445L110.341 16.4282L111.8 11.4687L107.113 13.3553L102.881 10.3792L103.048 15.3872L99.0784 18.4351L103.98 19.9114L105.462 24.8953L108.403 20.6134L113.353 20.4445Z" fill="#1A9FFF"/>
<path d="M50.939 18.8615L44.8063 22.2689L38.4334 19.0265L39.63 26.0012L35.0887 31.0261L42.0412 31.8813L44.9621 38.1499L47.9747 31.9595L54.868 30.7488L49.839 25.7019L50.939 18.8615Z" fill="#3DA329"/>
<path d="M17.9861 153.825L19.3259 156.227L18.4186 158.827L21.0759 158.134L23.2753 160.001L23.2444 157.026L25.618 155.67L23.0478 154.752L22.3624 152.063L20.722 154.041L17.9861 153.825Z" fill="#73CC33"/>
<path d="M110.5 185.182L111.725 187.099L110.876 189.556L113.399 189.048L115.105 190.541L115.503 188.053L117.638 186.602L115.21 185.744L114.708 183.192L112.991 185.129L110.5 185.182Z" fill="#FFEA00"/>
<path d="M14.4114 16.2267L13.9819 17.8141L12.3462 18.3455L13.8706 19.424L13.7593 21.034L15.099 20.1581L16.6679 20.5927L16.1427 18.9377L17.1864 17.7173L15.5953 17.6047L14.4114 16.2267Z" fill="#679BE4"/>
<path d="M80.6883 105.714L85.642 107.971L86.8302 113.334L90.332 109.296L95.8539 110.045L93.1325 105.126L95.3626 100.114L90.0615 101.316L85.9827 97.4627L85.243 103.05L80.6883 105.714Z" fill="#1A9FFF"/>
<path d="M168.329 149.96L169.501 145.82L173.743 144.106L170.037 141.646L169.935 137.439L166.281 140.154L162.19 138.968L163.901 142.937L161.152 146.67L165.628 146.584L168.329 149.96Z" fill="#3DA329"/>
<path d="M135.725 137.484L134.173 140.812L130.81 141.523L133.619 143.991L133.324 147.544L136.28 145.449L139.57 147.019L138.553 143.56L140.992 140.718L137.481 140.419L135.725 137.484Z" fill="#679BE4"/>
<path d="M65.4913 86.2686L65.8371 80.3447L70.5494 77.3375L65.1841 75.4516L63.9179 69.7479L60.4321 74.3761L54.5773 74.0263L57.8511 78.6891L55.6856 84.2228L61.2188 82.6365L65.4913 86.2686Z" fill="#26D9CA"/>
<path d="M101.287 99.224L105.663 98.4463L108.619 101.544L109 97.1709L112.719 95.2865L108.997 93.4067L108.393 89.2554L105.331 92.2466L101.282 91.6956L103.144 95.4587L101.287 99.224Z" fill="#679BE4"/>
</svg>
