<svg width="30" height="30" viewBox="0 0 30 30" fill="none" xmlns="http://www.w3.org/2000/svg">
<path d="M26.0731 28.7016C24.8396 28.9179 23.6062 28.9274 22.3727 28.7204V28.7298C21.8485 28.7957 21.3243 28.664 20.8206 28.5135C20.5534 28.4289 20.2656 28.3254 20.1011 28.1091C19.9264 27.874 19.9469 27.5542 20.0395 27.2814L20.06 27.2532C19.8956 26.8394 19.8133 26.4162 19.803 25.9741C19.7928 25.5321 19.8544 25.1089 19.9983 24.6856L19.9675 24.6762C19.9264 24.6574 19.8955 24.6386 19.8647 24.6104C19.8339 24.5822 19.803 24.554 19.7825 24.5163C19.7619 24.4787 19.7414 24.4505 19.7311 24.4129C19.7208 24.3753 19.7208 24.3376 19.7208 24.3C19.7311 24.2248 19.7516 24.1495 19.7928 24.0743C19.8339 23.999 19.8853 23.9426 19.9572 23.8956C20.0908 23.7921 20.2347 23.7169 20.3992 23.6605C20.9131 23.4724 21.4476 23.3313 22.0027 23.256C22.2391 23.2184 22.4755 23.1902 22.7017 23.2466C22.9278 23.3125 23.1334 23.4912 23.1334 23.7075C23.1334 23.8674 23.0203 24.0179 22.8867 24.1213L22.9072 24.1589L23.1436 24.9584C23.1539 24.996 23.1642 25.0242 23.1848 25.0524C23.2362 25.1089 23.3184 25.1183 23.4006 25.1277C23.6987 25.1653 23.9659 25.2781 24.1921 25.4568L24.2435 25.4757C24.3257 25.3628 24.4285 25.2499 24.5313 25.1465C24.6341 25.043 24.7471 24.949 24.8705 24.8549C24.9938 24.7703 25.1172 24.6856 25.2508 24.6198C25.3844 24.554 25.5283 24.4881 25.6722 24.4411C25.8161 24.3941 25.96 24.347 26.1142 24.3188C26.2684 24.2906 26.4123 24.2718 26.5665 24.2624C26.7207 24.253 26.8748 24.253 27.029 24.2718C27.1832 24.2812 27.3374 24.3094 27.4813 24.347C27.6355 24.3847 27.7794 24.4317 27.9233 24.4787C28.0672 24.5351 28.2008 24.601 28.3344 24.6762C28.4681 24.7515 28.5914 24.8361 28.7045 24.9302C28.8175 25.0242 28.9306 25.1183 29.0334 25.2311C29.1362 25.3346 29.2287 25.4474 29.3006 25.5697C29.3829 25.692 29.4548 25.8142 29.5165 25.9459C29.5782 26.0776 29.6296 26.2093 29.6604 26.3503C29.7015 26.4914 29.7221 26.6231 29.7426 26.7642L29.7735 26.783C29.794 26.8488 29.8146 26.9146 29.8249 26.9805C29.8351 27.0463 29.8249 27.1122 29.8146 27.178C29.8043 27.2438 29.7735 27.3097 29.7426 27.3661C29.7118 27.4225 29.6707 27.479 29.6193 27.5354C29.4857 27.6671 29.2904 27.7423 29.1053 27.8175C28.1494 28.1938 27.1627 28.4853 26.1451 28.7016H26.0731Z" fill="#F2F2F2"/>
<path d="M22.7326 24.3471C23.0924 24.1872 23.4419 23.8392 23.2363 23.4536C23.0102 23.0398 22.4448 23.0492 22.0234 23.1056C21.53 23.162 21.0469 23.2843 20.5947 23.4536C20.1938 23.6041 19.6696 23.8016 19.6182 24.2624C19.5668 24.7233 20.091 24.902 20.5022 24.9396C20.6563 24.9584 20.6563 24.7327 20.5022 24.7233C20.2555 24.7045 19.8649 24.6198 19.8546 24.3377C19.834 23.9709 20.3274 23.8016 20.6255 23.6793C21.0058 23.5288 21.4067 23.4254 21.8076 23.3595C22.0131 23.3219 22.2084 23.3031 22.4243 23.2937C22.6093 23.2937 22.8046 23.3219 22.9382 23.4348C22.9691 23.4536 22.9999 23.4818 23.0205 23.5194C23.041 23.5476 23.0616 23.5853 23.0718 23.6229C23.0821 23.6605 23.0821 23.6981 23.0821 23.7357C23.0821 23.7734 23.0718 23.811 23.0513 23.8392C22.9691 23.9991 22.8046 24.1025 22.6401 24.1684C22.486 24.2248 22.599 24.4129 22.7326 24.3471Z" fill="#0853B0"/>
<path d="M22.0645 24.4788L21.5608 24.6575C21.5403 24.6575 21.53 24.6669 21.5197 24.6763C21.5095 24.6857 21.4992 24.6951 21.4889 24.7045C21.4786 24.7139 21.4786 24.7327 21.4683 24.7421C21.4683 24.7609 21.4683 24.7703 21.4683 24.7891C21.4683 24.8079 21.4786 24.8173 21.4889 24.8267C21.4992 24.8362 21.5095 24.8456 21.53 24.855C21.5403 24.8644 21.5608 24.8644 21.5711 24.8644C21.5917 24.8644 21.602 24.8644 21.6225 24.855L22.1262 24.6763C22.157 24.6669 22.1776 24.6481 22.1981 24.6292C22.2084 24.601 22.2187 24.5728 22.2084 24.5446C22.1981 24.5164 22.1776 24.4976 22.157 24.4788C22.1262 24.4788 22.0953 24.4788 22.0645 24.4788Z" fill="#0853B0"/>
<path d="M22.8148 24.1966L23.0923 25.043C23.1334 25.1747 23.3596 25.1183 23.3185 24.9866L23.0409 24.1401C22.9998 24.0085 22.7737 24.0649 22.8148 24.1966Z" fill="#0853B0"/>
<path d="M19.8444 24.7797C19.721 25.1841 19.6696 25.6073 19.7005 26.0306C19.721 26.4538 19.8032 26.8676 19.9574 27.2721C20.0088 27.4037 20.2349 27.3473 20.1836 27.2156C19.8957 26.4726 19.8238 25.6073 20.0705 24.8455C20.1116 24.7044 19.8855 24.648 19.8444 24.7797Z" fill="#0853B0"/>
<path d="M23.0615 25.2029C23.1643 25.1841 23.2568 25.1841 23.3596 25.1935C23.4624 25.2029 23.5549 25.2217 23.6577 25.2593C23.7502 25.2876 23.8427 25.3346 23.9249 25.391C24.0072 25.4475 24.0791 25.5133 24.1408 25.5791C24.1613 25.5979 24.1922 25.6073 24.223 25.6073C24.2539 25.6073 24.2847 25.5979 24.3052 25.5791C24.3258 25.5603 24.3361 25.5321 24.3361 25.5039C24.3361 25.4757 24.3258 25.4475 24.3052 25.4286C24.223 25.344 24.1408 25.2688 24.038 25.2029C23.9352 25.1371 23.8324 25.0901 23.7194 25.0524C23.6063 25.0148 23.4829 24.996 23.3596 24.9866C23.2363 24.9772 23.1129 24.9866 22.9998 25.0054C22.9793 25.0054 22.969 25.0148 22.9587 25.0242C22.9484 25.0336 22.9382 25.043 22.9279 25.0524C22.9176 25.0618 22.9176 25.0807 22.9073 25.0901C22.9073 25.1089 22.9073 25.1183 22.9073 25.1371C22.9073 25.1559 22.9176 25.1653 22.9279 25.1747C22.9382 25.1841 22.9484 25.1935 22.969 25.2029C22.9793 25.2123 22.9998 25.2123 23.0101 25.2123C23.0307 25.2123 23.0512 25.2123 23.0615 25.2029Z" fill="#0853B0"/>
<path d="M29.7222 26.0682C29.6297 25.8519 29.5166 25.6544 29.383 25.4663C29.2494 25.2782 29.0849 25.0995 28.8999 24.949C28.7149 24.7891 28.5196 24.6574 28.3037 24.5446C28.0879 24.4317 27.8617 24.3376 27.6253 24.2718C26.6488 24.0085 25.6107 24.2248 24.8192 24.7985C24.5931 24.9584 24.3978 25.1465 24.2333 25.3534C24.0688 25.5603 23.9249 25.786 23.8324 26.0306C23.781 26.1623 24.0072 26.2187 24.0586 26.087C24.3875 25.297 25.1584 24.695 26.0424 24.4693C26.9366 24.2436 27.9028 24.4599 28.6121 24.996C29.0232 25.297 29.3213 25.6732 29.5063 26.1246C29.5474 26.2563 29.7736 26.1999 29.7222 26.0682Z" fill="#0853B0"/>
<path d="M29.4959 26.1247C29.5781 26.341 29.6501 26.6043 29.5061 26.8112C29.3622 27.0182 29.0744 27.131 28.838 27.2251C28.0877 27.5166 27.327 27.7612 26.5561 27.9775C25.1274 28.3537 23.6164 28.5042 22.1774 28.1374C21.427 27.9493 20.7486 27.6295 20.1627 27.1592C20.0497 27.0652 19.8852 27.2251 19.9983 27.3097C21.0981 28.1938 22.5885 28.5794 24.0276 28.5606C25.703 28.5418 27.327 28.0245 28.8586 27.4508C29.1772 27.3285 29.5164 27.1969 29.7117 26.9335C29.907 26.6796 29.8351 26.341 29.7323 26.0682C29.6809 25.9366 29.4445 25.993 29.4959 26.1247Z" fill="#0853B0"/>
<path d="M22.2907 28.4195C22.3421 28.5041 22.2598 28.5888 22.1776 28.617C22.0542 28.664 21.8898 28.6358 21.7562 28.6264C21.4478 28.5982 21.1497 28.5324 20.8619 28.4477C20.6049 28.3631 20.3582 28.2408 20.2041 28.0339C20.163 27.9869 20.1321 27.9304 20.1116 27.8646C20.091 27.8082 20.0704 27.7423 20.0704 27.6859C20.0602 27.6201 20.0704 27.5636 20.0807 27.4978C20.091 27.4319 20.1116 27.3755 20.1424 27.3191C20.2143 27.1968 20.0088 27.084 19.9368 27.2062C19.8751 27.3191 19.834 27.4508 19.834 27.5824C19.8238 27.7141 19.8546 27.8364 19.906 27.9586C20.0088 28.1844 20.1835 28.3631 20.4096 28.4853C20.6666 28.617 20.9441 28.7111 21.2319 28.7581C21.3861 28.7863 21.5403 28.8145 21.7048 28.8333C21.8487 28.8521 21.9823 28.8615 22.1262 28.8521C22.1982 28.8427 22.2701 28.8239 22.3318 28.7957C22.3934 28.7581 22.4448 28.7205 22.486 28.664C22.5271 28.6076 22.5476 28.5512 22.5476 28.4853C22.5476 28.4195 22.5374 28.3631 22.4962 28.3066C22.4243 28.1938 22.2187 28.2972 22.2907 28.4195Z" fill="#0853B0"/>
<path d="M21.2076 23.9977C21.8038 21.8439 20.8067 19.2857 18.8743 17.9313C18.494 17.668 18.124 18.2605 18.494 18.5144C19.2855 19.0599 19.8611 19.9346 20.2208 20.7623C20.6525 21.7498 20.7759 22.7844 20.4881 23.8096C20.375 24.2422 21.0842 24.4209 21.2076 23.9977Z" fill="#0853B0"/>
<mask id="mask0_2730_5981" style="mask-type:luminance" maskUnits="userSpaceOnUse" x="22" y="26" width="8" height="4">
<path d="M29.9998 26.5761H22.1365V29.0215H29.9998V26.5761Z" fill="white"/>
</mask>
<g mask="url(#mask0_2730_5981)">
<path d="M29.5988 26.8018C29.753 26.9146 29.7427 27.131 29.6502 27.2814C29.5269 27.4695 29.2802 27.573 29.0643 27.667C28.5607 27.8834 28.0467 28.0809 27.5122 28.2314C26.4535 28.5605 25.364 28.7298 24.2539 28.7486C23.6269 28.758 23.0101 28.7016 22.3934 28.5888C22.2495 28.5605 22.1775 28.7675 22.3317 28.7957C23.5035 29.012 24.6856 29.0214 25.8573 28.8239C27.0394 28.6358 28.1598 28.2972 29.2391 27.8175C29.496 27.7047 29.7736 27.5542 29.8969 27.2908C29.9997 27.0745 29.9791 26.7924 29.7633 26.6325C29.6502 26.5666 29.4755 26.7171 29.5988 26.8018Z" fill="#0853B0"/>
</g>
<path d="M21.7354 25.9836C22.0027 25.7296 22.311 25.5321 22.6502 25.3722C22.6708 25.3628 22.6913 25.344 22.7016 25.3158C22.7119 25.2876 22.7016 25.2688 22.6913 25.2406C22.6811 25.2217 22.6605 25.2029 22.6297 25.1935C22.5988 25.1841 22.5783 25.1935 22.5474 25.2029C22.1877 25.3628 21.869 25.5791 21.5915 25.8425C21.499 25.9365 21.6429 26.0682 21.7354 25.9836Z" fill="#0853B0"/>
<path d="M23.8529 26.5384C23.8837 26.5384 23.9043 26.529 23.9248 26.5102C23.9454 26.4914 23.9557 26.4726 23.9557 26.4444C23.9557 26.4162 23.9454 26.3974 23.9248 26.3786C23.9043 26.3597 23.8837 26.3503 23.8529 26.3503C23.822 26.3503 23.8015 26.3597 23.7809 26.3786C23.7604 26.3974 23.7501 26.4162 23.7501 26.4444C23.7501 26.4726 23.7604 26.4914 23.7809 26.5102C23.8015 26.529 23.822 26.5384 23.8529 26.5384Z" fill="#0853B0"/>
<path d="M8.53213 23.8167C7.93596 21.663 8.933 19.1048 10.8654 17.7504C11.2457 17.4871 11.6158 18.0796 11.2457 18.3335C10.4543 18.879 9.87865 19.7537 9.51889 20.5814C9.08718 21.5689 8.96384 22.6035 9.25164 23.6286C9.36471 24.0613 8.65547 24.24 8.53213 23.8167Z" fill="#0853B0"/>
<path d="M3.99301 28.3687C5.22647 28.5851 6.45992 28.5945 7.69338 28.3876V28.397C8.2176 28.4628 8.74181 28.3311 9.24547 28.1806C9.51272 28.096 9.80053 27.9925 9.96499 27.7762C10.1397 27.5411 10.1192 27.2213 10.0267 26.9486L10.0061 26.9203C10.1706 26.5065 10.2528 26.0833 10.2631 25.6412C10.2734 25.1992 10.2117 24.776 10.0678 24.3527L10.0986 24.3433C10.1397 24.3245 10.1706 24.3057 10.2014 24.2775C10.2322 24.2493 10.2631 24.2211 10.2836 24.1834C10.3042 24.1458 10.3247 24.1176 10.335 24.08C10.3453 24.0424 10.3453 24.0047 10.3453 23.9671C10.335 23.8919 10.3145 23.8166 10.2734 23.7414C10.2322 23.6662 10.1808 23.6097 10.1089 23.5627C9.97527 23.4592 9.83137 23.384 9.66691 23.3276C9.15297 23.1395 8.61847 22.9984 8.06341 22.9232C7.827 22.8855 7.59059 22.8573 7.36446 22.9137C7.13832 22.9796 6.93275 23.1583 6.93275 23.3746C6.93275 23.5345 7.04581 23.685 7.17944 23.7884L7.15888 23.826L6.92247 24.6255C6.91219 24.6631 6.90191 24.6913 6.88135 24.7195C6.82996 24.776 6.74773 24.7854 6.6655 24.7948C6.36741 24.8324 6.10017 24.9453 5.87403 25.124L5.82264 25.1428C5.74041 25.0299 5.63762 24.917 5.53483 24.8136C5.43204 24.7101 5.31898 24.6161 5.19563 24.522C5.07229 24.4374 4.94894 24.3527 4.81532 24.2869C4.68169 24.2211 4.53779 24.1552 4.39389 24.1082C4.24999 24.0612 4.10608 24.0142 3.9519 23.9859C3.79772 23.9577 3.65382 23.9389 3.49963 23.9295C3.34545 23.9201 3.19127 23.9201 3.03709 23.9389C2.88291 23.9483 2.72873 23.9765 2.58482 24.0142C2.43064 24.0518 2.28674 24.0988 2.14283 24.1458C1.99893 24.2023 1.86531 24.2681 1.73168 24.3433C1.59806 24.4186 1.47471 24.5032 1.36165 24.5973C1.24858 24.6913 1.13551 24.7854 1.03273 24.8982C0.929937 25.0017 0.837427 25.1146 0.765476 25.2368C0.683246 25.3591 0.611294 25.4814 0.549621 25.613C0.487948 25.7447 0.436555 25.8764 0.405719 26.0175C0.364603 26.1585 0.344047 26.2902 0.323489 26.4313L0.292651 26.4501C0.272094 26.5159 0.251536 26.5818 0.241257 26.6476C0.230978 26.7134 0.241258 26.7793 0.251536 26.8451C0.261815 26.9109 0.292653 26.9768 0.323489 27.0332C0.354325 27.0896 0.395439 27.1461 0.446833 27.2025C0.580457 27.3342 0.775754 27.4094 0.960773 27.4847C1.9167 27.8609 2.90346 28.1524 3.92106 28.3687H3.99301Z" fill="#F2F2F2"/>
<path d="M7.33347 24.0141C6.97371 23.8542 6.62423 23.5063 6.82981 23.1206C7.05594 22.7068 7.62128 22.7162 8.04271 22.7727C8.53609 22.8291 9.01919 22.9514 9.47146 23.1206C9.87233 23.2711 10.3965 23.4686 10.4479 23.9295C10.4993 24.3903 9.97512 24.569 9.56396 24.6067C9.40978 24.6255 9.40978 24.3997 9.56396 24.3903C9.81066 24.3715 10.2012 24.2869 10.2115 24.0047C10.2321 23.6379 9.7387 23.4686 9.44062 23.3464C9.0603 23.1959 8.65943 23.0924 8.25856 23.0266C8.05298 22.989 7.85769 22.9702 7.64183 22.9608C7.45681 22.9608 7.26152 22.989 7.12789 23.1018C7.09705 23.1206 7.06622 23.1489 7.04566 23.1865C7.0251 23.2147 7.00455 23.2523 6.99427 23.2899C6.98399 23.3276 6.98399 23.3652 6.98399 23.4028C6.98399 23.4404 6.99427 23.478 7.01483 23.5063C7.09706 23.6661 7.26152 23.7696 7.42598 23.8354C7.58016 23.8919 7.46709 24.08 7.33347 24.0141Z" fill="#0853B0"/>
<path d="M8.00161 24.1458L8.50527 24.3245C8.52583 24.3245 8.53611 24.3339 8.54638 24.3433C8.55666 24.3527 8.56694 24.3621 8.57722 24.3715C8.5875 24.3809 8.5875 24.3998 8.59778 24.4092C8.59778 24.428 8.59778 24.4374 8.59778 24.4562C8.59778 24.475 8.5875 24.4844 8.57722 24.4938C8.56694 24.5032 8.55666 24.5126 8.5361 24.522C8.52583 24.5314 8.50527 24.5314 8.49499 24.5314C8.47443 24.5314 8.46415 24.5314 8.4436 24.522L7.93994 24.3433C7.9091 24.3339 7.88854 24.3151 7.86798 24.2963C7.85771 24.2681 7.84743 24.2399 7.8577 24.2116C7.86798 24.1834 7.88854 24.1646 7.9091 24.1458C7.93993 24.1458 7.97077 24.1458 8.00161 24.1458Z" fill="#0853B0"/>
<path d="M7.25131 23.8637L6.97379 24.7101C6.93267 24.8418 6.70654 24.7854 6.74765 24.6537L7.02518 23.8072C7.06629 23.6756 7.29243 23.732 7.25131 23.8637Z" fill="#0853B0"/>
<path d="M10.2217 24.4468C10.3451 24.8512 10.3965 25.2745 10.3656 25.6977C10.3451 26.1209 10.2629 26.5347 10.1087 26.9392C10.0573 27.0708 9.83115 27.0144 9.88255 26.8827C10.1704 26.1397 10.2423 25.2745 9.99561 24.5126C9.9545 24.3716 10.1806 24.3151 10.2217 24.4468Z" fill="#0853B0"/>
<path d="M7.00459 24.87C6.9018 24.8512 6.80929 24.8512 6.7065 24.8606C6.60371 24.87 6.5112 24.8888 6.40841 24.9265C6.31591 24.9547 6.2234 25.0017 6.14117 25.0581C6.05894 25.1146 5.98699 25.1804 5.92531 25.2462C5.90476 25.265 5.87392 25.2745 5.84308 25.2745C5.81224 25.2745 5.78141 25.265 5.76085 25.2462C5.74029 25.2274 5.73002 25.1992 5.73002 25.171C5.73002 25.1428 5.74029 25.1146 5.76085 25.0958C5.84308 25.0111 5.92531 24.9359 6.0281 24.87C6.13089 24.8042 6.23368 24.7572 6.34674 24.7196C6.45981 24.6819 6.58316 24.6631 6.7065 24.6537C6.82985 24.6443 6.95319 24.6537 7.06626 24.6725C7.08682 24.6725 7.09709 24.6819 7.10737 24.6913C7.11765 24.7007 7.12793 24.7101 7.13821 24.7196C7.14849 24.729 7.14849 24.7478 7.15877 24.7572C7.15877 24.776 7.15877 24.7854 7.15877 24.8042C7.15877 24.823 7.14849 24.8324 7.13821 24.8418C7.12793 24.8512 7.11765 24.8606 7.09709 24.87C7.08682 24.8794 7.06626 24.8794 7.05598 24.8794C7.03542 24.8794 7.01486 24.8794 7.00459 24.87Z" fill="#0853B0"/>
<path d="M0.343919 25.7353C0.436429 25.519 0.549497 25.3215 0.683121 25.1334C0.816745 24.9453 0.981204 24.7666 1.16622 24.6161C1.35124 24.4562 1.54654 24.3245 1.76239 24.2117C1.97825 24.0988 2.20438 24.0048 2.44079 23.9389C3.41728 23.6756 4.45544 23.8919 5.2469 24.4656C5.47303 24.6255 5.66833 24.8136 5.83279 25.0205C5.99725 25.2274 6.14116 25.4532 6.23367 25.6977C6.28506 25.8294 6.05893 25.8858 6.00753 25.7541C5.67861 24.9641 4.9077 24.3622 4.02373 24.1364C3.12947 23.9107 2.16327 24.127 1.45403 24.6631C1.04288 24.9641 0.744792 25.3403 0.559774 25.7917C0.51866 25.9234 0.292525 25.867 0.343919 25.7353Z" fill="#0853B0"/>
<path d="M0.569913 25.7917C0.487683 26.008 0.41573 26.2714 0.559634 26.4783C0.703537 26.6852 0.991343 26.7981 1.22775 26.8921C1.97811 27.1837 2.73874 27.4282 3.50965 27.6445C4.9384 28.0207 6.44938 28.1712 7.88841 27.8044C8.63876 27.6163 9.31716 27.2965 9.90305 26.8263C10.0161 26.7322 10.1806 26.8921 10.0675 26.9768C8.96768 27.8609 7.47726 28.2465 6.03823 28.2277C4.36279 28.2088 2.73874 27.6916 1.2072 27.1178C0.888557 26.9956 0.549356 26.8639 0.354058 26.6006C0.158761 26.3466 0.230715 26.008 0.333503 25.7353C0.384896 25.6036 0.621307 25.66 0.569913 25.7917Z" fill="#0853B0"/>
<path d="M7.77544 28.0865C7.72405 28.1712 7.80628 28.2558 7.88851 28.2841C8.01185 28.3311 8.17631 28.3029 8.30994 28.2935C8.6183 28.2652 8.91639 28.1994 9.20419 28.1148C9.46116 28.0301 9.70785 27.9078 9.86203 27.7009C9.90315 27.6539 9.93398 27.5975 9.95454 27.5316C9.9751 27.4752 9.99566 27.4094 9.99566 27.3529C10.0059 27.2871 9.99566 27.2307 9.98538 27.1648C9.9751 27.099 9.95454 27.0426 9.92371 26.9861C9.85175 26.8639 10.0573 26.751 10.1293 26.8733C10.191 26.9861 10.2321 27.1178 10.2321 27.2495C10.2423 27.3812 10.2115 27.5034 10.1601 27.6257C10.0573 27.8514 9.88259 28.0301 9.65646 28.1524C9.39949 28.2841 9.12196 28.3781 8.83415 28.4251C8.67997 28.4533 8.52579 28.4816 8.36133 28.5004C8.21743 28.5192 8.0838 28.5286 7.9399 28.5192C7.86795 28.5098 7.796 28.491 7.73433 28.4628C7.67265 28.4251 7.62126 28.3875 7.58014 28.3311C7.53903 28.2746 7.51847 28.2182 7.51847 28.1524C7.51847 28.0865 7.52875 28.0301 7.56986 27.9737C7.64182 27.8608 7.84739 27.9643 7.77544 28.0865Z" fill="#0853B0"/>
<mask id="mask1_2730_5981" style="mask-type:luminance" maskUnits="userSpaceOnUse" x="0" y="26" width="8" height="3">
<path d="M0.0663238 26.2432H7.9296V28.6885H0.0663238V26.2432Z" fill="white"/>
</mask>
<g mask="url(#mask1_2730_5981)">
<path d="M0.466939 26.4689C0.312758 26.5817 0.323037 26.7981 0.415545 26.9486C0.538891 27.1367 0.785583 27.2401 1.00144 27.3342C1.5051 27.5505 2.01904 27.748 2.55353 27.8985C3.61225 28.2277 4.7018 28.3969 5.81191 28.4158C6.43891 28.4252 7.05564 28.3687 7.67237 28.2559C7.81627 28.2277 7.88823 28.4346 7.73404 28.4628C6.56226 28.6791 5.3802 28.6885 4.20842 28.491C3.02636 28.3029 1.90597 27.9643 0.826697 27.4846C0.569727 27.3718 0.292201 27.2213 0.168855 26.958C0.0660677 26.7416 0.0866237 26.4595 0.302478 26.2996C0.415545 26.2338 0.590285 26.3842 0.466939 26.4689Z" fill="#0853B0"/>
</g>
<path d="M8.33038 25.6506C8.06313 25.3967 7.75477 25.1992 7.41557 25.0393C7.39501 25.0299 7.37446 25.0111 7.36418 24.9829C7.3539 24.9546 7.36418 24.9358 7.37446 24.9076C7.38474 24.8888 7.40529 24.87 7.43613 24.8606C7.46696 24.8512 7.48752 24.8606 7.51836 24.87C7.87812 25.0299 8.19676 25.2462 8.47429 25.5095C8.56679 25.6036 8.42289 25.7353 8.33038 25.6506Z" fill="#0853B0"/>
<path d="M6.21324 26.2056C6.1824 26.2056 6.16184 26.1962 6.14129 26.1773C6.12073 26.1585 6.11045 26.1397 6.11045 26.1115C6.11045 26.0833 6.12073 26.0645 6.14129 26.0457C6.16184 26.0269 6.1824 26.0175 6.21324 26.0175C6.24407 26.0175 6.26463 26.0269 6.28519 26.0457C6.30575 26.0645 6.31602 26.0833 6.31602 26.1115C6.31602 26.1397 6.30575 26.1585 6.28519 26.1773C6.26463 26.1962 6.24407 26.2056 6.21324 26.2056Z" fill="#0853B0"/>
<path d="M25.6826 12.8893C25.6621 13.6699 24.9631 14.253 24.1202 14.2813C23.2363 14.3095 22.5373 13.7828 22.1673 13.0774C21.9617 12.6918 21.345 13.0304 21.5403 13.416C22.0439 14.3847 23.1335 15.0525 24.3258 14.9302C25.4668 14.8079 26.3713 13.9615 26.3919 12.8987C26.4124 12.4567 25.6929 12.4567 25.6826 12.8893Z" fill="#0853B0"/>
<path d="M25.0351 9.16486C25.1481 8.95795 25.1173 8.66639 25.2407 8.33721C25.3229 8.13029 25.6826 7.34026 25.9499 7.10513C26.0424 7.02989 26.1452 6.97346 26.2583 6.93584C26.3713 6.89822 26.4947 6.87941 26.618 6.88881C26.7619 6.88881 27.0086 7.18977 27.0703 7.34026C27.1217 7.46252 26.5769 8.73222 26.5975 8.8639C26.7619 8.8639 26.9058 8.90152 27.0497 8.96735C27.1936 9.04259 27.2964 9.14605 27.3581 9.28713C27.3992 9.4094 27.43 9.54107 27.43 9.67274H27.4609C27.5637 9.71036 27.6562 9.75739 27.7384 9.82322C27.8206 9.87965 27.9029 9.9549 27.9645 10.0301C28.0262 10.1054 28.0879 10.1994 28.129 10.2841C28.1701 10.3781 28.2009 10.4722 28.2112 10.5756C28.2421 10.8954 28.1187 11.2152 27.9337 11.4785C27.7384 11.7419 27.4917 11.977 27.2245 12.1745V12.1839C27.2347 12.2498 27.2347 12.3156 27.2142 12.3814C27.1936 12.4473 27.1525 12.5037 27.1011 12.5507C26.9983 12.6542 26.8647 12.72 26.7208 12.7482C26.5769 12.7764 26.433 12.7859 26.2788 12.7764C26.0527 12.7764 25.8265 12.7482 25.6107 12.6824C25.5079 12.6448 25.4051 12.5977 25.3229 12.5319C25.2407 12.4661 25.1687 12.3814 25.107 12.2968C25.0762 12.2498 25.0659 12.2027 25.0454 12.1557C25.0351 12.1087 25.0351 12.0522 25.0351 12.0052C25.0351 11.9488 25.0556 11.9018 25.0659 11.8547C25.0762 11.8077 25.107 11.7607 25.1481 11.7137L25.1276 11.6949C24.8912 11.4409 24.6856 11.1588 24.5109 10.8672C24.3464 10.5662 24.2436 10.237 24.2745 9.90787C24.2847 9.74798 24.3464 9.5975 24.4389 9.45642C24.4903 9.39058 24.552 9.33415 24.6239 9.28713C24.6959 9.2401 24.7781 9.21189 24.8706 9.20248L25.0351 9.16486Z" fill="#F2F2F2"/>
<path d="M24.9117 10.0771C25.0556 10.2464 25.2303 10.4157 25.4873 10.4439C25.5387 10.4533 25.5901 10.4439 25.6415 10.4345C25.6929 10.4251 25.7443 10.4063 25.7854 10.3781C25.8265 10.3499 25.8676 10.3217 25.8985 10.2746C25.9293 10.237 25.9499 10.19 25.9704 10.143C26.1143 9.72914 25.6518 9.31531 25.2715 9.18364C25.1687 9.14602 25.0556 9.12721 24.9323 9.13661C24.8192 9.14602 24.7061 9.16483 24.6033 9.22126C24.5108 9.27769 24.4286 9.34353 24.3567 9.42817C24.295 9.51282 24.2436 9.60687 24.223 9.71033C24.0894 10.143 24.223 10.6226 24.4389 11.0082C24.6547 11.4033 25.0864 12.0052 25.6518 11.8265C25.7648 11.7889 25.7135 11.629 25.6004 11.6666C25.1892 11.7889 24.8809 11.3656 24.6959 11.1023C24.4903 10.7919 24.3361 10.4251 24.3464 10.0489C24.3567 9.71973 24.4903 9.33412 24.9014 9.30591C25.0967 9.2965 25.2715 9.34353 25.4256 9.45639C25.5901 9.55985 25.7032 9.69152 25.7751 9.86081C25.8265 10.0207 25.7751 10.237 25.5593 10.2652C25.3229 10.2934 25.1481 10.0959 25.0248 9.94546C24.9631 9.87962 24.8398 10.0019 24.9117 10.0771Z" fill="#0853B0"/>
<path d="M25.6929 9.49402C25.9294 9.23068 26.248 8.98614 26.6386 8.97674C26.7311 8.96733 26.8236 8.98614 26.9058 9.01436C26.9881 9.04257 27.0703 9.0896 27.1423 9.14603C27.2039 9.20246 27.2553 9.2683 27.2862 9.34354C27.317 9.41878 27.3273 9.49402 27.317 9.57867C27.2964 9.68213 27.4712 9.72915 27.4917 9.62569C27.574 9.21187 27.2039 8.86388 26.7619 8.82626C26.2788 8.78863 25.8677 9.07079 25.5799 9.39057C25.4976 9.4564 25.621 9.56926 25.6929 9.49402Z" fill="#0853B0"/>
<path d="M25.8778 10.4627L25.8469 10.4816C25.8367 10.4816 25.8572 10.4816 25.8469 10.4816L25.8367 10.491L25.8058 10.5004C25.7853 10.5004 25.7955 10.5004 25.8058 10.5004H25.7853C25.775 10.5004 25.7647 10.5004 25.7544 10.5004H25.7339C25.7236 10.5004 25.7236 10.5004 25.7339 10.5004L25.6928 10.491H25.6825H25.6722H25.6619L25.6414 10.4816C25.6311 10.4722 25.6208 10.4722 25.6105 10.4627H25.6002L25.59 10.4533L25.5694 10.4345L25.5591 10.4251C25.5488 10.4157 25.5488 10.4157 25.5591 10.4251L25.5386 10.3969L25.518 10.3687C25.518 10.3593 25.518 10.3593 25.518 10.3687C25.518 10.3593 25.518 10.3593 25.5077 10.3499C25.4975 10.3311 25.4872 10.3123 25.4666 10.2935C25.4461 10.284 25.4255 10.2746 25.3947 10.284C25.3741 10.2935 25.3536 10.3029 25.3433 10.3217C25.333 10.3405 25.333 10.3687 25.333 10.3875C25.3433 10.4157 25.3536 10.4439 25.3741 10.4722C25.3947 10.5004 25.4049 10.5192 25.4358 10.5474C25.4563 10.5662 25.4872 10.585 25.5077 10.6038C25.5386 10.6226 25.5591 10.632 25.59 10.6414C25.6208 10.6508 25.6516 10.6603 25.6825 10.6603C25.7133 10.6603 25.7441 10.6697 25.775 10.6603C25.8058 10.6508 25.8367 10.6508 25.8675 10.6414C25.8983 10.632 25.9292 10.6226 25.96 10.6038C25.9806 10.5944 25.9908 10.5756 26.0011 10.5568C26.0114 10.538 26.0011 10.5098 25.9908 10.491C25.9806 10.4722 25.96 10.4533 25.9394 10.4533C25.9292 10.4439 25.9086 10.4533 25.8778 10.4627Z" fill="#0853B0"/>
<path d="M26.6387 12.3062C27.204 12.3532 27.6768 12.0052 27.9544 11.5914C28.1188 11.3656 28.2216 11.1305 28.2833 10.8672C28.3038 10.7449 28.2936 10.6132 28.2627 10.491C28.2319 10.3687 28.1805 10.2464 28.0983 10.143C27.9646 9.94546 27.7899 9.72914 27.5535 9.62568C27.4301 9.57866 27.2965 9.55044 27.1629 9.55985C27.0293 9.56925 26.9059 9.60687 26.7826 9.67271C26.5462 9.79498 26.3817 10.0113 26.2481 10.2182C26.1145 10.4345 26.0322 10.6697 26.135 10.9048C26.2378 11.1399 26.505 11.2622 26.7723 11.1493C27.0601 11.0271 27.1629 10.7355 27.2246 10.4721C27.2554 10.3687 27.0807 10.3217 27.0498 10.4251C26.9984 10.6132 26.947 10.8484 26.762 10.9612C26.577 11.0741 26.3817 11.0082 26.2995 10.8201C26.2172 10.6226 26.3303 10.4157 26.4331 10.2464C26.5359 10.0677 26.6798 9.92665 26.8648 9.81379C27.0601 9.70092 27.3068 9.67271 27.5021 9.77617C27.6871 9.87962 27.8413 10.0583 27.9441 10.2276C28.0058 10.3217 28.0469 10.4157 28.0777 10.5286C28.0983 10.632 28.0983 10.7449 28.088 10.8484C28.0366 11.0553 27.9544 11.2434 27.831 11.4221C27.5843 11.8171 27.1526 12.1651 26.6181 12.1181C26.5153 12.1369 26.5153 12.2968 26.6387 12.3062Z" fill="#0853B0"/>
<path d="M27.1215 12.2121C27.1626 12.4473 26.9056 12.5977 26.6898 12.6448C26.4328 12.7012 26.1758 12.7106 25.9086 12.673C25.7853 12.6636 25.6825 12.6354 25.5694 12.5883C25.4666 12.5413 25.3638 12.4755 25.2816 12.4002C25.2405 12.3626 25.2096 12.3156 25.1891 12.2686C25.1685 12.2215 25.148 12.1745 25.1377 12.1181C25.1274 12.0616 25.1377 12.0146 25.148 11.9582C25.1582 11.9018 25.1788 11.8547 25.2096 11.8077C25.2713 11.7136 25.1171 11.6384 25.0555 11.7231C24.7882 12.0993 25.0863 12.5507 25.4872 12.72C25.7236 12.8141 25.9806 12.8517 26.2375 12.8329C26.4842 12.8235 26.7515 12.8141 26.9776 12.7106C27.029 12.6824 27.0804 12.6542 27.1318 12.6165C27.1729 12.5789 27.214 12.5319 27.2448 12.4849C27.2757 12.4378 27.2962 12.3814 27.3065 12.325C27.3168 12.2686 27.3168 12.2121 27.3065 12.1557C27.2757 12.0616 27.1009 12.0993 27.1215 12.2121Z" fill="#0853B0"/>
<path d="M26.69 8.83568C26.6283 8.45007 26.9778 8.12088 27.1114 7.7823C27.2347 7.46252 27.1525 7.07691 26.8236 6.88881C26.6694 6.80416 26.4947 6.77594 26.3199 6.80416C26.1452 6.84178 25.991 6.93583 25.8779 7.0675C25.621 7.34966 25.4257 7.66003 25.2818 7.99862C25.107 8.38423 25.0042 8.78865 24.9734 9.20248C24.9631 9.30594 25.1481 9.30594 25.1584 9.20248C25.1893 8.86389 25.2612 8.54412 25.3846 8.22434C25.5079 7.90457 25.6724 7.61301 25.8779 7.33085C25.9704 7.18977 26.0835 7.07691 26.2377 6.99226C26.3096 6.95464 26.3919 6.94524 26.4638 6.94524C26.5461 6.94524 26.618 6.96405 26.69 6.99226C26.7619 7.02988 26.8339 7.07691 26.8853 7.14275C26.9367 7.20858 26.9675 7.27442 26.988 7.34966C27.0189 7.51895 26.988 7.67884 26.9058 7.82932C26.7414 8.16791 26.4638 8.47828 26.5255 8.8733C26.5358 8.98616 26.7105 8.93913 26.69 8.83568Z" fill="#0853B0"/>
<path d="M5.26217 12.9764C5.28272 13.757 5.98168 14.3401 6.82454 14.3684C7.70852 14.3966 8.40748 13.8699 8.77751 13.1645C8.98309 12.7789 9.59982 13.1175 9.40452 13.5031C8.90086 14.4718 7.81131 15.1396 6.61897 15.0173C5.47802 14.895 4.57349 14.0486 4.55293 12.9858C4.53237 12.5438 5.25189 12.5438 5.26217 12.9764Z" fill="#0853B0"/>
<path d="M5.90971 9.2519C5.79665 9.04498 5.82748 8.75342 5.70414 8.42424C5.62191 8.21733 5.26215 7.42729 4.9949 7.19216C4.90239 7.11692 4.79961 7.06049 4.68654 7.02287C4.57347 6.98525 4.45013 6.96644 4.32678 6.97585C4.18288 6.97585 3.93618 7.27681 3.87451 7.42729C3.82312 7.54956 4.36789 8.81926 4.34734 8.95093C4.18288 8.95093 4.03897 8.98855 3.89507 9.05439C3.75117 9.12963 3.64838 9.23309 3.58671 9.37416C3.54559 9.49643 3.51475 9.6281 3.51475 9.75978H3.48392C3.38113 9.7974 3.28862 9.84442 3.20639 9.91026C3.12416 9.96669 3.04193 10.0419 2.98026 10.1172C2.91859 10.1924 2.85691 10.2865 2.8158 10.3711C2.77468 10.4652 2.74385 10.5592 2.73357 10.6627C2.70273 10.9824 2.82608 11.3022 3.01109 11.5656C3.20639 11.8289 3.45308 12.064 3.72033 12.2615V12.271C3.71005 12.3368 3.71005 12.4026 3.73061 12.4685C3.75117 12.5343 3.79228 12.5907 3.84368 12.6378C3.94646 12.7412 4.08009 12.8071 4.22399 12.8353C4.3679 12.8635 4.5118 12.8729 4.66598 12.8635C4.89211 12.8635 5.11825 12.8353 5.3341 12.7694C5.43689 12.7318 5.53968 12.6848 5.62191 12.6189C5.70414 12.5531 5.77609 12.4685 5.83776 12.3838C5.8686 12.3368 5.87888 12.2898 5.89943 12.2427C5.90971 12.1957 5.90971 12.1393 5.90971 12.0923C5.90971 12.0358 5.88915 11.9888 5.87888 11.9418C5.8686 11.8947 5.83776 11.8477 5.79665 11.8007L5.81721 11.7819C6.05362 11.5279 6.25919 11.2458 6.43393 10.9542C6.59839 10.6533 6.70118 10.3241 6.67034 9.9949C6.66006 9.83502 6.59839 9.68453 6.50588 9.54346C6.45449 9.47762 6.39282 9.42119 6.32087 9.37416C6.24891 9.32714 6.16668 9.29892 6.07418 9.28952L5.90971 9.2519Z" fill="#F2F2F2"/>
<path d="M6.0331 10.1642C5.8892 10.3335 5.71446 10.5028 5.45749 10.531C5.4061 10.5404 5.3547 10.531 5.30331 10.5216C5.25192 10.5122 5.20052 10.4934 5.1594 10.4652C5.11829 10.437 5.07718 10.4088 5.04634 10.3617C5.0155 10.3241 4.99494 10.2771 4.97439 10.2301C4.83048 9.81624 5.29303 9.40241 5.67334 9.27074C5.77613 9.23312 5.8892 9.21431 6.01255 9.22371C6.12561 9.23312 6.23868 9.25193 6.34146 9.30836C6.43397 9.36479 6.51621 9.43062 6.58816 9.51527C6.64983 9.59992 6.70122 9.69397 6.72178 9.79743C6.85541 10.2301 6.72178 10.7097 6.50593 11.0953C6.29007 11.4904 5.85836 12.0923 5.29303 11.9136C5.17996 11.876 5.23136 11.7161 5.34442 11.7537C5.75558 11.876 6.06394 11.4527 6.24896 11.1894C6.45453 10.879 6.60871 10.5122 6.59843 10.136C6.58816 9.80683 6.45453 9.42122 6.04338 9.393C5.84808 9.3836 5.67334 9.43062 5.51916 9.54349C5.3547 9.64694 5.24164 9.77861 5.16968 9.94791C5.11829 10.1078 5.16968 10.3241 5.38554 10.3523C5.62195 10.3805 5.79669 10.183 5.92004 10.0326C5.98171 9.96672 6.10505 10.089 6.0331 10.1642Z" fill="#0853B0"/>
<path d="M5.25187 9.58112C5.01546 9.31778 4.69681 9.07324 4.30622 9.06384C4.21371 9.05443 4.1212 9.07324 4.03897 9.10146C3.95674 9.12967 3.87451 9.1767 3.80256 9.23313C3.74089 9.28956 3.68949 9.3554 3.65866 9.43064C3.62782 9.50588 3.61754 9.58112 3.62782 9.66577C3.64838 9.76922 3.47364 9.81625 3.45308 9.71279C3.37085 9.29896 3.74088 8.95097 4.18287 8.91335C4.66597 8.87573 5.07713 9.15789 5.36493 9.47766C5.44716 9.5435 5.32382 9.65636 5.25187 9.58112Z" fill="#0853B0"/>
<path d="M5.06704 10.5498L5.09788 10.5687C5.10816 10.5687 5.0876 10.5687 5.09788 10.5687L5.10815 10.5781L5.13899 10.5875C5.15955 10.5875 5.14927 10.5875 5.13899 10.5875H5.15955C5.16983 10.5875 5.18011 10.5875 5.19039 10.5875H5.21094C5.22122 10.5875 5.22122 10.5875 5.21094 10.5875L5.25206 10.5781H5.26234H5.27261H5.28289L5.30345 10.5687C5.31373 10.5592 5.32401 10.5592 5.33429 10.5498H5.34457L5.35485 10.5404L5.3754 10.5216L5.38568 10.5122C5.39596 10.5028 5.39596 10.5028 5.38568 10.5122L5.40624 10.484L5.4268 10.4558C5.4268 10.4464 5.4268 10.4464 5.4268 10.4558C5.4268 10.4464 5.4268 10.4464 5.43708 10.437C5.44735 10.4182 5.45763 10.3994 5.47819 10.3805C5.49875 10.3711 5.51931 10.3617 5.55014 10.3711C5.5707 10.3805 5.59126 10.39 5.60154 10.4088C5.61182 10.4276 5.61182 10.4558 5.61182 10.4746C5.60154 10.5028 5.59126 10.531 5.5707 10.5592C5.55014 10.5875 5.53986 10.6063 5.50903 10.6345C5.48847 10.6533 5.45763 10.6721 5.43708 10.6909C5.40624 10.7097 5.38568 10.7191 5.35485 10.7285C5.32401 10.7379 5.29317 10.7474 5.26234 10.7474C5.2315 10.7474 5.20066 10.7568 5.16983 10.7474C5.13899 10.7379 5.10815 10.7379 5.07732 10.7285C5.04648 10.7191 5.01565 10.7097 4.98481 10.6909C4.96425 10.6815 4.95397 10.6627 4.9437 10.6439C4.93342 10.6251 4.94369 10.5969 4.95397 10.5781C4.96425 10.5592 4.98481 10.5404 5.00537 10.5404C5.01564 10.531 5.0362 10.5404 5.06704 10.5498Z" fill="#0853B0"/>
<path d="M4.30612 12.3933C3.74079 12.4403 3.26796 12.0923 2.99044 11.6785C2.82598 11.4527 2.72319 11.2176 2.66152 10.9543C2.64096 10.832 2.65124 10.7003 2.68207 10.5781C2.71291 10.4558 2.7643 10.3335 2.84653 10.2301C2.98016 10.0326 3.1549 9.81624 3.39131 9.71278C3.51466 9.66575 3.64828 9.63754 3.7819 9.64694C3.91553 9.65635 4.03887 9.69397 4.16222 9.75981C4.39863 9.88207 4.56309 10.0984 4.69671 10.3053C4.83034 10.5216 4.91257 10.7568 4.80978 10.9919C4.70699 11.227 4.43975 11.3493 4.1725 11.2364C3.88469 11.1141 3.7819 10.8226 3.72023 10.5592C3.68939 10.4558 3.86413 10.4088 3.89497 10.5122C3.94636 10.7003 3.99776 10.9355 4.18277 11.0483C4.36779 11.1612 4.56309 11.0953 4.64532 10.9072C4.72755 10.7097 4.61448 10.5028 4.5117 10.3335C4.40891 10.1548 4.265 10.0137 4.07999 9.90088C3.88469 9.78802 3.638 9.75981 3.4427 9.86326C3.25769 9.96672 3.1035 10.1454 3.00071 10.3147C2.93904 10.4088 2.89793 10.5028 2.86709 10.6157C2.84653 10.7191 2.84653 10.832 2.85681 10.9355C2.90821 11.1424 2.99044 11.3305 3.11378 11.5092C3.36047 11.9042 3.79218 12.2522 4.32668 12.2052C4.42947 12.224 4.42947 12.3838 4.30612 12.3933Z" fill="#0853B0"/>
<path d="M3.8233 12.2992C3.78218 12.5343 4.03915 12.6848 4.25501 12.7319C4.51198 12.7883 4.76895 12.7977 5.0362 12.7601C5.15954 12.7507 5.26233 12.7225 5.37539 12.6754C5.47818 12.6284 5.58097 12.5626 5.6632 12.4873C5.70432 12.4497 5.73515 12.4027 5.75571 12.3556C5.77627 12.3086 5.79683 12.2616 5.8071 12.2052C5.81738 12.1487 5.8071 12.1017 5.79682 12.0453C5.78655 11.9888 5.76599 11.9418 5.73515 11.8948C5.67348 11.8007 5.82766 11.7255 5.88933 11.8101C6.15658 12.1864 5.8585 12.6378 5.45763 12.8071C5.22121 12.9011 4.96424 12.9388 4.70727 12.92C4.46058 12.9106 4.19334 12.9011 3.9672 12.7977C3.91581 12.7695 3.86441 12.7413 3.81302 12.7036C3.77191 12.666 3.73079 12.619 3.69995 12.572C3.66912 12.5249 3.64856 12.4685 3.63828 12.4121C3.628 12.3556 3.628 12.2992 3.63828 12.2428C3.66912 12.1487 3.84385 12.1864 3.8233 12.2992Z" fill="#0853B0"/>
<path d="M4.25483 8.92271C4.3165 8.5371 3.96702 8.20792 3.8334 7.86933C3.71005 7.54956 3.79229 7.16395 4.12121 6.97584C4.27539 6.8912 4.45013 6.86298 4.62487 6.8912C4.79961 6.92882 4.95379 7.02287 5.06685 7.15454C5.32382 7.4367 5.51912 7.74707 5.66303 8.08565C5.83776 8.47126 5.94055 8.87569 5.97139 9.28951C5.98167 9.39297 5.79665 9.39297 5.78637 9.28951C5.75553 8.95093 5.68358 8.63115 5.56024 8.31138C5.43689 7.9916 5.27243 7.70004 5.06685 7.41789C4.97434 7.27681 4.86128 7.16395 4.7071 7.0793C4.63514 7.04168 4.55292 7.03227 4.48096 7.03227C4.39873 7.03227 4.32678 7.05108 4.25483 7.0793C4.18288 7.11692 4.11093 7.16395 4.05953 7.22978C4.00814 7.29562 3.9773 7.36145 3.95675 7.4367C3.92591 7.60599 3.95674 7.76588 4.03898 7.91636C4.20344 8.25495 4.48096 8.56532 4.41929 8.96033C4.40901 9.0732 4.23427 9.02617 4.25483 8.92271Z" fill="#0853B0"/>
<path d="M11.3184 5.19326C11.2835 4.977 11.225 4.77569 11.1362 4.56902C11.0575 4.36414 10.9553 4.17422 10.8329 3.98072C10.7088 3.79649 10.573 3.61974 10.4136 3.45794C10.2543 3.29614 10.0832 3.14181 9.89707 3.01349C9.51634 2.7458 9.05169 2.53972 8.58669 2.57233C8.15207 2.6103 7.77588 2.84958 7.4859 3.1327C7.12048 3.48848 6.82788 3.90485 6.613 4.35402C6.39648 4.81246 6.27106 5.28696 6.23511 5.78678C6.17826 6.46438 6.31472 7.0519 6.588 7.69221C6.81002 8.20887 6.98502 8.75544 7.34321 9.21016C7.83723 9.84163 8.22708 10.5311 8.52615 11.2619C8.59798 11.4465 8.68678 11.6532 8.86931 11.7427C9.17527 11.9017 9.54134 11.6606 9.71344 11.3949C9.81533 11.2314 9.89012 11.044 9.92278 10.8588C9.95708 10.6643 9.95937 10.4737 9.92118 10.2759C9.82063 9.7807 9.47779 9.35734 9.18882 8.92437C8.73333 8.25194 8.36699 7.54748 8.08131 6.79994C7.8606 6.21666 7.71043 5.58851 7.90606 5.01179C8.03539 4.63348 8.39917 4.28696 8.82922 4.33414C9.05355 4.36415 9.24979 4.49425 9.40914 4.65605C9.57011 4.80859 9.70594 4.98535 9.81826 5.17705C9.93058 5.36876 10.0093 5.57364 10.0458 5.78065C10.1046 6.03932 10.1248 6.33894 10.3449 6.51145C10.6107 6.72067 11.0381 6.60503 11.2576 6.36677C11.4669 6.12672 11.5257 5.79328 11.5711 5.47658L11.3184 5.19326Z" fill="#F2F2F2"/>
<path d="M11.4447 5.18686C11.4013 4.95954 11.336 4.73792 11.2488 4.522C11.1616 4.30607 11.0526 4.09584 10.92 3.90056C10.7875 3.70528 10.6431 3.51748 10.4652 3.34284C10.2974 3.17 10.106 3.01211 9.9114 2.87274C9.45459 2.56298 8.90569 2.36114 8.35024 2.49241C7.86042 2.6066 7.46464 2.95702 7.15147 3.31246C6.80989 3.71064 6.54439 4.15089 6.36672 4.62573C6.18743 5.10983 6.10087 5.60073 6.10378 6.11696C6.12008 6.61645 6.22226 7.10243 6.41032 7.5749C6.59675 8.05663 6.78155 8.54763 7.05712 8.99733C7.19491 9.22218 7.36797 9.4246 7.526 9.65302C7.67554 9.8704 7.82345 10.097 7.94785 10.3386C8.07388 10.571 8.19828 10.8125 8.30243 11.0506C8.40137 11.259 8.46176 11.5084 8.61784 11.6887C8.6518 11.7329 8.69751 11.7696 8.75334 11.8081C8.80069 11.8356 8.85816 11.8648 8.91726 11.8848C8.97637 11.9048 9.03873 11.9062 9.1011 11.9077C9.16347 11.9091 9.21735 11.8995 9.27287 11.8806C9.51353 11.818 9.7013 11.641 9.81984 11.4423C9.89169 11.3308 9.94329 11.2157 9.98476 11.0989C10.0262 10.9821 10.0491 10.8524 10.0618 10.7209C10.0746 10.5895 10.0655 10.4637 10.0462 10.3362C10.0269 10.2086 9.99592 10.0885 9.94466 9.96489C9.76672 9.49421 9.42061 9.08937 9.15026 8.66924C8.84431 8.21418 8.59552 7.731 8.38035 7.23465C8.16519 6.7383 7.96342 6.22521 7.9334 5.6851C7.91579 5.25223 8.0275 4.73711 8.46442 4.50855C8.93498 4.26681 9.38264 4.74686 9.61544 5.08396C9.74801 5.27924 9.8453 5.49695 9.90897 5.72784C9.95565 5.93662 9.9687 6.15858 10.0693 6.35777C10.1137 6.4611 10.1832 6.54021 10.2763 6.60437C10.3693 6.66853 10.4774 6.70669 10.5888 6.72633C10.7017 6.7367 10.818 6.72854 10.929 6.69082C11.0384 6.66236 11.141 6.61359 11.2265 6.54272C11.4313 6.38782 11.5345 6.15771 11.6073 5.92224C11.6403 5.79435 11.6615 5.67395 11.6844 5.54427C11.7076 5.47196 11.687 5.41103 11.6328 5.36327L11.4173 5.10562C11.3138 4.98231 11.1123 5.11869 11.2174 5.23273L11.4685 5.52532L11.4427 5.43482C11.3843 5.82562 11.3013 6.35535 10.8115 6.46954C10.7677 6.48092 10.7256 6.48305 10.6835 6.48517C10.6414 6.48729 10.5907 6.47837 10.5519 6.46197C10.513 6.44556 10.4742 6.42916 10.4369 6.4035C10.3997 6.37783 10.3743 6.34469 10.3488 6.31155C10.2316 6.14763 10.2254 5.94598 10.1855 5.7575C10.1405 5.53945 10.0634 5.32531 9.95275 5.12434C9.84207 4.92337 9.70787 4.73735 9.5384 4.57377C9.36045 4.39913 9.15735 4.24872 8.90592 4.19483C8.80469 4.17699 8.7002 4.17766 8.59407 4.1876C8.48631 4.2068 8.39717 4.23883 8.30475 4.28939C7.91159 4.50657 7.73034 4.94257 7.69897 5.35725C7.6529 5.85529 7.79394 6.35768 7.97187 6.82836C8.15145 7.28979 8.3529 7.74552 8.59974 8.18061C8.83809 8.60465 9.13195 9.00982 9.40394 9.42069C9.66907 9.81125 9.87378 10.2485 9.81237 10.7151C9.78166 10.9485 9.70361 11.1544 9.56482 11.3496C9.45607 11.4927 9.25982 11.6587 9.0541 11.6415C8.82813 11.6208 8.74096 11.4048 8.66586 11.2388C8.5702 11.0118 8.4729 10.7941 8.36548 10.5746C8.14052 10.1338 7.88029 9.71549 7.58643 9.31032C7.43198 9.12073 7.29093 8.9144 7.17175 8.70238C7.05258 8.49037 6.96704 8.26518 6.86974 8.04747C6.68527 7.61383 6.49067 7.1784 6.40547 6.71452C6.22331 5.79422 6.43529 4.82882 6.9111 4.02455C7.13806 3.62526 7.43948 3.27729 7.80358 2.98813C7.97307 2.85566 8.17814 2.75812 8.39856 2.69193C8.63922 2.62932 8.87694 2.64258 9.12511 2.71499C9.59107 2.85445 9.99564 3.16455 10.3127 3.49741C10.6213 3.81922 10.8508 4.17486 11.0098 4.57535C11.0901 4.77097 11.1384 4.9705 11.1766 5.16824C11.2282 5.34924 11.4708 5.33471 11.4447 5.18686Z" fill="#0853B0"/>
<path d="M11.8487 2.71776C12.669 1.73548 13.81 1.717 14.641 1.73938C15.4097 1.76031 16.1539 1.92018 16.9392 2.20191C18.7648 2.85808 20.4971 3.68879 22.1376 4.68477C22.77 5.0637 23.4061 5.48146 23.8374 6.05413C24.2805 6.61932 24.6253 7.38684 24.1874 8.03544C23.7527 8.66552 23.3671 9.31378 23.0271 9.99875C22.6888 10.6745 22.4079 11.3794 22.176 12.1025C21.9441 12.8257 21.773 13.5595 21.6626 14.3041C21.542 15.0468 21.4924 15.8021 21.4848 16.5552C21.4881 17.1288 21.505 17.743 21.1621 18.2078C20.7742 18.7506 20.0411 19.0607 19.3628 19.2372C18.4354 19.4652 17.494 19.5953 16.5353 19.6459C15.5766 19.6965 14.6139 19.6509 13.6559 19.5202C11.6993 19.2516 9.15395 18.2966 7.8286 16.9933L7.78812 16.6901C7.72386 15.4563 7.76409 14.2219 7.90718 12.996C8.05027 11.7702 8.29458 10.5622 8.63849 9.38126C8.9824 8.20037 9.4259 7.04658 9.96736 5.92917C10.4987 4.80998 11.1247 3.74569 11.8487 2.71776Z" fill="#F2F2F2"/>
<path d="M11.9386 2.80043C12.1094 2.60134 12.3073 2.42613 12.5307 2.28405C12.754 2.14198 13.013 2.03484 13.2755 1.96653C13.7131 1.85268 14.1732 1.84785 14.6199 1.85977C15.3768 1.88818 16.1141 2.02774 16.8201 2.28592C17.5277 2.53485 18.2288 2.82082 18.9148 3.13279C19.6008 3.44476 20.282 3.78452 20.9481 4.15029C21.577 4.49038 22.2026 4.84901 22.778 5.25606C23.3262 5.63924 23.8059 6.11538 24.0788 6.69832C24.2085 6.96948 24.2826 7.25951 24.2303 7.5559C24.1748 7.87082 23.9521 8.12761 23.78 8.39332C23.409 8.95822 23.0853 9.55058 22.7921 10.1483C22.5073 10.757 22.2529 11.3711 22.056 12.0145C21.8505 12.6468 21.6941 13.2973 21.5781 13.9549C21.4622 14.6125 21.3867 15.2773 21.3635 15.9417C21.3468 16.273 21.352 16.5986 21.3471 16.9225C21.3422 17.2463 21.3239 17.5869 21.1874 17.8875C20.9562 18.4293 20.3631 18.7736 19.7946 18.979C19.1605 19.2014 18.4718 19.3188 17.7981 19.4101C17.0824 19.5035 16.3545 19.5471 15.6247 19.5426C14.31 19.54 13.0281 19.3521 11.7686 18.9772C10.6104 18.6202 9.45644 18.1207 8.48666 17.4053C8.27343 17.2531 8.0736 17.0842 7.88715 16.8985L7.93646 16.974C7.89076 16.6413 7.86694 16.3028 7.87349 15.9697C7.85882 15.461 7.87452 14.9576 7.89186 14.4449C7.97096 12.9308 8.2019 11.4435 8.58632 9.97369C8.97073 8.50388 9.50209 7.08863 10.1804 5.72794C10.7022 4.72168 11.2832 3.73539 11.9386 2.80043C12.0222 2.68147 11.8309 2.52357 11.7457 2.6518C10.6455 4.21505 9.75816 5.87315 9.08213 7.63535C8.4061 9.39754 7.96975 11.2211 7.75446 13.0932C7.65351 14.0209 7.6048 14.9482 7.61847 15.877C7.61714 16.2397 7.6377 16.5967 7.67849 16.9572C7.68045 17.0053 7.69253 17.0552 7.72812 17.0901C7.7993 17.16 7.87048 17.2298 7.95342 17.2922C8.09742 17.4226 8.2548 17.5363 8.41219 17.65C9.10933 18.1359 9.86328 18.5362 10.6741 18.8511C11.4832 19.1752 12.3087 19.4067 13.1675 19.5677C14.1494 19.7408 15.1391 19.8103 16.1266 19.7743C17.1428 19.7529 18.1449 19.6336 19.1347 19.407C19.983 19.2128 20.9284 18.8829 21.3539 18.127C21.5825 17.7185 21.6034 17.2446 21.5992 16.795C21.5983 16.3269 21.6074 15.8606 21.6486 15.3903C21.7208 14.448 21.8959 13.5143 22.1503 12.6041C22.4047 11.694 22.7486 10.8091 23.1803 9.95889C23.392 9.52824 23.6323 9.11221 23.8812 8.70722C24.0098 8.51025 24.1385 8.31329 24.2789 8.10884C24.4043 7.9304 24.4824 7.7245 24.4997 7.5079C24.5327 7.08396 24.3753 6.6742 24.1491 6.30004C23.8957 5.90201 23.5803 5.55988 23.2044 5.26441C22.8168 4.97641 22.4159 4.70515 21.9881 4.46737C21.5349 4.19645 21.08 3.93479 20.6118 3.68987C19.6668 3.18899 18.6902 2.74937 17.6952 2.35428C17.1986 2.1521 16.6869 1.97593 16.1687 1.8368C15.659 1.70872 15.1512 1.62874 14.6202 1.62107C13.9443 1.60694 13.2586 1.64838 12.645 1.93175C12.2903 2.10797 11.9883 2.34122 11.7372 2.64075C11.6536 2.75971 11.8449 2.91761 11.9386 2.80043Z" fill="#0853B0"/>
<path d="M13.2096 2.27964C12.8288 2.30801 12.6355 2.69413 12.7266 3.00625C12.835 3.39782 13.2376 3.65982 13.5625 3.88901C14.3324 4.43544 15.1576 4.90564 16.0278 5.29784C16.9065 5.70108 17.8169 6.04306 18.7289 6.37578C19.6915 6.71742 20.6659 7.05158 21.6301 7.38396C22.1418 7.56013 22.706 7.79333 23.2599 7.67133C23.7043 7.57779 24.1001 7.22736 24.0622 6.79093C24.0462 6.64485 23.8036 6.65937 23.8078 6.81292C23.8333 7.14212 23.496 7.3978 23.1727 7.4554C22.7198 7.53789 22.2502 7.3596 21.828 7.20875C20.9229 6.89634 20.0177 6.58393 19.1227 6.27331C17.4423 5.68096 15.76 5.04052 14.2681 4.08984C14.0618 3.95795 13.857 3.81679 13.6624 3.67743C13.4747 3.55837 13.3121 3.41509 13.1612 3.26434C13.0391 3.1282 12.9522 2.96964 12.9833 2.79365C13.0061 2.66398 13.1015 2.53754 13.2599 2.52726C13.3895 2.50237 13.3781 2.27115 13.2096 2.27964Z" fill="#0853B0"/>
<path d="M11.4259 4.87796C10.4439 7.07327 9.52782 9.30885 8.9814 11.6383C8.72468 12.739 8.50878 13.9043 8.527 15.044C8.53381 15.9525 8.8763 16.9106 9.79418 17.3876C10.0241 17.5045 10.1873 17.1704 9.95747 17.0535C8.95175 16.5419 8.87279 15.3915 8.9401 14.477C9.02833 13.3847 9.20766 12.3085 9.48821 11.2501C10.0323 9.11131 10.8837 7.06487 11.7825 5.04588C11.8857 4.81577 11.5174 4.65533 11.4259 4.87796Z" fill="#F2F2F2"/>
<path d="M17.8134 4.82003C17.8353 4.81434 17.8673 4.81043 17.8891 4.80474L17.8571 4.80865C17.911 4.79905 17.9649 4.78945 18.0256 4.80016L17.9851 4.79302C18.0374 4.79268 18.0779 4.79982 18.1269 4.818C18.1471 4.82157 18.1572 4.82336 18.1791 4.81767C18.201 4.81197 18.2127 4.8045 18.2245 4.79702C18.2362 4.78954 18.2496 4.7728 18.2614 4.76532C18.2748 4.74859 18.2764 4.73932 18.2797 4.7208C18.2862 4.68375 18.281 4.65418 18.2539 4.6303C18.2268 4.60642 18.1997 4.58254 18.1693 4.57718C18.0191 4.54115 17.8624 4.54216 17.7177 4.59306C17.6958 4.59875 17.6841 4.60623 17.6723 4.6137C17.6606 4.62118 17.6472 4.63792 17.6338 4.65466C17.6204 4.6714 17.6171 4.68993 17.6155 4.69919C17.6122 4.71771 17.6191 4.73802 17.6276 4.74907C17.6344 4.76938 17.6429 4.78042 17.6615 4.79326C17.67 4.8043 17.6886 4.81714 17.7089 4.82071C17.7291 4.82428 17.7494 4.82785 17.7595 4.82963C17.7696 4.83142 17.7915 4.82572 17.8134 4.82003Z" fill="#F2F2F2"/>
<path d="M18.5871 5.10921C18.8274 5.28529 19.0893 5.39832 19.3829 5.45008C19.6679 5.4908 19.9442 5.46311 20.2015 5.36522C20.4572 5.2766 20.6959 5.16589 20.9193 5.02382C21.1208 4.88744 21.2951 4.72719 21.4542 4.53557C21.6116 4.35322 21.7637 4.1413 22.0077 4.06015C22.1742 4.00357 22.0684 3.77481 21.9136 3.82392C21.4695 3.97482 21.2814 4.39051 20.9595 4.67755C20.775 4.83602 20.5666 4.95209 20.3312 5.04428C20.1059 5.13825 19.8518 5.21761 19.6007 5.22108C19.299 5.21563 19.0084 5.08799 18.7664 4.92117C18.6175 4.81851 18.4484 5.00834 18.5871 5.10921Z" fill="#F2F2F2"/>
<path d="M22.3996 3.96695L22.4973 3.94597C22.5175 3.94954 22.5293 3.94206 22.541 3.93458C22.5528 3.9271 22.5747 3.92141 22.5779 3.90289C22.5897 3.89541 22.5929 3.87689 22.6063 3.86015C22.6096 3.84162 22.6112 3.83236 22.6145 3.81384L22.6093 3.78426C22.6024 3.76395 22.5854 3.74186 22.5668 3.72903L22.5381 3.71441C22.5195 3.70158 22.4891 3.69622 22.4672 3.70192L22.3696 3.7229C22.3494 3.71933 22.3376 3.72681 22.3258 3.73429C22.3141 3.74176 22.2922 3.74746 22.2889 3.76598C22.2772 3.77346 22.2638 3.7902 22.2605 3.80872C22.2573 3.82725 22.254 3.84577 22.2524 3.85503L22.2576 3.8846C22.2644 3.90491 22.2814 3.92701 22.3 3.93984L22.3288 3.95446C22.3474 3.96729 22.3778 3.97265 22.3996 3.96695Z" fill="#F2F2F2"/>
<path fill-rule="evenodd" clip-rule="evenodd" d="M12.8332 11.7237C14.1468 12.2018 15.0608 11.2233 15.5819 9.79155C16.1031 8.3598 16.0898 7.04382 14.7182 6.54462C13.3467 6.04541 12.4906 7.04498 11.9695 8.47673C11.4484 9.90848 11.5196 11.2456 12.8332 11.7237Z" stroke="black" stroke-width="0.0877023" stroke-miterlimit="1.7576"/>
<path d="M12.5575 7.36932C13.6056 8.09294 14.711 8.47628 15.8555 8.5697" stroke="black" stroke-width="0.0877023" stroke-miterlimit="1.7576"/>
<path fill-rule="evenodd" clip-rule="evenodd" d="M14.2103 10.6598C14.7061 10.7702 14.9034 10.7445 15.1544 10.4756C15.3572 10.2491 15.5028 9.97916 15.6617 9.54249C15.7358 9.26209 15.8189 8.95702 15.828 8.625C15.3708 8.52866 14.8337 8.48665 14.399 8.32845C14.1383 8.23353 13.8932 8.1364 13.6678 8.03436C13.5165 8.2095 13.4274 8.36302 13.3599 8.57865L14.5512 9.21243L13.2377 9.15473C13.1671 9.85966 13.4022 10.4757 14.2103 10.6598Z" fill="#0853B0"/>
<path fill-rule="evenodd" clip-rule="evenodd" d="M17.8935 13.4001C19.2072 13.8782 20.1212 12.8998 20.6423 11.468C21.1634 10.0362 21.1501 8.72028 19.7786 8.22107C18.407 7.72186 17.551 8.72143 17.0298 10.1532C16.5087 11.5849 16.5799 12.922 17.8935 13.4001Z" stroke="black" stroke-width="0.0877023" stroke-miterlimit="1.7576"/>
<path d="M17.6176 9.04578C18.6657 9.76939 19.7711 10.1527 20.9156 10.2462" stroke="black" stroke-width="0.0877023" stroke-miterlimit="1.7576"/>
<path fill-rule="evenodd" clip-rule="evenodd" d="M19.2701 12.3362C19.7659 12.4466 19.9632 12.421 20.2142 12.152C20.417 11.9256 20.5626 11.6556 20.7215 11.2189C20.7956 10.9385 20.8787 10.6335 20.8878 10.3014C20.4306 10.2051 19.8935 10.1631 19.4588 10.0049C19.1981 9.90998 18.953 9.81286 18.7276 9.71081C18.5763 9.88596 18.4872 10.0395 18.4197 10.2551L19.611 10.8889L18.2975 10.8312C18.2269 11.5361 18.462 12.1522 19.2701 12.3362Z" fill="#0853B0"/>
<path d="M14.476 13.0384C14.7843 12.935 15.1544 13.0854 15.1647 13.4052C15.1749 13.4711 15.1544 13.5369 15.1133 13.6027C15.0721 13.6686 15.0208 13.7156 14.9591 13.7438C14.8974 13.7814 14.8255 13.7908 14.7432 13.7908C14.6713 13.7908 14.5993 13.7626 14.5377 13.725C14.404 13.6309 14.2396 13.819 14.3732 13.9131C14.476 13.9789 14.5788 14.0166 14.7021 14.026C14.8255 14.0354 14.9385 14.0166 15.0516 13.9695C15.1647 13.9225 15.2469 13.8473 15.3188 13.7532C15.3908 13.6592 15.4216 13.5557 15.4216 13.4428C15.4422 12.9256 14.8666 12.6434 14.3732 12.8033C14.219 12.8691 14.3115 13.0948 14.476 13.0384Z" fill="#0853B0"/>
<path d="M11.1338 13.9445C11.1955 14.0385 11.2571 14.1326 11.3188 14.2266C11.3908 14.3207 11.4627 14.4053 11.5347 14.49C11.6066 14.5746 11.6888 14.6593 11.7813 14.7345C11.8636 14.8097 11.9561 14.885 12.0486 14.9602C12.1411 15.0261 12.2336 15.1013 12.3364 15.1577C12.4392 15.2236 12.5317 15.28 12.6448 15.327C12.7476 15.3835 12.8606 15.4305 12.9634 15.4775C13.0765 15.5245 13.1793 15.5622 13.2923 15.5998C13.4054 15.6374 13.5185 15.6656 13.6315 15.6938C13.7446 15.7221 13.8679 15.7409 13.981 15.7597C14.0941 15.7785 14.2174 15.7879 14.3408 15.7973C14.4641 15.8067 14.5772 15.8067 14.7005 15.7973C14.8239 15.7973 14.9369 15.7879 15.0603 15.7691C15.1836 15.7597 15.2967 15.7409 15.4098 15.7126C15.5228 15.6844 15.6462 15.6562 15.7592 15.628C15.8723 15.5904 15.9854 15.5528 16.0984 15.5151C16.2629 15.4493 16.1909 15.2142 16.0265 15.2706C14.2791 15.9384 12.3158 15.3364 11.3702 13.8316C11.2777 13.6717 11.0413 13.8034 11.1338 13.9445Z" fill="#0853B0"/>
<path d="M11.1199 13.9042C11.1457 14.0137 11.0942 13.7948 11.12 13.9042C11.1555 14.0172 11.2126 14.1677 11.2513 14.2718C11.2899 14.376 11.3739 14.6159 11.4351 14.7182C11.3739 14.6159 11.4866 14.817 11.4351 14.7182C11.4995 14.8117 11.6728 15.1552 11.7501 15.2434C11.8241 15.3404 11.975 15.5806 12.0652 15.6635C11.9847 15.5841 12.1425 15.7517 12.0652 15.6635C12.1553 15.7464 12.3394 15.9571 12.4328 16.0311C12.5262 16.1051 12.7826 16.281 12.8792 16.3462C12.9758 16.4114 13.1732 16.4999 13.273 16.5563C13.1604 16.5052 13.3729 16.6126 13.273 16.5563C13.3857 16.6073 13.6528 16.6805 13.772 16.7138C13.8879 16.756 14.179 16.7663 14.3234 16.7663C14.4677 16.7663 14.7698 16.6653 14.9011 16.6088C15.0573 16.5415 15.2949 16.3725 15.3474 16.3199C15.3474 16.3199 16.109 15.611 16.1877 15.4272C16.1877 15.0964 16.0302 15.3484 16.0302 15.3484C14.2709 17.9479 11.7664 15.7088 11.3925 13.9713C11.3602 13.7894 11.0813 13.74 11.1199 13.9042Z" fill="#0853B0"/>
</svg>
