<svg width="24" height="25" viewBox="0 0 24 25" fill="none" xmlns="http://www.w3.org/2000/svg">
<g id="material-symbols:edit">
<path id="Vector" d="M3 21.5605V17.3105L16.2 4.13555C16.4 3.95221 16.621 3.81055 16.863 3.71055C17.105 3.61055 17.359 3.56055 17.625 3.56055C17.8917 3.56055 18.15 3.61055 18.4 3.71055C18.65 3.81055 18.8667 3.96055 19.05 4.16055L20.425 5.56055C20.625 5.74388 20.771 5.96055 20.863 6.21055C20.955 6.46055 21.0007 6.71055 21 6.96055C21 7.22721 20.954 7.48155 20.862 7.72355C20.77 7.96555 20.6243 8.18621 20.425 8.38555L7.25 21.5605H3ZM17.6 8.36055L19 6.96055L17.6 5.56055L16.2 6.96055L17.6 8.36055Z" fill="white"/>
</g>
</svg>
