<svg width="30" height="30" viewBox="0 0 24 24" fill="none" xmlns="http://www.w3.org/2000/svg">
<g id="ic:baseline-edit">
<path id="Vector" d="M3 17.2485V20.9985H6.75L17.81 9.93854L14.06 6.18854L3 17.2485ZM20.71 7.03854C20.8027 6.94602 20.8762 6.83614 20.9264 6.71516C20.9766 6.59419 21.0024 6.46451 21.0024 6.33354C21.0024 6.20257 20.9766 6.07289 20.9264 5.95191C20.8762 5.83094 20.8027 5.72105 20.71 5.62854L18.37 3.28854C18.2775 3.19583 18.1676 3.12229 18.0466 3.07211C17.9257 3.02192 17.796 2.99609 17.665 2.99609C17.534 2.99609 17.4043 3.02192 17.2834 3.07211C17.1624 3.12229 17.0525 3.19583 16.96 3.28854L15.13 5.11854L18.88 8.86854L20.71 7.03854Z" fill="black"/>
</g>
</svg>
