<svg width="29" height="9" viewBox="0 0 29 9" fill="none" xmlns="http://www.w3.org/2000/svg">
<g id="&#240;&#159;&#166;&#134; icon &#34;Vertical Ellipsis&#34;">
<path id="Vector" d="M18.388 4.65638C18.388 6.93881 16.5522 8.78541 14.2832 8.78541C12.0142 8.78541 10.1784 6.93881 10.1784 4.65638C10.1784 2.37394 12.0142 0.527344 14.2832 0.527344C16.5522 0.527344 18.388 2.37394 18.388 4.65638ZM24.3171 0.527344C22.0481 0.527344 20.2123 2.37394 20.2123 4.65638C20.2123 6.93881 22.0481 8.78541 24.3171 8.78541C26.5861 8.78541 28.4219 6.93881 28.4219 4.65638C28.4219 2.37394 26.5861 0.527344 24.3171 0.527344ZM4.24931 0.527344C1.98028 0.527344 0.144531 2.37394 0.144531 4.65638C0.144531 6.93881 1.98028 8.78541 4.24931 8.78541C6.51834 8.78541 8.35408 6.93881 8.35408 4.65638C8.35408 2.37394 6.51834 0.527344 4.24931 0.527344Z" fill="black"/>
</g>
</svg>
