<svg width="49" height="48" viewBox="0 0 49 48" fill="none" xmlns="http://www.w3.org/2000/svg">
<g id="fluent:emoji-24-filled">
<path id="Vector" d="M24.285 12C30.8627 12 36.1949 17.3725 36.1949 24C36.1949 30.6263 30.8615 35.9976 24.285 35.9976C17.7072 35.9988 12.375 30.6263 12.375 24C12.375 17.3725 17.7072 12 24.285 12ZM20.0721 27.3389C19.9995 27.2461 19.9095 27.1685 19.8072 27.1106C19.7049 27.0528 19.5923 27.0159 19.4758 27.0019C19.2405 26.9736 19.0038 27.0407 18.8176 27.1884C18.7254 27.2615 18.6484 27.3521 18.591 27.4552C18.5336 27.5583 18.4969 27.6718 18.4831 27.7892C18.455 28.0262 18.5216 28.2647 18.6682 28.4523C19.3364 29.3094 20.1893 30.0021 21.1624 30.478C22.1355 30.954 23.2033 31.2008 24.285 31.1998C25.3651 31.2009 26.4314 30.9548 27.4033 30.4801C28.3753 30.0054 29.2276 29.3145 29.8958 28.4595C29.9685 28.3668 30.0224 28.2605 30.0544 28.1468C30.0863 28.0331 30.0958 27.9142 30.0821 27.7968C30.0684 27.6795 30.032 27.566 29.9748 27.4628C29.9176 27.3596 29.8408 27.2688 29.7488 27.1956C29.6567 27.1223 29.5513 27.068 29.4384 27.0358C29.3256 27.0036 29.2076 26.9941 29.0911 27.0079C28.9746 27.0216 28.8619 27.0584 28.7595 27.116C28.6571 27.1736 28.567 27.251 28.4943 27.3437C27.9932 27.9855 27.3539 28.504 26.6246 28.8603C25.8954 29.2165 25.0954 29.4011 24.285 29.4001C22.6203 29.4001 21.0818 28.6323 20.0721 27.3389ZM20.7127 20.1008C20.5138 20.0951 20.3157 20.1297 20.1303 20.2025C19.9449 20.2753 19.7758 20.3848 19.6331 20.5245C19.4904 20.6643 19.377 20.8315 19.2995 21.0162C19.2221 21.2009 19.1821 21.3994 19.1821 21.5999C19.1821 21.8004 19.2221 21.9989 19.2995 22.1836C19.377 22.3683 19.4904 22.5355 19.6331 22.6752C19.7758 22.815 19.9449 22.9245 20.1303 22.9973C20.3157 23.0701 20.5138 23.1046 20.7127 23.099C21.1 23.0879 21.4678 22.9252 21.7379 22.6452C22.0079 22.3653 22.159 21.9903 22.159 21.5999C22.159 21.2095 22.0079 20.8345 21.7379 20.5545C21.4678 20.2746 21.1 20.1118 20.7127 20.1008ZM27.8572 20.1008C27.6583 20.0951 27.4603 20.1297 27.2748 20.2025C27.0894 20.2753 26.9203 20.3848 26.7776 20.5245C26.6349 20.6643 26.5215 20.8315 26.4441 21.0162C26.3666 21.2009 26.3267 21.3994 26.3267 21.5999C26.3267 21.8004 26.3666 21.9989 26.4441 22.1836C26.5215 22.3683 26.6349 22.5355 26.7776 22.6752C26.9203 22.815 27.0894 22.9245 27.2748 22.9973C27.4603 23.0701 27.6583 23.1046 27.8572 23.099C28.2446 23.0879 28.6123 22.9252 28.8824 22.6452C29.1525 22.3653 29.3036 21.9903 29.3036 21.5999C29.3036 21.2095 29.1525 20.8345 28.8824 20.5545C28.6123 20.2746 28.2446 20.1118 27.8572 20.1008Z" fill="black" fill-opacity="0.6"/>
</g>
</svg>
