<svg width="48" height="48" viewBox="0 0 48 48" fill="none" xmlns="http://www.w3.org/2000/svg">
<path d="M11.4387 11.4396C11.7199 11.1587 12.1012 11.0009 12.4987 11.0009C12.8962 11.0009 13.2774 11.1587 13.5587 11.4396L23.9987 21.8796L34.4387 11.4396C34.622 11.2422 34.8552 11.0978 35.1137 11.0218C35.3722 10.9458 35.6464 10.9409 35.9075 11.0076C36.1685 11.0744 36.4068 11.2103 36.597 11.4011C36.7873 11.5918 36.9226 11.8304 36.9887 12.0916C37.0555 12.3524 37.0508 12.6263 36.9752 12.8847C36.8995 13.143 36.7556 13.3761 36.5587 13.5596L26.1187 23.9996L36.5587 34.4396C36.7561 34.623 36.9005 34.8562 36.9765 35.1147C37.0525 35.3732 37.0574 35.6474 36.9907 35.9084C36.9239 36.1695 36.788 36.4077 36.5972 36.598C36.4065 36.7883 36.1679 36.9236 35.9067 36.9896C35.6459 37.0565 35.372 37.0518 35.1137 36.9761C34.8553 36.9005 34.6222 36.7566 34.4387 36.5596L23.9987 26.1196L13.5587 36.5596C13.2742 36.8244 12.8981 36.9687 12.5094 36.9619C12.1208 36.9552 11.7499 36.7981 11.4747 36.5236C11.2002 36.2484 11.0431 35.8775 11.0364 35.4889C11.0297 35.1003 11.1739 34.7241 11.4387 34.4396L21.8787 23.9996L11.4387 13.5596C11.1578 13.2784 11 12.8971 11 12.4996C11 12.1021 11.1578 11.7209 11.4387 11.4396Z" fill="black"/>
</svg>
