<svg width="16" height="16" viewBox="0 0 16 16" fill="none" xmlns="http://www.w3.org/2000/svg">
<path id="Vector" d="M15.9999 13.5469C15.9999 13.7139 15.9367 13.8741 15.8242 13.9923C15.7117 14.1104 15.5591 14.1767 15.3999 14.1767H11.32C11.1863 14.6998 10.892 15.162 10.4827 15.4917C10.0734 15.8213 9.57188 16 9.05597 16C8.54006 16 8.03857 15.8213 7.62924 15.4917C7.21991 15.162 6.92561 14.6998 6.79198 14.1767H0.599998C0.440869 14.1767 0.288257 14.1104 0.175735 13.9923C0.0632138 13.8741 0 13.7139 0 13.5469C0 13.3798 0.0632138 13.2196 0.175735 13.1015C0.288257 12.9834 0.440869 12.917 0.599998 12.917H6.79198C6.92561 12.3939 7.21991 11.9318 7.62924 11.6021C8.03857 11.2725 8.54006 11.0938 9.05597 11.0938C9.57188 11.0938 10.0734 11.2725 10.4827 11.6021C10.892 11.9318 11.1863 12.3939 11.32 12.917H15.3999C15.5591 12.917 15.7117 12.9834 15.8242 13.1015C15.9367 13.2196 15.9999 13.3798 15.9999 13.5469ZM15.9999 2.45311C15.9999 2.62015 15.9367 2.78036 15.8242 2.89848C15.7117 3.0166 15.5591 3.08296 15.3999 3.08296H13.44C13.3063 3.60605 13.012 4.06825 12.6027 4.3979C12.1934 4.72754 11.6919 4.90621 11.176 4.90621C10.6601 4.90621 10.1586 4.72754 9.74923 4.3979C9.3399 4.06825 9.0456 3.60605 8.91197 3.08296H0.599998C0.521205 3.08296 0.443184 3.06667 0.370389 3.03501C0.297594 3.00336 0.23145 2.95697 0.175735 2.89848C0.12002 2.83999 0.0758248 2.77056 0.0456721 2.69414C0.0155193 2.61772 0 2.53582 0 2.45311C0 2.37039 0.0155193 2.28849 0.0456721 2.21207C0.0758248 2.13566 0.12002 2.06622 0.175735 2.00773C0.23145 1.94925 0.297594 1.90285 0.370389 1.8712C0.443184 1.83955 0.521205 1.82326 0.599998 1.82326H8.91197C9.0456 1.30016 9.3399 0.837963 9.74923 0.508318C10.1586 0.178674 10.6601 0 11.176 0C11.6919 0 12.1934 0.178674 12.6027 0.508318C13.012 0.837963 13.3063 1.30016 13.44 1.82326H15.3999C15.479 1.82213 15.5575 1.83765 15.6308 1.8689C15.7041 1.90015 15.7707 1.9465 15.8266 2.00522C15.8825 2.06393 15.9267 2.13382 15.9565 2.21074C15.9862 2.28767 16.001 2.37008 15.9999 2.45311ZM15.9999 7.9958C16.001 8.07883 15.9862 8.16124 15.9565 8.23817C15.9267 8.31509 15.8825 8.38498 15.8266 8.44369C15.7707 8.50241 15.7041 8.54876 15.6308 8.58001C15.5575 8.61126 15.479 8.62678 15.3999 8.62565H6.03998C5.90635 9.14875 5.61205 9.61095 5.20272 9.94059C4.79339 10.2702 4.29189 10.4489 3.77599 10.4489C3.26008 10.4489 2.75858 10.2702 2.34925 9.94059C1.93992 9.61095 1.64563 9.14875 1.51199 8.62565H0.599998C0.440869 8.62565 0.288257 8.55929 0.175735 8.44117C0.0632138 8.32305 0 8.16285 0 7.9958C0 7.82875 0.0632138 7.66855 0.175735 7.55043C0.288257 7.43231 0.440869 7.36595 0.599998 7.36595H1.51199C1.64563 6.84286 1.93992 6.38066 2.34925 6.05101C2.75858 5.72137 3.26008 5.5427 3.77599 5.5427C4.29189 5.5427 4.79339 5.72137 5.20272 6.05101C5.61205 6.38066 5.90635 6.84286 6.03998 7.36595H15.3999C15.5591 7.36595 15.7117 7.43231 15.8242 7.55043C15.9367 7.66855 15.9999 7.82875 15.9999 7.9958Z" fill="black"/>
</svg>
