<svg width="48" height="29" viewBox="0 0 48 29" fill="none" xmlns="http://www.w3.org/2000/svg">
<path d="M2.25 0H45.75C46.3467 0 46.919 0.237053 47.341 0.659009C47.7629 1.08097 48 1.65326 48 2.25C48 2.84674 47.7629 3.41903 47.341 3.84099C46.919 4.26295 46.3467 4.5 45.75 4.5H2.25C1.65326 4.5 1.08097 4.26295 0.65901 3.84099C0.237053 3.41903 0 2.84674 0 2.25C0 1.65326 0.237053 1.08097 0.65901 0.659009C1.08097 0.237053 1.65326 0 2.25 0ZM9 14.25C9 13.6533 9.23705 13.081 9.65901 12.659C10.081 12.2371 10.6533 12 11.25 12H36.75C37.3467 12 37.919 12.2371 38.341 12.659C38.7629 13.081 39 13.6533 39 14.25C39 14.8467 38.7629 15.419 38.341 15.841C37.919 16.2629 37.3467 16.5 36.75 16.5H11.25C10.6533 16.5 10.081 16.2629 9.65901 15.841C9.23705 15.419 9 14.8467 9 14.25ZM18 26.25C18 25.6533 18.2371 25.081 18.659 24.659C19.081 24.2371 19.6533 24 20.25 24H27.75C28.3467 24 28.919 24.2371 29.341 24.659C29.7629 25.081 30 25.6533 30 26.25C30 26.8467 29.7629 27.419 29.341 27.841C28.919 28.2629 28.3467 28.5 27.75 28.5H20.25C19.6533 28.5 19.081 28.2629 18.659 27.841C18.2371 27.419 18 26.8467 18 26.25Z" fill="black"/>
</svg>
