<svg width="20" height="24" viewBox="0 0 20 24" fill="none" xmlns="http://www.w3.org/2000/svg">
<path d="M10 0.25C12.5859 0.25 15.0658 1.27723 16.8943 3.10571C18.7228 4.93419 19.75 7.41414 19.75 10C19.75 14.12 16.855 18.61 11.14 23.518C10.8222 23.791 10.4171 23.9409 9.99813 23.9405C9.5792 23.9402 9.1743 23.7895 8.857 23.516L8.479 23.188C3.017 18.408 0.25 14.028 0.25 10C0.25 7.41414 1.27723 4.93419 3.10571 3.10571C4.93419 1.27723 7.41414 0.25 10 0.25ZM10 6.25C9.00544 6.25 8.05161 6.64509 7.34835 7.34835C6.64509 8.05161 6.25 9.00544 6.25 10C6.25 10.9946 6.64509 11.9484 7.34835 12.6517C8.05161 13.3549 9.00544 13.75 10 13.75C10.9946 13.75 11.9484 13.3549 12.6517 12.6517C13.3549 11.9484 13.75 10.9946 13.75 10C13.75 9.00544 13.3549 8.05161 12.6517 7.34835C11.9484 6.64509 10.9946 6.25 10 6.25Z" fill="black" fill-opacity="0.6"/>
</svg>
