<svg width="28" height="29" viewBox="0 0 28 29" fill="none" xmlns="http://www.w3.org/2000/svg">
<g id="Group 1321314709">
<g id="Group">
<g id="Clip path group">
<mask id="mask0_3732_3035" style="mask-type:luminance" maskUnits="userSpaceOnUse" x="13" y="2" width="3" height="2">
<g id="SVGID_00000144324930905460133350000017993145834023510449_">
<path id="Vector" d="M15.9182 2.67906L14.0742 2.08315L13.7167 3.18956L15.5607 3.78547L15.9182 2.67906Z" fill="white"/>
</g>
</mask>
<g mask="url(#mask0_3732_3035)">
<g id="Group_2">
<g id="Group_3">
<g id="Clip path group_2">
<mask id="mask1_3732_3035" style="mask-type:luminance" maskUnits="userSpaceOnUse" x="3" y="1" width="22" height="24">
<g id="SVGID_00000099630301085394459160000015655230018248854972_">
<path id="Vector_2" d="M24.3493 3.04488L4.64844 1.63107L3.12046 22.9228L22.8213 24.3367L24.3493 3.04488Z" fill="white"/>
</g>
</mask>
<g mask="url(#mask1_3732_3035)">
<g id="Group_4">
<g id="Group_5">
<g id="Clip path group_3">
<mask id="mask2_3732_3035" style="mask-type:luminance" maskUnits="userSpaceOnUse" x="3" y="1" width="22" height="24">
<g id="SVGID_00000101095674805669111960000005433233532319236262_">
<path id="Vector_3" d="M24.3454 3.04536L4.64453 1.63155L3.11655 22.9233L22.8174 24.3371L24.3454 3.04536Z" fill="white"/>
</g>
</mask>
<g mask="url(#mask2_3732_3035)">
<g id="Group_6">
<path id="Vector_4" d="M13.8448 2.87312C13.8448 2.87312 13.8309 2.38297 14.5947 2.39482C15.3585 2.40666 15.9047 2.8495 15.7004 3.1908C15.5103 3.53668 14.0715 3.43203 13.8448 2.87312Z" fill="#F8D648"/>
</g>
</g>
</g>
</g>
</g>
</g>
</g>
</g>
</g>
</g>
</g>
</g>
<g id="Group_7">
<g id="Clip path group_4">
<mask id="mask3_3732_3035" style="mask-type:luminance" maskUnits="userSpaceOnUse" x="0" y="0" width="28" height="29">
<g id="SVGID_00000070828075385335702190000003192594021309647796_">
<path id="Vector_5" d="M27.6417 6.67272L7.57031 0.186386L0.66683 21.5486L20.7383 28.035L27.6417 6.67272Z" fill="white"/>
</g>
</mask>
<g mask="url(#mask3_3732_3035)">
<g id="Group_8">
<g id="Group_9">
<g id="Clip path group_5">
<mask id="mask4_3732_3035" style="mask-type:luminance" maskUnits="userSpaceOnUse" x="3" y="1" width="22" height="24">
<g id="SVGID_00000150096449166992618670000014245497185074073750_">
<path id="Vector_6" d="M24.3454 3.0452L4.64453 1.63139L3.11655 22.9232L22.8174 24.337L24.3454 3.0452Z" fill="white"/>
</g>
</mask>
<g mask="url(#mask4_3732_3035)">
<g id="Group_10">
<g id="Group_11">
<g id="Clip path group_6">
<mask id="mask5_3732_3035" style="mask-type:luminance" maskUnits="userSpaceOnUse" x="3" y="1" width="22" height="24">
<g id="SVGID_00000085952720573408191630000011564583423190799030_">
<path id="Vector_7" d="M24.3415 3.04551L4.64062 1.6317L3.11264 22.9235L22.8135 24.3373L24.3415 3.04551Z" fill="white"/>
</g>
</mask>
<g mask="url(#mask5_3732_3035)">
<g id="Group_12">
<g id="Group_13">
<g id="Clip path group_7">
<mask id="mask6_3732_3035" style="mask-type:luminance" maskUnits="userSpaceOnUse" x="3" y="2" width="22" height="23">
<g id="SVGID_00000025418071803334636170000000126177450952130459_">
<path id="Vector_8" d="M24.3354 3.58097L4.60547 2.16315L3.11499 22.9041L22.8449 24.322L24.3354 3.58097Z" fill="white"/>
</g>
</mask>
<g mask="url(#mask6_3732_3035)">
<g id="Group_14">
<g id="Group_15">
<g id="Clip path group_8">
<mask id="mask7_3732_3035" style="mask-type:luminance" maskUnits="userSpaceOnUse" x="3" y="2" width="22" height="23">
<g id="SVGID_00000106147429246541527590000009202680052757814711_">
<path id="Vector_9" d="M24.3018 3.59072L4.60156 2.17503L3.11108 22.916L22.8113 24.3317L24.3018 3.59072Z" fill="white"/>
</g>
</mask>
<g mask="url(#mask7_3732_3035)">
<g id="Group_16">
<path id="Vector_10" d="M4.3819 15.0418C4.3819 15.0418 3.53627 14.8468 3.80041 13.8356C4.05037 12.8197 4.07138 12.0275 4.20587 11.272C4.35454 10.5211 4.61384 10.0096 4.86397 9.52644C5.12829 9.04788 5.19575 8.6937 5.33154 8.0796C5.46733 7.46551 5.98469 2.71353 13.3871 2.83414C14.2657 3.02407 15.2427 3.15181 15.2427 3.15181C15.2427 3.15181 16.45 3.1973 17.2956 3.39224C18.1413 3.58719 19.8868 4.2453 20.3178 4.46291C20.7534 4.66633 22.4047 5.32531 22.9554 7.7905C23.4918 10.2511 23.1656 11.6967 23.5089 12.6222C23.8521 13.5478 23.2933 14.3072 23.2933 14.3072C23.2933 14.3072 23.1799 15.8215 22.7712 15.9714C23.068 18.0099 22.38 22.6597 22.38 22.6597C22.38 22.6597 22.2924 23.9004 21.4273 24.1535C20.5622 24.4065 19.1357 23.5852 18.8282 23.4702C18.5208 23.3552 12.0342 21.3216 7.25696 22.676C2.47975 24.0304 3.79543 18.9411 3.90198 18.2236C3.971 17.5252 4.3819 15.0418 4.3819 15.0418Z" fill="#0954B0"/>
</g>
</g>
</g>
</g>
</g>
</g>
</g>
</g>
</g>
</g>
</g>
</g>
</g>
</g>
</g>
</g>
</g>
</g>
</g>
</g>
<g id="Group_17">
<g id="Clip path group_9">
<mask id="mask8_3732_3035" style="mask-type:luminance" maskUnits="userSpaceOnUse" x="1" y="0" width="26" height="26">
<g id="SVGID_00000112633892511023264070000006207908022267194777_">
<path id="Vector_11" d="M26.5549 6.31895L8.12891 0.364349L1.82134 19.8826L20.2473 25.8372L26.5549 6.31895Z" fill="white"/>
</g>
</mask>
<g mask="url(#mask8_3732_3035)">
<g id="Group_18">
<g id="Group_19">
<g id="Clip path group_10">
<mask id="mask9_3732_3035" style="mask-type:luminance" maskUnits="userSpaceOnUse" x="3" y="1" width="22" height="24">
<g id="SVGID_00000163073165359521724470000001240859469989811074_">
<path id="Vector_12" d="M24.3571 3.04449L4.65625 1.63068L3.12827 22.9224L22.8291 24.3363L24.3571 3.04449Z" fill="white"/>
</g>
</mask>
<g mask="url(#mask9_3732_3035)">
<g id="Group_20">
<g id="Group_21">
<g id="Clip path group_11">
<mask id="mask10_3732_3035" style="mask-type:luminance" maskUnits="userSpaceOnUse" x="3" y="1" width="22" height="24">
<g id="SVGID_00000085932346262417713610000003667789922466979985_">
<path id="Vector_13" d="M24.3571 3.04471L4.65625 1.63091L3.12827 22.9227L22.8291 24.3365L24.3571 3.04471Z" fill="white"/>
</g>
</mask>
<g mask="url(#mask10_3732_3035)">
<g id="Group_22">
<path id="Vector_14" d="M5.96726 15.4889C5.99476 15.4038 6.02728 15.3516 6.02728 15.3516C6.03645 15.3233 6.03143 15.2903 5.98888 15.2766C5.96051 15.2674 5.92756 15.2724 5.9138 15.315C5.9138 15.315 5.90005 15.3575 5.85378 15.4522C5.84461 15.4806 5.86381 15.5181 5.89218 15.5273L5.90637 15.5319C5.93932 15.5269 5.95809 15.5173 5.96726 15.4889ZM21.4867 17.0577C21.5197 17.0527 21.543 17.0289 21.538 16.9959C21.5276 16.8829 21.5079 16.7982 21.5071 16.7039C21.502 16.671 21.4783 16.6476 21.4453 16.6526C21.4124 16.6577 21.389 16.6814 21.394 16.7144C21.4137 16.7991 21.4145 16.8934 21.425 17.0064C21.4158 17.0348 21.4396 17.0581 21.4867 17.0577C21.4726 17.0531 21.4726 17.0531 21.4867 17.0577ZM5.7743 16.0375C5.80638 15.9382 5.83847 15.8389 5.86139 15.768C5.87056 15.7397 5.85136 15.7021 5.82299 15.6929C5.79462 15.6838 5.75708 15.703 5.74792 15.7314C5.72041 15.8165 5.69291 15.9016 5.65624 16.015C5.64707 16.0434 5.66627 16.081 5.69464 16.0901L5.70882 16.0947C5.74178 16.0897 5.76513 16.0659 5.7743 16.0375ZM21.5487 17.6417C21.5816 17.6367 21.605 17.6129 21.6 17.5799C21.5849 17.4811 21.584 17.3868 21.569 17.2879C21.564 17.255 21.5402 17.2316 21.5072 17.2366C21.4743 17.2417 21.4509 17.2654 21.4559 17.2984C21.471 17.3973 21.4719 17.4915 21.4869 17.5904C21.4777 17.6188 21.5061 17.6279 21.5487 17.6417C21.5345 17.6371 21.5345 17.6371 21.5487 17.6417ZM5.62389 16.5999C5.65598 16.5006 5.6693 16.4109 5.6968 16.3258C5.70597 16.2974 5.68677 16.2599 5.6584 16.2507C5.63003 16.2416 5.59249 16.2608 5.58332 16.2891C5.55582 16.3742 5.52373 16.4735 5.50583 16.5774C5.49666 16.6058 5.51586 16.6433 5.54423 16.6525L5.55842 16.6571C5.57719 16.6475 5.61472 16.6283 5.62389 16.5999ZM21.5964 18.2211C21.6294 18.2161 21.6527 18.1923 21.6477 18.1593C21.6327 18.0605 21.6318 17.9662 21.6167 17.8673C21.6117 17.8344 21.5879 17.811 21.555 17.816C21.522 17.8211 21.4987 17.8449 21.5037 17.8778C21.5187 17.9767 21.5196 18.0709 21.5347 18.1698C21.5397 18.2028 21.568 18.2119 21.5964 18.2211ZM5.47349 17.1623C5.49139 17.0584 5.51889 16.9733 5.5464 16.8882C5.55556 16.8598 5.53636 16.8223 5.50799 16.8131C5.47962 16.8039 5.44209 16.8231 5.43292 16.8515C5.40541 16.9366 5.38751 17.0405 5.35542 17.1398C5.34626 17.1682 5.36546 17.2057 5.39383 17.2149C5.39383 17.2149 5.39383 17.2149 5.40801 17.2195C5.44096 17.2144 5.46432 17.1907 5.47349 17.1623ZM21.6442 18.8005C21.6771 18.7955 21.7005 18.7717 21.6955 18.7387C21.6946 18.6445 21.6795 18.5456 21.6787 18.4513C21.6737 18.4184 21.6499 18.395 21.6169 18.4C21.584 18.4051 21.5606 18.4288 21.5656 18.4618C21.5665 18.5561 21.5815 18.6549 21.5824 18.7492C21.5732 18.7776 21.597 18.8009 21.6442 18.8005ZM5.35145 17.7338C5.36935 17.6299 5.39686 17.5448 5.41018 17.4551C5.41934 17.4268 5.40014 17.3892 5.37177 17.3801C5.3434 17.3709 5.30587 17.3901 5.2967 17.4185C5.28338 17.5082 5.25129 17.6075 5.23339 17.7113C5.22422 17.7397 5.24342 17.7772 5.27637 17.7722C5.27637 17.7722 5.27637 17.7722 5.29056 17.7768C5.31893 17.786 5.34228 17.7622 5.35145 17.7338ZM21.659 19.3849C21.6919 19.3799 21.7153 19.3561 21.7102 19.3232C21.7094 19.2289 21.7085 19.1346 21.6935 19.0358C21.6885 19.0028 21.6647 18.9795 21.6317 18.9845C21.5988 18.9895 21.5754 19.0133 21.5804 19.0462C21.5813 19.1405 21.5822 19.2348 21.5972 19.3336C21.6068 19.3524 21.6306 19.3758 21.659 19.3849ZM5.22941 18.3054C5.24732 18.2015 5.26063 18.1118 5.28814 18.0267C5.29731 17.9983 5.27811 17.9608 5.24515 17.9658C5.21678 17.9566 5.17925 17.9758 5.18426 18.0088C5.17094 18.0985 5.15304 18.2024 5.13972 18.292C5.13055 18.3204 5.14975 18.3579 5.18271 18.3529C5.19689 18.3575 5.23443 18.3383 5.22941 18.3054ZM21.6596 19.9648C21.6925 19.9598 21.7159 19.936 21.725 19.9076C21.7242 19.8133 21.7233 19.719 21.727 19.6106C21.722 19.5776 21.6982 19.5543 21.6653 19.5593C21.6323 19.5643 21.609 19.5881 21.614 19.6211C21.6149 19.7153 21.6157 19.8096 21.612 19.9181C21.6028 19.9464 21.6266 19.9698 21.6596 19.9648ZM5.14033 18.8719C5.15823 18.768 5.17155 18.6783 5.18487 18.5886C5.19404 18.5603 5.17484 18.5227 5.14188 18.5277C5.11351 18.5186 5.07598 18.5378 5.08099 18.5707C5.06767 18.6604 5.04977 18.7643 5.03645 18.854C5.02729 18.8824 5.04649 18.9199 5.09362 18.9195C5.10781 18.924 5.13116 18.9003 5.14033 18.8719ZM21.6927 20.4925C21.6923 20.4453 21.706 20.4028 21.7056 20.3556C21.7052 20.3085 21.7093 20.2472 21.7135 20.1858C21.7084 20.1529 21.6847 20.1295 21.6563 20.1204C21.6233 20.1254 21.6 20.1492 21.5908 20.1775C21.5867 20.2389 21.5871 20.286 21.5875 20.3331C21.588 20.3803 21.5742 20.4228 21.5792 20.4558C21.5701 20.4842 21.608 20.5121 21.6364 20.5213C21.6602 20.5446 21.6835 20.5208 21.6927 20.4925ZM5.01414 19.5048C5.0471 19.4997 5.07045 19.4759 5.07962 19.4476C5.0746 19.4146 5.08835 19.3721 5.08334 19.3391C5.08749 19.2778 5.09164 19.2165 5.09579 19.1551C5.10496 19.1268 5.08576 19.0892 5.03862 19.0897C5.01025 19.0805 4.97271 19.0997 4.97314 19.1468C4.96899 19.2082 4.96484 19.2695 4.96069 19.3308C4.96571 19.3638 4.95195 19.4063 4.95697 19.4393C4.96199 19.4722 4.98577 19.4956 5.01414 19.5048ZM21.599 21.0732C21.6124 20.9835 21.6444 20.8842 21.6623 20.7803C21.6715 20.7519 21.6523 20.7144 21.6052 20.7148C21.5768 20.7057 21.5393 20.7249 21.5397 20.772C21.5218 20.8759 21.5085 20.9656 21.481 21.0507C21.4718 21.0791 21.491 21.1166 21.5194 21.1258C21.5194 21.1258 21.5194 21.1258 21.5336 21.1303C21.5665 21.1253 21.5899 21.1015 21.599 21.0732ZM5.06189 20.0842C5.09484 20.0791 5.1182 20.0554 5.11318 20.0224C5.09354 19.9377 5.0785 19.8389 5.07763 19.7446C5.07261 19.7116 5.04883 19.6883 5.01587 19.6933C4.98292 19.6983 4.95957 19.7221 4.96458 19.7551C4.96545 19.8493 4.97592 19.9624 4.99555 20.0471C5.00515 20.0658 5.02894 20.0892 5.06189 20.0842ZM15.0346 20.8317C15.0296 20.7988 15.0058 20.7754 14.9774 20.7663C14.8878 20.7529 14.7793 20.7492 14.6896 20.7359C14.6566 20.7409 14.6333 20.7647 14.6241 20.7931C14.6291 20.826 14.6529 20.8494 14.6813 20.8585C14.7756 20.8577 14.8795 20.8756 14.9691 20.8889C15.0021 20.8839 15.0255 20.8601 15.0346 20.8317ZM14.0964 20.8262C14.1907 20.8253 14.2992 20.8291 14.3889 20.8424C14.4218 20.8374 14.4452 20.8136 14.4543 20.7852C14.4493 20.7522 14.4255 20.7289 14.3972 20.7197C14.3029 20.7206 14.199 20.7027 14.1047 20.7036C14.0718 20.7086 14.0484 20.7324 14.0393 20.7607C14.0301 20.7891 14.0681 20.817 14.0964 20.8262ZM15.6103 20.8924C15.6195 20.8641 15.6003 20.8265 15.5531 20.827C15.4634 20.8137 15.3596 20.7957 15.2653 20.7966C15.2369 20.7874 15.1994 20.8066 15.1998 20.8538C15.1907 20.8822 15.2144 20.9055 15.257 20.9193C15.3467 20.9326 15.4551 20.9363 15.5448 20.9496C15.5778 20.9446 15.6011 20.9208 15.6103 20.8924ZM13.507 20.808C13.6013 20.8072 13.6955 20.8063 13.804 20.81C13.837 20.805 13.8603 20.7812 13.8695 20.7529C13.8645 20.7199 13.8407 20.6966 13.8123 20.6874C13.718 20.6882 13.6238 20.6891 13.5153 20.6854C13.4823 20.6904 13.459 20.7142 13.4498 20.7426C13.4548 20.7755 13.474 20.8131 13.507 20.808ZM16.191 20.9861C16.2002 20.9577 16.181 20.9202 16.148 20.9252C16.0583 20.9119 15.9545 20.894 15.8648 20.8807C15.8364 20.8715 15.7989 20.8907 15.8039 20.9237C15.7947 20.952 15.8139 20.9896 15.8611 20.9891C15.9649 21.007 16.0546 21.0204 16.1443 21.0337C16.1585 21.0383 16.1819 21.0145 16.191 20.9861ZM12.9226 20.8228L12.9697 20.8224C13.0498 20.817 13.1441 20.8161 13.2242 20.8106C13.2571 20.8056 13.2805 20.7818 13.2755 20.7489C13.2704 20.7159 13.2467 20.6926 13.2137 20.6976C13.1336 20.703 13.0393 20.7039 12.9592 20.7094L12.9121 20.7098C12.8791 20.7148 12.8558 20.7386 12.8608 20.7715C12.8704 20.7903 12.8942 20.8137 12.9226 20.8228ZM16.7626 21.1081C16.7717 21.0798 16.7525 21.0422 16.7242 21.0331C16.6345 21.0198 16.5352 20.9877 16.4313 20.9698C16.4029 20.9606 16.3654 20.9798 16.3704 21.0127C16.3612 21.0411 16.3804 21.0787 16.4134 21.0736C16.5173 21.0915 16.607 21.1049 16.6921 21.1324C16.6921 21.1324 16.6921 21.1324 16.7063 21.1369C16.7346 21.1461 16.7534 21.1365 16.7626 21.1081ZM12.3523 20.8422C12.4466 20.8413 12.5409 20.8405 12.6397 20.8254C12.6727 20.8204 12.696 20.7966 12.691 20.7637C12.686 20.7307 12.6622 20.7074 12.6293 20.7124C12.535 20.7133 12.4361 20.7283 12.3419 20.7292C12.3089 20.7342 12.2856 20.758 12.2906 20.7909C12.2814 20.8193 12.3052 20.8426 12.3523 20.8422C12.3381 20.8376 12.3381 20.8376 12.3523 20.8422ZM11.7633 20.8712C11.8576 20.8703 11.9564 20.8553 12.0507 20.8544C12.0837 20.8494 12.107 20.8256 12.102 20.7927C12.097 20.7597 12.0732 20.7364 12.0403 20.7414C11.946 20.7422 11.8471 20.7573 11.7528 20.7581C11.7199 20.7632 11.6965 20.787 11.7016 20.8199C11.697 20.8341 11.7208 20.8574 11.7633 20.8712ZM17.3295 21.2444C17.3387 21.216 17.3195 21.1785 17.2911 21.1693C17.206 21.1418 17.1021 21.1239 17.0028 21.0918C16.9745 21.0826 16.9369 21.1018 16.9278 21.1302C16.9186 21.1586 16.9378 21.1961 16.9662 21.2053C17.07 21.2232 17.1552 21.2507 17.2544 21.2828C17.2544 21.2828 17.2544 21.2828 17.2686 21.2874C17.3016 21.2823 17.3249 21.2586 17.3295 21.2444ZM11.1743 20.9002C11.2686 20.8993 11.3674 20.8843 11.4617 20.8834C11.4947 20.8784 11.518 20.8546 11.513 20.8216C11.508 20.7887 11.4842 20.7653 11.4512 20.7703C11.357 20.7712 11.2581 20.7863 11.1638 20.7871C11.1309 20.7921 11.1075 20.8159 11.1125 20.8489C11.1221 20.8677 11.1459 20.891 11.1743 20.9002ZM21.3873 21.6314C21.429 21.5509 21.4753 21.4562 21.5074 21.3569C21.5165 21.3285 21.4973 21.291 21.469 21.2818C21.4406 21.2726 21.403 21.2918 21.3939 21.3202C21.3618 21.4195 21.3201 21.5 21.2784 21.5805C21.2692 21.6089 21.2743 21.6419 21.298 21.6652C21.3122 21.6698 21.3122 21.6698 21.3264 21.6744C21.3594 21.6694 21.3781 21.6598 21.3873 21.6314ZM17.8919 21.3948C17.9011 21.3664 17.8819 21.3289 17.8535 21.3197C17.7684 21.2922 17.6691 21.2601 17.5652 21.2422C17.5368 21.233 17.4993 21.2522 17.4901 21.2806C17.481 21.309 17.5002 21.3465 17.5285 21.3557C17.6278 21.3878 17.7175 21.4011 17.8168 21.4332L17.831 21.4378C17.864 21.4327 17.8827 21.4231 17.8919 21.3948ZM10.5853 20.9292C10.6796 20.9283 10.7784 20.9132 10.8727 20.9124C10.9057 20.9074 10.929 20.8836 10.924 20.8506C10.919 20.8177 10.8952 20.7943 10.8622 20.7993C10.768 20.8002 10.6691 20.8152 10.5748 20.8161C10.5419 20.8211 10.5185 20.8449 10.5235 20.8779C10.5331 20.8966 10.5569 20.92 10.5853 20.9292ZM10.0105 20.9627C10.1047 20.9618 10.2036 20.9468 10.2979 20.9459C10.3308 20.9409 10.3542 20.9171 10.3492 20.8842C10.3441 20.8512 10.3204 20.8279 10.2874 20.8329C10.1931 20.8338 10.0943 20.8488 10 20.8497C9.96704 20.8547 9.94369 20.8785 9.94871 20.9114C9.95372 20.9444 9.97751 20.9677 10.0105 20.9627ZM5.27899 20.6243C5.30234 20.6005 5.31151 20.5722 5.30649 20.5392C5.2539 20.4595 5.2155 20.3845 5.18627 20.281C5.18125 20.2481 5.13869 20.2343 5.11993 20.2439C5.08697 20.2489 5.07322 20.2915 5.08282 20.3103C5.11206 20.4137 5.16006 20.5075 5.21265 20.5872C5.22225 20.606 5.23644 20.6106 5.26481 20.6197C5.26022 20.6339 5.27899 20.6243 5.27899 20.6243ZM18.4451 21.5736C18.4543 21.5452 18.4351 21.5076 18.4067 21.4985C18.3216 21.471 18.2223 21.4389 18.123 21.4068C18.0946 21.3976 18.0571 21.4168 18.0479 21.4452C18.0388 21.4736 18.058 21.5111 18.0863 21.5203C18.1856 21.5524 18.2707 21.5799 18.37 21.612L18.3842 21.6165C18.4172 21.6115 18.4405 21.5877 18.4451 21.5736ZM9.42145 20.9917C9.51572 20.9908 9.61459 20.9758 9.70886 20.9749C9.74182 20.9699 9.76517 20.9461 9.76015 20.9132C9.75514 20.8802 9.73135 20.8569 9.6984 20.8619C9.60412 20.8627 9.50526 20.8778 9.41098 20.8786C9.37803 20.8837 9.35468 20.9075 9.35969 20.9404C9.36471 20.9734 9.3885 20.9967 9.42145 20.9917C9.41686 21.0059 9.41686 21.0059 9.42145 20.9917ZM8.84204 21.0394C8.93632 21.0386 9.03518 21.0235 9.12945 21.0227C9.16241 21.0176 9.18576 20.9939 9.18074 20.9609C9.17572 20.928 9.15194 20.9046 9.11899 20.9096C9.02013 20.9247 8.92585 20.9255 8.83157 20.9264C8.79862 20.9314 8.77527 20.9552 8.78028 20.9882C8.7853 21.0211 8.80909 21.0445 8.84204 21.0394ZM19.0125 21.7569C19.0217 21.7285 19.0025 21.691 18.9741 21.6818C18.889 21.6543 18.7897 21.6222 18.695 21.576C18.6666 21.5668 18.6291 21.586 18.6199 21.6144C18.6107 21.6427 18.6299 21.6803 18.6583 21.6894C18.7576 21.7215 18.8569 21.7536 18.9374 21.7953L18.9516 21.7999C18.9658 21.8045 19.0033 21.7853 19.0125 21.7569ZM8.26263 21.0872C8.3569 21.0863 8.45577 21.0713 8.55463 21.0562C8.58758 21.0512 8.61093 21.0274 8.60591 20.9945C8.6009 20.9615 8.57711 20.9382 8.54416 20.9432C8.4453 20.9582 8.35102 20.9591 8.25216 20.9741C8.21921 20.9792 8.19585 21.0029 8.20087 21.0359C8.20589 21.0689 8.22967 21.0922 8.26263 21.0872ZM20.9624 22.0737C21.0562 22.0257 21.1405 21.9589 21.2105 21.8876C21.2339 21.8638 21.2289 21.8308 21.2051 21.8075C21.1813 21.7841 21.1483 21.7892 21.125 21.8129C21.0549 21.8843 20.9894 21.9415 20.9002 21.9753C20.8626 21.9945 20.8535 22.0229 20.8727 22.0604C20.8823 22.0792 20.8965 22.0838 20.9248 22.0929C20.9436 22.0833 20.9482 22.0691 20.9624 22.0737ZM19.5611 21.9499C19.5703 21.9215 19.5511 21.884 19.5227 21.8748C19.4518 21.8519 19.3383 21.8152 19.2532 21.7877C19.2248 21.7785 19.1873 21.7977 19.1781 21.8261C19.169 21.8545 19.1882 21.892 19.2165 21.9012C19.3584 21.947 19.4293 21.9699 19.5002 21.9929L19.5144 21.9974C19.5332 21.9878 19.5519 21.9782 19.5611 21.9499ZM7.67863 21.1491C7.75872 21.1437 7.85758 21.1286 7.97063 21.1182C8.00358 21.1131 8.02694 21.0894 8.02192 21.0564C8.0169 21.0234 7.99312 21.0001 7.96016 21.0051C7.84712 21.0156 7.75284 21.0164 7.66817 21.0361C7.63521 21.0411 7.61186 21.0649 7.61688 21.0978C7.62648 21.1166 7.63608 21.1354 7.67863 21.1491ZM5.72088 21.0021C5.74423 20.9783 5.72503 20.9408 5.70125 20.9174C5.62072 20.8757 5.54936 20.8057 5.47342 20.7498C5.44964 20.7265 5.41669 20.7315 5.39333 20.7553C5.36998 20.779 5.375 20.812 5.39878 20.8353C5.47014 20.9054 5.56027 20.9659 5.63621 21.0217C5.65039 21.0263 5.65039 21.0263 5.66457 21.0309C5.67876 21.0355 5.71171 21.0305 5.72088 21.0021ZM20.1327 22.0719C20.1418 22.0435 20.1226 22.006 20.0943 21.9968C20.0375 21.9785 19.9762 21.9743 19.9194 21.956C19.8769 21.9423 19.8485 21.9331 19.8202 21.9239C19.7918 21.9148 19.7542 21.934 19.7451 21.9623C19.7359 21.9907 19.7551 22.0282 19.7835 22.0374C19.8119 22.0466 19.8544 22.0603 19.8828 22.0695C19.9395 22.0878 20.0008 22.092 20.0718 22.1149C20.0718 22.1149 20.0718 22.1149 20.0859 22.1195C20.1001 22.1241 20.1235 22.1003 20.1327 22.0719ZM7.09922 21.1969C7.13218 21.1919 7.21227 21.1864 7.39122 21.1659C7.42417 21.1609 7.44753 21.1371 7.44251 21.1041C7.43749 21.0712 7.41371 21.0478 7.38075 21.0529C7.22057 21.0638 7.13589 21.0834 7.10294 21.0884L7.08876 21.0838C7.0558 21.0888 7.03245 21.1126 7.05165 21.1502C7.0379 21.1927 7.06627 21.2019 7.09922 21.1969C7.09464 21.2111 7.09464 21.2111 7.09922 21.1969ZM20.6662 22.166C20.6992 22.161 20.7225 22.1372 20.7175 22.1043C20.7125 22.0713 20.6887 22.0479 20.6558 22.053C20.5711 22.0726 20.4768 22.0735 20.3729 22.0556C20.34 22.0606 20.3166 22.0844 20.3075 22.1127C20.2983 22.1411 20.3363 22.169 20.3646 22.1782C20.3788 22.1828 20.393 22.1874 20.3976 22.1732C20.4919 22.1723 20.5861 22.1715 20.6662 22.166ZM6.27409 21.1809C6.28325 21.1525 6.26405 21.115 6.2311 21.12C6.14141 21.1067 6.04211 21.0746 5.957 21.0471C5.92863 21.0379 5.8911 21.0571 5.88193 21.0855C5.87276 21.1138 5.89196 21.1514 5.92033 21.1606C6.00544 21.1881 6.10473 21.2201 6.20861 21.238C6.24156 21.233 6.26492 21.2092 6.27409 21.1809ZM6.50104 21.2542C6.59532 21.2534 6.70378 21.2571 6.80264 21.242C6.83559 21.237 6.85895 21.2132 6.85393 21.1803C6.84891 21.1473 6.82513 21.124 6.79217 21.129C6.6979 21.1298 6.59904 21.1449 6.50935 21.1316C6.47639 21.1366 6.45304 21.1604 6.44387 21.1887C6.44889 21.2217 6.47267 21.2451 6.50104 21.2542ZM21.406 16.4833C21.439 16.4783 21.4623 16.4545 21.4573 16.4215C21.4423 16.3227 21.4418 16.2755 21.4418 16.2755C21.4368 16.2426 21.413 16.2192 21.3801 16.2242C21.3471 16.2293 21.3238 16.253 21.3288 16.286C21.3288 16.286 21.3434 16.3377 21.3443 16.432C21.3351 16.4604 21.3635 16.4695 21.406 16.4833ZM15.2494 3.15143C17.7244 3.15228 19.1376 4.06329 21.0206 5.31413C22.9037 6.56496 22.5889 9.76881 22.3174 10.997C22.0458 12.2252 22.4245 14.4468 22.4245 14.4468C22.4245 14.4468 22.7683 15.9522 22.1673 16.2123C19.2032 16.8524 7.08526 15.5682 6.02227 15.3187C4.95927 15.0692 5.03919 14.531 5.03919 14.531C5.03919 14.531 5.03771 13.8569 5.34311 12.718C5.64851 11.579 5.70393 8.88671 5.81438 8.59341C5.92941 8.28593 5.65927 5.04974 8.80585 3.74801C11.9762 2.46964 15.2494 3.15143 15.2494 3.15143Z" fill="#F0F0EF"/>
</g>
</g>
</g>
</g>
</g>
</g>
</g>
</g>
</g>
</g>
</g>
</g>
<g id="Group_23">
<path id="Vector_15" d="M18.8806 11.156L18.8093 11.0859C18.6666 10.9458 18.4451 10.9525 18.3191 11.0998L17.4459 12.0083C17.3058 12.151 17.3125 12.3725 17.4598 12.4984L17.5312 12.5685C17.6739 12.7086 17.8954 12.7018 18.0213 12.5545L18.8946 11.6461C19.0301 11.5176 19.0234 11.2961 18.8806 11.156Z" fill="url(#paint0_linear_3732_3035)"/>
<g id="Group_24">
<g id="Group_25">
<path id="Vector_16" d="M11.2753 13.4134L11.2379 13.9653L11.1482 13.9519L11.1856 13.4C11.1935 13.2303 11.1125 13.1414 10.9757 13.1285C10.8389 13.1157 10.7171 13.2016 10.6909 13.4282L10.6577 13.9187L10.568 13.9054L10.6053 13.3535C10.6132 13.1837 10.5322 13.0949 10.3954 13.082C10.2586 13.0691 10.118 13.1647 10.1106 13.3816L10.0774 13.8722L9.9877 13.8589L10.0504 12.9862L10.1401 12.9995L10.1226 13.1505C10.1922 13.032 10.3003 12.9886 10.4183 13.0111C10.541 13.0194 10.6453 13.0844 10.6699 13.2021C10.7396 13.0836 10.8476 13.0401 10.9702 13.0484C11.1638 13.0797 11.2827 13.1964 11.2753 13.4134Z" fill="#4D5050"/>
<path id="Vector_17" d="M12.3854 13.1767L12.3227 14.0494L12.233 14.0361L12.25 13.8379C12.1616 13.966 12.0303 14.0332 11.8605 14.0253C11.6152 14.0087 11.4341 13.7936 11.4365 13.5437C11.4577 13.2842 11.6729 13.1031 11.9182 13.1197C12.088 13.1276 12.2115 13.2301 12.2787 13.3615L12.2957 13.1634L12.3854 13.1767ZM12.2621 13.6068C12.2791 13.4087 12.136 13.2214 11.919 13.214C11.7209 13.1969 11.5432 13.3588 11.5262 13.557C11.5091 13.7551 11.6523 13.9424 11.8692 13.9498C12.0816 13.9715 12.2592 13.8095 12.2621 13.6068Z" fill="#4D5050"/>
<path id="Vector_18" d="M13.1344 14.1076L12.7012 13.6543L12.6722 14.0835L12.5825 14.0702L12.6751 12.8625L12.7648 12.8758L12.715 13.6117L13.1783 13.2445L13.301 13.2528L12.8001 13.6392L13.2524 14.1301L13.1344 14.1076Z" fill="#4D5050"/>
<path id="Vector_19" d="M14.1923 13.7446C14.1877 13.7588 14.1832 13.773 14.1928 13.7918L13.4097 13.7424C13.4115 13.9309 13.5542 14.0711 13.7523 14.0881C13.8892 14.101 14.0018 14.0434 14.0622 13.9533L14.1382 14.0091C14.0544 14.123 13.923 14.1902 13.739 14.1778C13.4795 14.1566 13.2938 13.9556 13.315 13.6961C13.3362 13.4366 13.5326 13.2651 13.7967 13.2721C14.0608 13.2791 14.2043 13.5135 14.1923 13.7446ZM13.4089 13.6481L14.0976 13.6984C14.0863 13.491 13.9578 13.3555 13.788 13.3476C13.5898 13.3306 13.4401 13.4545 13.4089 13.6481Z" fill="#4D5050"/>
<path id="Vector_20" d="M14.4204 13.0493C14.4153 13.0164 14.4575 12.983 14.4904 12.978C14.5234 12.9729 14.5568 13.0151 14.5618 13.048C14.5668 13.081 14.5247 13.1144 14.4917 13.1194C14.4446 13.1198 14.4254 13.0823 14.4204 13.0493ZM14.423 13.3321L14.5127 13.3455L14.45 14.2182L14.3603 14.2049L14.423 13.3321Z" fill="#4D5050"/>
<path id="Vector_21" d="M14.9616 13.4451L14.9197 14.0112C14.9022 14.1623 14.9919 14.1756 15.1663 14.1693L15.1575 14.2448C14.9315 14.2657 14.813 14.1961 14.83 13.9979L14.8719 13.4318L14.688 13.4194L14.7013 13.3297L14.8853 13.3421L14.9069 13.1298L14.9916 13.1102L14.975 13.3555L15.2344 13.3766L15.2211 13.4663L14.9616 13.4451Z" fill="#4D5050"/>
<path id="Vector_22" d="M16.5514 14.3497L16.2777 14.3239L16.3326 13.621L15.9836 14.1192L15.9552 14.11L15.6768 13.5657L15.622 14.2686L15.3483 14.2429L15.4409 13.0352L15.7146 13.0609L16.0026 13.624L16.3704 13.1162L16.644 13.142L16.5514 14.3497Z" fill="#4D5050"/>
<path id="Vector_23" d="M16.7371 13.1413L17.0437 13.162L17.2501 14.0747L17.5815 13.1948L17.8881 13.2156L17.4133 14.3938L17.0596 14.3735L16.7371 13.1413Z" fill="#4D5050"/>
<path id="Vector_24" d="M18.8391 13.7116C18.8271 13.9427 18.6307 14.1142 18.3854 14.0976L18.2014 14.0851L18.1719 14.4673L17.8983 14.4415L17.9909 13.2338L18.4485 13.272C18.6796 13.284 18.8512 13.4805 18.8391 13.7116ZM18.5609 13.7C18.5742 13.6103 18.5028 13.5402 18.4273 13.5315L18.2434 13.519L18.2226 13.8257L18.4066 13.8381C18.4821 13.8468 18.5522 13.7755 18.5609 13.7Z" fill="#4D5050"/>
</g>
<g id="Group_26">
<g id="Group_27">
<path id="Vector_25" d="M16.3639 8.61907C16.4414 8.3308 16.4668 8.01 16.4166 7.68046C16.2397 6.38568 15.0526 5.45373 13.7386 5.59308C12.9098 5.68554 12.2308 6.18677 11.8739 6.85475C11.9787 6.96693 12.2582 7.11994 12.7641 6.76644C13.4715 6.27438 14.7658 6.05036 15.4231 6.77974C16.5235 8.02833 15.1883 9.44543 16.689 10.1341L16.9435 10.1223L16.5324 9.5038C16.3416 9.26984 16.2915 8.94031 16.3639 8.61907Z" fill="#F8D648"/>
</g>
</g>
<path id="Vector_26" d="M18.4969 9.96662L18.4255 9.89657C18.3066 9.7798 18.1085 9.76276 17.9821 9.86292C17.8409 9.37865 17.3995 9.048 17.4761 8.66544C17.6872 7.52738 17.3318 6.30023 16.4188 5.44119C14.9921 4.08717 12.7441 4.15967 11.3946 5.57218C10.0406 6.99888 10.1131 9.2469 11.5256 10.5963C12.4482 11.4741 13.7048 11.7549 14.8477 11.4663C15.1535 11.3927 15.4718 11.6679 15.8644 11.8105L17.3103 10.6328L16.0589 11.936C16.0364 12.054 16.0752 12.1763 16.1562 12.2651L16.2275 12.3351C16.3702 12.4753 16.5918 12.4685 16.7177 12.3212L18.4966 10.4522C18.6464 10.3282 18.6396 10.1067 18.4969 9.96662ZM16.6965 6.42392C17.0317 6.98655 17.1508 7.63601 17.0672 8.28263C17.0074 7.93433 17.0135 7.57599 16.8924 7.22353C16.6256 6.401 16.0205 5.70413 15.2299 5.33897C14.6429 5.07093 13.9633 4.99232 13.328 5.11601C12.8433 5.21003 12.4825 5.45376 12.0554 5.6604C13.4675 4.39345 15.7482 4.8015 16.6965 6.42392ZM16.679 10.1625L15.3404 10.1842C15.1989 10.1855 15.0626 10.2197 14.9358 10.2727C14.7714 10.345 14.5975 10.3984 14.4185 10.4189C13.0958 10.6338 11.8478 9.74482 11.6375 8.40791C11.5477 7.86189 11.656 7.3329 11.8969 6.87812C12.2584 6.19596 12.9327 5.70891 13.7616 5.61645C15.0614 5.47251 16.2531 6.39027 16.4396 7.70383C16.4756 8.02878 16.469 8.33998 16.3869 8.64244C16.3002 8.95909 16.3692 9.27903 16.5461 9.55554L16.9572 10.174L16.679 10.1625Z" fill="url(#paint1_linear_3732_3035)"/>
</g>
</g>
</g>
<defs>
<linearGradient id="paint0_linear_3732_3035" x1="6.90523" y1="14.1874" x2="20.9998" y2="11.2444" gradientUnits="userSpaceOnUse">
<stop stop-color="#58C5D0"/>
<stop offset="0.3896" stop-color="#499CC0"/>
<stop offset="1" stop-color="#2F54A4"/>
</linearGradient>
<linearGradient id="paint1_linear_3732_3035" x1="6.10042" y1="10.3346" x2="20.195" y2="7.39173" gradientUnits="userSpaceOnUse">
<stop stop-color="#58C5D0"/>
<stop offset="0.3896" stop-color="#499CC0"/>
<stop offset="1" stop-color="#2F54A4"/>
</linearGradient>
</defs>
</svg>
