<svg width="28" height="28" viewBox="0 0 32 32" fill="none" xmlns="http://www.w3.org/2000/svg">
<path d="M23.1778 29.6795C23.0413 29.3664 15.6263 24.9552 15.6177 24.9493C14.5719 24.1803 14.4444 23.432 15.2881 23.0021C16.0119 22.6346 16.6343 21.4501 17.1036 20.1823C17.1895 20.2202 17.2791 20.2282 17.3708 20.2021C19.3404 19.6261 19.3756 15.6511 18.0583 16.353C19.2898 5.60888 4.41444 5.60354 5.64592 16.3535C4.32697 15.65 4.36324 19.6261 6.33233 20.2021C6.42353 20.2282 6.51419 20.2202 6.60006 20.1829C7.06887 21.4501 7.6902 22.6346 8.41394 23.0021C9.26462 23.4352 9.09662 24.1467 8.06354 24.9659C7.71901 25.2395 2.91843 27.9158 1.56321 28.8214C1.56055 28.8219 1.55575 28.8251 1.55575 28.8251H1.55735C0.997876 29.2 0.600006 29.5115 0.525872 29.68C0.139735 30.5702 0 31.9995 0 31.9995H23.7037C23.7037 31.9995 23.565 30.5702 23.1778 29.6795Z" fill="black"/>
<path d="M17.3565 9.52914C18.3245 10.615 19.3902 12.4849 19.3128 15.4113C19.6883 15.6924 20.0019 16.1735 20.1086 16.9191C20.3048 18.2962 19.7443 20.5522 17.9539 21.2546C17.4691 22.3986 16.9395 23.2061 16.3512 23.7026H31.9999C31.9999 23.7026 31.8601 22.2733 31.474 21.3826C31.3375 21.0701 23.9225 16.6588 23.9145 16.6524C22.8675 15.8839 22.7406 15.1356 23.5843 14.7057C24.3081 14.3377 24.9299 13.1537 25.3998 11.886C25.4851 11.9233 25.5758 11.9318 25.667 11.9046C27.6361 11.3297 27.6718 7.35472 26.3545 8.0566C27.5604 -2.46084 13.3416 -2.6811 13.8946 7.39739C15.2301 7.77073 16.4371 8.49873 17.3565 9.52914Z" fill="black"/>
</svg>
