<svg width="49" height="48" viewBox="0 0 49 48" fill="none" xmlns="http://www.w3.org/2000/svg">
<g id="mingcute:attachment-fill" clip-path="url(#clip0_1535_13345)">
<g id="Group">
<path id="Vector" fill-rule="evenodd" clip-rule="evenodd" d="M32.0847 29.7828C32.5198 29.3444 32.865 28.8239 33.1005 28.2511C33.3359 27.6783 33.4571 27.0644 33.4571 26.4444C33.4571 25.8244 33.3359 25.2105 33.1005 24.6377C32.865 24.0649 32.5198 23.5444 32.0847 23.106L24.7207 15.6874C24.5756 15.5412 24.4605 15.3677 24.382 15.1767C24.3035 14.9857 24.2631 14.781 24.2631 14.5742C24.2631 14.1567 24.4277 13.7563 24.7207 13.4611C25.0137 13.1659 25.4111 13 25.8255 13C26.0307 13 26.2339 13.0407 26.4234 13.1198C26.613 13.1989 26.7852 13.3149 26.9303 13.4611L34.2922 20.8797C35.7464 22.3573 36.5605 24.3552 36.5562 26.4362C36.552 28.5171 35.7299 30.5116 34.2697 31.9833C32.8095 33.4549 30.8301 34.2839 28.7648 34.2887C26.6995 34.2936 24.7164 33.4739 23.2494 32.0091L14.4141 23.107C13.3399 22.0249 12.7364 20.5572 12.7363 19.0267C12.7362 17.4962 13.3395 16.0284 14.4136 14.9462C15.4876 13.8639 16.9443 13.2558 18.4633 13.2557C19.9822 13.2556 21.439 13.8635 22.5132 14.9456L30.9809 23.4774C31.6644 24.1661 32.0484 25.1001 32.0484 26.074C32.0484 27.048 31.6644 27.982 30.9809 28.6707C30.2974 29.3594 29.3704 29.7463 28.4037 29.7463C27.4371 29.7463 26.5101 29.3594 25.8266 28.6707L18.095 20.8807C17.95 20.7345 17.835 20.561 17.7565 20.37C17.6781 20.1791 17.6377 19.9744 17.6378 19.7677C17.6378 19.561 17.6783 19.3564 17.7568 19.1655C17.8354 18.9745 17.9505 18.801 18.0955 18.6549C18.2406 18.5088 18.4129 18.3929 18.6024 18.3139C18.7919 18.2348 18.9951 18.1942 19.2002 18.1942C19.4053 18.1943 19.6084 18.235 19.7979 18.3142C19.9874 18.3933 20.1596 18.5093 20.3046 18.6555L28.0351 26.4454C28.1328 26.544 28.2652 26.5993 28.4034 26.5994C28.4718 26.5995 28.5395 26.586 28.6028 26.5596C28.666 26.5333 28.7234 26.4947 28.7718 26.446C28.8202 26.3973 28.8587 26.3394 28.8849 26.2758C28.9111 26.2121 28.9246 26.1439 28.9247 26.0749C28.9247 26.006 28.9113 25.9378 28.8852 25.8741C28.859 25.8104 28.8207 25.7525 28.7724 25.7037L20.3036 17.1709C19.8147 16.6825 19.1538 16.4091 18.4653 16.4105C17.7769 16.4119 17.117 16.6881 16.6302 17.1785C16.1433 17.6689 15.869 18.3337 15.8674 19.0273C15.8658 19.7209 16.137 20.387 16.6216 20.8797L25.458 29.7828C25.8931 30.2212 26.4096 30.569 26.9781 30.8063C27.5466 31.0435 28.156 31.1656 28.7713 31.1656C29.3867 31.1656 29.996 31.0435 30.5645 30.8063C31.133 30.569 31.6496 30.2212 32.0847 29.7828Z" fill="#4E5358"/>
</g>
</g>
<defs>
<clipPath id="clip0_1535_13345">
<rect width="47.6399" height="48" fill="white" transform="translate(0.826172)"/>
</clipPath>
</defs>
</svg>
