<svg width="24" height="24" viewBox="0 0 24 24" fill="none" xmlns="http://www.w3.org/2000/svg">
<g id="Group">
<path id="Vector" d="M14.486 3.14299C14.7412 3.21478 14.9575 3.38499 15.0873 3.61621C15.217 3.84743 15.2497 4.12072 15.178 4.37599L10.748 20.164C10.7125 20.2904 10.6525 20.4087 10.5714 20.512C10.4902 20.6152 10.3895 20.7015 10.275 20.7659C10.1605 20.8302 10.0345 20.8714 9.90407 20.887C9.77366 20.9026 9.64145 20.8924 9.51499 20.857C9.38853 20.8215 9.27028 20.7615 9.16702 20.6804C9.06375 20.5992 8.97748 20.4985 8.91313 20.384C8.84877 20.2695 8.80761 20.1435 8.79197 20.0131C8.77633 19.8827 8.78653 19.7505 8.82199 19.624L13.252 3.83599C13.2874 3.7094 13.3475 3.59105 13.4287 3.4877C13.5099 3.38434 13.6107 3.29801 13.7253 3.23365C13.8399 3.16928 13.9661 3.12814 14.0966 3.11259C14.2271 3.09703 14.3595 3.10736 14.486 3.14299ZM7.20699 7.04999C7.39446 7.23751 7.49977 7.49182 7.49977 7.75699C7.49977 8.02215 7.39446 8.27646 7.20699 8.46399L3.67199 12L7.20699 15.535C7.2999 15.6278 7.37361 15.7381 7.42392 15.8594C7.47423 15.9807 7.50014 16.1108 7.50019 16.2421C7.50024 16.3735 7.47441 16.5036 7.42419 16.6249C7.37397 16.7463 7.30033 16.8566 7.20749 16.9495C7.11464 17.0424 7.00441 17.1161 6.88308 17.1664C6.76174 17.2167 6.63169 17.2426 6.50034 17.2427C6.36899 17.2427 6.23892 17.2169 6.11755 17.1667C5.99619 17.1165 5.8859 17.0428 5.79299 16.95L1.54999 12.707C1.36252 12.5195 1.2572 12.2652 1.2572 12C1.2572 11.7348 1.36252 11.4805 1.54999 11.293L5.79299 7.04999C5.98052 6.86252 6.23482 6.7572 6.49999 6.7572C6.76515 6.7572 7.01946 6.86252 7.20699 7.04999ZM16.793 8.46399C16.6975 8.37174 16.6213 8.26139 16.5689 8.13939C16.5165 8.01739 16.4889 7.88617 16.4877 7.75339C16.4866 7.62061 16.5119 7.48893 16.5622 7.36603C16.6124 7.24314 16.6867 7.13148 16.7806 7.03759C16.8745 6.9437 16.9861 6.86945 17.109 6.81916C17.2319 6.76888 17.3636 6.74358 17.4964 6.74474C17.6292 6.74589 17.7604 6.77348 17.8824 6.82589C18.0044 6.87829 18.1147 6.95448 18.207 7.04999L22.45 11.293C22.6375 11.4805 22.7428 11.7348 22.7428 12C22.7428 12.2652 22.6375 12.5195 22.45 12.707L18.207 16.95C18.0193 17.1375 17.7649 17.2428 17.4996 17.2427C17.2344 17.2426 16.98 17.1371 16.7925 16.9495C16.605 16.7618 16.4997 16.5074 16.4998 16.2421C16.4999 15.9769 16.6053 15.7225 16.793 15.535L20.328 12L16.793 8.46399Z" fill="#131313"/>
</g>
</svg>
