<svg width="25" height="24" viewBox="0 0 25 24" fill="#0954b0" xmlns="http://www.w3.org/2000/svg">
<path d="M18.3228 7.00087C18.3228 7.19865 18.2641 7.39199 18.1542 7.55644C18.0443 7.72089 17.8882 7.84906 17.7054 7.92475C17.5227 8.00044 17.3216 8.02024 17.1277 7.98166C16.9337 7.94307 16.7555 7.84783 16.6156 7.70798C16.4758 7.56813 16.3806 7.38994 16.342 7.19596C16.3034 7.00198 16.3232 6.80092 16.3989 6.61819C16.4746 6.43546 16.6027 6.27928 16.7672 6.1694C16.9316 6.05952 17.125 6.00087 17.3228 6.00087C17.588 6.00087 17.8423 6.10623 18.0299 6.29377C18.2174 6.4813 18.3228 6.73566 18.3228 7.00087ZM14.3228 9.00087C14.125 9.00087 13.9316 9.05952 13.7672 9.1694C13.6027 9.27929 13.4746 9.43546 13.3989 9.61819C13.3232 9.80092 13.3034 10.002 13.342 10.196C13.3806 10.3899 13.4758 10.5681 13.6156 10.708C13.7555 10.8478 13.9337 10.9431 14.1277 10.9817C14.3216 11.0202 14.5227 11.0004 14.7054 10.9248C14.8882 10.8491 15.0443 10.7209 15.1542 10.5564C15.2641 10.392 15.3228 10.1987 15.3228 10.0009C15.3228 9.73566 15.2174 9.4813 15.0299 9.29377C14.8423 9.10623 14.588 9.00087 14.3228 9.00087ZM11.3228 12.0009C11.125 12.0009 10.9316 12.0595 10.7672 12.1694C10.6027 12.2793 10.4746 12.4355 10.3989 12.6182C10.3232 12.8009 10.3034 13.002 10.342 13.196C10.3806 13.3899 10.4758 13.5681 10.6156 13.708C10.7555 13.8478 10.9337 13.9431 11.1277 13.9817C11.3216 14.0202 11.5227 14.0004 11.7054 13.9248C11.8882 13.8491 12.0443 13.7209 12.1542 13.5564C12.2641 13.392 12.3228 13.1987 12.3228 13.0009C12.3228 12.7357 12.2174 12.4813 12.0299 12.2938C11.8423 12.1062 11.588 12.0009 11.3228 12.0009ZM23.6748 0.648872C23.9728 0.944166 24.1797 1.31889 24.2708 1.72843C24.3619 2.13796 24.3335 2.56506 24.1888 2.95887L24.1138 3.16987C22.6118 7.33787 21.1708 11.3009 18.3228 14.8209V15.0009C18.3184 16.7078 17.9188 18.3905 17.1555 19.9172C16.3921 21.444 15.2857 22.7732 13.9228 23.8009L13.6548 24.0009H9.32275V20.4149L7.32275 18.4149L5.02975 20.7079L3.61575 19.2939L5.90875 17.0009L3.90875 15.0009H0.322754V10.4409L0.522754 10.1749C1.56069 8.83911 2.89763 7.76559 4.42603 7.04064C5.95444 6.31569 7.63164 5.95955 9.32275 6.00087H9.50276C13.0228 3.15387 16.9828 1.71287 21.1488 0.211872L21.3648 0.134872C21.7586 -0.00983408 22.1857 -0.0383197 22.5952 0.052807C23.0047 0.143934 23.3795 0.350833 23.6748 0.648872ZM2.32275 13.0009H3.74175C4.7195 11.3142 5.85133 9.72177 7.12276 8.24387C5.24395 8.63253 3.55209 9.64589 2.32275 11.1189V13.0009ZM16.0228 17.2549C14.5602 18.5041 12.9871 19.6177 11.3228 20.5819V22.0009H12.9798C14.4734 20.7831 15.5395 19.1205 16.0228 17.2549ZM22.2598 2.06387C22.2331 2.03423 22.1979 2.01367 22.159 2.00506C22.12 1.99645 22.0794 2.00023 22.0428 2.01587L21.8278 2.09387C16.9838 3.83887 12.8008 5.34687 9.19876 8.94787C7.80962 10.4353 6.59322 12.075 5.57275 13.8359L10.4878 18.7519C12.2483 17.7305 13.888 16.5138 15.3758 15.1249C18.9758 11.5249 20.4858 7.33787 22.2318 2.49187L22.3078 2.28087C22.3232 2.24419 22.3269 2.2036 22.3183 2.16472C22.3097 2.12584 22.2893 2.0906 22.2598 2.06387Z" fill="#0954b0"/>
</svg>
