<svg width="27" height="27" viewBox="0 0 27 27" fill="none" xmlns="http://www.w3.org/2000/svg">
<g id="ic:baseline-search">
<path id="Vector" d="M17.2283 15.6801H16.3502L16.039 15.38C17.1659 14.0729 17.7853 12.4041 17.7841 10.6782C17.7841 9.2492 17.3603 7.85231 16.5664 6.66416C15.7725 5.476 14.6441 4.54995 13.3239 4.0031C12.0037 3.45626 10.551 3.31318 9.1495 3.59196C7.74798 3.87074 6.4606 4.55885 5.45016 5.5693C4.43971 6.57974 3.7516 7.86712 3.47281 9.26864C3.19403 10.6702 3.33711 12.1229 3.88396 13.4431C4.43081 14.7633 5.35686 15.8917 6.54501 16.6856C7.73317 17.4795 9.13006 17.9032 10.559 17.9032C12.3486 17.9032 13.9937 17.2474 15.2609 16.1581L15.561 16.4693V17.3475L21.1187 22.8941L22.7749 21.2379L17.2283 15.6801ZM10.559 15.6801C7.79129 15.6801 5.55708 13.4459 5.55708 10.6782C5.55708 7.91043 7.79129 5.67622 10.559 5.67622C13.3268 5.67622 15.561 7.91043 15.561 10.6782C15.561 13.4459 13.3268 15.6801 10.559 15.6801Z" fill="white"/>
</g>
</svg>
