<svg width="24" height="24" viewBox="0 0 24 24" fill="none" xmlns="http://www.w3.org/2000/svg">
<g clip-path="url(#clip0_7035_184)">
<path d="M6.53082 5.5366L4.54229 3.54807C4.26765 3.27343 3.82266 3.27343 3.54802 3.54807C3.27338 3.82271 3.27338 4.26769 3.54802 4.54233L5.53655 6.53086C5.81119 6.8055 6.25618 6.8055 6.53082 6.53086C6.80546 6.25622 6.80546 5.81124 6.53082 5.5366Z" fill="#343434"/>
<path d="M3.5625 11.2969H0.703125C0.314484 11.2969 0 11.6114 0 12C0 12.3886 0.314484 12.7031 0.703125 12.7031H3.5625C3.95114 12.7031 4.26562 12.3886 4.26562 12C4.26562 11.6114 3.95114 11.2969 3.5625 11.2969Z" fill="#343434"/>
<path d="M23.2969 11.2969H20.4375C20.0489 11.2969 19.7344 11.6114 19.7344 12C19.7344 12.3886 20.0489 12.7031 20.4375 12.7031H23.2969C23.6855 12.7031 24 12.3886 24 12C24 11.6114 23.6855 11.2969 23.2969 11.2969Z" fill="#343434"/>
<path d="M20.452 3.54807C20.1773 3.27343 19.7323 3.27343 19.4577 3.54807L17.4692 5.5366C17.1945 5.81124 17.1945 6.25622 17.4692 6.53086C17.7438 6.8055 18.1888 6.8055 18.4634 6.53086L20.452 4.54233C20.7266 4.26769 20.7266 3.82275 20.452 3.54807Z" fill="#343434"/>
<path d="M12 0C11.6114 0 11.2969 0.314484 11.2969 0.703125V3.5625C11.2969 3.95114 11.6114 4.26562 12 4.26562C12.3886 4.26562 12.7031 3.95114 12.7031 3.5625V0.703125C12.7031 0.314484 12.3886 0 12 0Z" fill="#343434"/>
<path d="M15.9376 7.03589C14.4048 5.82652 12.4219 5.39063 10.4813 5.85469C8.23131 6.375 6.41729 8.16089 5.8688 10.3969C5.32037 12.6468 5.95318 14.925 7.57032 16.514C8.14693 17.0906 8.48443 17.9953 8.48443 18.9234V19.0781C8.48443 19.4718 8.79376 19.7813 9.18755 19.7813H14.8126C15.2064 19.7813 15.5157 19.4718 15.5157 19.0781V18.9234C15.5157 18.0093 15.8672 17.0765 16.486 16.4718C17.6673 15.2765 18.3282 13.6875 18.3282 12C18.3282 10.0594 17.4563 8.24527 15.9376 7.03589ZM12.0001 9.89063C10.9393 9.89063 10.1671 10.5943 9.96484 11.4088C9.87282 11.7793 9.50007 12.0157 9.1127 11.9224C8.73643 11.829 8.50637 11.4473 8.59979 11.071C8.94816 9.66474 10.269 8.48438 12.0001 8.48438C12.3887 8.48438 12.7032 8.79886 12.7032 9.1875C12.7032 9.57614 12.3887 9.89063 12.0001 9.89063Z" fill="#343434"/>
<path d="M9.1875 21.1875V21.8906C9.1875 23.0538 10.1337 24 11.2969 24H12.7031C13.8663 24 14.8125 23.0538 14.8125 21.8906V21.1875H9.1875Z" fill="#343434"/>
</g>
<defs>
<clipPath id="clip0_7035_184">
<rect width="24" height="24" fill="white"/>
</clipPath>
</defs>
</svg>