<svg width="14" height="15" viewBox="0 0 14 15" fill="none" xmlns="http://www.w3.org/2000/svg">
<g id="Group">
<g id="Group_2">
<path id="Vector" d="M10.9375 1.70255C9.40473 0.493173 7.42187 0.0572826 5.48124 0.521345C3.23124 1.04166 1.41723 2.82755 0.868744 5.06353C0.320306 7.31349 0.953118 9.59161 2.57026 11.1807C3.14687 11.7573 3.48437 12.6619 3.48437 13.5901V13.7448C3.48437 14.1385 3.7937 14.4479 4.18749 14.4479H9.81249C10.2063 14.4479 10.5156 14.1385 10.5156 13.7448V13.5901C10.5156 12.676 10.8672 11.7432 11.4859 11.1385C12.6672 9.94317 13.3281 8.35416 13.3281 6.66666C13.3281 4.72603 12.4562 2.91192 10.9375 1.70255ZM6.99999 4.55728C5.93921 4.55728 5.16699 5.26092 4.96478 6.07547C4.87276 6.44592 4.50001 6.68236 4.11263 6.58908C3.73637 6.4957 3.50631 6.11391 3.59973 5.73764C3.9481 4.33139 5.26895 3.15103 6.99999 3.15103C7.38863 3.15103 7.70312 3.46552 7.70312 3.85416C7.70312 4.2428 7.38863 4.55728 6.99999 4.55728Z" fill="#343434"/>
</g>
</g>
</svg>
