<svg width="24" height="25" viewBox="0 0 24 25" fill="none" xmlns="http://www.w3.org/2000/svg">
<g id="Linkedin">
<path id="Vector" d="M15.1508 7.40506C14.3843 7.40243 13.6249 7.55096 12.9159 7.84214C12.2069 8.13332 11.5623 8.56145 11.019 9.10201C10.4756 9.64258 10.0442 10.285 9.74934 10.9925C9.45452 11.6999 9.30209 12.4586 9.30078 13.2251V19.1051C9.30078 19.3438 9.3956 19.5727 9.56439 19.7415C9.73317 19.9102 9.96209 20.0051 10.2008 20.0051H12.3008C12.5395 20.0051 12.7684 19.9102 12.9372 19.7415C13.106 19.5727 13.2008 19.3438 13.2008 19.1051V13.2251C13.2006 12.9525 13.2578 12.6829 13.3688 12.4339C13.4798 12.1849 13.642 11.9621 13.8448 11.78C14.0477 11.5979 14.2867 11.4606 14.5461 11.377C14.8056 11.2935 15.0798 11.2656 15.3508 11.2951C15.8368 11.3563 16.2834 11.5937 16.606 11.9624C16.9286 12.331 17.1046 12.8052 17.1008 13.2951V19.1051C17.1008 19.3438 17.1956 19.5727 17.3644 19.7415C17.5332 19.9102 17.7621 20.0051 18.0008 20.0051H20.1008C20.3395 20.0051 20.5684 19.9102 20.7372 19.7415C20.906 19.5727 21.0008 19.3438 21.0008 19.1051V13.2251C20.9995 12.4586 20.847 11.6999 20.5522 10.9925C20.2574 10.285 19.826 9.64258 19.2826 9.10201C18.7393 8.56145 18.0946 8.13332 17.3857 7.84214C16.6767 7.55096 15.9172 7.40243 15.1508 7.40506Z" fill="white"/>
<path id="Vector_2" d="M6.6 8.30518H3.9C3.40294 8.30518 3 8.70812 3 9.20518V19.1052C3 19.6022 3.40294 20.0052 3.9 20.0052H6.6C7.09706 20.0052 7.5 19.6022 7.5 19.1052V9.20518C7.5 8.70812 7.09706 8.30518 6.6 8.30518Z" fill="white"/>
<path id="Vector_3" d="M5.25 6.50513C6.49264 6.50513 7.5 5.49777 7.5 4.25513C7.5 3.01249 6.49264 2.00513 5.25 2.00513C4.00736 2.00513 3 3.01249 3 4.25513C3 5.49777 4.00736 6.50513 5.25 6.50513Z" fill="white"/>
</g>
</svg>
