<svg width="30" height="31" viewBox="0 0 30 31" fill="none" xmlns="http://www.w3.org/2000/svg">
<rect x="0.5" y="1.00513" width="29" height="29" rx="2" fill="#0954B0"/>
<rect x="0.5" y="1.00513" width="29" height="29" rx="2" stroke="#2E2E2E"/>
<path d="M19.5061 8.50513H10.812C8.98284 8.50513 7.5 9.98797 7.5 11.8172V19.2692C7.5 21.0984 8.98284 22.5812 10.812 22.5812H19.5061C21.3353 22.5812 22.8181 21.0984 22.8181 19.2692V11.8172C22.8181 9.98797 21.3353 8.50513 19.5061 8.50513Z" stroke="white" stroke-width="1.5"/>
<path d="M7.53906 11.8916L13.5048 15.3113C14.0047 15.6017 14.5724 15.7547 15.1505 15.7547C15.7286 15.7547 16.2964 15.6017 16.7962 15.3113L22.7785 11.8916" stroke="white" stroke-width="1.5" stroke-linecap="round" stroke-linejoin="round"/>
</svg>
