<svg width="20" height="22" viewBox="0 0 20 22" fill="none" xmlns="http://www.w3.org/2000/svg">
<g id="Group">
<path id="Vector" d="M10.5283 20.6139L10.5173 20.6159L10.4463 20.6509L10.4263 20.6549L10.4123 20.6509L10.3413 20.6159C10.3306 20.6125 10.3226 20.6142 10.3173 20.6209L10.3133 20.6309L10.2963 21.0589L10.3013 21.0789L10.3113 21.0919L10.4153 21.1659L10.4303 21.1699L10.4423 21.1659L10.5463 21.0919L10.5583 21.0759L10.5623 21.0589L10.5453 20.6319C10.5426 20.6212 10.5369 20.6152 10.5283 20.6139ZM10.7933 20.5009L10.7803 20.5029L10.5953 20.5959L10.5853 20.6059L10.5823 20.6169L10.6003 21.0469L10.6053 21.0589L10.6133 21.0659L10.8143 21.1589C10.8269 21.1622 10.8366 21.1595 10.8433 21.1509L10.8473 21.1369L10.8133 20.5229C10.8099 20.5109 10.8033 20.5035 10.7933 20.5009ZM10.0783 20.5029C10.0739 20.5002 10.0686 20.4993 10.0636 20.5005C10.0585 20.5016 10.0541 20.5046 10.0513 20.5089L10.0453 20.5229L10.0113 21.1369C10.0119 21.1489 10.0176 21.1569 10.0283 21.1609L10.0433 21.1589L10.2443 21.0659L10.2543 21.0579L10.2583 21.0469L10.2753 20.6169L10.2723 20.6049L10.2623 20.5949L10.0783 20.5029Z" fill="#131313"/>
<path id="Vector_2" d="M12.2303 2.33588L16.9543 7.06088C17.2311 7.33762 17.4206 7.6895 17.4993 8.07292C17.5781 8.45634 17.5426 8.85444 17.3973 9.21788L15.0323 15.1309C14.8996 15.4619 14.6808 15.7514 14.3986 15.9694C14.1164 16.1874 13.781 16.326 13.4273 16.3709L8.34826 17.0059C8.2176 17.0212 8.08093 17.0399 7.93826 17.0619L7.49426 17.1339L7.26226 17.1759L6.53926 17.3159L6.04426 17.4209L5.29926 17.5889L4.34426 17.8169L2.79226 18.2129L2.14626 18.3869C1.98324 18.4317 1.81157 18.4349 1.64699 18.3961C1.48242 18.3574 1.3302 18.2779 1.20431 18.1651C1.07841 18.0522 0.982865 17.9096 0.926424 17.7502C0.869982 17.5908 0.854453 17.4198 0.881262 17.2529L0.915262 17.1069L1.21026 15.9949L1.47426 14.9469L1.70226 13.9919L1.86926 13.2469L1.97426 12.7509L2.11526 12.0289L2.19526 11.5719L2.25926 11.1439L2.91926 5.86388C2.96418 5.50999 3.10293 5.17455 3.32114 4.89234C3.53935 4.61013 3.82907 4.39142 4.16026 4.25888L10.0733 1.89388C10.4367 1.74854 10.8348 1.71305 11.2182 1.79179C11.6016 1.87054 11.9535 2.05906 12.2303 2.33588ZM8.52026 7.94088C8.26762 8.19368 8.08733 8.50957 7.99817 8.85568C7.90901 9.20179 7.91422 9.56547 8.01326 9.90888C7.94036 9.95156 7.87316 10.0033 7.81326 10.0629L3.75526 14.1209C3.72867 14.1479 3.71029 14.1819 3.70226 14.2189L3.61326 14.6039L3.43526 15.3469L3.34926 15.6979C3.34046 15.7316 3.34064 15.7671 3.34978 15.8008C3.35892 15.8344 3.3767 15.8651 3.40137 15.8898C3.42603 15.9144 3.45672 15.9322 3.49038 15.9414C3.52404 15.9505 3.55951 15.9507 3.59326 15.9419L4.31026 15.7669L5.07326 15.5889C5.11004 15.5804 5.14367 15.5617 5.17026 15.5349L9.22826 11.4769C9.28777 11.4173 9.33951 11.3504 9.38226 11.2779C9.72111 11.3753 10.0797 11.3814 10.4217 11.2956C10.7636 11.2098 11.0768 11.0351 11.3295 10.7892C11.5822 10.5433 11.7654 10.235 11.8606 9.89555C11.9558 9.55606 11.9595 9.19745 11.8714 8.85606C11.7833 8.51467 11.6066 8.20263 11.359 7.95156C11.1115 7.7005 10.802 7.51933 10.4619 7.42642C10.1218 7.33351 9.76314 7.33216 9.42234 7.42251C9.08154 7.51285 8.77068 7.69168 8.52126 7.94088H8.52026ZM13.1783 0.456877C13.3503 0.284553 13.5794 0.180937 13.8224 0.165472C14.0654 0.150007 14.3057 0.223754 14.4983 0.372877L14.5923 0.456877L18.8353 4.69888C19.0165 4.87842 19.1223 5.12045 19.1309 5.37542C19.1396 5.6304 19.0505 5.87904 18.8818 6.07046C18.7131 6.26187 18.4777 6.38158 18.2236 6.40508C17.9696 6.42858 17.7162 6.3541 17.5153 6.19688L17.4203 6.11288L13.1783 1.87088C12.9908 1.68335 12.8855 1.42904 12.8855 1.16388C12.8855 0.898713 12.9908 0.644405 13.1783 0.456877Z" fill="#131313"/>
</g>
</svg>
