<svg width="79" height="100" viewBox="0 0 79 100" fill="none" xmlns="http://www.w3.org/2000/svg">
<path d="M6.32241 18.8545C-10.9599 44.3844 9.68211 70.9457 38.1359 99.7629C69.0624 70.6077 88.8022 43.6002 72.306 18.8545C55.8099 -5.89126 23.6047 -6.67538 6.32241 18.8545Z" fill="#0954B0"/>
<circle cx="39.2764" cy="39.2761" r="27.4932" fill="white"/>
<path d="M20.2665 37.9277C20.2665 34.3247 20.9577 31.4864 22.3402 29.4126C23.7437 27.3389 25.9955 26.302 29.0957 26.302C32.1959 26.302 34.4372 27.3389 35.8198 29.4126C37.2232 31.4864 37.9249 34.3247 37.9249 37.9277C37.9249 41.5725 37.2232 44.4318 35.8198 46.5055C34.4372 48.5793 32.1959 49.6162 29.0957 49.6162C25.9955 49.6162 23.7437 48.5793 22.3402 46.5055C20.9577 44.4318 20.2665 41.5725 20.2665 37.9277ZM32.6463 37.9277C32.6463 35.812 32.4158 34.1886 31.955 33.0574C31.4942 31.9053 30.5411 31.3293 29.0957 31.3293C27.6504 31.3293 26.6973 31.9053 26.2364 33.0574C25.7756 34.1886 25.5452 35.812 25.5452 37.9277C25.5452 39.3521 25.629 40.5356 25.7965 41.4782C25.9641 42.3999 26.2993 43.154 26.802 43.7405C27.3257 44.3061 28.0902 44.5889 29.0957 44.5889C30.1012 44.5889 30.8553 44.3061 31.358 43.7405C31.8817 43.154 32.2273 42.3999 32.3949 41.4782C32.5625 40.5356 32.6463 39.3521 32.6463 37.9277ZM40.8893 45.6257V41.2897L50.8183 27.0875H56.8196V40.9755H59.3961V45.6257H56.8196V49.7104H51.4467V45.6257H40.8893ZM51.8237 32.9946L46.545 40.9755H51.8237V32.9946Z" fill="black"/>
</svg>
