<svg width="105" height="134" viewBox="0 0 105 134" fill="none" xmlns="http://www.w3.org/2000/svg">
<path d="M8.45641 25.2184C-14.6591 59.3652 12.9501 94.8917 51.0078 133.435C92.3727 94.4396 118.775 58.3164 96.7111 25.2184C74.6471 -7.87968 31.5719 -8.92847 8.45641 25.2184Z" fill="#0954B0"/>
<circle cx="52.5326" cy="52.5329" r="36.7728" fill="white"/>
<path d="M28.1578 51.2533C28.1578 46.4343 29.0823 42.6379 30.9315 39.8642C32.8087 37.0905 35.8205 35.7036 39.9671 35.7036C44.1137 35.7036 47.1115 37.0905 48.9607 39.8642C50.8378 42.6379 51.7764 46.4343 51.7764 51.2533C51.7764 56.1283 50.8378 59.9527 48.9607 62.7264C47.1115 65.5001 44.1137 66.887 39.9671 66.887C35.8205 66.887 32.8087 65.5001 30.9315 62.7264C29.0823 59.9527 28.1578 56.1283 28.1578 51.2533ZM44.716 51.2533C44.716 48.4235 44.4079 46.2522 43.7915 44.7392C43.1751 43.1983 41.9003 42.4278 39.9671 42.4278C38.0339 42.4278 36.7591 43.1983 36.1427 44.7392C35.5263 46.2522 35.2182 48.4235 35.2182 51.2533C35.2182 53.1585 35.3302 54.7414 35.5544 56.0022C35.7785 57.235 36.2268 58.2436 36.8992 59.0281C37.5996 59.7846 38.6223 60.1628 39.9671 60.1628C41.3119 60.1628 42.3206 59.7846 42.993 59.0281C43.6934 58.2436 44.1557 57.235 44.3798 56.0022C44.604 54.7414 44.716 53.1585 44.716 51.2533ZM55.3211 61.2555C56.2737 60.499 56.7079 60.1488 56.6239 60.2048C59.3696 57.9354 61.5269 56.0723 63.0959 54.6154C64.6929 53.1585 66.0377 51.6315 67.1304 50.0345C68.2231 48.4375 68.7694 46.8826 68.7694 45.3696C68.7694 44.2209 68.5032 43.3244 67.9709 42.68C67.4386 42.0356 66.6401 41.7134 65.5754 41.7134C64.5108 41.7134 63.6702 42.1196 63.0539 42.9321C62.4655 43.7166 62.1713 44.8373 62.1713 46.2942H55.237C55.293 43.9127 55.7974 41.9235 56.7499 40.3265C57.7306 38.7295 59.0053 37.5528 60.5743 36.7963C62.1713 36.0398 63.9364 35.6616 65.8696 35.6616C69.2037 35.6616 71.7112 36.5161 73.3923 38.2252C75.1013 39.9343 75.9559 42.1616 75.9559 44.9073C75.9559 47.9052 74.9332 50.6929 72.888 53.2705C70.8427 55.8201 68.2371 58.3137 65.0711 60.7512H76.4181V66.5928H55.3211V61.2555Z" fill="black"/>
</svg>
