<svg width="73" height="90" viewBox="0 0 73 90" fill="none" xmlns="http://www.w3.org/2000/svg">
<g filter="url(#filter0_d_3362_2207)">
<path d="M9.18167 15.4526C-4.98241 36.3762 11.9352 58.1452 35.2552 81.7629C60.6016 57.8682 76.7798 35.7335 63.26 15.4526C49.7402 -4.82831 23.3458 -5.47095 9.18167 15.4526Z" fill="#0954B0"/>
<circle cx="36.1899" cy="32.1896" r="22.5326" fill="white"/>
<path d="M20.61 32.219C20.61 29.2662 21.1765 26.9399 22.3096 25.2403C23.4598 23.5407 25.3054 22.6909 27.8462 22.6909C30.387 22.6909 32.224 23.5407 33.357 25.2403C34.5073 26.9399 35.0824 29.2662 35.0824 32.219C35.0824 35.2062 34.5073 37.5496 33.357 39.2492C32.224 40.9488 30.387 41.7986 27.8462 41.7986C25.3054 41.7986 23.4598 40.9488 22.3096 39.2492C21.1765 37.5496 20.61 35.2062 20.61 32.219ZM30.7561 32.219C30.7561 30.4851 30.5673 29.1546 30.1896 28.2275C29.8119 27.2833 29.0308 26.8112 27.8462 26.8112C26.6616 26.8112 25.8805 27.2833 25.5028 28.2275C25.1251 29.1546 24.9363 30.4851 24.9363 32.219C24.9363 33.3864 25.0049 34.3564 25.1423 35.1289C25.2796 35.8843 25.5543 36.5024 25.9663 36.9831C26.3955 37.4466 27.0221 37.6783 27.8462 37.6783C28.6702 37.6783 29.2883 37.4466 29.7003 36.9831C30.1295 36.5024 30.4128 35.8843 30.5501 35.1289C30.6874 34.3564 30.7561 33.3864 30.7561 32.219ZM50.6452 26.9142H42.6107V30.4679C42.9541 30.0902 43.4348 29.7812 44.0528 29.5408C44.6708 29.3005 45.3404 29.1803 46.0614 29.1803C47.349 29.1803 48.4134 29.4722 49.2546 30.0559C50.113 30.6396 50.7396 31.395 51.1345 32.322C51.5293 33.2491 51.7268 34.2534 51.7268 35.335C51.7268 37.3436 51.1602 38.9402 50.0272 40.1247C48.8941 41.2922 47.2975 41.8759 45.2374 41.8759C43.8639 41.8759 42.6708 41.6441 41.6579 41.1806C40.645 40.6999 39.8639 40.0389 39.3145 39.1977C38.7651 38.3565 38.4647 37.3865 38.4132 36.2878H42.7137C42.8167 36.82 43.0656 37.2663 43.4605 37.6268C43.8554 37.9702 44.3961 38.1419 45.0829 38.1419C45.8897 38.1419 46.4906 37.8844 46.8855 37.3693C47.2803 36.8543 47.4778 36.1676 47.4778 35.3092C47.4778 34.468 47.2717 33.8242 46.8597 33.3778C46.4477 32.9315 45.8468 32.7083 45.0571 32.7083C44.4734 32.7083 43.9927 32.8542 43.615 33.1461C43.2373 33.4207 42.9884 33.7899 42.8682 34.2534H38.6192V23.0514H50.6452V26.9142Z" fill="black"/>
</g>
<defs>
<filter id="filter0_d_3362_2207" x="0" y="0" width="72.1523" height="89.7629" filterUnits="userSpaceOnUse" color-interpolation-filters="sRGB">
<feFlood flood-opacity="0" result="BackgroundImageFix"/>
<feColorMatrix in="SourceAlpha" type="matrix" values="0 0 0 0 0 0 0 0 0 0 0 0 0 0 0 0 0 0 127 0" result="hardAlpha"/>
<feOffset dy="4"/>
<feGaussianBlur stdDeviation="2"/>
<feComposite in2="hardAlpha" operator="out"/>
<feColorMatrix type="matrix" values="0 0 0 0 0 0 0 0 0 0 0 0 0 0 0 0 0 0 0.25 0"/>
<feBlend mode="normal" in2="BackgroundImageFix" result="effect1_dropShadow_3362_2207"/>
<feBlend mode="normal" in="SourceGraphic" in2="effect1_dropShadow_3362_2207" result="shape"/>
</filter>
</defs>
</svg>
