<svg width="154" height="196" viewBox="0 0 154 196" fill="none" xmlns="http://www.w3.org/2000/svg">
<path d="M12.4079 37.0023C-21.5089 87.105 19.0013 139.232 74.8424 195.786C135.536 138.569 174.276 85.5662 141.902 37.0023C109.528 -11.5617 46.3246 -13.1005 12.4079 37.0023Z"/>
<circle cx="77.0798" cy="77.0796" r="53.9558" fill="white"/>
<path d="M47.4809 75.7078C47.4809 68.6371 48.8375 63.0668 51.5507 58.997C54.305 54.9272 58.7243 52.8923 64.8084 52.8923C70.8926 52.8923 75.2913 54.9272 78.0045 58.997C80.7588 63.0668 82.136 68.6371 82.136 75.7078C82.136 82.8608 80.7588 88.4722 78.0045 92.5421C75.2913 96.6119 70.8926 98.6468 64.8084 98.6468C58.7243 98.6468 54.305 96.6119 51.5507 92.5421C48.8375 88.4722 47.4809 82.8608 47.4809 75.7078ZM71.7764 75.7078C71.7764 71.5558 71.3242 68.3699 70.4198 66.15C69.5154 63.889 67.645 62.7585 64.8084 62.7585C61.9719 62.7585 60.1014 63.889 59.197 66.15C58.2926 68.3699 57.8404 71.5558 57.8404 75.7078C57.8404 78.5033 58.0049 80.8259 58.3337 82.6758C58.6626 84.4847 59.3204 85.9646 60.307 87.1156C61.3347 88.2256 62.8352 88.7806 64.8084 88.7806C66.7817 88.7806 68.2616 88.2256 69.2482 87.1156C70.276 85.9646 70.9543 84.4847 71.2831 82.6758C71.612 80.8259 71.7764 78.5033 71.7764 75.7078ZM86.5969 63.6217V53.8172H103.678V98.8318H92.7017V63.6217H86.5969Z" fill="black"/>
</svg>
