<svg width="100" height="127" viewBox="0 0 100 127" fill="none" xmlns="http://www.w3.org/2000/svg">
<path d="M8.0487 24.0026C-13.9524 56.5032 12.3257 90.317 48.5487 127.003C87.9194 89.8867 113.049 55.505 92.0487 24.0026C71.0484 -7.49982 30.0498 -8.49804 8.0487 24.0026Z"/>
<circle cx="50" cy="50" r="35" fill="white"/>
<path d="M25.8 49C25.8 44.4133 26.68 40.8 28.44 38.16C30.2267 35.52 33.0933 34.2 37.04 34.2C40.9867 34.2 43.84 35.52 45.6 38.16C47.3867 40.8 48.28 44.4133 48.28 49C48.28 53.64 47.3867 57.28 45.6 59.92C43.84 62.56 40.9867 63.88 37.04 63.88C33.0933 63.88 30.2267 62.56 28.44 59.92C26.68 57.28 25.8 53.64 25.8 49ZM41.56 49C41.56 46.3067 41.2667 44.24 40.68 42.8C40.0933 41.3333 38.88 40.6 37.04 40.6C35.2 40.6 33.9867 41.3333 33.4 42.8C32.8133 44.24 32.52 46.3067 32.52 49C32.52 50.8133 32.6267 52.32 32.84 53.52C33.0533 54.6933 33.48 55.6533 34.12 56.4C34.7867 57.12 35.76 57.48 37.04 57.48C38.32 57.48 39.28 57.12 39.92 56.4C40.5867 55.6533 41.0267 54.6933 41.24 53.52C41.4533 52.32 41.56 50.8133 41.56 49ZM52.1338 43.04C52.2404 40.1867 53.1738 37.9867 54.9338 36.44C56.6938 34.8933 59.0804 34.12 62.0938 34.12C64.0938 34.12 65.8004 34.4667 67.2138 35.16C68.6538 35.8533 69.7338 36.8 70.4538 38C71.2004 39.2 71.5738 40.5467 71.5738 42.04C71.5738 43.8 71.1338 45.24 70.2538 46.36C69.3738 47.4533 68.3471 48.2 67.1738 48.6V48.76C68.6938 49.2667 69.8938 50.1067 70.7738 51.28C71.6538 52.4533 72.0938 53.96 72.0938 55.8C72.0938 57.4533 71.7071 58.92 70.9338 60.2C70.1871 61.4533 69.0804 62.44 67.6138 63.16C66.1738 63.88 64.4538 64.24 62.4538 64.24C59.2538 64.24 56.6938 63.4533 54.7738 61.88C52.8804 60.3067 51.8804 57.9333 51.7738 54.76H58.4138C58.4404 55.9333 58.7738 56.8667 59.4138 57.56C60.0538 58.2267 60.9871 58.56 62.2138 58.56C63.2538 58.56 64.0538 58.2667 64.6138 57.68C65.2004 57.0667 65.4938 56.2667 65.4938 55.28C65.4938 54 65.0804 53.08 64.2538 52.52C63.4538 51.9333 62.1604 51.64 60.3737 51.64H59.0938V46.08H60.3737C61.7338 46.08 62.8271 45.8533 63.6538 45.4C64.5071 44.92 64.9338 44.08 64.9338 42.88C64.9338 41.92 64.6671 41.1733 64.1338 40.64C63.6004 40.1067 62.8671 39.84 61.9338 39.84C60.9204 39.84 60.1604 40.1467 59.6538 40.76C59.1738 41.3733 58.8938 42.1333 58.8138 43.04H52.1338Z" fill="black"/>
</svg>
