<svg width="375" height="50" viewBox="0 0 375 50" fill="none" xmlns="http://www.w3.org/2000/svg">
<path d="M16.7068 13.7581C19.1331 13.7581 21.2011 14.0269 22.9108 14.5645C24.6369 15.1021 26.0454 15.8271 27.1364 16.7394C28.2437 17.6517 29.0497 18.7188 29.5545 19.9407C30.0593 21.1625 30.3117 22.4577 30.3117 23.8262C30.3117 24.3964 30.2221 24.9014 30.043 25.3413C29.8639 25.7812 29.6196 26.1559 29.3102 26.4654C29.0171 26.7749 28.6589 27.0112 28.2355 27.1741C27.8122 27.337 27.3562 27.4184 26.8677 27.4184C26.4443 27.4184 26.0128 27.3451 25.5732 27.1985C25.1335 27.0519 24.7183 26.8157 24.3275 26.4898C23.9367 26.164 23.5866 25.7404 23.2772 25.2191C22.9678 24.6978 22.7317 24.0624 22.5689 23.313C22.4386 22.7754 22.2432 22.3029 21.9827 21.8957C21.7221 21.4884 21.4209 21.1462 21.0789 20.8693C20.7533 20.576 20.3869 20.3643 19.9798 20.2339C19.589 20.0873 19.1982 20.014 18.8074 20.014C18.1072 20.014 17.4966 20.1606 16.9755 20.4539C16.4707 20.7471 16.0474 21.1788 15.7054 21.749C15.3634 22.3029 15.1111 22.9872 14.9482 23.8018C14.7854 24.6 14.704 25.5042 14.704 26.5143C14.704 30.4242 15.2902 33.3241 16.4626 35.2139C17.6513 37.0874 19.5483 38.0242 22.1537 38.0242C22.9027 38.0242 23.668 37.9264 24.4496 37.7309C25.2312 37.5191 25.9558 37.291 26.6235 37.0467C27.2911 36.8023 27.8691 36.5824 28.3577 36.3869C28.8462 36.1751 29.18 36.0692 29.3591 36.0692C29.7336 36.0692 30.0267 36.2321 30.2384 36.5579C30.4501 36.8675 30.5559 37.2259 30.5559 37.6332C30.5559 37.7635 30.5478 37.8857 30.5315 37.9997C30.5315 38.1138 30.5071 38.2278 30.4582 38.3418C29.986 39.5474 29.3184 40.6634 28.4554 41.6897C27.5923 42.6998 26.5583 43.5877 25.3534 44.3534C24.1647 45.1028 22.8131 45.6893 21.2988 46.1128C19.7844 46.5364 18.1398 46.7482 16.3649 46.7482C14.5411 46.7482 12.8721 46.5364 11.3577 46.1128C9.84335 45.673 8.47554 45.0702 7.25428 44.3045C6.04931 43.5225 4.99088 42.6102 4.07901 41.5675C3.18342 40.5249 2.42624 39.3926 1.80746 38.1708C1.20498 36.9326 0.749039 35.6456 0.439653 34.3097C0.146551 32.9575 0 31.5972 0 30.2287C0 28.8439 0.154693 27.4755 0.464079 26.1233C0.773465 24.7548 1.23754 23.4596 1.85631 22.2378C2.47509 21.0159 3.24855 19.8918 4.17671 18.8655C5.10487 17.8228 6.18772 16.9268 7.42526 16.1774C8.6628 15.4117 10.055 14.817 11.602 14.3935C13.1489 13.9699 14.8505 13.7581 16.7068 13.7581Z" fill="black"/>
<path d="M108.521 16.7639C108.798 16.5847 109.156 16.3321 109.596 16.0063C110.052 15.6642 110.719 15.3302 111.599 15.0044C112.478 14.6623 113.642 14.369 115.092 14.1247C116.541 13.8803 118.405 13.7581 120.685 13.7581C122.395 13.7581 123.885 13.9617 125.155 14.369C126.425 14.7763 127.508 15.3302 128.403 16.0307C129.315 16.7313 130.064 17.5621 130.65 18.5233C131.237 19.4682 131.701 20.4946 132.043 21.6024C132.385 22.6939 132.621 23.8343 132.751 25.0236C132.881 26.2129 132.946 27.394 132.946 28.567V28.8114C132.93 30.75 132.914 32.2488 132.897 33.3078C132.897 34.3504 132.897 35.1161 132.897 35.6049C132.897 36.0936 132.897 36.3869 132.897 36.4846C132.897 36.5661 132.897 36.6068 132.897 36.6068C132.897 37.291 132.987 37.8287 133.166 38.2196C133.345 38.5943 133.565 38.8876 133.826 39.0994C134.102 39.2949 134.396 39.4334 134.705 39.5148C135.031 39.58 135.324 39.6614 135.584 39.7592C135.861 39.8406 136.089 39.9628 136.268 40.1257C136.447 40.2724 136.537 40.5249 136.537 40.8833C136.537 41.8119 136.301 42.6102 135.829 43.2781C135.373 43.9298 134.697 44.4755 133.801 44.9154C132.906 45.339 131.798 45.6485 130.479 45.844C129.177 46.0395 127.679 46.1373 125.985 46.1373C124.341 46.1373 122.875 46.0395 121.589 45.844C120.319 45.6485 119.244 45.339 118.364 44.9154C117.485 44.4755 116.818 43.9298 116.362 43.2781C115.906 42.6102 115.678 41.8119 115.678 40.8833C115.678 40.5249 115.735 40.2724 115.849 40.1257C115.979 39.9628 116.134 39.8406 116.313 39.7592C116.492 39.6777 116.687 39.6044 116.899 39.5392C117.111 39.4741 117.306 39.3519 117.485 39.1727C117.664 38.9772 117.811 38.7084 117.925 38.3663C118.055 38.0079 118.12 37.4947 118.12 36.8267V26.3188C118.12 25.325 118.055 24.4371 117.925 23.6551C117.811 22.8731 117.615 22.2133 117.339 21.6757C117.062 21.1381 116.687 20.7308 116.215 20.4539C115.759 20.1606 115.181 20.014 114.481 20.014C113.406 20.014 112.625 20.3561 112.136 21.0404C111.664 21.7083 111.428 22.5799 111.428 23.6551V36.5335C111.428 37.234 111.493 37.7798 111.623 38.1708C111.753 38.5618 111.916 38.8632 112.112 39.0749C112.323 39.2704 112.543 39.4089 112.771 39.4904C113.015 39.5718 113.235 39.6614 113.431 39.7592C113.642 39.8406 113.813 39.9628 113.944 40.1257C114.074 40.2724 114.139 40.5249 114.139 40.8833C114.139 41.8119 113.952 42.6102 113.577 43.2781C113.219 43.9298 112.649 44.4755 111.867 44.9154C111.102 45.339 110.109 45.6485 108.888 45.844C107.683 46.0395 106.225 46.1373 104.515 46.1373C102.871 46.1373 101.405 46.0395 100.119 45.844C98.8488 45.6485 97.7741 45.339 96.8947 44.9154C96.0154 44.4755 95.3478 43.9298 94.8919 43.2781C94.4359 42.6102 94.208 41.8119 94.208 40.8833C94.208 40.5249 94.265 40.2724 94.379 40.1257C94.5092 39.9628 94.6639 39.8406 94.843 39.7592C95.0221 39.6777 95.2176 39.6044 95.4292 39.5392C95.6572 39.4741 95.8607 39.3519 96.0399 39.1727C96.219 38.9772 96.3655 38.7084 96.4795 38.3663C96.6098 38.0079 96.6749 37.4947 96.6749 36.8267V26.3188C96.6749 24.3312 96.4307 22.7917 95.9422 21.7002C95.4699 20.6086 94.6151 20.0629 93.3775 20.0629C92.889 20.0629 92.4249 20.1525 91.9853 20.3317C91.5456 20.5109 91.1548 20.7715 90.8129 21.1137C90.4709 21.4395 90.2022 21.8305 90.0068 22.2866C89.8114 22.7428 89.7137 23.2397 89.7137 23.7773V36.729C89.7137 37.3969 89.7789 37.9183 89.9091 38.293C90.0557 38.6677 90.2348 38.9528 90.4465 39.1483C90.6582 39.3275 90.8861 39.4578 91.1304 39.5392C91.3909 39.6044 91.627 39.6777 91.8387 39.7592C92.0504 39.8406 92.2214 39.9628 92.3517 40.1257C92.4982 40.2724 92.5715 40.5249 92.5715 40.8833C92.5715 42.7405 91.6433 44.0846 89.787 44.9154C87.947 45.73 85.2928 46.1373 81.8244 46.1373C80.1472 46.1373 78.6491 46.0395 77.3302 45.844C76.0112 45.6485 74.8958 45.339 73.9839 44.9154C73.0883 44.4755 72.3963 43.9298 71.9078 43.2781C71.4356 42.6102 71.1994 41.8119 71.1994 40.8833C71.1994 40.5249 71.289 40.2724 71.4681 40.1257C71.6472 39.9628 71.8671 39.8406 72.1276 39.7592C72.3881 39.6777 72.6731 39.6044 72.9825 39.5392C73.2919 39.4741 73.5768 39.3519 73.8374 39.1727C74.0979 38.9772 74.3177 38.7084 74.4968 38.3663C74.676 38.0079 74.7655 37.4947 74.7655 36.8267V23.7773C74.7655 23.1257 74.676 22.6206 74.4968 22.2622C74.3177 21.9038 74.0979 21.635 73.8374 21.4558C73.5768 21.2603 73.2919 21.13 72.9825 21.0648C72.6731 20.9996 72.3881 20.9263 72.1276 20.8449C71.8671 20.7634 71.6472 20.6494 71.4681 20.5027C71.289 20.3398 71.1994 20.0792 71.1994 19.7208C71.1994 18.7921 71.4356 18.002 71.9078 17.3504C72.38 16.6824 73.0639 16.1366 73.9595 15.7131C74.8714 15.2732 75.9786 14.9555 77.2813 14.76C78.584 14.5645 80.0576 14.4668 81.7023 14.4668C82.4513 14.4668 83.1271 14.5075 83.7296 14.589C84.3321 14.6541 84.8613 14.7519 85.3172 14.8822C85.7894 14.9962 86.1965 15.1347 86.5385 15.2976C86.8804 15.4443 87.1735 15.599 87.4178 15.7619C87.9877 16.1529 88.3866 16.5847 88.6146 17.0571C89.4125 16.4543 90.3732 15.9086 91.4968 15.4198C92.4575 14.9962 93.6299 14.6134 95.014 14.2713C96.3981 13.9292 98.0183 13.7581 99.8746 13.7581C101.796 13.7581 103.498 14.035 104.979 14.589C106.461 15.1266 107.642 15.8515 108.521 16.7639Z" fill="black"/>
<path d="M175.935 16.7639C176.211 16.5847 176.57 16.3321 177.009 16.0063C177.465 15.6642 178.133 15.3302 179.012 15.0044C179.892 14.6623 181.056 14.369 182.505 14.1247C183.954 13.8803 185.819 13.7581 188.098 13.7581C189.808 13.7581 191.298 13.9617 192.568 14.369C193.838 14.7763 194.921 15.3302 195.817 16.0307C196.729 16.7313 197.478 17.5621 198.064 18.5233C198.65 19.4682 199.114 20.4946 199.456 21.6024C199.798 22.6939 200.034 23.8343 200.164 25.0236C200.295 26.2129 200.36 27.394 200.36 28.567V28.8114C200.344 30.75 200.327 32.2488 200.311 33.3078C200.311 34.3504 200.311 35.1161 200.311 35.6049C200.311 36.0936 200.311 36.3869 200.311 36.4846C200.311 36.5661 200.311 36.6068 200.311 36.6068C200.311 37.291 200.401 37.8287 200.58 38.2196C200.759 38.5943 200.979 38.8876 201.239 39.0994C201.516 39.2949 201.809 39.4334 202.118 39.5148C202.444 39.58 202.737 39.6614 202.998 39.7592C203.275 39.8406 203.503 39.9628 203.682 40.1257C203.861 40.2724 203.95 40.5249 203.95 40.8833C203.95 41.8119 203.714 42.6102 203.242 43.2781C202.786 43.9298 202.11 44.4755 201.215 44.9154C200.319 45.339 199.212 45.6485 197.893 45.844C196.59 46.0395 195.092 46.1373 193.399 46.1373C191.754 46.1373 190.289 46.0395 189.002 45.844C187.732 45.6485 186.657 45.339 185.778 44.9154C184.899 44.4755 184.231 43.9298 183.775 43.2781C183.319 42.6102 183.091 41.8119 183.091 40.8833C183.091 40.5249 183.148 40.2724 183.262 40.1257C183.393 39.9628 183.547 39.8406 183.726 39.7592C183.905 39.6777 184.101 39.6044 184.313 39.5392C184.524 39.4741 184.72 39.3519 184.899 39.1727C185.078 38.9772 185.224 38.7084 185.338 38.3663C185.469 38.0079 185.534 37.4947 185.534 36.8267V26.3188C185.534 25.325 185.469 24.4371 185.338 23.6551C185.224 22.8731 185.029 22.2133 184.752 21.6757C184.475 21.1381 184.101 20.7308 183.629 20.4539C183.173 20.1606 182.595 20.014 181.894 20.014C180.82 20.014 180.038 20.3561 179.55 21.0404C179.077 21.7083 178.841 22.5799 178.841 23.6551V36.5335C178.841 37.234 178.906 37.7798 179.037 38.1708C179.167 38.5618 179.33 38.8632 179.525 39.0749C179.737 39.2704 179.957 39.4089 180.185 39.4904C180.429 39.5718 180.649 39.6614 180.844 39.7592C181.056 39.8406 181.227 39.9628 181.357 40.1257C181.487 40.2724 181.552 40.5249 181.552 40.8833C181.552 41.8119 181.365 42.6102 180.991 43.2781C180.632 43.9298 180.063 44.4755 179.281 44.9154C178.516 45.339 177.522 45.6485 176.301 45.844C175.096 46.0395 173.639 46.1373 171.929 46.1373C170.284 46.1373 168.819 46.0395 167.532 45.844C166.262 45.6485 165.188 45.339 164.308 44.9154C163.429 44.4755 162.761 43.9298 162.305 43.2781C161.849 42.6102 161.622 41.8119 161.622 40.8833C161.622 40.5249 161.678 40.2724 161.792 40.1257C161.923 39.9628 162.077 39.8406 162.257 39.7592C162.436 39.6777 162.631 39.6044 162.843 39.5392C163.071 39.4741 163.274 39.3519 163.453 39.1727C163.633 38.9772 163.779 38.7084 163.893 38.3663C164.023 38.0079 164.088 37.4947 164.088 36.8267V26.3188C164.088 24.3312 163.844 22.7917 163.356 21.7002C162.883 20.6086 162.029 20.0629 160.791 20.0629C160.303 20.0629 159.838 20.1525 159.399 20.3317C158.959 20.5109 158.568 20.7715 158.226 21.1137C157.884 21.4395 157.616 21.8305 157.42 22.2866C157.225 22.7428 157.127 23.2397 157.127 23.7773V36.729C157.127 37.3969 157.192 37.9183 157.323 38.293C157.469 38.6677 157.648 38.9528 157.86 39.1483C158.072 39.3275 158.3 39.4578 158.544 39.5392C158.804 39.6044 159.041 39.6777 159.252 39.7592C159.464 39.8406 159.635 39.9628 159.765 40.1257C159.912 40.2724 159.985 40.5249 159.985 40.8833C159.985 42.7405 159.057 44.0846 157.201 44.9154C155.361 45.73 152.706 46.1373 149.238 46.1373C147.561 46.1373 146.063 46.0395 144.744 45.844C143.425 45.6485 142.309 45.339 141.397 44.9154C140.502 44.4755 139.81 43.9298 139.321 43.2781C138.849 42.6102 138.613 41.8119 138.613 40.8833C138.613 40.5249 138.703 40.2724 138.882 40.1257C139.061 39.9628 139.281 39.8406 139.541 39.7592C139.802 39.6777 140.087 39.6044 140.396 39.5392C140.705 39.4741 140.99 39.3519 141.251 39.1727C141.511 38.9772 141.731 38.7084 141.91 38.3663C142.089 38.0079 142.179 37.4947 142.179 36.8267V23.7773C142.179 23.1257 142.089 22.6206 141.91 22.2622C141.731 21.9038 141.511 21.635 141.251 21.4558C140.99 21.2603 140.705 21.13 140.396 21.0648C140.087 20.9996 139.802 20.9263 139.541 20.8449C139.281 20.7634 139.061 20.6494 138.882 20.5027C138.703 20.3398 138.613 20.0792 138.613 19.7208C138.613 18.7921 138.849 18.002 139.321 17.3504C139.794 16.6824 140.477 16.1366 141.373 15.7131C142.285 15.2732 143.392 14.9555 144.695 14.76C145.998 14.5645 147.471 14.4668 149.116 14.4668C149.865 14.4668 150.541 14.5075 151.143 14.589C151.746 14.6541 152.275 14.7519 152.731 14.8822C153.203 14.9962 153.61 15.1347 153.952 15.2976C154.294 15.4443 154.587 15.599 154.831 15.7619C155.401 16.1529 155.8 16.5847 156.028 17.0571C156.826 16.4543 157.787 15.9086 158.91 15.4198C159.871 14.9962 161.043 14.6134 162.428 14.2713C163.812 13.9292 165.432 13.7581 167.288 13.7581C169.21 13.7581 170.911 14.035 172.393 14.589C173.875 15.1266 175.055 15.8515 175.935 16.7639Z" fill="black"/>
<path d="M232.039 23.8751C232.039 23.2071 231.95 22.6858 231.771 22.3111C231.592 21.9364 231.364 21.6594 231.087 21.4802C230.826 21.2847 230.541 21.1544 230.232 21.0892C229.923 21.0078 229.629 20.9263 229.353 20.8449C229.092 20.7634 228.872 20.6494 228.693 20.5027C228.514 20.3398 228.424 20.0792 228.424 19.7208C228.424 17.8635 229.385 16.5276 231.307 15.7131C233.228 14.8822 236.004 14.4668 239.636 14.4668C240.857 14.4668 241.883 14.5808 242.713 14.8089C243.544 15.037 244.228 15.3547 244.765 15.7619C245.319 16.1692 245.742 16.658 246.035 17.2282C246.344 17.7984 246.564 18.4337 246.694 19.1343C246.841 19.8185 246.922 20.5516 246.939 21.3336C246.971 22.1156 246.988 22.9302 246.988 23.7773V36.8756C246.988 37.5273 247.069 38.0323 247.232 38.3907C247.411 38.7491 247.631 39.0261 247.891 39.2216C248.168 39.4008 248.453 39.523 248.746 39.5881C249.056 39.6533 249.341 39.7266 249.601 39.8081C249.878 39.8895 250.098 40.0117 250.261 40.1746C250.44 40.3212 250.529 40.5738 250.529 40.9322C250.529 42.7894 249.585 44.1334 247.696 44.9643C245.823 45.7789 243.137 46.1861 239.636 46.1861C238.773 46.1861 238.007 46.121 237.34 45.9907C236.672 45.8603 236.086 45.6893 235.581 45.4775C235.092 45.2657 234.669 45.0295 234.311 44.7688C233.953 44.4918 233.651 44.2067 233.407 43.9135C232.837 43.2618 232.479 42.5043 232.332 41.6408C231.486 42.602 230.484 43.4573 229.328 44.2067C228.84 44.5326 228.286 44.8503 227.667 45.1598C227.048 45.453 226.373 45.7218 225.64 45.9662C224.907 46.1943 224.109 46.3816 223.246 46.5283C222.4 46.6749 221.496 46.7482 220.535 46.7482C218.744 46.7482 217.197 46.5283 215.894 46.0884C214.592 45.6322 213.484 45.0295 212.572 44.2801C211.677 43.5306 210.952 42.6591 210.399 41.6653C209.845 40.6715 209.413 39.6289 209.104 38.5373C208.795 37.4458 208.583 36.3461 208.469 35.2383C208.371 34.1142 208.322 33.0471 208.322 32.0371V23.9972C208.322 23.313 208.233 22.7835 208.054 22.4088C207.875 22.0178 207.647 21.7246 207.37 21.5291C207.093 21.3173 206.8 21.1788 206.491 21.1137C206.181 21.0322 205.888 20.9508 205.611 20.8693C205.334 20.7715 205.106 20.6494 204.927 20.5027C204.748 20.3398 204.659 20.0792 204.659 19.7208C204.659 17.8635 205.619 16.5276 207.541 15.7131C209.462 14.8822 212.239 14.4668 215.87 14.4668C217.482 14.4668 218.768 14.6623 219.729 15.0533C220.69 15.4443 221.423 15.9819 221.927 16.6661C222.432 17.3341 222.758 18.1323 222.904 19.0609C223.051 19.9896 223.124 20.9915 223.124 22.0667V34.1386C223.124 35.1487 223.197 36.0529 223.344 36.8512C223.507 37.6332 223.767 38.3011 224.126 38.855C224.5 39.4089 224.989 39.8325 225.591 40.1257C226.194 40.4027 226.943 40.5412 227.838 40.5412C228.408 40.5412 228.945 40.4516 229.45 40.2724C229.955 40.0932 230.395 39.8406 230.769 39.5148C231.144 39.189 231.437 38.8061 231.649 38.3663C231.877 37.9101 231.99 37.4132 231.99 36.8756L232.039 23.8751Z" fill="black"/>
<path d="M271.193 36.729C271.193 37.3969 271.283 37.9183 271.462 38.293C271.641 38.6677 271.861 38.9528 272.121 39.1483C272.398 39.3275 272.691 39.4578 273 39.5392C273.31 39.6044 273.595 39.6777 273.855 39.7592C274.132 39.8406 274.36 39.9628 274.539 40.1257C274.718 40.2724 274.808 40.5249 274.808 40.8833C274.808 42.7405 273.847 44.0846 271.926 44.9154C270.004 45.73 267.228 46.1373 263.597 46.1373C261.838 46.1373 260.283 46.0395 258.931 45.844C257.58 45.6485 256.44 45.339 255.512 44.9154C254.584 44.4755 253.875 43.9298 253.387 43.2781C252.915 42.6102 252.679 41.8119 252.679 40.8833C252.679 40.5249 252.768 40.2724 252.947 40.1257C253.126 39.9628 253.346 39.8406 253.607 39.7592C253.867 39.6777 254.152 39.6044 254.462 39.5392C254.771 39.4741 255.056 39.3519 255.317 39.1727C255.577 38.9772 255.797 38.7084 255.976 38.3663C256.155 38.0079 256.245 37.4947 256.245 36.8267V23.7773C256.245 23.1257 256.155 22.6206 255.976 22.2622C255.797 21.9038 255.577 21.635 255.317 21.4558C255.056 21.2603 254.771 21.13 254.462 21.0648C254.152 20.9996 253.867 20.9263 253.607 20.8449C253.346 20.7634 253.126 20.6494 252.947 20.5027C252.768 20.3398 252.679 20.0792 252.679 19.7208C252.679 18.7921 252.915 18.002 253.387 17.3504C253.875 16.6824 254.584 16.1366 255.512 15.7131C256.44 15.2732 257.58 14.9555 258.931 14.76C260.283 14.5645 261.838 14.4668 263.597 14.4668C265.192 14.4668 266.463 14.6052 267.407 14.8822C268.351 15.1429 269.084 15.4361 269.605 15.7619C270.208 16.1529 270.623 16.5847 270.851 17.0571C271.698 16.4543 272.707 15.9086 273.88 15.4198C274.889 14.9962 276.119 14.6134 277.568 14.2713C279.033 13.9292 280.743 13.7581 282.697 13.7581C284.488 13.7581 286.027 13.9862 287.314 14.4423C288.616 14.8822 289.715 15.485 290.611 16.2507C291.523 17.0001 292.256 17.8798 292.809 18.8899C293.363 19.8837 293.786 20.9263 294.079 22.0178C294.389 23.1094 294.592 24.2172 294.69 25.3413C294.804 26.4491 294.861 27.508 294.861 28.5181V36.6068C294.861 37.291 294.951 37.8287 295.13 38.2196C295.309 38.5943 295.537 38.8876 295.814 39.0994C296.09 39.2949 296.383 39.4334 296.693 39.5148C297.018 39.58 297.32 39.6614 297.597 39.7592C297.873 39.8406 298.101 39.9628 298.28 40.1257C298.46 40.2724 298.549 40.5249 298.549 40.8833C298.549 42.7405 297.588 44.0846 295.667 44.9154C293.762 45.73 290.994 46.1373 287.362 46.1373C285.604 46.1373 284.049 46.0395 282.697 45.844C281.346 45.6485 280.206 45.339 279.278 44.9154C278.35 44.4755 277.641 43.9298 277.153 43.2781C276.68 42.6102 276.444 41.8119 276.444 40.8833C276.444 40.5249 276.534 40.2724 276.713 40.1257C276.892 39.9628 277.12 39.8406 277.397 39.7592C277.674 39.6777 277.967 39.6044 278.276 39.5392C278.586 39.4741 278.879 39.3519 279.156 39.1727C279.432 38.9772 279.66 38.7084 279.839 38.3663C280.019 38.0079 280.108 37.4947 280.108 36.8267V26.3921C280.108 25.382 280.027 24.486 279.864 23.704C279.717 22.9057 279.457 22.2378 279.082 21.7002C278.724 21.1462 278.244 20.7308 277.641 20.4539C277.039 20.1606 276.29 20.014 275.394 20.014C274.824 20.014 274.287 20.1117 273.782 20.3072C273.277 20.4864 272.838 20.7471 272.463 21.0892C272.089 21.4151 271.787 21.8142 271.559 22.2866C271.348 22.7428 271.242 23.2397 271.242 23.7773L271.193 36.729Z" fill="black"/>
<path d="M304.167 6.0604C304.167 5.24583 304.305 4.53716 304.582 3.93438C304.875 3.3153 305.242 2.78583 305.681 2.34596C306.137 1.8898 306.65 1.5151 307.22 1.22186C307.806 0.912319 308.393 0.667948 308.979 0.488742C309.565 0.309537 310.127 0.187351 310.664 0.122186C311.218 0.0407285 311.698 0 312.105 0C312.545 0 313.041 0.0407285 313.595 0.122186C314.165 0.187351 314.743 0.309537 315.329 0.488742C315.915 0.667948 316.494 0.912319 317.063 1.22186C317.633 1.5151 318.138 1.8898 318.578 2.34596C319.034 2.78583 319.392 3.3153 319.653 3.93438C319.929 4.53716 320.068 5.24583 320.068 6.0604C320.068 6.85868 319.929 7.56736 319.653 8.18643C319.392 8.80551 319.034 9.33498 318.578 9.77485C318.138 10.2147 317.633 10.5894 317.063 10.899C316.494 11.1922 315.915 11.4284 315.329 11.6076C314.743 11.7868 314.165 11.9172 313.595 11.9986C313.041 12.0638 312.545 12.0964 312.105 12.0964C311.698 12.0964 311.218 12.0638 310.664 11.9986C310.127 11.9172 309.565 11.7868 308.979 11.6076C308.393 11.4284 307.806 11.1922 307.22 10.899C306.65 10.5894 306.137 10.2147 305.681 9.77485C305.242 9.33498 304.875 8.81365 304.582 8.21087C304.305 7.5918 304.167 6.87497 304.167 6.0604ZM319.311 36.8267C319.311 37.4784 319.4 37.9834 319.579 38.3418C319.758 38.7002 319.978 38.9772 320.239 39.1727C320.516 39.3519 320.809 39.4741 321.118 39.5392C321.427 39.6044 321.712 39.6777 321.973 39.7592C322.25 39.8406 322.478 39.9628 322.657 40.1257C322.836 40.2724 322.926 40.5249 322.926 40.8833C322.926 42.7405 321.965 44.0846 320.043 44.9154C318.122 45.73 315.346 46.1373 311.714 46.1373C309.956 46.1373 308.401 46.0395 307.049 45.844C305.698 45.6485 304.558 45.339 303.63 44.9154C302.701 44.4755 301.993 43.9298 301.505 43.2781C301.032 42.6102 300.796 41.8119 300.796 40.8833C300.796 40.5249 300.886 40.2724 301.065 40.1257C301.244 39.9628 301.464 39.8406 301.724 39.7592C301.985 39.6777 302.27 39.6044 302.579 39.5392C302.889 39.4741 303.174 39.3519 303.434 39.1727C303.695 38.9772 303.915 38.7084 304.094 38.3663C304.273 38.0079 304.362 37.4947 304.362 36.8267V23.7773C304.362 23.1257 304.273 22.6206 304.094 22.2622C303.915 21.9038 303.695 21.635 303.434 21.4558C303.174 21.2603 302.889 21.13 302.579 21.0648C302.27 20.9996 301.985 20.9263 301.724 20.8449C301.464 20.7634 301.244 20.6494 301.065 20.5027C300.886 20.3398 300.796 20.0792 300.796 19.7208C300.796 18.7921 301.032 18.002 301.505 17.3504C301.993 16.6824 302.701 16.1366 303.63 15.7131C304.558 15.2732 305.698 14.9555 307.049 14.76C308.401 14.5645 309.956 14.4668 311.714 14.4668C313.473 14.4668 314.857 14.5564 315.867 14.7356C316.876 14.9148 317.633 15.2243 318.138 15.6642C318.659 16.0878 318.985 16.6661 319.115 17.3992C319.245 18.1323 319.311 19.0528 319.311 20.1606V36.8267Z" fill="black"/>
<path d="M342.49 33.9676C342.49 34.5052 342.506 35.0265 342.539 35.5316C342.572 36.0203 342.669 36.4602 342.832 36.8512C342.995 37.2422 343.247 37.5517 343.589 37.7798C343.931 38.0079 344.403 38.1219 345.006 38.1219C345.853 38.1219 346.585 38.016 347.204 37.8042C347.839 37.5761 348.491 37.2829 349.158 36.9245C349.419 36.7779 349.663 36.7045 349.891 36.7045C350.265 36.7045 350.559 36.8675 350.77 37.1933C350.998 37.5191 351.112 37.8857 351.112 38.293C351.112 38.5699 351.071 38.798 350.99 38.9772C350.518 40.1828 349.907 41.2661 349.158 42.2273C348.425 43.1885 347.571 44.0031 346.594 44.671C345.633 45.339 344.574 45.8522 343.418 46.2106C342.262 46.569 341.025 46.7482 339.706 46.7482C337.882 46.7482 336.319 46.5201 335.016 46.064C333.713 45.5915 332.614 44.9724 331.719 44.2067C330.823 43.4248 330.107 42.5287 329.569 41.5187C329.032 40.4923 328.617 39.4252 328.323 38.3174C328.047 37.1933 327.859 36.0692 327.762 34.9451C327.68 33.8047 327.64 32.7294 327.64 31.7194V19.3542H326.443C325.84 19.3542 325.368 19.1831 325.026 18.841C324.684 18.4826 324.513 18.0916 324.513 17.668C324.513 17.163 324.741 16.7394 325.197 16.3973C327.102 15.0288 328.845 13.7092 330.424 12.4385C332.004 11.1515 333.363 10.0029 334.503 8.99286C335.838 7.81988 337.035 6.72021 338.094 5.69385C338.517 5.27027 338.948 4.96073 339.388 4.76524C339.828 4.55345 340.251 4.44755 340.658 4.44755C341.163 4.44755 341.586 4.61861 341.928 4.96073C342.27 5.30285 342.441 5.83232 342.441 6.54915V14.4668H348.401C348.596 14.4668 348.824 14.4831 349.085 14.5156C349.362 14.5319 349.622 14.6134 349.866 14.76C350.111 14.9066 350.314 15.1429 350.477 15.4687C350.656 15.7782 350.746 16.2262 350.746 16.8127C350.746 17.4481 350.664 17.9368 350.502 18.279C350.339 18.6211 350.135 18.8736 349.891 19.0365C349.647 19.1994 349.386 19.2972 349.109 19.3298C348.849 19.346 348.613 19.3542 348.401 19.3542H342.441L342.49 33.9676Z" fill="black"/>
<path d="M356.241 6.0604C356.241 5.24583 356.38 4.53716 356.657 3.93438C356.95 3.3153 357.316 2.78583 357.756 2.34596C358.212 1.8898 358.725 1.5151 359.295 1.22186C359.881 0.912319 360.467 0.667948 361.053 0.488742C361.639 0.309537 362.201 0.187351 362.739 0.122186C363.292 0.0407285 363.773 0 364.18 0C364.619 0 365.116 0.0407285 365.67 0.122186C366.24 0.187351 366.818 0.309537 367.404 0.488742C367.99 0.667948 368.568 0.912319 369.138 1.22186C369.708 1.5151 370.213 1.8898 370.652 2.34596C371.108 2.78583 371.466 3.3153 371.727 3.93438C372.004 4.53716 372.142 5.24583 372.142 6.0604C372.142 6.85868 372.004 7.56736 371.727 8.18643C371.466 8.80551 371.108 9.33498 370.652 9.77485C370.213 10.2147 369.708 10.5894 369.138 10.899C368.568 11.1922 367.99 11.4284 367.404 11.6076C366.818 11.7868 366.24 11.9172 365.67 11.9986C365.116 12.0638 364.619 12.0964 364.18 12.0964C363.773 12.0964 363.292 12.0638 362.739 11.9986C362.201 11.9172 361.639 11.7868 361.053 11.6076C360.467 11.4284 359.881 11.1922 359.295 10.899C358.725 10.5894 358.212 10.2147 357.756 9.77485C357.316 9.33498 356.95 8.81365 356.657 8.21087C356.38 7.5918 356.241 6.87497 356.241 6.0604ZM371.385 36.8267C371.385 37.4784 371.475 37.9834 371.654 38.3418C371.833 38.7002 372.053 38.9772 372.313 39.1727C372.59 39.3519 372.883 39.4741 373.193 39.5392C373.502 39.6044 373.787 39.6777 374.047 39.7592C374.324 39.8406 374.552 39.9628 374.731 40.1257C374.91 40.2724 375 40.5249 375 40.8833C375 42.7405 374.039 44.0846 372.118 44.9154C370.196 45.73 367.42 46.1373 363.789 46.1373C362.03 46.1373 360.475 46.0395 359.124 45.844C357.772 45.6485 356.632 45.339 355.704 44.9154C354.776 44.4755 354.068 43.9298 353.579 43.2781C353.107 42.6102 352.871 41.8119 352.871 40.8833C352.871 40.5249 352.96 40.2724 353.139 40.1257C353.319 39.9628 353.538 39.8406 353.799 39.7592C354.059 39.6777 354.344 39.6044 354.654 39.5392C354.963 39.4741 355.248 39.3519 355.509 39.1727C355.769 38.9772 355.989 38.7084 356.168 38.3663C356.347 38.0079 356.437 37.4947 356.437 36.8267V23.7773C356.437 23.1257 356.347 22.6206 356.168 22.2622C355.989 21.9038 355.769 21.635 355.509 21.4558C355.248 21.2603 354.963 21.13 354.654 21.0648C354.344 20.9996 354.059 20.9263 353.799 20.8449C353.538 20.7634 353.319 20.6494 353.139 20.5027C352.96 20.3398 352.871 20.0792 352.871 19.7208C352.871 18.7921 353.107 18.002 353.579 17.3504C354.068 16.6824 354.776 16.1366 355.704 15.7131C356.632 15.2732 357.772 14.9555 359.124 14.76C360.475 14.5645 362.03 14.4668 363.789 14.4668C365.547 14.4668 366.932 14.5564 367.941 14.7356C368.951 14.9148 369.708 15.2243 370.213 15.6642C370.734 16.0878 371.059 16.6661 371.19 17.3992C371.32 18.1323 371.385 19.0528 371.385 20.1606V36.8267Z" fill="black"/>
<path d="M51.233 47.6508C62.3722 47.6508 71.4035 39.7452 71.4035 29.993C71.4035 20.2409 62.3722 12.3352 51.233 12.3352C40.0939 12.3352 31.0625 20.2409 31.0625 29.993C31.0625 34.4327 32.9359 38.494 36.0295 41.5967C35.785 44.1596 34.9781 46.9697 34.0856 49.0786C33.8864 49.5477 34.2722 50.0724 34.7739 49.9917C40.462 49.0584 43.8431 47.6256 45.313 46.8789C47.2441 47.3942 49.2344 47.6537 51.233 47.6508Z" fill="#0099FF"/>
</svg>
