<svg width="375" height="50" viewBox="0 0 375 50" fill="none" xmlns="http://www.w3.org/2000/svg">
<path d="M16.6992 13.7451C19.1243 13.7451 21.1914 14.0137 22.9004 14.5508C24.6257 15.0879 26.0335 15.8122 27.124 16.7236C28.2308 17.6351 29.0365 18.7012 29.541 19.9219C30.0456 21.1426 30.2979 22.4365 30.2979 23.8037C30.2979 24.3734 30.2083 24.8779 30.0293 25.3174C29.8503 25.7568 29.6061 26.1312 29.2969 26.4404C29.0039 26.7497 28.6458 26.9857 28.2227 27.1484C27.7995 27.3112 27.3438 27.3926 26.8555 27.3926C26.4323 27.3926 26.001 27.3193 25.5615 27.1729C25.1221 27.0264 24.707 26.7904 24.3164 26.4648C23.9258 26.1393 23.5758 25.7161 23.2666 25.1953C22.9574 24.6745 22.7214 24.0397 22.5586 23.291C22.4284 22.7539 22.2331 22.2819 21.9727 21.875C21.7122 21.4681 21.4111 21.1263 21.0693 20.8496C20.7438 20.5566 20.3776 20.3451 19.9707 20.2148C19.5801 20.0684 19.1895 19.9951 18.7988 19.9951C18.099 19.9951 17.4886 20.1416 16.9678 20.4346C16.4632 20.7275 16.04 21.1589 15.6982 21.7285C15.3564 22.2819 15.1042 22.9655 14.9414 23.7793C14.7786 24.5768 14.6973 25.4801 14.6973 26.4893C14.6973 30.3955 15.2832 33.2926 16.4551 35.1807C17.6432 37.0524 19.5394 37.9883 22.1436 37.9883C22.8923 37.9883 23.6572 37.8906 24.4385 37.6953C25.2197 37.4837 25.944 37.2559 26.6113 37.0117C27.2786 36.7676 27.8564 36.5479 28.3447 36.3525C28.833 36.141 29.1667 36.0352 29.3457 36.0352C29.7201 36.0352 30.013 36.1979 30.2246 36.5234C30.4362 36.8327 30.542 37.1908 30.542 37.5977C30.542 37.7279 30.5339 37.8499 30.5176 37.9639C30.5176 38.0778 30.4932 38.1917 30.4443 38.3057C29.9723 39.5101 29.305 40.625 28.4424 41.6504C27.5798 42.6595 26.5462 43.5466 25.3418 44.3115C24.1536 45.0602 22.8027 45.6462 21.2891 46.0693C19.7754 46.4925 18.1315 46.7041 16.3574 46.7041C14.5345 46.7041 12.8662 46.4925 11.3525 46.0693C9.83887 45.6299 8.47168 45.0277 7.25098 44.2627C6.04655 43.4814 4.98861 42.57 4.07715 41.5283C3.18197 40.4867 2.42513 39.3555 1.80664 38.1348C1.20443 36.8978 0.748698 35.612 0.439453 34.2773C0.146484 32.9264 0 31.5674 0 30.2002C0 28.8167 0.154622 27.4495 0.463867 26.0986C0.773112 24.7314 1.23698 23.4375 1.85547 22.2168C2.47396 20.9961 3.24707 19.873 4.1748 18.8477C5.10254 17.806 6.1849 16.9108 7.42188 16.1621C8.65885 15.3971 10.0505 14.8031 11.5967 14.3799C13.1429 13.9567 14.8438 13.7451 16.6992 13.7451Z" fill="white"/>
<path d="M108.472 16.748C108.748 16.569 109.106 16.3167 109.546 15.9912C110.002 15.6494 110.669 15.3158 111.548 14.9902C112.427 14.6484 113.59 14.3555 115.039 14.1113C116.488 13.8672 118.351 13.7451 120.63 13.7451C122.339 13.7451 123.828 13.9486 125.098 14.3555C126.367 14.7624 127.45 15.3158 128.345 16.0156C129.256 16.7155 130.005 17.5456 130.591 18.5059C131.177 19.4499 131.641 20.4753 131.982 21.582C132.324 22.6725 132.56 23.8119 132.69 25C132.821 26.1882 132.886 27.3682 132.886 28.54V28.7842C132.869 30.721 132.853 32.2184 132.837 33.2764C132.837 34.318 132.837 35.083 132.837 35.5713C132.837 36.0596 132.837 36.3525 132.837 36.4502C132.837 36.5316 132.837 36.5723 132.837 36.5723C132.837 37.2559 132.926 37.793 133.105 38.1836C133.285 38.5579 133.504 38.8509 133.765 39.0625C134.041 39.2578 134.334 39.3962 134.644 39.4775C134.969 39.5426 135.262 39.624 135.522 39.7217C135.799 39.8031 136.027 39.9251 136.206 40.0879C136.385 40.2344 136.475 40.4867 136.475 40.8447C136.475 41.7725 136.239 42.57 135.767 43.2373C135.311 43.8884 134.635 44.4336 133.74 44.8731C132.845 45.2962 131.738 45.6055 130.42 45.8008C129.118 45.9961 127.62 46.0938 125.928 46.0938C124.284 46.0938 122.819 45.9961 121.533 45.8008C120.264 45.6055 119.189 45.2962 118.311 44.8731C117.432 44.4336 116.764 43.8884 116.309 43.2373C115.853 42.57 115.625 41.7725 115.625 40.8447C115.625 40.4867 115.682 40.2344 115.796 40.0879C115.926 39.9251 116.081 39.8031 116.26 39.7217C116.439 39.6403 116.634 39.5671 116.846 39.502C117.057 39.4369 117.253 39.3148 117.432 39.1357C117.611 38.9404 117.757 38.6719 117.871 38.3301C118.001 37.972 118.066 37.4593 118.066 36.792V26.2939C118.066 25.3011 118.001 24.4141 117.871 23.6328C117.757 22.8516 117.562 22.1924 117.285 21.6553C117.008 21.1182 116.634 20.7113 116.162 20.4346C115.706 20.1416 115.129 19.9951 114.429 19.9951C113.354 19.9951 112.573 20.3369 112.085 21.0205C111.613 21.6878 111.377 22.5586 111.377 23.6328V36.499C111.377 37.1989 111.442 37.7441 111.572 38.1348C111.702 38.5254 111.865 38.8265 112.061 39.0381C112.272 39.2334 112.492 39.3717 112.72 39.4531C112.964 39.5345 113.184 39.624 113.379 39.7217C113.59 39.8031 113.761 39.9251 113.892 40.0879C114.022 40.2344 114.087 40.4867 114.087 40.8447C114.087 41.7725 113.9 42.57 113.525 43.2373C113.167 43.8884 112.598 44.4336 111.816 44.8731C111.051 45.2962 110.059 45.6055 108.838 45.8008C107.633 45.9961 106.177 46.0938 104.468 46.0938C102.824 46.0938 101.359 45.9961 100.073 45.8008C98.8037 45.6055 97.7295 45.2962 96.8506 44.8731C95.9717 44.4336 95.3044 43.8884 94.8486 43.2373C94.3929 42.57 94.165 41.7725 94.165 40.8447C94.165 40.4867 94.222 40.2344 94.3359 40.0879C94.4661 39.9251 94.6208 39.8031 94.7998 39.7217C94.9788 39.6403 95.1742 39.5671 95.3857 39.502C95.6136 39.4369 95.8171 39.3148 95.9961 39.1357C96.1751 38.9404 96.3216 38.6719 96.4355 38.3301C96.5658 37.972 96.6309 37.4593 96.6309 36.792V26.2939C96.6309 24.3083 96.3867 22.7702 95.8984 21.6797C95.4264 20.5892 94.5719 20.0439 93.335 20.0439C92.8467 20.0439 92.3828 20.1335 91.9434 20.3125C91.5039 20.4915 91.1133 20.752 90.7715 21.0938C90.4297 21.4193 90.1611 21.8099 89.9658 22.2656C89.7705 22.7214 89.6729 23.2178 89.6729 23.7549V36.6943C89.6729 37.3617 89.738 37.8825 89.8682 38.2568C90.0146 38.6312 90.1937 38.916 90.4053 39.1113C90.6169 39.2904 90.8447 39.4206 91.0889 39.502C91.3493 39.5671 91.5853 39.6403 91.7969 39.7217C92.0085 39.8031 92.1794 39.9251 92.3096 40.0879C92.4561 40.2344 92.5293 40.4867 92.5293 40.8447C92.5293 42.7002 91.6016 44.043 89.7461 44.8731C87.9069 45.6869 85.2539 46.0938 81.7871 46.0938C80.1107 46.0938 78.6133 45.9961 77.2949 45.8008C75.9766 45.6055 74.8617 45.2962 73.9502 44.8731C73.055 44.4336 72.3633 43.8884 71.875 43.2373C71.403 42.57 71.167 41.7725 71.167 40.8447C71.167 40.4867 71.2565 40.2344 71.4355 40.0879C71.6146 39.9251 71.8343 39.8031 72.0947 39.7217C72.3551 39.6403 72.64 39.5671 72.9492 39.502C73.2585 39.4369 73.5433 39.3148 73.8037 39.1357C74.0641 38.9404 74.2839 38.6719 74.4629 38.3301C74.6419 37.972 74.7314 37.4593 74.7314 36.792V23.7549C74.7314 23.1038 74.6419 22.5993 74.4629 22.2412C74.2839 21.8831 74.0641 21.6146 73.8037 21.4355C73.5433 21.2402 73.2585 21.11 72.9492 21.0449C72.64 20.9798 72.3551 20.9066 72.0947 20.8252C71.8343 20.7438 71.6146 20.6299 71.4355 20.4834C71.2565 20.3206 71.167 20.0602 71.167 19.7022C71.167 18.7744 71.403 17.985 71.875 17.334C72.347 16.6667 73.0306 16.1214 73.9258 15.6982C74.8372 15.2588 75.944 14.9414 77.2461 14.7461C78.5482 14.5508 80.0212 14.4531 81.665 14.4531C82.4137 14.4531 83.0892 14.4938 83.6914 14.5752C84.2936 14.6403 84.8226 14.738 85.2783 14.8682C85.7503 14.9821 86.1572 15.1204 86.499 15.2832C86.8408 15.4297 87.1338 15.5843 87.3779 15.7471C87.9476 16.1377 88.3464 16.569 88.5742 17.041C89.3717 16.4388 90.332 15.8936 91.4551 15.4053C92.4154 14.9821 93.5872 14.5996 94.9707 14.2578C96.3542 13.916 97.9736 13.7451 99.8291 13.7451C101.75 13.7451 103.451 14.0218 104.932 14.5752C106.413 15.1123 107.593 15.8366 108.472 16.748Z" fill="white"/>
<path d="M175.854 16.748C176.131 16.569 176.489 16.3167 176.929 15.9912C177.384 15.6494 178.052 15.3158 178.931 14.9902C179.81 14.6484 180.973 14.3555 182.422 14.1113C183.87 13.8672 185.734 13.7451 188.013 13.7451C189.722 13.7451 191.211 13.9486 192.48 14.3555C193.75 14.7624 194.832 15.3158 195.728 16.0156C196.639 16.7155 197.388 17.5456 197.974 18.5059C198.56 19.4499 199.023 20.4753 199.365 21.582C199.707 22.6725 199.943 23.8119 200.073 25C200.203 26.1882 200.269 27.3682 200.269 28.54V28.7842C200.252 30.721 200.236 32.2184 200.22 33.2764C200.22 34.318 200.22 35.083 200.22 35.5713C200.22 36.0596 200.22 36.3525 200.22 36.4502C200.22 36.5316 200.22 36.5723 200.22 36.5723C200.22 37.2559 200.309 37.793 200.488 38.1836C200.667 38.5579 200.887 38.8509 201.147 39.0625C201.424 39.2578 201.717 39.3962 202.026 39.4775C202.352 39.5426 202.645 39.624 202.905 39.7217C203.182 39.8031 203.41 39.9251 203.589 40.0879C203.768 40.2344 203.857 40.4867 203.857 40.8447C203.857 41.7725 203.621 42.57 203.149 43.2373C202.694 43.8884 202.018 44.4336 201.123 44.8731C200.228 45.2962 199.121 45.6055 197.803 45.8008C196.501 45.9961 195.003 46.0938 193.311 46.0938C191.667 46.0938 190.202 45.9961 188.916 45.8008C187.646 45.6055 186.572 45.2962 185.693 44.8731C184.814 44.4336 184.147 43.8884 183.691 43.2373C183.236 42.57 183.008 41.7725 183.008 40.8447C183.008 40.4867 183.065 40.2344 183.179 40.0879C183.309 39.9251 183.464 39.8031 183.643 39.7217C183.822 39.6403 184.017 39.5671 184.229 39.502C184.44 39.4369 184.635 39.3148 184.814 39.1357C184.993 38.9404 185.14 38.6719 185.254 38.3301C185.384 37.972 185.449 37.4593 185.449 36.792V26.2939C185.449 25.3011 185.384 24.4141 185.254 23.6328C185.14 22.8516 184.945 22.1924 184.668 21.6553C184.391 21.1182 184.017 20.7113 183.545 20.4346C183.089 20.1416 182.511 19.9951 181.812 19.9951C180.737 19.9951 179.956 20.3369 179.468 21.0205C178.996 21.6878 178.76 22.5586 178.76 23.6328V36.499C178.76 37.1989 178.825 37.7441 178.955 38.1348C179.085 38.5254 179.248 38.8265 179.443 39.0381C179.655 39.2334 179.875 39.3717 180.103 39.4531C180.347 39.5345 180.566 39.624 180.762 39.7217C180.973 39.8031 181.144 39.9251 181.274 40.0879C181.405 40.2344 181.47 40.4867 181.47 40.8447C181.47 41.7725 181.283 42.57 180.908 43.2373C180.55 43.8884 179.98 44.4336 179.199 44.8731C178.434 45.2962 177.441 45.6055 176.221 45.8008C175.016 45.9961 173.56 46.0938 171.851 46.0938C170.207 46.0938 168.742 45.9961 167.456 45.8008C166.187 45.6055 165.112 45.2962 164.233 44.8731C163.354 44.4336 162.687 43.8884 162.231 43.2373C161.776 42.57 161.548 41.7725 161.548 40.8447C161.548 40.4867 161.605 40.2344 161.719 40.0879C161.849 39.9251 162.004 39.8031 162.183 39.7217C162.362 39.6403 162.557 39.5671 162.769 39.502C162.996 39.4369 163.2 39.3148 163.379 39.1357C163.558 38.9404 163.704 38.6719 163.818 38.3301C163.949 37.972 164.014 37.4593 164.014 36.792V26.2939C164.014 24.3083 163.77 22.7702 163.281 21.6797C162.809 20.5892 161.955 20.0439 160.718 20.0439C160.229 20.0439 159.766 20.1335 159.326 20.3125C158.887 20.4915 158.496 20.752 158.154 21.0938C157.812 21.4193 157.544 21.8099 157.349 22.2656C157.153 22.7214 157.056 23.2178 157.056 23.7549V36.6943C157.056 37.3617 157.121 37.8825 157.251 38.2568C157.397 38.6312 157.576 38.916 157.788 39.1113C158 39.2904 158.228 39.4206 158.472 39.502C158.732 39.5671 158.968 39.6403 159.18 39.7217C159.391 39.8031 159.562 39.9251 159.692 40.0879C159.839 40.2344 159.912 40.4867 159.912 40.8447C159.912 42.7002 158.984 44.043 157.129 44.8731C155.29 45.6869 152.637 46.0938 149.17 46.0938C147.493 46.0938 145.996 45.9961 144.678 45.8008C143.359 45.6055 142.244 45.2962 141.333 44.8731C140.438 44.4336 139.746 43.8884 139.258 43.2373C138.786 42.57 138.55 41.7725 138.55 40.8447C138.55 40.4867 138.639 40.2344 138.818 40.0879C138.997 39.9251 139.217 39.8031 139.478 39.7217C139.738 39.6403 140.023 39.5671 140.332 39.502C140.641 39.4369 140.926 39.3148 141.187 39.1357C141.447 38.9404 141.667 38.6719 141.846 38.3301C142.025 37.972 142.114 37.4593 142.114 36.792V23.7549C142.114 23.1038 142.025 22.5993 141.846 22.2412C141.667 21.8831 141.447 21.6146 141.187 21.4355C140.926 21.2402 140.641 21.11 140.332 21.0449C140.023 20.9798 139.738 20.9066 139.478 20.8252C139.217 20.7438 138.997 20.6299 138.818 20.4834C138.639 20.3206 138.55 20.0602 138.55 19.7022C138.55 18.7744 138.786 17.985 139.258 17.334C139.73 16.6667 140.413 16.1214 141.309 15.6982C142.22 15.2588 143.327 14.9414 144.629 14.7461C145.931 14.5508 147.404 14.4531 149.048 14.4531C149.797 14.4531 150.472 14.4938 151.074 14.5752C151.676 14.6403 152.205 14.738 152.661 14.8682C153.133 14.9821 153.54 15.1204 153.882 15.2832C154.224 15.4297 154.517 15.5843 154.761 15.7471C155.33 16.1377 155.729 16.569 155.957 17.041C156.755 16.4388 157.715 15.8936 158.838 15.4053C159.798 14.9821 160.97 14.5996 162.354 14.2578C163.737 13.916 165.356 13.7451 167.212 13.7451C169.132 13.7451 170.833 14.0218 172.314 14.5752C173.796 15.1123 174.976 15.8366 175.854 16.748Z" fill="white"/>
<path d="M231.934 23.8525C231.934 23.1852 231.844 22.6644 231.665 22.29C231.486 21.9157 231.258 21.639 230.981 21.46C230.721 21.2647 230.436 21.1344 230.127 21.0693C229.818 20.988 229.525 20.9066 229.248 20.8252C228.988 20.7438 228.768 20.6299 228.589 20.4834C228.41 20.3206 228.32 20.0602 228.32 19.7022C228.32 17.8467 229.281 16.512 231.201 15.6982C233.122 14.8682 235.897 14.4531 239.526 14.4531C240.747 14.4531 241.772 14.5671 242.603 14.7949C243.433 15.0228 244.116 15.3402 244.653 15.7471C245.207 16.154 245.63 16.6423 245.923 17.2119C246.232 17.7816 246.452 18.4163 246.582 19.1162C246.729 19.7998 246.81 20.5322 246.826 21.3135C246.859 22.0947 246.875 22.9085 246.875 23.7549V36.8408C246.875 37.4919 246.956 37.9964 247.119 38.3545C247.298 38.7126 247.518 38.9893 247.778 39.1846C248.055 39.3636 248.34 39.4857 248.633 39.5508C248.942 39.6159 249.227 39.6891 249.487 39.7705C249.764 39.8519 249.984 39.974 250.146 40.1367C250.326 40.2832 250.415 40.5355 250.415 40.8936C250.415 42.749 249.471 44.0918 247.583 44.9219C245.711 45.7357 243.026 46.1426 239.526 46.1426C238.664 46.1426 237.899 46.0775 237.231 45.9473C236.564 45.8171 235.978 45.6462 235.474 45.4346C234.985 45.223 234.562 44.987 234.204 44.7266C233.846 44.4499 233.545 44.165 233.301 43.8721C232.731 43.221 232.373 42.4642 232.227 41.6016C231.38 42.5619 230.379 43.4163 229.224 44.165C228.735 44.4906 228.182 44.8079 227.563 45.1172C226.945 45.4102 226.27 45.6787 225.537 45.9229C224.805 46.1507 224.007 46.3379 223.145 46.4844C222.298 46.6309 221.395 46.7041 220.435 46.7041C218.644 46.7041 217.098 46.4844 215.796 46.0449C214.494 45.5892 213.387 44.987 212.476 44.2383C211.58 43.4896 210.856 42.6188 210.303 41.626C209.749 40.6331 209.318 39.5915 209.009 38.501C208.7 37.4105 208.488 36.3119 208.374 35.2051C208.276 34.082 208.228 33.016 208.228 32.0068V23.9746C208.228 23.291 208.138 22.762 207.959 22.3877C207.78 21.9971 207.552 21.7041 207.275 21.5088C206.999 21.2972 206.706 21.1589 206.396 21.0938C206.087 21.0124 205.794 20.931 205.518 20.8496C205.241 20.752 205.013 20.6299 204.834 20.4834C204.655 20.3206 204.565 20.0602 204.565 19.7022C204.565 17.8467 205.526 16.512 207.446 15.6982C209.367 14.8682 212.142 14.4531 215.771 14.4531C217.383 14.4531 218.669 14.6484 219.629 15.0391C220.589 15.4297 221.322 15.9668 221.826 16.6504C222.331 17.3177 222.656 18.1152 222.803 19.043C222.949 19.9707 223.022 20.9717 223.022 22.0459V34.1064C223.022 35.1156 223.096 36.0189 223.242 36.8164C223.405 37.5977 223.665 38.265 224.023 38.8184C224.398 39.3717 224.886 39.7949 225.488 40.0879C226.09 40.3646 226.839 40.5029 227.734 40.5029C228.304 40.5029 228.841 40.4134 229.346 40.2344C229.85 40.0553 230.29 39.8031 230.664 39.4775C231.038 39.152 231.331 38.7695 231.543 38.3301C231.771 37.8744 231.885 37.3779 231.885 36.8408L231.934 23.8525Z" fill="white"/>
<path d="M271.069 36.6943C271.069 37.3617 271.159 37.8825 271.338 38.2568C271.517 38.6312 271.737 38.916 271.997 39.1113C272.274 39.2904 272.567 39.4206 272.876 39.502C273.185 39.5671 273.47 39.6403 273.73 39.7217C274.007 39.8031 274.235 39.9251 274.414 40.0879C274.593 40.2344 274.683 40.4867 274.683 40.8447C274.683 42.7002 273.722 44.043 271.802 44.8731C269.881 45.6869 267.106 46.0938 263.477 46.0938C261.719 46.0938 260.164 45.9961 258.813 45.8008C257.463 45.6055 256.323 45.2962 255.396 44.8731C254.468 44.4336 253.76 43.8884 253.271 43.2373C252.799 42.57 252.563 41.7725 252.563 40.8447C252.563 40.4867 252.653 40.2344 252.832 40.0879C253.011 39.9251 253.231 39.8031 253.491 39.7217C253.752 39.6403 254.036 39.5671 254.346 39.502C254.655 39.4369 254.94 39.3148 255.2 39.1357C255.461 38.9404 255.68 38.6719 255.859 38.3301C256.038 37.972 256.128 37.4593 256.128 36.792V23.7549C256.128 23.1038 256.038 22.5993 255.859 22.2412C255.68 21.8831 255.461 21.6146 255.2 21.4355C254.94 21.2402 254.655 21.11 254.346 21.0449C254.036 20.9798 253.752 20.9066 253.491 20.8252C253.231 20.7438 253.011 20.6299 252.832 20.4834C252.653 20.3206 252.563 20.0602 252.563 19.7022C252.563 18.7744 252.799 17.985 253.271 17.334C253.76 16.6667 254.468 16.1214 255.396 15.6982C256.323 15.2588 257.463 14.9414 258.813 14.7461C260.164 14.5508 261.719 14.4531 263.477 14.4531C265.072 14.4531 266.341 14.5915 267.285 14.8682C268.229 15.1286 268.962 15.4216 269.482 15.7471C270.085 16.1377 270.5 16.569 270.728 17.041C271.574 16.4388 272.583 15.8936 273.755 15.4053C274.764 14.9821 275.993 14.5996 277.441 14.2578C278.906 13.916 280.615 13.7451 282.568 13.7451C284.359 13.7451 285.897 13.973 287.183 14.4287C288.485 14.8682 289.583 15.4704 290.479 16.2354C291.39 16.9841 292.122 17.863 292.676 18.8721C293.229 19.8649 293.652 20.9066 293.945 21.9971C294.255 23.0876 294.458 24.1943 294.556 25.3174C294.67 26.4242 294.727 27.4821 294.727 28.4912V36.5723C294.727 37.2559 294.816 37.793 294.995 38.1836C295.174 38.5579 295.402 38.8509 295.679 39.0625C295.955 39.2578 296.248 39.3962 296.558 39.4775C296.883 39.5426 297.184 39.624 297.461 39.7217C297.738 39.8031 297.965 39.9251 298.145 40.0879C298.324 40.2344 298.413 40.4867 298.413 40.8447C298.413 42.7002 297.453 44.043 295.532 44.8731C293.628 45.6869 290.861 46.0938 287.231 46.0938C285.474 46.0938 283.919 45.9961 282.568 45.8008C281.217 45.6055 280.078 45.2962 279.15 44.8731C278.223 44.4336 277.515 43.8884 277.026 43.2373C276.554 42.57 276.318 41.7725 276.318 40.8447C276.318 40.4867 276.408 40.2344 276.587 40.0879C276.766 39.9251 276.994 39.8031 277.271 39.7217C277.547 39.6403 277.84 39.5671 278.149 39.502C278.459 39.4369 278.752 39.3148 279.028 39.1357C279.305 38.9404 279.533 38.6719 279.712 38.3301C279.891 37.972 279.98 37.4593 279.98 36.792V26.3672C279.98 25.3581 279.899 24.4629 279.736 23.6816C279.59 22.8841 279.329 22.2168 278.955 21.6797C278.597 21.1263 278.117 20.7113 277.515 20.4346C276.912 20.1416 276.164 19.9951 275.269 19.9951C274.699 19.9951 274.162 20.0928 273.657 20.2881C273.153 20.4671 272.713 20.7275 272.339 21.0693C271.965 21.3949 271.663 21.7936 271.436 22.2656C271.224 22.7214 271.118 23.2178 271.118 23.7549L271.069 36.6943Z" fill="white"/>
<path d="M304.028 6.05469C304.028 5.24089 304.167 4.53288 304.443 3.93066C304.736 3.31217 305.103 2.7832 305.542 2.34375C305.998 1.88802 306.51 1.51367 307.08 1.2207C307.666 0.911458 308.252 0.667318 308.838 0.488281C309.424 0.309245 309.985 0.187174 310.522 0.12207C311.076 0.0406901 311.556 0 311.963 0C312.402 0 312.899 0.0406901 313.452 0.12207C314.022 0.187174 314.6 0.309245 315.186 0.488281C315.771 0.667318 316.349 0.911458 316.919 1.2207C317.489 1.51367 317.993 1.88802 318.433 2.34375C318.888 2.7832 319.246 3.31217 319.507 3.93066C319.784 4.53288 319.922 5.24089 319.922 6.05469C319.922 6.85221 319.784 7.56022 319.507 8.17871C319.246 8.7972 318.888 9.32617 318.433 9.76563C317.993 10.2051 317.489 10.5794 316.919 10.8887C316.349 11.1816 315.771 11.4176 315.186 11.5967C314.6 11.7757 314.022 11.9059 313.452 11.9873C312.899 12.0524 312.402 12.085 311.963 12.085C311.556 12.085 311.076 12.0524 310.522 11.9873C309.985 11.9059 309.424 11.7757 308.838 11.5967C308.252 11.4176 307.666 11.1816 307.08 10.8887C306.51 10.5794 305.998 10.2051 305.542 9.76563C305.103 9.32617 304.736 8.80534 304.443 8.20313C304.167 7.58464 304.028 6.86849 304.028 6.05469ZM319.165 36.792C319.165 37.443 319.255 37.9476 319.434 38.3057C319.613 38.6637 319.832 38.9404 320.093 39.1357C320.369 39.3148 320.662 39.4369 320.972 39.502C321.281 39.5671 321.566 39.6403 321.826 39.7217C322.103 39.8031 322.331 39.9251 322.51 40.0879C322.689 40.2344 322.778 40.4867 322.778 40.8447C322.778 42.7002 321.818 44.043 319.897 44.8731C317.977 45.6869 315.202 46.0938 311.572 46.0938C309.814 46.0938 308.26 45.9961 306.909 45.8008C305.558 45.6055 304.419 45.2962 303.491 44.8731C302.563 44.4336 301.855 43.8884 301.367 43.2373C300.895 42.57 300.659 41.7725 300.659 40.8447C300.659 40.4867 300.749 40.2344 300.928 40.0879C301.107 39.9251 301.327 39.8031 301.587 39.7217C301.847 39.6403 302.132 39.5671 302.441 39.502C302.751 39.4369 303.035 39.3148 303.296 39.1357C303.556 38.9404 303.776 38.6719 303.955 38.3301C304.134 37.972 304.224 37.4593 304.224 36.792V23.7549C304.224 23.1038 304.134 22.5993 303.955 22.2412C303.776 21.8831 303.556 21.6146 303.296 21.4355C303.035 21.2402 302.751 21.11 302.441 21.0449C302.132 20.9798 301.847 20.9066 301.587 20.8252C301.327 20.7438 301.107 20.6299 300.928 20.4834C300.749 20.3206 300.659 20.0602 300.659 19.7022C300.659 18.7744 300.895 17.985 301.367 17.334C301.855 16.6667 302.563 16.1214 303.491 15.6982C304.419 15.2588 305.558 14.9414 306.909 14.7461C308.26 14.5508 309.814 14.4531 311.572 14.4531C313.33 14.4531 314.714 14.5426 315.723 14.7217C316.732 14.9007 317.489 15.21 317.993 15.6494C318.514 16.0726 318.84 16.6504 318.97 17.3828C319.1 18.1152 319.165 19.0348 319.165 20.1416V36.792Z" fill="white"/>
<path d="M342.334 33.9356C342.334 34.4727 342.35 34.9935 342.383 35.4981C342.415 35.9863 342.513 36.4258 342.676 36.8164C342.839 37.207 343.091 37.5163 343.433 37.7441C343.774 37.972 344.246 38.0859 344.849 38.0859C345.695 38.0859 346.427 37.9801 347.046 37.7686C347.681 37.5407 348.332 37.2477 348.999 36.8897C349.259 36.7432 349.504 36.6699 349.731 36.6699C350.106 36.6699 350.399 36.8327 350.61 37.1582C350.838 37.4837 350.952 37.8499 350.952 38.2568C350.952 38.5335 350.911 38.7614 350.83 38.9404C350.358 40.1449 349.748 41.2272 348.999 42.1875C348.267 43.1478 347.412 43.9616 346.436 44.6289C345.475 45.2962 344.417 45.8089 343.262 46.167C342.106 46.5251 340.869 46.7041 339.551 46.7041C337.728 46.7041 336.165 46.4762 334.863 46.0205C333.561 45.5485 332.463 44.93 331.567 44.165C330.672 43.3838 329.956 42.4886 329.419 41.4795C328.882 40.4541 328.467 39.388 328.174 38.2813C327.897 37.1582 327.71 36.0352 327.612 34.9121C327.531 33.7728 327.49 32.6986 327.49 31.6895V19.3359H326.294C325.692 19.3359 325.22 19.165 324.878 18.8232C324.536 18.4652 324.365 18.0745 324.365 17.6514C324.365 17.1468 324.593 16.7236 325.049 16.3818C326.953 15.0147 328.695 13.6963 330.273 12.4268C331.852 11.141 333.211 9.99349 334.351 8.98438C335.685 7.8125 336.882 6.71387 337.939 5.68848C338.363 5.2653 338.794 4.95606 339.233 4.76074C339.673 4.54915 340.096 4.44336 340.503 4.44336C341.007 4.44336 341.431 4.61426 341.772 4.95606C342.114 5.29785 342.285 5.82682 342.285 6.54297V14.4531H348.242C348.438 14.4531 348.665 14.4694 348.926 14.502C349.202 14.5182 349.463 14.5996 349.707 14.7461C349.951 14.8926 350.155 15.1286 350.317 15.4541C350.496 15.7633 350.586 16.2109 350.586 16.7969C350.586 17.4316 350.505 17.9199 350.342 18.2617C350.179 18.6035 349.976 18.8558 349.731 19.0186C349.487 19.1813 349.227 19.279 348.95 19.3115C348.69 19.3278 348.454 19.3359 348.242 19.3359H342.285L342.334 33.9356Z" fill="white"/>
<path d="M356.079 6.05469C356.079 5.24089 356.217 4.53288 356.494 3.93066C356.787 3.31217 357.153 2.7832 357.593 2.34375C358.048 1.88802 358.561 1.51367 359.131 1.2207C359.717 0.911458 360.303 0.667318 360.889 0.488281C361.475 0.309245 362.036 0.187174 362.573 0.12207C363.127 0.0406901 363.607 0 364.014 0C364.453 0 364.95 0.0406901 365.503 0.12207C366.073 0.187174 366.65 0.309245 367.236 0.488281C367.822 0.667318 368.4 0.911458 368.97 1.2207C369.539 1.51367 370.044 1.88802 370.483 2.34375C370.939 2.7832 371.297 3.31217 371.558 3.93066C371.834 4.53288 371.973 5.24089 371.973 6.05469C371.973 6.85221 371.834 7.56022 371.558 8.17871C371.297 8.7972 370.939 9.32617 370.483 9.76563C370.044 10.2051 369.539 10.5794 368.97 10.8887C368.4 11.1816 367.822 11.4176 367.236 11.5967C366.65 11.7757 366.073 11.9059 365.503 11.9873C364.95 12.0524 364.453 12.085 364.014 12.085C363.607 12.085 363.127 12.0524 362.573 11.9873C362.036 11.9059 361.475 11.7757 360.889 11.5967C360.303 11.4176 359.717 11.1816 359.131 10.8887C358.561 10.5794 358.048 10.2051 357.593 9.76563C357.153 9.32617 356.787 8.80534 356.494 8.20313C356.217 7.58464 356.079 6.86849 356.079 6.05469ZM371.216 36.792C371.216 37.443 371.305 37.9476 371.484 38.3057C371.663 38.6637 371.883 38.9404 372.144 39.1357C372.42 39.3148 372.713 39.4369 373.022 39.502C373.332 39.5671 373.617 39.6403 373.877 39.7217C374.154 39.8031 374.382 39.9251 374.561 40.0879C374.74 40.2344 374.829 40.4867 374.829 40.8447C374.829 42.7002 373.869 44.043 371.948 44.8731C370.028 45.6869 367.253 46.0938 363.623 46.0938C361.865 46.0938 360.311 45.9961 358.96 45.8008C357.609 45.6055 356.47 45.2962 355.542 44.8731C354.614 44.4336 353.906 43.8884 353.418 43.2373C352.946 42.57 352.71 41.7725 352.71 40.8447C352.71 40.4867 352.799 40.2344 352.979 40.0879C353.158 39.9251 353.377 39.8031 353.638 39.7217C353.898 39.6403 354.183 39.5671 354.492 39.502C354.801 39.4369 355.086 39.3148 355.347 39.1357C355.607 38.9404 355.827 38.6719 356.006 38.3301C356.185 37.972 356.274 37.4593 356.274 36.792V23.7549C356.274 23.1038 356.185 22.5993 356.006 22.2412C355.827 21.8831 355.607 21.6146 355.347 21.4355C355.086 21.2402 354.801 21.11 354.492 21.0449C354.183 20.9798 353.898 20.9066 353.638 20.8252C353.377 20.7438 353.158 20.6299 352.979 20.4834C352.799 20.3206 352.71 20.0602 352.71 19.7022C352.71 18.7744 352.946 17.985 353.418 17.334C353.906 16.6667 354.614 16.1214 355.542 15.6982C356.47 15.2588 357.609 14.9414 358.96 14.7461C360.311 14.5508 361.865 14.4531 363.623 14.4531C365.381 14.4531 366.764 14.5426 367.773 14.7217C368.783 14.9007 369.539 15.21 370.044 15.6494C370.565 16.0726 370.89 16.6504 371.021 17.3828C371.151 18.1152 371.216 19.0348 371.216 20.1416V36.792Z" fill="white"/>
<path d="M51.2097 47.6059C62.3438 47.6059 71.371 39.7077 71.371 29.9647C71.371 20.2218 62.3438 12.3236 51.2097 12.3236C40.0756 12.3236 31.0484 20.2218 31.0484 29.9647C31.0484 34.4002 32.9209 38.4577 36.0131 41.5575C35.7686 44.118 34.9622 46.9254 34.0701 49.0323C33.871 49.501 34.2566 50.0252 34.7581 49.9446C40.4436 49.0121 43.8231 47.5807 45.2923 46.8347C47.2226 47.3495 49.212 47.6088 51.2097 47.6059Z" fill="#0099FF"/>
</svg>
