<svg width="64" height="64" viewBox="0 0 64 64" fill="none" xmlns="http://www.w3.org/2000/svg">
<rect width="64" height="64" fill="#D9D9D9"/>
<path d="M52.2584 30.0499H32.3901V35.9649H46.4951C45.7801 44.2199 38.9118 47.7516 32.4118 47.7516C24.1134 47.7516 16.8334 41.2083 16.8334 31.9999C16.8334 23.1166 23.7668 16.2483 32.4334 16.2483C39.1284 16.2483 43.0501 20.5166 43.0501 20.5166L47.1668 16.2266C47.1668 16.2266 41.8801 10.3333 32.2168 10.3333C19.9101 10.3333 10.3984 20.7333 10.3984 31.9999C10.3984 42.9416 19.3468 53.6666 32.5418 53.6666C44.1334 53.6666 52.5834 45.7149 52.5834 33.9716C52.5834 31.4799 52.2584 30.0499 52.2584 30.0499Z" fill="black"/>
</svg>
