<svg width="62" height="62" viewBox="0 0 62 62" fill="none" xmlns="http://www.w3.org/2000/svg">
<g id="mdi:instagram">
<path id="Vector" d="M21.08 6H42.92C51.24 6 58 12.76 58 21.08V42.92C58 46.9195 56.4112 50.7551 53.5832 53.5832C50.7551 56.4112 46.9195 58 42.92 58H21.08C12.76 58 6 51.24 6 42.92V21.08C6 17.0805 7.58878 13.2449 10.4168 10.4168C13.2449 7.58878 17.0805 6 21.08 6ZM20.56 11.2C18.0776 11.2 15.6968 12.1861 13.9415 13.9415C12.1861 15.6968 11.2 18.0776 11.2 20.56V43.44C11.2 48.614 15.386 52.8 20.56 52.8H43.44C45.9224 52.8 48.3032 51.8139 50.0585 50.0585C51.8139 48.3032 52.8 45.9224 52.8 43.44V20.56C52.8 15.386 48.614 11.2 43.44 11.2H20.56ZM45.65 15.1C46.512 15.1 47.3386 15.4424 47.9481 16.0519C48.5576 16.6614 48.9 17.488 48.9 18.35C48.9 19.212 48.5576 20.0386 47.9481 20.6481C47.3386 21.2576 46.512 21.6 45.65 21.6C44.788 21.6 43.9614 21.2576 43.3519 20.6481C42.7424 20.0386 42.4 19.212 42.4 18.35C42.4 17.488 42.7424 16.6614 43.3519 16.0519C43.9614 15.4424 44.788 15.1 45.65 15.1ZM32 19C35.4478 19 38.7544 20.3696 41.1924 22.8076C43.6304 25.2456 45 28.5522 45 32C45 35.4478 43.6304 38.7544 41.1924 41.1924C38.7544 43.6304 35.4478 45 32 45C28.5522 45 25.2456 43.6304 22.8076 41.1924C20.3696 38.7544 19 35.4478 19 32C19 28.5522 20.3696 25.2456 22.8076 22.8076C25.2456 20.3696 28.5522 19 32 19ZM32 24.2C29.9313 24.2 27.9473 25.0218 26.4846 26.4846C25.0218 27.9473 24.2 29.9313 24.2 32C24.2 34.0687 25.0218 36.0526 26.4846 37.5154C27.9473 38.9782 29.9313 39.8 32 39.8C34.0687 39.8 36.0526 38.9782 37.5154 37.5154C38.9782 36.0526 39.8 34.0687 39.8 32C39.8 29.9313 38.9782 27.9473 37.5154 26.4846C36.0526 25.0218 34.0687 24.2 32 24.2Z" fill="black"/>
</g>
</svg>
