<svg width="25" height="24" viewBox="0 0 25 24" fill="none" xmlns="http://www.w3.org/2000/svg">
<path d="M0.322754 1.719C0.322754 0.7695 1.11175 0 2.08525 0H22.5603C23.5338 0 24.3228 0.7695 24.3228 1.719V22.281C24.3228 23.2305 23.5338 24 22.5603 24H2.08525C1.11175 24 0.322754 23.2305 0.322754 22.281V1.719ZM7.73725 20.091V9.2535H4.13575V20.091H7.73725ZM5.93725 7.773C7.19275 7.773 7.97425 6.942 7.97425 5.901C7.95175 4.8375 7.19425 4.029 5.96125 4.029C4.72825 4.029 3.92275 4.839 3.92275 5.901C3.92275 6.942 4.70425 7.773 5.91325 7.773H5.93725ZM13.2993 20.091V14.0385C13.2993 13.7145 13.3233 13.3905 13.4193 13.1595C13.6788 12.513 14.2713 11.8425 15.2673 11.8425C16.5708 11.8425 17.0913 12.8355 17.0913 14.2935V20.091H20.6928V13.875C20.6928 10.545 18.9168 8.997 16.5468 8.997C14.6358 8.997 13.7793 10.047 13.2993 10.7865V10.824H13.2753L13.2993 10.7865V9.2535H9.69925C9.74425 10.2705 9.69925 20.091 9.69925 20.091H13.2993Z" fill="white"/>
</svg>
