<svg width="62" height="62" viewBox="0 0 62 62" fill="none" xmlns="http://www.w3.org/2000/svg">
<g id="mdi:linkedin">
<path id="Vector" d="M52.2222 6C53.7546 6 55.2242 6.60873 56.3077 7.69227C57.3913 8.77582 58 10.2454 58 11.7778V52.2222C58 53.7546 57.3913 55.2242 56.3077 56.3077C55.2242 57.3913 53.7546 58 52.2222 58H11.7778C10.2454 58 8.77582 57.3913 7.69227 56.3077C6.60873 55.2242 6 53.7546 6 52.2222V11.7778C6 10.2454 6.60873 8.77582 7.69227 7.69227C8.77582 6.60873 10.2454 6 11.7778 6H52.2222ZM50.7778 50.7778V35.4667C50.7778 32.9689 49.7855 30.5735 48.0194 28.8073C46.2532 27.0411 43.8577 26.0489 41.36 26.0489C38.9044 26.0489 36.0444 27.5511 34.6578 29.8044V26.5978H26.5978V50.7778H34.6578V36.5356C34.6578 34.3111 36.4489 32.4911 38.6733 32.4911C39.746 32.4911 40.7747 32.9172 41.5332 33.6757C42.2917 34.4342 42.7178 35.4629 42.7178 36.5356V50.7778H50.7778ZM17.2089 22.0622C18.4961 22.0622 19.7305 21.5509 20.6407 20.6407C21.5509 19.7305 22.0622 18.4961 22.0622 17.2089C22.0622 14.5222 19.8956 12.3267 17.2089 12.3267C15.914 12.3267 14.6722 12.841 13.7566 13.7566C12.841 14.6722 12.3267 15.914 12.3267 17.2089C12.3267 19.8956 14.5222 22.0622 17.2089 22.0622ZM21.2244 50.7778V26.5978H13.2222V50.7778H21.2244Z" fill="black"/>
</g>
</svg>
