<svg width="43" height="41" viewBox="0 0 43 41" fill="none" xmlns="http://www.w3.org/2000/svg">
<path d="M6.65443 39.2551L6.65788 39.2545C11.6483 38.4356 14.8116 37.2069 16.4328 36.4324C18.2 36.8683 20.0142 37.0876 21.8353 37.0849C32.7019 37.0841 41.7734 29.3412 41.7734 19.488C41.7734 9.63421 32.701 1.89103 21.8337 1.89103C10.9664 1.89103 1.89396 9.63421 1.89396 19.488C1.89396 23.7721 3.62834 27.6849 6.47734 30.7161C6.21091 32.8373 5.54057 35.1186 4.80315 36.8611C4.30208 38.0438 5.24786 39.4814 6.65443 39.2551Z" fill="white" stroke="white" stroke-width="2.23943"/>
<path d="M21.8114 35.9234C32.2001 35.9234 40.6229 28.5532 40.6229 19.4617C40.6229 10.3701 32.2001 3 21.8114 3C11.4228 3 3 10.3701 3 19.4617C3 23.6006 4.74711 27.3868 7.63232 30.2794C7.40423 32.6687 6.65177 35.2884 5.81936 37.2544C5.6336 37.6918 5.99337 38.181 6.4613 38.1057C11.7661 37.2356 14.9194 35.8998 16.2903 35.2038C18.0913 35.6841 19.9475 35.9261 21.8114 35.9234Z" fill="#0099FF"/>
</svg>
